<svg width="232" height="84" fill="none" xmlns="http://www.w3.org/2000/svg">
  <path d="M28.3 63V17h-7.2v27.4L10.3 17H4V63H11V35.7L21.9 63h6.4zM62 63L50.8 17h-7L32.5 63h7.6l1.8-9.1h10.7l1.9 9.1H62zM51.2 47.4h-7.8l3.9-19.2 4 19.2zm34.3-23.8V17H66.3V63h7.2V43.1h10.4v-6.5H73.5v-13h12zM165.8 63v-6.5h-12V17h-7.2V63h19.3zm27-12.3V38H181v6h4.5V51c0 3.2-1.3 5.9-4.5 5.9-1.7 0-2.7-.7-3.4-1.7-1.4-2.2-1.6-6.9-1.6-15.3s.2-13 1.6-15.2c.7-1 1.7-1.7 3.4-1.7 4 0 4.5 3.6 4.5 6.2h7.3c-.2-4-1.3-7.3-3.6-9.7-2-1.9-4.6-3-8.2-3-4.2 0-7 1.6-8.9 3.9-3 3.6-3.3 8.6-3.3 19.5 0 11 .3 16 3.3 19.6 1.9 2.2 4.7 4 9 4 6.8 0 11.7-4.5 11.7-12.9zM218.7 63v-6.5h-12.1V43H217v-6.5h-10.4v-13h12V17h-19.2V63h19.3z" fill="#000"/>
  <circle cx="114.4" cy="39.8" r="21" stroke="#9BD100" stroke-width="7.1"/>
  <rect x="115.5" y="27.2" width="8.7" height="8.7" rx="1.2" fill="#C40000"/>
  <rect x="115.5" y="42.5" width="8.7" height="8.7" rx="1.4" fill="#C40000"/>
  <rect x="103.5" y="34.9" width="8.7" height="8.7" rx="1.4" fill="#C40000"/>
</svg>
