<svg width="326" height="117" fill="none" xmlns="http://www.w3.org/2000/svg">
  <path d="M39.8 88V23.4H29.6v38.4l-15-38.4H5.3V88h10.2V49.6L30.8 88h9zm47.3 0L71.4 23.4h-9.8L45.7 88h10.7l2.5-12.8h15L76.5 88h10.6zM72 66H61l5.5-27L72 66zm48.2-33.4v-9.2H93.1V88h10.1V60h14.6v-9h-14.6V32.5h17zM233 88v-9.2h-17V23.4h-10V88h27zM271 70.8V52.9h-16.5v8.4h6.3v10c0 4.5-1.9 8.3-6.3 8.3-2.5 0-4-1-4.8-2.5-2-3-2.3-9.6-2.3-21.4 0-11.8.3-18.3 2.3-21.4.9-1.4 2.3-2.4 4.8-2.4 5.5 0 6.2 5.1 6.3 8.7H271a19.9 19.9 0 00-5-13.5 15.7 15.7 0 00-11.5-4.4c-6 0-9.9 2.4-12.5 5.5-4.3 5.1-4.7 12.2-4.7 27.5s.4 22.4 4.7 27.5c2.6 3.2 6.5 5.5 12.5 5.5 9.7 0 16.5-6.1 16.5-18zM307.2 88v-9.2h-17V60.1H305v-9.2h-14.6V32.6h17v-9.2H280V88h27.1z" fill="#fff"/>
  <circle cx="160.7" cy="55.9" r="29.5" stroke="#9BD100" stroke-width="9.9"/>
  <rect x="162.2" y="38.3" width="12.2" height="12.2" rx="1.7" fill="#C40000"/>
  <rect x="162.2" y="59.7" width="12.2" height="12.2" rx="2" fill="#C40000"/>
  <rect x="145.4" y="49" width="12.2" height="12.2" rx="2" fill="#C40000"/>
</svg>
