<?xml version="1.0" encoding="utf-8"?><svg xmlns="http://www.w3.org/2000/svg" xmlns:xlink="http://www.w3.org/1999/xlink"><symbol viewBox="0 0 40 40" id="inst" xmlns="http://www.w3.org/2000/svg"><path d="M20 0c-5.437 0-6.114.026-8.242.116-2.136.105-3.58.436-4.856.932a9.809 9.809 0 00-3.541 2.31A9.696 9.696 0 001.05 6.9C.555 8.175.223 9.62.118 11.756c-.096 2.129-.116 2.805-.116 8.241 0 5.437.026 6.114.116 8.242.105 2.13.437 3.581.932 4.856a9.808 9.808 0 002.31 3.541 9.696 9.696 0 003.542 2.311c1.275.49 2.726.827 4.856.932 2.13.096 2.805.116 8.242.116 5.436 0 6.113-.026 8.24-.116 2.13-.105 3.582-.444 4.857-.931a9.808 9.808 0 003.541-2.312 9.645 9.645 0 002.312-3.541c.488-1.275.826-2.726.93-4.856.097-2.129.117-2.805.117-8.242 0-5.436-.026-6.113-.116-8.24-.105-2.13-.444-3.59-.931-4.857a9.808 9.808 0 00-2.312-3.541 9.645 9.645 0 00-3.54-2.312C31.821.553 30.37.221 28.24.117 26.112.02 25.436 0 20 0zm0 3.6c5.338 0 5.976.026 8.086.116 1.946.091 3.006.417 3.71.691.87.322 1.657.833 2.305 1.497a6.163 6.163 0 011.49 2.299c.275.703.6 1.763.691 3.71.09 2.11.116 2.748.116 8.086 0 5.337-.026 5.976-.123 8.086-.105 1.946-.43 3.006-.704 3.71-.379.939-.801 1.595-1.499 2.305a6.31 6.31 0 01-2.305 1.49c-.695.275-1.77.6-3.724.691-2.12.09-2.746.117-8.098.117-5.353 0-5.977-.027-8.1-.124-1.947-.105-3.02-.43-3.724-.704-.95-.379-1.601-.801-2.299-1.499-.704-.703-1.151-1.373-1.496-2.305-.28-.695-.6-1.77-.704-3.723-.071-2.097-.105-2.747-.105-8.074 0-5.325.034-5.977.105-8.099.104-1.954.424-3.026.704-3.724.345-.951.794-1.601 1.496-2.305.696-.696 1.349-1.146 2.299-1.498.704-.274 1.751-.6 3.705-.697 2.121-.076 2.746-.103 8.091-.103L20 3.6zm0 6.134A10.263 10.263 0 009.733 20 10.262 10.262 0 0020 30.266a10.263 10.263 0 009.485-14.195A10.263 10.263 0 0020 9.734zm0 16.932A6.662 6.662 0 0113.333 20 6.662 6.662 0 0120 13.334 6.662 6.662 0 0126.666 20 6.662 6.662 0 0120 26.666zM33.08 9.324a2.403 2.403 0 01-4.1 1.698 2.397 2.397 0 01.778-3.912 2.405 2.405 0 013.322 2.214z"/></symbol><symbol viewBox="0 0 40 40" id="tel" xmlns="http://www.w3.org/2000/svg"><path fill-rule="evenodd" clip-rule="evenodd" d="M40 20c0 11.045-8.955 20-20 20S0 31.045 0 20 8.955 0 20 0s20 8.955 20 20zm-19.283-5.235c-1.945.808-5.834 2.483-11.664 5.023-.946.377-1.443.745-1.488 1.105-.077.61.687.85 1.723 1.175.142.045.289.09.439.14 1.021.332 2.395.72 3.108.735.648.014 1.372-.253 2.17-.8 5.447-3.678 8.258-5.536 8.435-5.576.125-.029.298-.065.415.04.117.103.105.3.093.353-.076.322-3.066 3.103-4.616 4.543a47.2 47.2 0 00-.895.84 20.42 20.42 0 01-.47.465c-.95.914-1.66 1.6.04 2.72.816.539 1.47.984 2.121 1.427.712.485 1.422.968 2.342 1.572.233.153.457.311.675.466.828.592 1.573 1.122 2.493 1.039.534-.05 1.087-.552 1.367-2.05.662-3.544 1.965-11.217 2.267-14.38a3.522 3.522 0 00-.034-.787.843.843 0 00-.286-.542c-.239-.195-.609-.236-.775-.233-.752.013-1.905.415-7.46 2.725z"/></symbol><symbol viewBox="0 0 33 33" id="tiktok" xmlns="http://www.w3.org/2000/svg"><g clip-path="url(#cclip0)"><path d="M17.6.4h5.2c.1 2 .9 4.2 2.4 5.6a9.5 9.5 0 005.7 2.4v5.4a14.4 14.4 0 01-7.8-2.5V23c-.2 2-.8 3.8-1.9 5.3a10 10 0 01-8 4.3c-1.8.1-3.8-.4-5.4-1.3a10.1 10.1 0 01-1.5-16.4 10 10 0 018.3-2.3v6a4.7 4.7 0 00-4.1.5c-.8.5-1.5 1.4-1.8 2.3-.3.7-.2 1.5-.2 2.2.3 2.2 2.4 4 4.7 3.8 1.5 0 3-.8 3.7-2.1l.6-1.4V.4z" fill-opacity=".6"/></g><defs><clipPath id="cclip0"><path transform="translate(.8 .4)" d="M0 0h32.3v32.3H0z"/></clipPath></defs></symbol><symbol viewBox="0 0 40 40" id="vk" xmlns="http://www.w3.org/2000/svg"><path d="M20 .8C9.396.8.8 9.396.8 20S9.396 39.2 20 39.2 39.2 30.604 39.2 20 30.604.8 20 .8zm7.384 21.662s1.698 1.676 2.116 2.454c.012.016.018.032.022.04.17.286.21.508.126.674-.14.276-.62.412-.784.424h-3c-.208 0-.644-.054-1.172-.418-.406-.284-.806-.75-1.196-1.204-.582-.676-1.086-1.26-1.594-1.26a.61.61 0 00-.19.03c-.384.124-.876.672-.876 2.132 0 .456-.36.718-.614.718h-1.374c-.468 0-2.906-.164-5.066-2.442-2.644-2.79-5.024-8.386-5.044-8.438-.15-.362.16-.556.498-.556h3.03c.404 0 .536.246.628.464.108.254.504 1.264 1.154 2.4 1.054 1.852 1.7 2.604 2.218 2.604a.601.601 0 00.278-.072c.676-.376.55-2.786.52-3.286 0-.094-.002-1.078-.348-1.55-.248-.342-.67-.472-.926-.52a1.1 1.1 0 01.398-.338c.464-.232 1.3-.266 2.13-.266h.462c.9.012 1.132.07 1.458.152.66.158.674.584.616 2.042-.018.414-.036.882-.036 1.434 0 .12-.006.248-.006.384-.02.742-.044 1.584.48 1.93a.432.432 0 00.228.066c.182 0 .73 0 2.214-2.546.458-.82.855-1.671 1.19-2.548.03-.052.118-.212.222-.274a.532.532 0 01.248-.058h3.562c.388 0 .654.058.704.208.088.238-.016.964-1.642 3.166l-.726.958c-1.474 1.932-1.474 2.03.092 3.496z"/></symbol></svg>