<svg width="444" height="414" fill="none" xmlns="http://www.w3.org/2000/svg">
  <path d="M368.2 180.2l18.3 175.7M383.6 322.3l-8.3-8.8" stroke="#263238" stroke-miterlimit="10"/>
  <path d="M377.8 316.1a9.4 9.4 0 00-3.3-7c-2.2-2-13.4-6.7-14.5-2.7-1.1 4.3 10.4 12.8 17.8 9.7z" fill="#9bd100" stroke="#263238" stroke-miterlimit="10"/>
  <path d="M377.8 316.1l-10.7-6.6" stroke="#263238" stroke-width=".5" stroke-miterlimit="10"/>
  <path d="M385.7 342.3l-8.4-8.8" stroke="#263238" stroke-miterlimit="10"/>
  <path d="M379.9 336.2a9.4 9.4 0 00-3.4-7c-2-2-13.3-6.7-14.4-2.8-1.1 4.3 10.4 12.7 17.8 9.8z" fill="#9bd100" stroke="#263238" stroke-miterlimit="10"/>
  <path d="M379.9 336.1l-10.7-6.6" stroke="#263238" stroke-width=".5" stroke-miterlimit="10"/>
  <path d="M378.5 273.5l-8.3-8.8" stroke="#263238" stroke-miterlimit="10"/>
  <path d="M372.7 267.4a9.4 9.4 0 00-3.3-7c-2.2-2-13.4-6.7-14.5-2.8-1.1 4.3 10.4 12.8 17.8 9.8z" fill="#9bd100" stroke="#263238" stroke-miterlimit="10"/>
  <path d="M372.7 267.4l-10.7-6.7" stroke="#263238" stroke-width=".5" stroke-miterlimit="10"/>
  <path d="M380.6 293.5l-8.4-8.8" stroke="#263238" stroke-miterlimit="10"/>
  <path d="M374.8 287.3a9.4 9.4 0 00-3.3-7c-2.2-2-13.4-6.6-14.5-2.7-1 4.3 10.4 12.8 17.8 9.7z" fill="#9bd100" stroke="#263238" stroke-miterlimit="10"/>
  <path d="M374.8 287.3l-10.7-6.6" stroke="#263238" stroke-width=".5" stroke-miterlimit="10"/>
  <path d="M375 241l-8.2-8.7" stroke="#263238" stroke-miterlimit="10"/>
  <path d="M369.3 234.9a9.5 9.5 0 00-3.3-7c-2.1-2-13.4-6.7-14.4-2.7-1.2 4.3 10.3 12.7 17.7 9.7z" fill="#9bd100" stroke="#263238" stroke-miterlimit="10"/>
  <path d="M369.3 234.9l-10.7-6.7" stroke="#263238" stroke-width=".5" stroke-miterlimit="10"/>
  <path d="M371.7 208.4l-8.3-8.7" stroke="#263238" stroke-width="2" stroke-miterlimit="10"/>
  <path d="M365.9 202.3a9.4 9.4 0 00-3.3-7c-2.2-2-13.4-6.7-14.4-2.7-1.2 4.3 10.3 12.7 17.7 9.7z" fill="#9bd100" stroke="#263238" stroke-miterlimit="10"/>
  <path d="M365.9 202.3l-10.7-6.7" stroke="#263238" stroke-width=".5" stroke-miterlimit="10"/>
  <path d="M382.2 310.5l6.3-10.4" stroke="#263238" stroke-width="2" stroke-miterlimit="10"/>
  <path d="M386.6 303.2a9.4 9.4 0 011.7-7.5c1.7-2.3 11.7-9.3 13.6-5.6 2 4-7.5 14.6-15.3 13.1z" fill="#9bd100" stroke="#263238" stroke-miterlimit="10"/>
  <path d="M386.6 303.2l9.6-9.2" stroke="#263238" stroke-width=".5" stroke-miterlimit="10"/>
  <path d="M376.7 257.9l6.3-10.3" stroke="#263238" stroke-miterlimit="10"/>
  <path d="M381 250.6a9.4 9.4 0 011.9-7.5c1.6-2.3 11.7-9.3 13.5-5.6 2 4-7.5 14.6-15.3 13.1z" fill="#9bd100" stroke="#263238" stroke-miterlimit="10"/>
  <path d="M381 250.7l9.7-9.3" stroke="#263238" stroke-width=".5" stroke-miterlimit="10"/>
  <path d="M374.3 234.7l6.3-10.3" stroke="#263238" stroke-miterlimit="10"/>
  <path d="M378.7 227.5a9.4 9.4 0 011.7-7.5c1.7-2.3 11.7-9.3 13.6-5.6 2 4-7.5 14.6-15.3 13.1z" fill="#9bd100" stroke="#263238" stroke-miterlimit="10"/>
  <path d="M378.7 227.5l9.6-9.2" stroke="#263238" stroke-width=".5" stroke-miterlimit="10"/>
  <path d="M370.7 200.9l6.4-10.3" stroke="#263238" stroke-miterlimit="10"/>
  <path d="M375.1 193.6a9.4 9.4 0 011.8-7.5c1.7-2.3 11.7-9.3 13.6-5.6 2 4-7.5 14.6-15.4 13.1z" fill="#9bd100" stroke="#263238" stroke-miterlimit="10"/>
  <path d="M375.1 193.6l9.6-9.1" stroke="#263238" stroke-width=".5" stroke-miterlimit="10"/>
  <path d="M368 179.2a9.4 9.4 0 011.8-7.6c1.7-2.3 11.7-9.2 13.6-5.6 2 4-7.5 14.6-15.4 13.2z" fill="#9bd100" stroke="#263238" stroke-miterlimit="10"/>
  <path d="M368 179.2l9.7-9.2" stroke="#263238" stroke-width=".5" stroke-miterlimit="10"/>
  <path d="M368.6 179.6a9.4 9.4 0 01-7.4-2.6c-2-1.9-8-12.6-4.1-14 4.1-1.6 13.7 9 11.5 16.6z" fill="#9bd100" stroke="#263238" stroke-miterlimit="10"/>
  <path d="M368.6 179.6l-8.2-10.5" stroke="#263238" stroke-width=".5" stroke-miterlimit="10"/>
  <path d="M416.6 204.4L398.3 380M402.4 346.6l-6.4-10.3" stroke="#263238" stroke-miterlimit="10"/>
  <path d="M398 339.4a9.4 9.4 0 00-1.8-7.6c-1.7-2.3-11.7-9.2-13.6-5.6-2 4 7.5 14.6 15.3 13.2z" fill="#9bd100" stroke="#263238" stroke-miterlimit="10"/>
  <path d="M398 339.4l-9.1-8.7" stroke="#263238" stroke-width=".5" stroke-miterlimit="10"/>
  <path d="M407.4 297.8l-6.3-10.3" stroke="#263238" stroke-miterlimit="10"/>
  <path d="M403 290.6a9.4 9.4 0 00-1.8-7.6c-1.7-2.3-11.7-9.2-13.6-5.6-2 4 7.5 14.7 15.4 13.2z" fill="#9bd100" stroke="#263238" stroke-miterlimit="10"/>
  <path d="M403 290.6l-9-8.7" stroke="#263238" stroke-width=".5" stroke-miterlimit="10"/>
  <path d="M405.3 317.8l-6.3-10.3" stroke="#263238" stroke-miterlimit="10"/>
  <path d="M401 310.6a9.4 9.4 0 00-1.8-7.6c-1.7-2.3-11.8-9.2-13.6-5.6-2 4 7.5 14.7 15.3 13.2z" fill="#9bd100" stroke="#263238" stroke-miterlimit="10"/>
  <path d="M401 310.6l-9.2-8.7" stroke="#263238" stroke-width=".5" stroke-miterlimit="10"/>
  <path d="M410.8 265.4l-6.4-10.3" stroke="#263238" stroke-miterlimit="10"/>
  <path d="M406.4 258.2a9.4 9.4 0 00-1.8-7.6c-1.7-2.3-11.7-9.2-13.6-5.6-2 4 7.5 14.6 15.4 13.2z" fill="#9bd100" stroke="#263238" stroke-miterlimit="10"/>
  <path d="M406.4 258.1l-9.1-8.7" stroke="#263238" stroke-width=".5" stroke-miterlimit="10"/>
  <path d="M414.2 232.7l-6.4-10.2" stroke="#263238" stroke-miterlimit="10"/>
  <path d="M409.8 225.5a9.4 9.4 0 00-1.8-7.5c-1.7-2.3-11.7-9.3-13.6-5.6-2 4 7.5 14.6 15.4 13.1z" fill="#9bd100" stroke="#263238" stroke-miterlimit="10"/>
  <path d="M409.8 225.5l-9.1-8.7" stroke="#263238" stroke-width=".5" stroke-miterlimit="10"/>
  <path d="M403.4 334.7l8.3-8.7" stroke="#263238" stroke-miterlimit="10"/>
  <path d="M409.2 328.6a9.4 9.4 0 013.3-7c2.1-2 13.4-6.7 14.4-2.7 1.3 4.3-10.3 12.7-17.7 9.7z" fill="#9bd100" stroke="#263238" stroke-miterlimit="10"/>
  <path d="M409.2 328.6l11.3-7" stroke="#263238" stroke-width=".5" stroke-miterlimit="10"/>
  <path d="M408.9 282.1l8.3-8.7" stroke="#263238" stroke-miterlimit="10"/>
  <path d="M414.7 276a9.4 9.4 0 013.3-7c2-2 13.3-6.7 14.4-2.7 1.2 4.3-10.3 12.7-17.7 9.7z" fill="#9bd100" stroke="#263238" stroke-miterlimit="10"/>
  <path d="M414.7 276l11.3-7" stroke="#263238" stroke-width=".5" stroke-miterlimit="10"/>
  <path d="M411.3 259l8.3-8.8" stroke="#263238" stroke-width="2" stroke-miterlimit="10"/>
  <path d="M417 252.9a9.4 9.4 0 013.4-7c2.1-2 13.3-6.7 14.4-2.8 1.1 4.3-10.3 12.8-17.7 9.8z" fill="#9bd100" stroke="#263238" stroke-miterlimit="10"/>
  <path d="M417 252.9l11.4-7" stroke="#263238" stroke-width=".5" stroke-miterlimit="10"/>
  <path d="M414.8 225.1l8.3-8.7" stroke="#263238" stroke-miterlimit="10"/>
  <path d="M420.6 219a9.4 9.4 0 013.3-7c2.1-2 13.3-6.7 14.4-2.7 1.2 4.3-10.3 12.7-17.7 9.7z" fill="#9bd100" stroke="#263238" stroke-miterlimit="10"/>
  <path d="M420.6 219l11.3-7" stroke="#263238" stroke-width=".5" stroke-miterlimit="10"/>
  <path d="M416.6 203.4a9.4 9.4 0 013.3-7c2.1-2 13.4-6.7 14.4-2.8 1.2 4.4-10.3 12.8-17.7 9.8z" fill="#9bd100" stroke="#263238" stroke-miterlimit="10"/>
  <path d="M416.6 203.4l11.3-7" stroke="#263238" stroke-width=".5" stroke-miterlimit="10"/>
  <path d="M417 203.9a9.4 9.4 0 01-6.6-4c-1.7-2.3-5.2-14-1.1-14.7 4.3-.7 11.5 11.6 7.8 18.7z" fill="#9bd100" stroke="#263238" stroke-miterlimit="10"/>
  <path d="M417 203.9l-5.7-12" stroke="#263238" stroke-width=".5" stroke-miterlimit="10"/>
  <path d="M395.7 132.8v222.3M395.8 321.6l-7.3-9.6" stroke="#263238" stroke-miterlimit="10"/>
  <path d="M390.7 315a9.4 9.4 0 00-2.5-7.4c-2-2.1-12.7-8-14.1-4.2-1.6 4.2 9 13.8 16.6 11.5z" fill="#9bd100" stroke="#263238" stroke-miterlimit="10"/>
  <path d="M390.7 315l-10-7.8" stroke="#263238" stroke-width=".5" stroke-miterlimit="10"/>
  <path d="M395.8 279.9l-7.3-9.6" stroke="#263238" stroke-miterlimit="10"/>
  <path d="M390.7 273.2a9.4 9.4 0 00-2.5-7.4c-2-2.1-12.7-8-14.1-4.2-1.6 4.2 9 13.8 16.6 11.6z" fill="#9bd100" stroke="#263238" stroke-miterlimit="10"/>
  <path d="M390.7 273.2l-10-7.8M395.8 230.8l-7.3-9.6" stroke="#263238" stroke-miterlimit="10"/>
  <path d="M390.7 224.1a9.4 9.4 0 00-2.5-7.3c-2-2.2-12.7-8-14.1-4.2-1.6 4.2 9 13.8 16.6 11.5z" fill="#9bd100" stroke="#263238" stroke-miterlimit="10"/>
  <path d="M390.7 224.1l-10-7.7" stroke="#263238" stroke-width=".5" stroke-miterlimit="10"/>
  <path d="M395.8 198.2l-7.3-9.6" stroke="#263238" stroke-miterlimit="10"/>
  <path d="M390.7 191.5a9.4 9.4 0 00-2.5-7.4c-2-2-12.7-8-14.1-4.1-1.6 4.1 9 13.7 16.6 11.5z" fill="#9bd100" stroke="#263238" stroke-miterlimit="10"/>
  <path d="M390.7 191.5l-10-7.8" stroke="#263238" stroke-width=".5" stroke-miterlimit="10"/>
  <path d="M395.8 165.4l-7.3-9.6" stroke="#263238" stroke-miterlimit="10"/>
  <path d="M390.7 158.7a9.4 9.4 0 00-2.5-7.4c-2-2-12.7-8-14.1-4.1-1.6 4.1 9 13.7 16.6 11.5z" fill="#9bd100" stroke="#263238" stroke-miterlimit="10"/>
  <path d="M390.7 158.7l-10-7.7M395.7 334.4l7.3-9.6" stroke="#263238" stroke-miterlimit="10"/>
  <path d="M400.8 327.7a9.4 9.4 0 012.5-7.4c2-2.1 12.7-8 14.1-4.1 1.6 4.1-9 13.7-16.6 11.5z" fill="#9bd100" stroke="#263238" stroke-miterlimit="10"/>
  <path d="M400.8 327.7l10.5-8.2" stroke="#263238" stroke-width=".5" stroke-miterlimit="10"/>
  <path d="M395.7 268l7.3-9.6" stroke="#263238" stroke-miterlimit="10"/>
  <path d="M400.8 261.2a9.4 9.4 0 012.5-7.3c2-2.1 12.7-8 14.1-4.2 1.6 4.2-9 13.8-16.6 11.5z" fill="#9bd100" stroke="#263238" stroke-miterlimit="10"/>
  <path d="M400.8 261.2l10.5-8.1" stroke="#263238" stroke-width=".5" stroke-miterlimit="10"/>
  <path d="M395.7 235.2l7.3-9.6" stroke="#263238" stroke-miterlimit="10"/>
  <path d="M400.8 228.5a9.4 9.4 0 012.5-7.4c2-2.1 12.7-8 14.1-4.2 1.6 4.2-9 13.8-16.6 11.6z" fill="#9bd100" stroke="#263238" stroke-miterlimit="10"/>
  <path d="M400.8 228.5l10.5-8.2" stroke="#263238" stroke-width=".5" stroke-miterlimit="10"/>
  <path d="M395.7 191.8l7.3-9.6" stroke="#263238" stroke-miterlimit="10"/>
  <path d="M400.8 185.1a9.4 9.4 0 012.5-7.3c2-2.1 12.7-8 14.1-4.2 1.6 4.2-9 13.8-16.6 11.5z" fill="#9bd100" stroke="#263238" stroke-miterlimit="10"/>
  <path d="M400.8 185.1l10.5-8.1" stroke="#263238" stroke-width=".5" stroke-miterlimit="10"/>
  <path d="M395.7 157.8l7.3-9.6" stroke="#263238" stroke-miterlimit="10"/>
  <path d="M400.8 151a9.4 9.4 0 012.5-7.3c2-2.1 12.7-8 14.1-4.2 1.6 4.2-9 13.8-16.6 11.6z" fill="#9bd100" stroke="#263238" stroke-miterlimit="10"/>
  <path d="M400.8 151l10.5-8" stroke="#263238" stroke-width=".5" stroke-miterlimit="10"/>
  <path d="M395.2 136a9.4 9.4 0 012.6-7.4c2-2.1 12.6-8 14-4.2 1.7 4.2-8.9 13.8-16.6 11.6z" fill="#9bd100" stroke="#263238" stroke-miterlimit="10"/>
  <path d="M395.2 136l10.6-8.2" stroke="#263238" stroke-width=".5" stroke-miterlimit="10"/>
  <path d="M395.7 136.4a9.4 9.4 0 01-7-3.3c-2-2.1-6.6-13.4-2.7-14.4 4.3-1.2 12.8 10.3 9.7 17.7z" fill="#9bd100" stroke="#263238" stroke-miterlimit="10"/>
  <path d="M395.7 136.4l-7-11.3" stroke="#263238" stroke-width=".5" stroke-miterlimit="10"/>
  <path d="M404.8 412.7h-23.5l-3-59.4h29.4z" fill="#263238" stroke="#263238" stroke-miterlimit="10"/>
  <path d="M271.8 89.4s-29.2 6.8-30 8.7c-.8 1.8 1.8 99.4 1.8 103.3 0 4 5.8 7.6 7.7 7.6 2 0 59.1-1.4 62-1.8 2.9-.4 10.1-1.5 10.5-5.6.4-4.1-2-23-2-23l4.1-39.4s44.8 29.4 49.4 29.2c4.6-.3 5.2-11 5.2-11l-15.3-72.6s3-8.2 3.5-11.3c.4-3.1-11.4-10.1-12.4-10.6-1-.4-1.5-19.8-2-21.7-.7-1.8-3.6-2.4-4.7-1-1 1.5-.4 23.2-.4 23.2S340.7 46 340 44.8c-.8-1.3-3.7-2-3 2 .5 4 7.8 22.3 7.8 22.3s-3.1 7-1 9c2 2 12.2 14.2 12.2 14.2l2.3 41.7s-22.1-29.8-25-32.4c-3.5-3-7.5-5.4-11.8-7-2.7-.9-27.7-7-27.7-7z" fill="#fff" stroke="#263238" stroke-miterlimit="10"/>
  <path d="M358.1 134l-.6 15.8" stroke="#263238" stroke-miterlimit="10"/>
  <path d="M357 58.2s-5 13.2-3.6 14.4c1.4 1.3 3 3 4.7 1 1.7-1.8 5-12.1 4.8-14-.2-1.8-4.7-3-6-1.4z" fill="#fff" stroke="#263238" stroke-miterlimit="10"/>
  <path d="M362.9 59.6c1.7.8 3.3 1.7 4.8 3 1.4 1.4.8 2.8-.9 7.4-1.6 4.5-4.3 6.8-6 5.3a4.7 4.7 0 01-1.6-3.3z" fill="#fff" stroke="#263238" stroke-miterlimit="10"/>
  <path d="M355.5 90.2s-13.3-11.6-13.5-14c-.2-2.5 12.4-13.7 14.3-13.3 1.8.4 1.6 3.5.2 5.6-1.5 2-4.4 7.4-4.4 7.4s4.8.9 6 4.4c1.3 3.5.7 9.7.7 9.7" fill="#fff"/>
  <path d="M355.5 90.2s-13.3-11.6-13.5-14c-.2-2.5 12.4-13.7 14.3-13.3 1.8.4 1.6 3.5.2 5.6-1.5 2-4.4 7.4-4.4 7.4s4.8.9 6 4.4c1.3 3.5.7 9.7.7 9.7" stroke="#263238" stroke-miterlimit="10"/>
  <path d="M251.8 217l-9.8-14.2h-.4L224 152.3l18-8.5-.3-45.8s-6.6 9-9.5 12.1c-1.3 1.5-34 36.4-34.8 40.9-.7 4.4 28 46 28.5 46.8.4.6 4.4 7.3 7.3 10.9l-.2.2 3.1 10.8a2.8 2.8 0 00-2.6 1.7c-.2.4-.2.8-.2 1.2 0 2.9 3.1 4 5 5.2a5.3 5.3 0 005 1c1.4-.6 2.6-1.6 3.7-2.8l1.8-.8a5.7 5.7 0 002.6-3.2l.8-1.3c.8-1.3-.5-3.6-.5-3.6zM341.6 391.6l3.6 3.4s15.7 10.8 16.5 11.9c.8 1 .5 2.3-.3 3.6-.7 1-1.6 1.7-2.6 2.1h-33.2s-1.3-1-.8-5c.6-3.9 1.2-9.7 1.2-9.7z" fill="#fff" stroke="#263238" stroke-miterlimit="10"/>
  <path d="M361.4 410.5l.5-1h-37.2c0 2.4 1 3.1 1 3.1h33.1c1-.4 2-1.2 2.6-2z" fill="#fff" stroke="#263238" stroke-miterlimit="10"/>
  <path d="M245.5 201.3l2.6 106.5 7.1 77.7-1 2.4-.3 6c2 .7 4 1 6 .8 4.3 0 12.7 3 12.7 3s2.4-15.6 2.9-23l5.8-99 3.4-33.4 3.2-.8 18.4 95.3 19.7 61 15.6-6.3s.8-4.7.8-6c0-1.4-1.9-5.8-1.9-5.8l-7-84.7-12.5-93.2z" fill="#263238" stroke="#263238" stroke-miterlimit="10"/>
  <path d="M255.7 391l-5.2 8.7s-9.8 7.7-10.6 9.5a3.5 3.5 0 00.6 3.4h31.3l.8-15s-11.6-6.8-16.9-6.6z" fill="#fff" stroke="#263238" stroke-miterlimit="10"/>
  <path d="M272 409.5h-32.1a3.6 3.6 0 00.6 3.1h31.3z" fill="#fff" stroke="#263238" stroke-miterlimit="10"/>
  <path d="M333.1 101.6c-3.5-3-7.5-5.4-11.7-7-2.7-.9-27.7-7-27.7-7l-22 1.7s-29 6.8-30 8.7c-.7 1.9 2 99.4 2 103.4 0 3.9 5.7 7.6 7.6 7.6 2 0 59.1-1.5 62-1.9 2.9-.4 10.1-1.4 10.5-5.5.4-4.2-2-23-2-23l4.1-39.5 18.6 12 9.7-22.4c-6.5-8.6-19-25.1-21-27.1z" fill="#9bd100" stroke="#263238" stroke-miterlimit="10"/>
  <path d="M232.3 110.2c-.7.8-10.2 10.9-19 21l14.7 19.3 14-6.6-.2-45.8s-6.6 9-9.5 12z" fill="#9bd100" stroke="#263238" stroke-miterlimit="10"/>
  <path d="M327.3 114.7l-1.4 24.5 5.8-19.7" stroke="#263238" stroke-miterlimit="10"/>
  <path d="M275.3 82.3s-5.6 4.6-6 6.2L269 93s6.7 32.8 7.7 32c1-.8 9.5-13.5 11.2-15.9 1.6-2.3 5-2.8 5.8-2.3.8.6 15.8 16.6 16.7 13.9.8-2.7-4-27.9-7.9-34.2-3.8-6.3-24.3-7.2-27.2-4z" fill="#fff" stroke="#263238" stroke-miterlimit="10"/>
  <path d="M271.8 74.2l3.4 18.5s11.6 26.8 17 25c5.3-1.8 9.2-29 9.3-29.7.2-.6-.5-11.2-.5-11.2s.9 3-10.8 1.5c-6.3-.6-12.4-2-18.4-4.1z" fill="#fff" stroke="#263238" stroke-miterlimit="10"/>
  <path d="M275 91.7c4.1.8 12 1.5 16.7-2.4 3.9-3.1 7-7 9-11.6-.8.8-3.3 1.6-10.5.6-6.3-.6-12.4-2-18.4-4.1z" fill="#263238" stroke="#263238" stroke-miterlimit="10"/>
  <path d="M304.8 54.7s1.7 9.6-.3 14.7c-2.1 5-5.9 12.6-9.2 14-3.4 1.4-8.5.3-13.9-2-3.7-1.8-7.2-4-10.5-6.5a9.2 9.2 0 01-7-2.5c-3.1-3-6.4-6-5.3-9.3 1.1-3.3 1.9-4.1 1.9-4.1v-5.7s-2.9-9.2-3.2-13c-.3-3.6 10.4-15.8 18.3-17.7 7.9-1.9 15.9 4 18.7 6.9 2.9 3 9.6 7 9.8 8.6.2 1.6.7 16.6.7 16.6z" fill="#fff" stroke="#263238" stroke-miterlimit="10"/>
  <path d="M304.8 54.7s1.9-2.5 3.3-1.5c1.4.9 2.8 6 .6 9-1 1.4-2.1 2.7-3.4 3.9 0 0 0-10.1-.5-11.4z" fill="#fff" stroke="#263238" stroke-miterlimit="10"/>
  <path d="M289 47.6s0 5.6.5 6.3c.5.8 5 2.7 4.6 4-.5 1.2-5.2 2.3-5.2 2.3M278.8 65.7s6.3 2.4 9.2 2.4c2.8 0 7.5-4.7 8.3-5.8" stroke="#263238" stroke-miterlimit="10"/>
  <path d="M276.9 52c.3 1.4 0 2.6-.6 2.8-.7.2-1.5-.8-1.9-2.2-.3-1.4 0-2.7.6-2.8.7-.2 1.5.8 1.9 2.2zM294.6 49.5c.4 1.4.1 2.7-.6 2.9-.6.1-1.5-.9-1.8-2.2-.4-1.4-.1-2.7.6-2.9.6-.1 1.5.9 1.8 2.2z" fill="#263238"/>
  <path d="M269.7 47.5a11.2 11.2 0 018.2-3.2M290 43.2a6 6 0 017.7-.3" stroke="#263238" stroke-miterlimit="10"/>
  <path d="M276.6 30.3s-5.2 11-8.8 14.5l-3.7 3.4s3.8 14 3.4 15c-.5.8-1.3 1.2-1.6 0-.3-1.3-.6-2.4-1.6-2.7-1-.3-3.8-1.6-3.8-1.6l-5.2-13.2s-4.2-4.6-3.1-8.5c1-4 4.9-10.7 4.9-10.7s-2.2-.7-1.3-2.5c1-1.7 10.7-1.7 10.7-1.7s1-5.3 4-6.1c3-.8 3 .3 3 .3s11.1-5.9 17.6-5.7c6.4.2 26 17.3 24 19.7-1.8 2.3-8.6 4-8.6 4s-.2 19.6-1 20l-.7.2-3-17.2s-19.9-3-25.2-7.2z" fill="#263238" stroke="#263238" stroke-miterlimit="10"/>
  <path d="M136.2 386.6l2.1 6.3s18.7 11.3 19 14.2a12 12 0 01-.8 5.4H109s-1.1-7.3.2-13.3c1.3-6 1-8 1-8z" fill="#fff" stroke="#263238" stroke-miterlimit="10"/>
  <path d="M108.8 409.1l.3 3.5h47.4c.4-1.2.7-2.5.8-3.8z" fill="#fff" stroke="#263238" stroke-miterlimit="10"/>
  <path d="M146.5 157L136 200.5l8.6 10.8s18.6-33.2 20-36.2c1.5-3 6.6-7.5 0-23.8-3.5-8.4-6-11-6-11" fill="#9bd100"/>
  <path d="M146.5 157L136 200.5l8.6 10.8s18.6-33.2 20-36.2c1.5-3 6.6-7.5 0-23.8-3.5-8.4-6-11-6-11" stroke="#263238" stroke-miterlimit="10"/>
  <path d="M136 200.5l-5.3 3.8s-7 12.4-6.2 14.1a5 5 0 002.7 2.4l4.1 4.2s4.1 1.7 6.5.5c2.3-1.2 6.8-14.1 6.8-14.1z" fill="#a3a3a3" stroke="#263238" stroke-miterlimit="10"/>
  <path d="M51 205s-1.6 8.4-2.4 13.8c-.8 5.3 9 81.4 9 85.7 0 4.3-1.6 16.8-2.1 23.5-.5 6.8 1.8 43.8 1.8 43.8l.5 11.9s9 3.8 16.2 2.2c7.4-1.7 12.2-3.6 12.5-4.4.3-.8 0-14.9 0-14.9s1-48.1 2.1-53c1.1-4.7 6.5-60.8 6.5-60.8s5.2 67.9 5.4 68.7c.3.8-.2 2.2.3 16.2s7.6 50.5 7.6 50.5 7.5 1 12.4-.3a49 49 0 0014-6c.6-3.5.8-7.1.9-10.8 0-3.5-3.3-14.5-3.3-17.2 0-2.6-.2-76 .3-88.4.5-12.4-1.9-51-1.9-53l-.8-24.4s-7.1 15.4-27.7 11.3c-20.5-4-47.9-12.8-47.9-12.8z" fill="#263238" stroke="#263238" stroke-miterlimit="10"/>
  <path d="M87 85.6L66 91l8.6 110c10.1 3.6 21 5 31.6 3.9 17.4-2 24.2-11.4 24.2-11.4s-5.6-99.3-7.5-103c-1.9-3.8-13.2-5.7-15.4-6.5-2.1-.8-20.5 1.6-20.5 1.6z" fill="#fff" stroke="#263238" stroke-miterlimit="10"/>
  <path d="M83 67.7s1.9 17.9 1.9 21.7c0 3.8-.8 9.2 6.5 14.3 7.3 5.1 17.5 4.3 20.8-3.5 3.2-7.8 1.3-29.5 1.3-29.5A14.2 14.2 0 01101 76c-8-.8-18-8.2-18-8.2z" fill="#a3a3a3" stroke="#263238" stroke-miterlimit="10"/>
  <path d="M101 75.9a43.5 43.5 0 01-16.7-7.2l-1.3-.3c.3 3.2 1.8 17.6 1.8 21V91c5.9-.4 11.5-2.4 16.3-5.8 8.4-6 10.2-11 10.2-11l-5.7 1.4c-1.5.3-3 .4-4.6.3z" fill="#263238" stroke="#263238" stroke-miterlimit="10"/>
  <path d="M120.2 42s5.4-2.2 5.7 3c.3 5-6.5 12.4-6.5 12.4z" fill="#a3a3a3" stroke="#263238" stroke-miterlimit="10"/>
  <path d="M86.4 6.6s-12.1 5.7-14 14.6c-2 8.8 3 24.3 3 24.3s-5-3-6.3 1.9c-1.3 4.9 2.2 10 4.4 10.8 1.4.5 3 .6 4.6.3l4.9 11s15.7 10.9 21 9.8c5.5-1 12-8.7 14.4-12 2.4-3.2 3-35.9 3.2-40.2.3-4.3-1.6-13.7-7.8-18-6.2-4.4-21.1-7.1-27.4-2.5z" fill="#a3a3a3" stroke="#263238" stroke-miterlimit="10"/>
  <path d="M113.7 9c-6.2-4.3-21-7-27.3-2.4 0 0-12.1 5.7-14 14.6-2 8.8 3 24.3 3 24.3.9 1 1.9 1.8 2.2.6.5-2.5-.3-6.2-.6-10.6-.2-4.3 1.6-3.8 2-9.4.2-5.7-.6-9.5 4.2-13.3 5-3.8 11.4 2 17.9 2.7 6.5.8 11.3-4.8 14.3-2.7 3 2.2 4.9 6.8 4.6 12-.3 5-.5 5 .5 9.4l.8 2.8.3-9.9c.3-4.3-1.6-13.8-7.9-18z" fill="#263238" stroke="#263238" stroke-miterlimit="10"/>
  <path d="M92.4 43.1c.2 1.8-.3 3.3-1.2 3.5-.8.1-1.8-1.3-2-3-.2-1.8.3-3.4 1.2-3.5.8-.1 1.8 1.3 2 3zM110.8 42.7c0 1.8-.6 3.3-1.5 3.3-1 0-1.7-1.3-1.8-3.1 0-1.8.6-3.3 1.5-3.3 1 0 1.7 1.3 1.8 3.1z" fill="#263238"/>
  <path d="M99.7 55.2c1 2.2 7 .6 9-1.3 1.8-2-2.8-7.9-3-11.1-.3-3.3 3.7-6.8 3.7-6.8M108 61s-7 2.1-12.6-1.7M85.6 37.7s4.4-3.8 11.1-1.1M118.9 38a7.2 7.2 0 00-6.8-2.8" stroke="#263238" stroke-miterlimit="10"/>
  <path d="M84 85S93 160 96 176.3c3 16.5 6.8 21.4 5.7 27.6-1 6.1-6.5 25.1-8.9 28.3-2.4 3.3-10.5-8-18-16.2-7.7-8-14.7-7.3-19-7.5-4.3-.3-7-.3-7-.3 0-2.8.1-5.6.5-8.4l4-16c.3-.7-5.1-90.2-4.3-91.8.8-1.6 18.1-5.4 20-6.2 2-.8 13-6.4 15.1-.8z" fill="#9bd100" stroke="#263238" stroke-miterlimit="10"/>
  <path d="M58.2 200s18.9-1.2 24.9 8.7M80 210.3c1.3 1.6 2.3 3.4 3 5.2M73.2 204a22 22 0 015.2 4.3" stroke="#263238" stroke-miterlimit="10"/>
  <path d="M84 78.3s-2.7-2.7-4.8-1c-2.2 1.5-10.4 8.6-10.4 8.6s4 35.4 6.2 32.7c2.2-2.7 7-10.8 7.9-11.1.8-.3 5.1 6.7 5.1 6.7z" fill="#9bd100" stroke="#263238" stroke-miterlimit="10"/>
  <path d="M164.6 151.3c-.7-1.8-1.5-3.5-2.3-5.1-3-6-23.1-52.5-28.5-57.4-5.4-4.8-19.2-4.8-19.2-4.8s7.8 53.7 7.5 73.4c-.2 19.8-3.8 70.6-3.2 72.5.5 1.9 8.4-1.6 12.4-4.9 4-3.2 5.2-3.8 5.4-5.4.3-1.6-1.6-54.6-1.6-56.5v-24.3s10.8 30.7 12.1 30.7" fill="#9bd100"/>
  <path d="M164.6 151.3c-.7-1.8-1.5-3.5-2.3-5.1-3-6-23.1-52.5-28.5-57.4-5.4-4.8-19.2-4.8-19.2-4.8s7.8 53.7 7.5 73.4c-.2 19.8-3.8 70.6-3.2 72.5.5 1.9 8.4-1.6 12.4-4.9 4-3.2 5.2-3.8 5.4-5.4.3-1.6-1.6-54.6-1.6-56.5v-24.3s10.8 30.7 12.1 30.7M135 138.8l-1.3-18.3" stroke="#263238" stroke-miterlimit="10"/>
  <path d="M114.3 77.8a2.8 2.8 0 013.5.8c1.6 1.9 5.7 7.5 5.7 7.5s6.5 20.3 6.2 23c-.2 2.6-5.4-2.7-6.7-2.5-1.4.3-4 4-4 4l-4.7-24z" fill="#9bd100" stroke="#263238" stroke-miterlimit="10"/>
  <path d="M57.5 89.5s-11.9 2.6-14.3 5a944.7 944.7 0 00-31.3 77.3c0 3 33.7 48.9 33.7 48.9l14-13L40 171.6l16.5-38" fill="#9bd100"/>
  <path d="M57.5 89.5s-11.9 2.6-14.3 5a944.7 944.7 0 00-31.3 77.3c0 3 33.7 48.9 33.7 48.9l14-13L40 171.6l16.5-38" stroke="#263238" stroke-miterlimit="10"/>
  <path d="M59.7 207.7l6 3.8c1.8 1.4 5.3 7.6 6.7 8.4 1.3.8 2.2 3.8-.8 4-3 .3-6.2-4-7-4.8-.9-.8-14.6 9.8-14.6 9.8l-2.4-10zM106.2 378.7s.8 10.6 1.4 12.2c.5 1.6 9.2 1.1 13.2 1.3a32 32 0 0014.1-2.1 6 6 0 003.6-5.3c.2-3.2.2-7.9-.4-9.9-1.1-3.2-3-3-4.9-1.3-1.9 1.6-7.6 3.7-16.7 4-9.2.2-9-.8-10.3 1.1z" fill="#a3a3a3" stroke="#263238" stroke-miterlimit="10"/>
  <path d="M60 384.5l-2.7 11.8s-13 7.4-14.7 9.8c-1.6 2.5-1 6.5-1 6.5h45.7s1.9.3 2.1-3c.3-3.2-3-22.4-3-22.4z" fill="#fff" stroke="#263238" stroke-miterlimit="10"/>
  <path d="M41.5 412.6h45.8s1.9.3 2.1-3v-1H41.7c-.2 1.3-.3 2.7-.2 4z" fill="#fff" stroke="#263238" stroke-miterlimit="10"/>
  <path d="M87.8 378.3s.6 13 .3 14.3c-.2 1.4-9.1 4.6-16.2 3.5-7-1-14-1.6-16.4-3.8-2.4-2.1-1-11.8-.4-13.7.6-1.9 6.8 1.9 13.5 2.2 6.8.2 15-1.1 17.3-3 2.4-2 1.9.5 1.9.5z" fill="#a3a3a3" stroke="#263238" stroke-miterlimit="10"/>
  <path d="M231 67.3a29 29 0 0111.3 9.3c4.8 7.2 7.2 19.3 1.7 26.5-5.4 7.1-6.7 7.1-5.6 8.9 1.1 1.7 6.7-.9 6.7-.9s.9 5.4-3 7.2c-3.9 1.7-16 6-23.6.2-7.6-5.9-5.7-19.7-1.1-27.5 4.5-7.8 5-9.6 5.4-10.9.4-1.3 3.7-13.4 8.2-12.8zM187.5 237s2.9 50.8 5 65c2.2 14.1 5.3 27.4 7.5 40.3 2.2 13 2.9 39.6 2.9 43.3 0 3.6 1.4 5.5-5.5 12-7 6.5-17.6 10.5-16.8 12.2.7 1.7 7.9 3.4 16.5 2.7 8.7-.8 17.3-1 17.8-2.2.5-1.2 2.4-7.5 2.4-17.8s4.3-39.8 5.5-55c1.2-15-2.9-31.2-1.7-36.2 1.2-5 3-65.6 3-72.3 0-6.6-38.7 1-38.7 1z" fill="#263238" stroke="#263238" stroke-miterlimit="10"/>
  <path d="M202.9 390.6h-.2c-.6 1.8-2 3.8-5.3 7-7 6.4-17.6 10.5-16.8 12.2.7 1.7 7.9 3.4 16.5 2.6 8.7-.7 17.3-1 17.8-2.1.5-1.2 2.4-7.5 2.4-17.8v-2a15.5 15.5 0 01-5.8 2.2c-3.5.3-8.6-2.1-8.6-2.1z" fill="#9bd100" stroke="#263238" stroke-miterlimit="10"/>
  <path d="M214.9 410.3l1.1-4c-8.2 1.9-23.2 4-27 3.5-2.3-.4-4.6-1-6.7-2-1.2.8-2 1.5-1.7 2 .7 1.7 8 3.3 16.6 2.6 8.6-.7 17.2-1 17.7-2.1z" fill="#fff" stroke="#263238" stroke-miterlimit="10"/>
  <path d="M147 220.8S130.5 290 129.1 298c-1.5 8-1.7 11.5-1 13.2a4776 4776 0 0085.7 69.3l6.3-11.3s-24.3-31.3-33.9-41c-9.6-9.6-26.9-28.3-26.9-28.3l27.2-65.8z" fill="#263238" stroke="#263238" stroke-miterlimit="10"/>
  <path d="M214 380.4s-.3 15-.8 17.8c-.6 3.4-2 6.7-3.8 9.6-1.7 2.4-6.3 4.8-1.2 4.8 4.4 0 8.7-.6 13-1.7 3.8-1 6.4-13 11-18.5s8-11 8-14c0-2.8-20-9.3-20-9.3z" fill="#9bd100" stroke="#263238" stroke-miterlimit="10"/>
  <path d="M240 378.5c0-1-2.1-2.3-5-3.7a45 45 0 01-5.5 13.7c-3 5.3-5.7 16.9-11.3 20.2-4 2.4-9 2.1-11.4 1.7-1.2 1.3-1.7 2.2 1.3 2.2 4.4 0 8.8-.6 13-1.7 3.8-1 6.5-13 11-18.5 4.6-5.5 8-11 8-14z" fill="#fff" stroke="#263238" stroke-miterlimit="10"/>
  <path d="M143.3 224.8l-1.5 9.3s20 11.8 36.4 14.6c10.1 1.8 27.7 1.3 36.4-.4 4-1 8-2.5 11.7-4.2l.9-19.4s-45.5 6.8-64.5 1.5-19.4-1.4-19.4-1.4z" fill="#9bd100" stroke="#263238" stroke-miterlimit="10"/>
  <path d="M193 84.3l-3 16.2s-8.3-.7-14-4.8c-5.8-4-14.2-8.6-24-9.6-9.9-1-30.8-3.6-30.8-3.6s27.2 23 27.9 24c.7 1 10.7 53.2 10.7 53.2s-18.5 64-19.2 65.6c-.7 1.7 7.4 6.5 7.4 6.5s28.3 13.9 54.3 12.3c10.9-.7 25.2-5 26.1-8 1-3.2-1.3-24.4-1.3-24.4l-3-47.5 4.3-19c.2-1 24 35.3 24 35.3s8.1 2 12.7-.7 6.2-14.7 4.8-19a409 409 0 00-34.4-47.3c-3.7-2.6-23-8.4-23-8.4l.7-17.3z" fill="#fff"/>
  <path d="M151 190.3l-1.9 6.3c12.6 5.3 33.3 12 56.4 12 7.1 0 14.3-.6 21.3-2l-.4-6.5c-30.2 6.2-59.8-3.3-75.5-9.8zM197.8 192c12.3 0 20.7-1.2 27.8-3.8l-.5-6.7c-7.7 3.3-17.5 4.4-33.8 4-11.2-.3-25.5-7.6-35-13.3l-2 6.4c10.2 5.9 24.7 13 36.7 13.3h6.8zM190 168a58.6 58.6 0 01-31-12.6l.8 4.3-1 3.6c9 6.1 19.5 9.9 30.4 11 6 .7 12 1.1 18 1.1 5.9.1 11.7-.4 17.4-1.6l-.4-6.6a95 95 0 01-34.3.7zM244.9 169.1l3.5 5.4a59.3 59.3 0 0126.4-6.3c.2-2.5-3-5.8-3.5-7.4a53.9 53.9 0 00-26.4 8.3zM196.4 141.8c3.3.6 6.7.9 10 .9 10 0 21.5-2.5 34.4-7.3l9.2-3.8-4-5.3c-12.8 5.6-32.3 12.2-48.3 9.2-13-2.5-23.2-17.2-29.4-29-3.1-6.1-5.9-12.4-8.2-18.8a42 42 0 00-7.4-1.5c4.3 12.9 19 50.8 43.7 55.6z" fill="#9bd100"/>
  <path d="M180.9 153.3c6.7 2.6 13.8 4 21 3.8 8.3-.1 16.5-1.3 24.4-3.4l1.6-7c-15 4.1-31.6 6-44.6.7-11.5-4.7-22.5-16.9-32-30.6 1 4.2 2 9.4 3 14.6 8.2 9.8 17.2 18 26.6 22zM206.3 236.8c7.5 0 15-.7 22.3-2.4.1-1.5 0-3.9-.1-6.5-28.3 7.1-67.5-3-86-8.9a259 259 0 01-2 6.2c9.5 3 19 5.4 28.8 7.4a187 187 0 0037 4.2zM146.1 206.8l-1.8 6.2c9.5 2.9 19 5.2 28.8 7 11 2 22 3.2 33.2 3.2 7.3 0 14.6-.5 21.7-1.8l-.6-6.5c-29.2 5.6-64-2.9-81.3-8zM126.5 87L140 98.5c-3-5.1-5.5-10-7.8-14.6l-7.7-1a166 166 0 002 4zM262 148.5a98.6 98.6 0 00-23.6 10.9l3.5 5.3a88.7 88.7 0 0124-10.6l-3.9-5.6zM229.3 146.3a127 127 0 014 5.5 176.8 176.8 0 0024.5-9.3l-3.8-5.3c-8 3.6-16.2 6.6-24.7 9.1z" fill="#9bd100"/>
  <path d="M193 84.3l-3 16.2s-8.3-.7-14-4.8c-5.8-4-14.2-8.6-24-9.6-9.9-1-30.8-3.6-30.8-3.6s27.2 23 27.9 24c.7 1 10.7 53.2 10.7 53.2s-18.5 64-19.2 65.6c-.7 1.7 7.4 6.5 7.4 6.5s28.3 13.9 54.3 12.3c10.9-.7 25.2-5 26.1-8 1-3.2-1.3-24.4-1.3-24.4l-3-47.5 4.3-19c.2-1 24 35.3 24 35.3s8.1 2 12.7-.7 6.2-14.7 4.8-19a409 409 0 00-34.4-47.3c-3.7-2.6-23-8.4-23-8.4l.7-17.3z" stroke="#263238" stroke-miterlimit="10"/>
  <path d="M242.6 121.9l-.3.2c-6 4.5-14.6 7.4-23.5 8h-7a39.8 39.8 0 01-27.6-12.9 57.5 57.5 0 01-12-24l3.8 2.5a28 28 0 009.2 4l.6.1c1.3.3 2.7.6 4 .7l3.3-16.2 20.2 3.5-.8 17.3s19.5 5.7 23 8.4c1 .7 3.6 3.9 7 8.4z" fill="#fff" stroke="#263238" stroke-miterlimit="10"/>
  <path d="M213 92.2l-6.8-5.6-13.1-2.3-3 15c2.5 1 6 2.1 9.5 1.2a55.5 55.5 0 0013.4-7z" fill="#263238" stroke="#263238" stroke-miterlimit="10"/>
  <path d="M185.2 99.7h.6v.1l-1.6 17.5c-2-2.2-3.7-4.6-5.2-7l2.6-11zM221.5 108.3l-2.7 21.8h-7l4.4-23.4z" fill="#9bd100" stroke="#263238" stroke-miterlimit="10"/>
  <path d="M189.9 53.5s-3 21.2-2 25.5c1.1 4.4 10.2 17.2 16 17 6-.3 17-5.5 19-9.2 1.9-3.6 8.2-19.5 8.2-19.5s.8-9.3-.5-14.3S224.8 43 219 42.2c-5.8-.7-25.8 2-29 11.3z" fill="#fff" stroke="#263238" stroke-miterlimit="10"/>
  <path d="M220.6 48.5s-3.3 4.3-19.5 6.9c-16.2 2.5-18.8-7.2-18.4-8.5.4-1.3 4.3-11 18.8-14.3a28.2 28.2 0 0130.6 11.7 25 25 0 011.7 20.8 23 23 0 01-3.9 6.5s-.6-.4-2-4.3c-1.2-4-11.2-9.7-7.3-18.8z" fill="#263238" stroke="#263238" stroke-miterlimit="10"/>
  <path d="M188.8 60.4s-2-7.4-4.8-.4c-2.8 6.9 4.1 10.6 4.1 10.6zM229 71.7s4-2.8 5 1.3c1.2 4-5.6 8-7 8.6-.8.4-1.6.6-2.5.7z" fill="#fff" stroke="#263238" stroke-miterlimit="10"/>
  <path d="M197.5 61.3s5-2.6 7.8 1.5M214.8 65.4s4.1-2.6 6.7 2.6M207.9 63.4c-.4 2-1 3.7-2.2 5.2-1.7 2.2-1.3 3.5 0 4.1 1.3.7 3.9-.4 3.9-.4M196.6 74.7s4.3 4.1 7.8 5c3.4.9 10.8 0 12.3-1.1" stroke="#263238" stroke-miterlimit="10"/>
  <path d="M197.2 56.3a11.9 11.9 0 019-2.4M215.9 57a7.8 7.8 0 017.1 6" stroke="#263238" stroke-width="2" stroke-miterlimit="10" stroke-linecap="round"/>
  <path d="M155 93.4c3.4 4.5 4.6 9.2-1.1 12.6-2.4 1.5-7.4 1.2-14.2-2a87.3 87.3 0 01-20.6-18.9c-3.1-3.8-1-10 2.2-12.5 7.8-6 18.6 3.2 23 9.1 2.2 2.9 7.5 7.2 10.8 11.7z" fill="#fff"/>
  <path d="M151.5 89.3l-5-5.2-.6.3c-5 2.4-9.6 7.2-13.7 14.4 1.6 1.4 3.3 2.8 5.1 4 5.9-10.7 11.4-13 14.2-13.5zM134.7 73.1c-5.9 3.2-11 7.7-14.7 13.2l4.4 4.9c2.6-4.2 7.3-9.7 16-13.8-1.7-1.6-3.6-3-5.7-4.3z" fill="#9bd100"/>
  <path d="M155 93.4c3.4 4.5 4.6 9.2-1.1 12.6-2.4 1.5-7.4 1.2-14.2-2a87.3 87.3 0 01-20.6-18.9c-3.1-3.8-1-10 2.2-12.5 7.8-6 18.6 3.2 23 9.1 2.2 2.9 7.5 7.2 10.8 11.7z" stroke="#263238" stroke-miterlimit="10"/>
  <path d="M156.5 97.4s-4.8 1.4-7.4 4c-2.6 2.7-3.4 3.4-2.4 4.7 1 1.2 2.6 5 5.5 6.2 2.9 1.2 9.2-3.6 10.1-5.5a4.7 4.7 0 00-.2-5c-1.8-1.6-3.6-3-5.6-4.4z" fill="#9bd100" stroke="#263238" stroke-miterlimit="10"/>
  <path d="M159.2 104.6s-7 4.3-8 5.7c-1 1.4 2.7 11.3 2.7 11.3l1.4 4.1s-2.1-2.2-3-1.2c-1 1 .6 4.6 1 5.3.5.7 3 5 4.7 4.8 1.7-.2 9-1 10.8-2.2a23 23 0 005.7-7.4c.4-1.7-6-12-8.6-15.9-2.7-3.8-4.8-5-6.7-4.5zM216.6 201.9s-5.6 5.2-6.5 7.4c-1 2.2 1.4 6.5 2 9.4a8.1 8.1 0 005.6 6c3 1 9.6 4.3 11.8 1.9 2.2-2.4 5-6.7 4.6-9.6-.5-2.9-4.6-5.5-4.6-5.5-1.1-1-2.1-2-3.1-3.2-1-1.1-3.6-1.6-4.1-2.4-.5-.7-5.7-4-5.7-4z" fill="#fff" stroke="#263238" stroke-miterlimit="10"/>
  <path d="M221.1 209.3a9.2 9.2 0 013 4.6c.4 2.1.6 4.3.6 6.5 0 0 4.4-7.2 5.8-5 1.4 2.1-.5 7.9-2 8.6l-1.4.7" fill="#fff"/>
  <path d="M221.1 209.3a9.2 9.2 0 013 4.6c.4 2.1.6 4.3.6 6.5 0 0 4.4-7.2 5.8-5 1.4 2.1-.5 7.9-2 8.6l-1.4.7" stroke="#263238" stroke-miterlimit="10"/>
  <path d="M221.9 197.5s-5 2.4-5.3 4.4c-.3 1.9 2.4 7.4 4.6 7.4 2.1 0 8.6-4.6 8.6-4.6z" fill="#9bd100" stroke="#263238" stroke-miterlimit="10"/>
  <path d="M255 174s-32.4 19.5-33.1 23.5c-.7 4 3 7.7 5.5 8.7 2.4 1 35-13.7 42.7-17 7.7-3.4 9.6-8.2 7.7-15.4-1.9-7.2-8.7-15.5-8.7-15.5" fill="#fff"/>
  <path d="M244.5 180.5a476 476 0 00-7.4 4.8c5.3.6 13.3 3 19 10l6.1-2.7a34 34 0 00-17.7-12.1zM234.9 204l6-2.3a62 62 0 00-9.2-12.8 125 125 0 00-5.2 3.9c3.3 3.4 6 7.2 8.4 11.3zM278.5 179.3c-6-4.8-13.4-7.4-20.3-8.7L255 174l-3.5 2.1c8 1 17.6 3.3 24.3 9.4a9.5 9.5 0 002.7-6.2zM266.6 161.1l-8.6 9.5c5.4-1.6 11-2.4 16.7-2.4 0-1-.2-2.1-.8-3a60 60 0 00-2.9-4.4c-1.5 0-3 .1-4.4.3z" fill="#9bd100"/>
  <path d="M255 174s-32.4 19.5-33.1 23.5c-.7 4 3 7.7 5.5 8.7 2.4 1 35-13.7 42.7-17 7.7-3.4 9.6-8.2 7.7-15.4-1.9-7.2-8.7-15.5-8.7-15.5M161 15.4s-6.2-15.5-14.3-3.7c-8.1 11.8 23 32.4 23 32.4S185.9 20.4 184 6.7C182.1-7 164.7 5 161 15.4zM14.1 244.5s-7.5-7.5-11.2 0c-3.7 7.5 18.7 23 18.7 23a42.1 42.1 0 008.6-21.1c1.3-12.5-11.7-10.6-16-1.9zM394.7 58.3s-4.3-13.7-9.3-6.2c-5 7.5 7.5 21.8 7.5 21.8s13.7-7.5 11.8-13.7c-1.9-6.2-10-1.9-10-1.9zM341.3 244s-4-15.2-9-7.6c-4.9 7.6 7.2 25.5 7.2 25.5s10.3-7 10.7-15.1c.4-8-5.8-7.1-9-2.9zM22.2 32.3s-4-15.2-9-7.6c-4.8 7.6 7.2 25.6 7.2 25.6S30.7 43.2 31.1 35c.5-8-5.8-7.1-8.9-2.8zM-4 412.7h420.6" stroke="#263238" stroke-miterlimit="10"/>
</svg>
