<svg width="554" height="503" fill="none" xmlns="http://www.w3.org/2000/svg">
  <path d="M592.1 436.8h-667v.3h667zM241.3 377.3H-16.3a7.6 7.6 0 01-7.6-7.7V7.6A7.6 7.6 0 01-16.3 0h257.6a7.6 7.6 0 017.6 7.6v362a7.6 7.6 0 01-7.6 7.7zM-16.3.3a7.3 7.3 0 00-7.3 7.3v362a7.3 7.3 0 007.3 7.3h257.6a7.3 7.3 0 007.3-7.3V7.6a7.3 7.3 0 00-7.3-7.3zM529.9 377.3H272.3a7.6 7.6 0 01-7.7-7.7V7.6a7.6 7.6 0 017.7-7.6h257.6a7.6 7.6 0 017.5 7.6v362a7.6 7.6 0 01-7.5 7.7zM272.3.3a7.3 7.3 0 00-7.3 7.3v362a7.3 7.3 0 007.3 7.3h257.6a7.3 7.3 0 007.2-7.3V7.6A7.3 7.3 0 00530 .3zM51.7 449.5H-4.9v.3h56.6zM192.5 445.8h-105v.4h105zM66.2 461.8H53.1v.4h13.1zM525.3 459.6h-48.6v.3h48.6zM464.9 459.6h-17.5v.3h17.5zM242.5 454h-72.8v.3h72.8z" fill="#ebebeb"/>
  <path d="M119.4 436.8V134H19.8v302.7z" fill="#f0f0f0"/>
  <path d="M114 231.7V143H25.3v88.7zM114 328.3v-88.7H25.3v88.7zM114 425v-88.7H25.3V425z" fill="#f5f5f5"/>
  <path d="M89.2 141.8H50a9.2 9.2 0 009.2 9.2H80a9.2 9.2 0 009.2-9.2zM89.2 238.5H50a9.2 9.2 0 009.2 9.2H80a9.2 9.2 0 009.2-9.2zM89.2 335.1H50a9.2 9.2 0 009.2 9.2H80a9.2 9.2 0 009.2-9.2z" fill="#e6e6e6"/>
  <path d="M169.2 436.8V134h-49.8v302.7z" fill="#f5f5f5"/>
  <path d="M138.8 106.9v3h-2l-1.6 24.2h-24l-1.6-24.2h-2v-3zM130.9 46.8c-2-14.4-21.4-18.5-46.1-19-23.5-.5-31-8.8-31-8.8s0 33.6 34 45.8c32.1 11.6 45-3.5 43-18z" fill="#e6e6e6"/>
  <path d="M118.9 79.5c.4-6 9.9-16.8 32.6-11.9 16.4 3.6 22.6-4.9 22.6-4.9s-1.5 24-26.3 31.3c-23.5 6.9-29.6-4-28.9-14.5z" fill="#e6e6e6"/>
  <path d="M124 116a.9.9 0 00.8-.4c1.6-2 .3-6.6-1.6-13-2.4-8.4-5.3-18.7-2.9-26.2 1.4-4 3-7.8 5-11.5 3.5-7.6 6.6-14.1 4-21a.9.9 0 00-1.4-.3.9.9 0 00-.2 1c2.3 6.1-.5 12-4 19.5-2 3.8-3.6 7.8-5 11.8-2.7 8 .4 18.7 2.8 27.1 1.5 5 3 10.3 2 11.5a.9.9 0 00-.3.6.9.9 0 00.4.6c.1.2.3.2.5.2zM269.2 280.8s-1 40-40.8 40-40.8-40-40.8-40z" fill="#e6e6e6"/>
  <path d="M222 217.8a16.4 16.4 0 017.7 14.2c-.1 6.4-6.2 9.4-3.5 14.4 2.6 5 10.9 8.8 7 14-4 5.4 2.3 8.2 3 13.6.8 5.5-11.5 11.7-11.5 11.7" stroke="#e6e6e6" stroke-width="1.5" stroke-linecap="round" stroke-linejoin="round"/>
  <path d="M217.6 192.2s15.5 16.6 5 27.2c-19 0-5-27.2-5-27.2zM210.8 233.9s16-1 17 9.4c-8.5 10.4-17-9.4-17-9.4zM241.7 247.5s-9.5 4.2-7 10.5c8 3.5 7-10.5 7-10.5z" fill="#f0f0f0"/>
  <path d="M140.3 436.7h10.4V321h-10.4z" fill="#e6e6e6"/>
  <path d="M137 436.7h7.3V321H137z" fill="#f0f0f0"/>
  <path d="M237.3 321H134.8v12.8h102.5z" fill="#f0f0f0"/>
  <path d="M242 436.8h10.3v-103H242z" fill="#e6e6e6"/>
  <path d="M238.7 436.8h7.2v-103h-7.2z" fill="#f0f0f0"/>
  <path d="M307.7 436.8h10.4v-103h-10.4z" fill="#e6e6e6"/>
  <path d="M304.4 436.8h7.2v-103h-7.2z" fill="#f0f0f0"/>
  <path d="M206.1 436.8h10.4v-103h-10.4z" fill="#e6e6e6"/>
  <path d="M202.8 436.8h7.3v-103h-7.3z" fill="#f0f0f0"/>
  <path d="M237.3 333.8H318v-12.7h-80.8zM469.7 342.6V46.4h-98.5v296.2z" fill="#e6e6e6"/>
  <path d="M465.8 342.5V46.4H363.7v296z" fill="#f0f0f0"/>
  <path d="M457.8 54.4h-86v280h86z" fill="#fff"/>
  <path d="M414.7 62.2a3.3 3.3 0 00-3.3 3.2v258a3.3 3.3 0 004.6 3 3.3 3.3 0 002-3v-258a3.3 3.3 0 00-3.3-3.2zM258.6 497c142.9 0 258.7-6.8 258.7-15.1s-115.8-15.1-258.7-15.1c-142.8 0-258.6 6.8-258.6 15 0 8.4 115.8 15.2 258.6 15.2z" fill="#f5f5f5"/>
  <path d="M296.2 217.2h-75.1c-.9 0-1.6.7-1.6 1.6v5.6c0 .9.7 1.6 1.6 1.6h75.1c.9 0 1.6-.7 1.6-1.6v-5.6c0-.9-.7-1.6-1.6-1.6z" fill="#9bd100"/>
  <path d="M272.6 230.4h-28l-18.9-5.4h65.8zM249.8 472.5h17.6c3.5 0 6.8.7 10 2.3l6 3a2.2 2.2 0 01-1 4H235a2.1 2.1 0 01-1-4l6-3c3.1-1.6 6.5-2.3 10-2.3z" fill="#9bd100"/>
  <path d="M262 475.1V223.8h-6.7V475z" fill="#9bd100"/>
  <path d="M183 471l-10.7-.2-3-24.9 10.7.2zM137 464.7l-11-1.9-.8-24.1 11 1.8z" fill="#ff8b7b"/>
  <path d="M124.6 460.7l12.4-4h.6c.2 0 .4.1.5.3l5 8.4a1.6 1.6 0 01-.3 2l-.6.3-12 3.6-16.6 5.8c-4.3 1.4-6.2-2.6-4.6-3.6a42.3 42.3 0 0014.2-11.6c.3-.6.8-1 1.4-1.2zM172.1 469.6l11.7.2a1 1 0 011 .7l1.9 9.5a1.5 1.5 0 01-.9 1.8l-.7.1c-4.2-.1-10.3-.5-15.6-.5h-18.8c-4.4-.1-5.6-4.6-3.7-5 8.4-1.6 15.2-1.7 22.5-6a5 5 0 012.6-.8z" fill="#263238"/>
  <path d="M170.6 151.9l-2.4 5-2.5 4.8-5.6 9.4a133.5 133.5 0 01-14.5 19.2l-2 1.6a12.6 12.6 0 01-11.3 1.4 17 17 0 01-3.9-2 26.3 26.3 0 01-5-4.6 78.5 78.5 0 01-13.2-24.8l7.2-3.4a146 146 0 0012 16c1 1 2.1 2.2 3.3 3.2.9.8 1.9 1.5 3 2 .2.2.5.3.8.3l-.4-.1-.8.1.4-.5a182.8 182.8 0 0015.7-25.5l4.6-9z" fill="#ff8b7b"/>
  <path d="M175 145.1c3 9.9-17.4 36.6-17.4 36.6l-20.5-13.1c3.9-8.5 8.7-16.6 14.2-24 8.4-10.8 20.6-10.2 23.8.5z" fill="#263238"/>
  <path opacity=".2" d="M162.6 156.7c-4.2 1.8-10.4 12-13.7 19.4l8.7 5.6c4.9-6.5 9.3-13.3 13.1-20.5-2.8-3-5.9-5.5-8.1-4.5z" fill="#000"/>
  <path d="M118.4 160.9l-5.5-13-8 9.3c1.1 3 3.3 5.4 6.2 6.8zM102.6 144.4l-2.3 9.1 4.6 3.7 8-9.3z" fill="#ff8b7b"/>
  <path opacity=".2" d="M169.3 446l1.5 12.7 10.8.2-1.6-12.8zM136.2 440.6l-11-2 .4 12.5 11 2z" fill="#000"/>
  <path d="M222.8 140.8c-11.5 40.7-9.2 83.8-10.3 92.6l-57-4.3c-5.5-61.2 7.4-92.2 7.4-92.2s3.7-.7 8.7-1.3c1.6-.1 3.3-.3 5-.3l3-.2a213.9 213.9 0 0128.8 2.5l4 .8c5.9 1.1 10.4 2.4 10.4 2.4z" fill="#263238"/>
  <path opacity=".2" d="M210.6 158.2c-1 4 .2 22 4.3 26.4.5-5.8 1.3-11.8 2.3-18z" fill="#000"/>
  <path d="M202.3 121.7c-2.3 6.6-3.5 9.6 1.6 15.2-4.6 4-10.5 8.4-19.8 8-9.3-.3-7.2-6.6-4.5-9.8 8.8-1.4 7.8-7.7 8-14z" fill="#ff8b7b"/>
  <path d="M171.6 147c3.6-.2 7.1-1 10.4-2.2a9.5 9.5 0 01-2-10.3c-2 0-3.9 0-5.8.2 0 0-8 4.4-2.6 12.3z" fill="#fff"/>
  <path opacity=".2" d="M191 121.2l.5 1.2c1.4 3.1 5 5.6 8.8 6.9.3-2.6 1-5.2 2-7.6z" fill="#000"/>
  <path d="M204.4 86.8c-4.1-1.3-7.7 5.9-7.9 9.8-.1 3.9 8.8 10.2 8.8 10.2s13.8-15-.9-20z" fill="#263238"/>
  <path d="M180.3 101.4c1.4 10.5 1.7 16.8 7.5 21.8 8.6 7.5 21.3 1.7 23-9 1.6-9.7-1-25.3-11.6-28.7a14.5 14.5 0 00-18.9 15.9z" fill="#ff8b7b"/>
  <path d="M175.4 91c4.2-1 9.5 0 11 5.7 2 7.6-3.9 13-3.9 13s-21.2-15.6-7.1-18.8z" fill="#263238"/>
  <path d="M179.4 94c7.1 2.8 34.5 1.6 31.3-6.9-4.3-11.4-24.2-6-27.7-11.2-.8 2.7.6 3.7.6 3.7S160 86 179.4 94z" fill="#263238"/>
  <path d="M175 110.8a10 10 0 006.6 4c3.5.6 4.8-2.7 3.4-5.8-1.2-2.7-4.4-6.3-7.8-5.5-3.3 1-4.1 4.7-2.2 7.3z" fill="#ff8b7b"/>
  <path d="M166.9 456.2l18.1.3s-10.5-71.6-8.8-105c.5-10-1.2-24.3 1.5-39.5 3.4-19.1 5-26.7 9.3-51 3.2-17.2 6-29 6-29l-37.6-2.8s-12.3 86.3-12 119c.5 33.9 23.5 108 23.5 108z" fill="#9bd100"/>
  <path opacity=".2" d="M177.7 312c-1.3 8-1.8 16-1.6 24-3 8.8-5.8 17.2-7.7 24.6a4388 4388 0 01-13.7 51.7c-5.6-22.2-11-47.9-11.2-64.2z" fill="#000"/>
  <path d="M175.7 230.6s-27.2 65.1-36.3 95.1c-10 33-18 121.8-18 121.8l19.3 3s12.2-64.5 23.2-96c12.5-36 47-93 48.6-121z" fill="#9bd100"/>
  <path d="M119 447.5l24.3 4.2 2.5-9.4-26.5-3zM164.6 456.6l21.6.3.1-7-24.1-.7zM196.3 103.2c0 .8.5 1.5 1.1 1.5.6-.1 1-.8 1-1.7-.1-.8-.7-1.5-1.2-1.5-.6 0-1 .8-1 1.7zM208.2 102.5c0 .8.5 1.5 1.1 1.4.6 0 1-.7 1-1.6-.1-.8-.7-1.5-1.2-1.5-.6 0-1 .8-1 1.7z" fill="#263238"/>
  <path d="M203.2 103.1a31 31 0 004.7 7 5 5 0 01-4 1.1z" fill="#ff5652"/>
  <path d="M202.8 114.2a7.1 7.1 0 01-5.4-2v-.1-.2h.4a6.9 6.9 0 006 1.7.3.3 0 01.3.2v.2h-.2v.1l-1.1.1zM194 99.6l-.3-.1a.5.5 0 01-.2-.7 5 5 0 014.3-2.4.5.5 0 01.3.3.5.5 0 010 .4.5.5 0 01-.3.3h-.3a4 4 0 00-3 2 .6.6 0 01-.6.2zM211.4 98.4a.5.5 0 01-.4-.2 4 4 0 00-3-2.2.5.5 0 01-.5-.3.5.5 0 01.1-.5l.4-.2a5 5 0 013.9 2.6.5.5 0 010 .4v.2l-.2.1-.3.1z" fill="#263238"/>
  <path d="M121.8 463.6a12.6 12.6 0 002.7-1.4v-.1-.2h-.2c-.4-.1-4.4-1-5.3-.1a.8.8 0 00-.2.8 1.5 1.5 0 00.9 1.1c.7.2 1.5.2 2.1-.1zm1.8-1.4c-1.6 1-3 1.4-3.7 1a1 1 0 01-.6-.7.3.3 0 010-.4c.6-.5 2.7-.2 4.3.1z" fill="#9bd100"/>
  <path d="M124.3 462.4l.2-.1a.3.3 0 000-.3c0-.1-1.3-3-2.8-3.5a1.3 1.3 0 00-1.1 0 .8.8 0 00-.6.9c.2 1.2 3 2.7 4.2 3zm-3.4-3.5h.6c1 .4 1.9 2 2.3 2.8-1.3-.5-3.2-1.7-3.3-2.4 0-.1 0-.2.3-.4zM171 471l.2-.1v-.1-.2h-.1c-.5-.4-4.8-2.6-6-1.9-.2 0-.3.2-.4.3l-.1.4a1.4 1.4 0 00.5 1.2c1.1 1 4.2.7 6 .4zm-5.6-1.9c.8-.3 3 .7 4.8 1.5-2.4.4-4.2.2-4.8-.4a1 1 0 01-.3-.8v-.1l.2-.1z" fill="#9bd100"/>
  <path d="M171 471l.1-.1v-.1c0-.2-.2-3-1.5-4.2a1.8 1.8 0 00-1.4-.4c-.7 0-1 .4-1 .6-.2 1.2 2.3 3.6 3.6 4.2a.3.3 0 00.2 0zm-3-4.3h.3a1.3 1.3 0 011 .3 6 6 0 011.3 3.3c-1.3-.8-3-2.6-2.9-3.4a.3.3 0 01.3-.2z" fill="#9bd100"/>
  <path d="M225.6 147.5a270.2 270.2 0 0115.7 39.9l1.4 5.3.6 2.7v.3l.1.5.2 1 .2 2a19.7 19.7 0 01-5 14c-2.8 3.2-6 5.9-9.8 7.9a46.7 46.7 0 01-10.7 4.3l-3-7.4c5.1-3.5 10.5-8 13-12.3.5-1 1-2 1.2-3a5.8 5.8 0 00-.2-3l-.2-.7-.7-2.4-1.6-4.6c-1.1-3.2-2.3-6.3-3.6-9.4l-4-9.4c-2.6-6.2-5.5-12.5-8.3-18.7z" fill="#ff8b7b"/>
  <path d="M222.8 140.8c9.8 3 19.4 36.2 19.4 36.2l-22.6 9.9s-7.3-16-11.5-28.6c-4.6-13.7 2.9-21.2 14.7-17.5z" fill="#263238"/>
  <path d="M203.9 135.1s-2.5 5.8-21.9 9.7c3.7 2.3 7.5 4.5 11.4 6.5 0 0 18.7-2.6 17.9-14-1.3-1-7.4-2.2-7.4-2.2z" fill="#fff"/>
  <path d="M219.1 216.6l-10.8 3 4.4 10s9.7-2 9.6-7.4z" fill="#ff8b7b"/>
  <path d="M204.2 226.5l4.4 7 4-3.8-4.3-10.2z" fill="#ff8b7b"/>
  <path d="M314.9 211.7a.7.7 0 01-.5-.2.7.7 0 01-.1-.5c0-.4 2-40.3 47.3-62.6a.7.7 0 01.8.4.7.7 0 01-.2.8c-44.6 22-46.6 61-46.6 61.4v.2a.7.7 0 01-.7.5z" fill="#9bd100"/>
  <path d="M380.5 162.2l.8 1.2.6 1 1 2a73.7 73.7 0 014.7 12.1 86 86 0 013.2 16.7l.1 1v1.4l-.1 2.8c-.3 1.7-.7 3.4-1.3 5a34 34 0 01-4.7 8 56.6 56.6 0 01-12.4 11.7l-3.7-4.3c3.4-3.8 6.4-7.9 8.9-12.3 1.1-2 2-4 2.7-6.3a12 12 0 00.4-4v-.7l-.2-1a102.1 102.1 0 00-7.8-24.9l-.8-1.5-.5-.8-.3-.6z" fill="#803e3c"/>
  <path d="M368 225.1l4.9 10.2 3.8-8.6s-3.4-7.5-8-6.8zM380.6 235.3l3.8-6.3-7.7-2.3-3.8 8.6z" fill="#7f3e3b"/>
  <path d="M354.7 471.2a13.6 13.6 0 003-.5l.1-.1a.3.3 0 000-.3c-.5-.2-3.9-2.4-5.2-1.8a1 1 0 00-.5.7 1.5 1.5 0 00.5 1.3c.6.5 1.3.7 2 .7zm2.2-.8c-2 .4-3.4.3-4-.2a1 1 0 01-.3-1 .4.4 0 01.2-.3c.7-.3 2.7.7 4 1.5z" fill="#9bd100"/>
  <path d="M357.6 470.8a.3.3 0 00.2-.2c0-.2 0-3.4-1.2-4.5a1.3 1.3 0 00-1.1-.3 1 1 0 00-1 .7c-.2 1.3 1.9 3.7 3 4.3zm-2-4.5c.3 0 .5 0 .6.2a6 6 0 011 3.5c-1-.8-2.3-2.6-2.1-3.4 0-.1 0-.3.4-.3zM284.9 467.2a.3.3 0 00.2-.1.3.3 0 000-.3c-.4-.4-3.9-3.8-5.5-3.6a.8.8 0 00-.7.5 1.5 1.5 0 000 1.3c1 1.4 4 2 6 2.1zm-5.3-3.5c1 0 3 1.5 4.5 2.9-2.5-.3-4.2-1-4.7-1.8a1 1 0 010-1h.2z" fill="#9bd100"/>
  <path d="M284.9 467.2l.1-.2c0-.1.7-3-.3-4.6a1.9 1.9 0 00-1.3-.8c-.7-.2-1 .1-1.1.4-.6 1.1 1.2 4.2 2.3 5.2a.2.2 0 00.3 0zM283 462h.3a1.3 1.3 0 01.9.7c.5 1.1.6 2.4.4 3.7-1.1-1.2-2.2-3.5-2-4.2a.3.3 0 01.4-.2z" fill="#9bd100"/>
  <path d="M356.7 123.2c-1.3 6.6-4.2 21 .5 25.5 0 0-1.8 6.7-14.2 6.7-13.5 0-6.4-6.7-6.4-6.7 7.3-1.8 7.2-7.3 5.9-12.4z" fill="#7f3e3b"/>
  <path d="M334.2 107.5h.2a.5.5 0 00.4-.6l-.1-.2a5.3 5.3 0 00-3.9-3 .5.5 0 00-.4 1h.1l.2.1a4.2 4.2 0 013 2.4.5.5 0 00.5.3z" fill="#263238"/>
  <path d="M330.1 113.4c-1 2-2.3 3.7-3.9 5.3a3.9 3.9 0 003.2 1z" fill="#630f0f"/>
  <path d="M331.1 111.9c0 .9-.7 1.5-1.2 1.5-.6 0-1-.9-.9-1.8.1-.9.7-1.5 1.3-1.5.5.1 1 .9.8 1.8z" fill="#263238"/>
  <path d="M330.5 110.2l-2-.9s.8 1.8 2 1z" fill="#263238"/>
  <path d="M297 470.4l-11-2.5 5.2-25.3L302 445zM370.5 470.5h-11.1l.8-25.8h11.2z" fill="#7f3e3b"/>
  <path d="M358.5 469.2H371a.9.9 0 011 .8l1.4 10a1.8 1.8 0 01-.5 1.3 1.8 1.8 0 01-1.3.6c-4.4 0-6.5-.3-12-.3-3.4 0-8.4.3-13 .3-4.8 0-5-4.6-3-5 8.7-1.9 10-4.5 13-7 .5-.4 1.2-.7 1.9-.7zM286 466l12 3.6a.9.9 0 01.5 1l-1.5 10a1.8 1.8 0 01-2.3 1.2c-4.2-1.3-6.1-2.2-11.4-3.8-3.2-1-10-2.7-14.5-4-4.5-1.5-3.4-6-1.4-5.8 9 .8 13-.7 16.6-2.2a3 3 0 012 0z" fill="#263238"/>
  <path opacity=".2" d="M291.2 442.6l-2.8 13.6 11 2L302 445zM371.4 444.7h-11.2l-.4 13.3H371z" fill="#000"/>
  <path d="M376.4 151.2c4.7 1 9.6 17.7 9.6 17.7l-13 14s-11-15.7-8.8-21.4c2.3-6 6.7-11.5 12.2-10.3z" fill="#9bd100"/>
  <path opacity=".3" d="M376.4 151.2c4.7 1 9.6 17.7 9.6 17.7l-13 14s-11-15.7-8.8-21.4c2.3-6 6.7-11.5 12.2-10.3z" fill="#000"/>
  <path opacity=".4" d="M369 161.9c-2.3-2.2-4-1.6-5 .2-1 5 5.3 15.3 7.9 19.2 1.1-4.7 2.5-14.6-2.8-19.4z" fill="#000"/>
  <path d="M317.7 151.6s-5.4 1.8 5.3 67.4h45.4c-.8-18.5-.8-29.9 8-67.8a143.5 143.5 0 00-39.9-2.5c-8.8.8-18.8 2.9-18.8 2.9z" fill="#9bd100"/>
  <path opacity=".3" d="M317.7 151.6s-5.4 1.8 5.3 67.4h45.4c-.8-18.5-.8-29.9 8-67.8a143.5 143.5 0 00-39.9-2.5c-8.8.8-18.8 2.9-18.8 2.9z" fill="#000"/>
  <path opacity=".4" d="M317.3 176.7l1.2 10.8a24.5 24.5 0 005.7-18.4c-2.7 2.2-5 4.7-6.9 7.6z" fill="#000"/>
  <path d="M322.1 166.8a190.6 190.6 0 01-15.8 31c-.8 1.3-1.8 2.6-2.7 3.8l-1.4 1.8c-.7.9-1.4 1.6-2.2 2.2-1 1-2.2 1.6-3.6 2-1.4.4-2.9.5-4.4.2a12 12 0 01-5.9-3.1 38.3 38.3 0 01-9.2-16.4l5.2-2.3a88 88 0 004.8 6.5c1.4 2 3.1 3.6 5 5 .8.6 1.6.8 1.6.7l-.2-.1c-.1 0 0 0 0-.2s.2-.3.7-1l1-1.5c.8-1 1.5-2.2 2.2-3.3 2.6-4.6 5.1-9.5 7.5-14.5 2.4-5 4.6-10.2 6.7-15.2z" fill="#803e3c"/>
  <path d="M317.7 151.6c-5.6 1.3-12.4 16.6-12.4 16.6l11.5 16.9s15.4-19.3 13.5-25.2c-1.9-6.2-5.9-10-12.6-8.3z" fill="#9bd100"/>
  <path opacity=".3" d="M317.7 151.6c-5.6 1.3-12.4 16.6-12.4 16.6l11.5 16.9s15.4-19.3 13.5-25.2c-1.9-6.2-5.9-10-12.6-8.3z" fill="#000"/>
  <path d="M278.2 191.1l-9.1-5.3 7.2-6.3s6.6 5.2 6.9 9.9z" fill="#7f3e3b"/>
  <path d="M265 183.8l3.7-6.8 7.6 2.5-7.2 6.3zM361.6 112.5c-2 11-2.7 15.6-9 20.6-9.3 7.4-22.3 2.5-23.5-8.8-1.2-10.1 2.3-26.3 13.6-29.3a15.1 15.1 0 0118.9 17.5z" fill="#7f3e3b"/>
  <path d="M335.5 115.9c1 2.5-1.2 15-12 21.3 9.4 4.2 36.2 7.7 47.1-.1 11-7.8 2-45-11.7-43.9-5.8-7.7-34.7-7-23.4 22.7z" fill="#263238"/>
  <path d="M332.9 113.7a11 11 0 00-1.1 6c.3 2.7 2.3 2.7 3.8.8 1.5-1.9 2.8-5.3 1.7-7.4-1-2.2-3.3-1.7-4.4.6z" fill="#7f3e3b"/>
  <path d="M335 219s6.5 76.7 13.2 119.9c5.4 35 9.7 116.5 9.7 116.5h15.3s5.4-79.1 2.6-113.7c-7-87.3 8.6-94.5-7.4-122.7z" fill="#263238"/>
  <path opacity=".4" d="M350.3 244.9c-4 5.7-9.3 12.4-11 19.5 1.3 12.9 2.8 27.2 4.4 41a113.6 113.6 0 006.6-60.5z" fill="#000"/>
  <path d="M323 219s-12.6 86-17 119.8c-4.6 35.2-18 114-18 114l15 2.3s25.4-74.9 30.1-109.4C338.3 308 363.3 219 363.3 219z" fill="#263238"/>
  <path d="M285.7 452.9L305 456l2.1-7.2-20.4-3.5zM355.8 455.7h19.5l1-6.8-20.6-.7z" fill="#9bd100"/>
  <path d="M369 216.3l2.1 4c.2.4-.2.7-.7.7h-47.6c-.4 0-.8-.2-.8-.4l-.4-4c0-.3.3-.6.8-.6h46a.8.8 0 01.7.3z" fill="#fff"/>
  <path d="M362.9 221.4h1.2c.3 0 .5 0 .4-.2l-.5-5.4c0-.1-.3-.3-.5-.3h-1.2c-.3 0-.5.2-.4.3l.5 5.4.5.2zM333 221.4h1.3c.2 0 .4 0 .4-.2l-.6-5.4c0-.1-.2-.3-.4-.3h-1.3c-.2 0-.4.2-.4.3l.6 5.4c0 .1.2.2.5.2z" fill="#263238"/>
  <path d="M346.3 213.2l-29.9-4.4a4.9 4.9 0 00-5.5 4.2l-2.3 15.8a4.9 4.9 0 004.1 5.6l29.9 4.3c2.6.4 5.1-1.5 5.5-4.1l2.3-15.9a4.9 4.9 0 00-4.1-5.5z" fill="#9bd100"/>
  <path d="M325.6 222.6h-.3l-10.6-9.7a.3.3 0 01.4-.5l10.6 9.5 19.8-5.4a.3.3 0 01.3 0 .3.3 0 01.1.2.3.3 0 010 .2.3.3 0 01-.2.2l-20 5.5z" fill="#fff"/>
  <path d="M348 216.8c-.1 0-.3 0-.4-.2a.7.7 0 01-.1-.9 87.4 87.4 0 0013.8-67 .7.7 0 01.7-.3.7.7 0 01.4.3l.1.2a88.8 88.8 0 01-14.2 67.8h-.3z" fill="#9bd100"/>
  <path d="M101.5 158s-14 24.9-8.2 39.6c7 17.6 23.9 21.9 42.3 26.3 24.2 5.8 41.3-.2 64.5-9.2 16.9-6.6 29.5-10 38.8-25.6 4.7-7.9 2.8-18.1 7.3-22.3 4.4-4.3 10.3-3.3 6.8-2.6" stroke="#6f9600" stroke-width="4"/>
  <path d="M249.2 217.6a8.8 8.8 0 01-3.8-1.8c-.7-.6-.9-.9-1.3-1.7a7 7 0 01-1-4c0-1.7.3-3 .7-4.7.5-2.2.7-3.3 1.8-5.2.7-1.3 1.4-2 2-3.2.6-1.2-.1-1 .4-2.2.4-.8 1.5-2.2 2-3 .4-1 .1-1.6.8-2.4.6-.7.4-1.5 1-2.4.6-1 2.1-1.7 2.1-2.4l.3-13c0-.4-.8-.2-.8-.5v-5.3c-.1-1.5-.6-2.3-.5-4 0-1.9.2-3.1 1.1-4.7l1.4-1.4-1.2-2.4c-.2-.5.5-1 1-1.4 1-.7 1.4-.5 1.8 0l.5.5s.4-1.2.4-2c0-.7-.1-1.1-.3-1.8-.3-1-1.2-1.3-1.2-2.3v-7.7c0-.4 1.3-2.7 1.3-4v-12.2c0-.2-1.2-1.3-1.2-1.6 0-.4 0-8.7.2-9.1.7-1.5 1.6-2.8 1.8-3.8.1-.5.1-2.9-.2-3-1-.7-11.8-.4-19.1-2.3-1.4-.4-3-2.4-1.7-3 1.7-1 4.7-1.4 4.7-1.4V79.6s10.2-4 16.9-3.9c7.3.1 18.4 3.9 18.4 3.9l-.4 19.7s5.2 1 5 1.5a5.7 5.7 0 01-1.4 2.5c-.7.8-9 1.3-9 1.3l-10 .2c-.4 0-.2 1.6-.1 3.1 0 1.6 1.6 3.4 1.6 3.8v9c0 .4-1.1 1.5-1.1 1.7v12.1c0 1.8.7 3.8.7 4v7.7c0 .4-1.2 2.4-1.2 2.4s-.5 1.2-.5 2c0 1 .2 1.4.5 2.3.7 2.3 2.9 3.6 3.4 5 .6 1.5.7 2.4.6 4 0 1.2-.4 1.9-.6 3-.3 2.4-.2 6-.2 6.2 0 .2-.5.4-.5.4s-.2 12.7 0 13.1c.4 1.3 1.4 1.7 2.2 3.2.2.4 0 1.3.3 1.8.4.7.8 1 1.1 1.7.3.6 0 1 .2 1.7.2 1 1 1.1 1.3 2.1.3.8-.2 1.5.3 2 2.7 3 3.5 9 3.5 9s.9 5.8-1.2 8.5a8 8 0 01-5.2 3.4c-3.9.8-5.9.7-10 .7-3.2 0-4.6-.4-7.6-1.1z" fill="#9bd100"/>
  <path d="M243.8 205.4c.5-2.2.7-3.3 1.8-5.2.7-1.3 1.4-2 2-3.2.6-1.2-.1-1 .4-2.2.4-.8 1.5-2.2 2-3 .4-1 .1-1.6.8-2.4.6-.7.4-1.5 1-2.4.6-1 2.1-1.7 2.1-2.4l.3-13c0-.4-.8-.2-.8-.5v-5.3c-.1-1.5-.6-2.3-.5-4 0-1.9.2-3.1 1.1-4.7l1.4-1.4-1.2-2.4c-.2-.5.5-1 1-1.4m-11.4 53.5h0m0 0s0 0 0 0m12.6-59c0 1 .9 1.3 1.2 2.2.2.7.3 1 .3 1.8s-.4 2-.4 2l-.5-.6c-.4-.4-.8-.6-1.7.1m1.1-5.6v-7.7m0 7.7v-7.7m0 0c0-.4 1.3-2.7 1.3-4m0 0v-12.2m0 12.1v-12m0 0c0-.3-1.2-1.4-1.2-1.7 0-.4 0-8.7.2-9.1.7-1.5 1.6-2.8 1.8-3.8.1-.5.1-2.9-.2-3-1-.7-11.8-.4-19.1-2.3-1.4-.4-3-2.4-1.7-3 1.7-1 4.7-1.4 4.7-1.4V79.6s10.2-4 16.9-3.9c7.3.1 18.4 3.9 18.4 3.9l-.4 19.7s5.2 1 5 1.5a5.7 5.7 0 01-1.4 2.5c-.7.8-9 1.3-9 1.3l-10 .2c-.4 0-.2 1.6-.1 3.1 0 1.6 1.6 3.4 1.6 3.8m0 0v9m0-9v9m0 0c0 .4-1.1 1.5-1.1 1.7m0 0v12.1m0-12v12m0 0c0 1.8.7 3.8.7 4v7.7c0 .4-1.2 2.4-1.2 2.4s-.5 1.2-.5 2c0 1 .2 1.4.5 2.3.7 2.3 2.9 3.6 3.4 5 .6 1.5.7 2.4.6 4 0 1.2-.4 1.9-.6 3-.3 2.4-.2 6-.2 6.2 0 .2-.5.4-.5.4s-.2 12.7 0 13.1c.4 1.3 1.4 1.7 2.2 3.2.2.4 0 1.3.3 1.8.4.7.8 1 1.1 1.7.3.6 0 1 .2 1.7.2 1 1 1.1 1.3 2.1.3.8-.2 1.5.3 2 2.7 3 3.5 9 3.5 9s.9 5.8-1.2 8.5a8 8 0 01-5.2 3.4c-3.9.8-5.9.7-10 .7-3.2 0-4.6-.4-7.6-1.1a8.8 8.8 0 01-3.8-1.8c-.7-.6-.9-.9-1.3-1.7a7 7 0 01-1-4c0-1.7.3-3 .7-4.7m11.5-53.5h0m0 0s0 0 0 0" stroke="#9bd100"/>
  <path d="M106.2 145.3l18-35s.5 0 .6-.2c.1-.3-.2-.7-.2-.7l1.6.9s-.6-.1-.7.2c0 .2.3.5.3.5l-16.3 35.8zM101 154.3l-1.4 2.8 3.8 1.9 1.2-1.9z" fill="#9bd100" stroke="#9bd100"/>
</svg>
