<svg width="529" height="502" fill="none" xmlns="http://www.w3.org/2000/svg">
  <path d="M594.3 443.3h-668v.3h668zM527.4 464.8h-44.3v.3h44.3zM368.8 468.4h-11.6v.4h11.6zM481.8 452.4h-25.6v.3h25.6zM54.1 454.6H-3.6v.4h57.7zM74.5 454.6H66v.4h8.5zM227.1 460.3H102v.3H227zM243 383.7H-15a7.6 7.6 0 01-7.6-7.6V13.5A7.6 7.6 0 01-15 5.9h258a7.6 7.6 0 017.6 7.6v362.6a7.6 7.6 0 01-7.6 7.6zM-15 6.2a7.3 7.3 0 00-7.3 7.3V376a7.3 7.3 0 007.3 7.3h258a7.3 7.3 0 007.3-7.3V13.5a7.3 7.3 0 00-7.3-7.3zM532 383.7H274a7.6 7.6 0 01-7.7-7.6V13.5a7.6 7.6 0 017.7-7.6h258a7.6 7.6 0 017.6 7.6V376a7.6 7.6 0 01-7.6 7.6zM274 6.2a7.3 7.3 0 00-7.3 7.3V376a7.3 7.3 0 007.3 7.3h258a7.3 7.3 0 007.2-7.3V13.5a7.3 7.3 0 00-7.2-7.3z" fill="#ebebeb"/>
  <path d="M307.3 91.3a7.6 7.6 0 00-9.7-7.3l.2-2.3a16 16 0 00-19-15.8 14 14 0 00-26 7.1h-.2a12.9 12.9 0 000 25.8H300a7.5 7.5 0 007.4-7.5zM88 263.1a7.2 7.2 0 00-9.3-6.9 15.3 15.3 0 00-18-17.3 13.4 13.4 0 00-24.8 6.8h-.2a12.3 12.3 0 100 24.7h45.2a7.2 7.2 0 007-7.3zM486.7 84.7a4.4 4.4 0 00-5.7-4.2V79a9.4 9.4 0 00-11-9.1 8.2 8.2 0 00-15.2 4.1h-.1a7.6 7.6 0 000 15.1h27.7a4.4 4.4 0 004.3-4.5zM67 82a3.3 3.3 0 00-4.2-3v-1.1a7 7 0 00-8.2-6.8 6 6 0 00-11.3 3h-.1a5.6 5.6 0 000 11.2h20.6A3.3 3.3 0 0067 82z" fill="#f0f0f0"/>
  <path d="M482.3 203.2c.3-1 .4-2.1.5-3.2.4-6.7 6.7-5.6 12.1-6.5 4.2-.7-7-11.3 1.6-14.7a7.4 7.4 0 004-2.9c1.1-2 0-4.6-1.8-5.9-2-1.1-4.2-1.7-6.4-1.6-1.4-1.7-.3-4.2 1-6 1.4-1.7 3-3.6 2.5-5.7-.8-3.2-5.2-3.3-8.5-2.7-1.2-2-1.1-4.3-1.7-6.5-.6-2.2-2.3-4.5-4.6-4.3-2.2.3-3.4 2.7-5.5 3.2-2.4.6-4.5-1.6-6.4-3.2-2-1.6-5.2-2.6-6.5-.5-.8 1.3-.3 3-1.2 4.3-1.4 2.2-4.7.8-6.8-.7-2-1.6-5.3-3-6.8-.8a9 9 0 00-.8 2.2c-1 2.8-4 4.3-6.5 6-2.4 1.9-4.2 5.5-2.2 7.7 1 1.1 2.7 1.6 3.2 3 .6 1.7-1.2 3.3-2.6 4.5-2.3 2-2.7 8 .4 9.6 1.3.6 3.2.8 3.5 2.3.3 1.4-1 2.3-1.9 3.3a6.1 6.1 0 001.9 9.1c.7.4 1.7.7 2 1.5 0 .5 0 1.1-.2 1.7a9 9 0 00-.3 3.3c0 .4.1.8.4 1 .3.3.6.3 1 .3 4.4.2 6.6-1.3 9.3 2.5.2.4.5.8 1 1 .3.2.7.3 1.2.3 3 .3 5-1.6 7.9-2 3.9-.5 4.7 1.5 8.1 3.1 5.5 2.6 8 1 9.1-2.7z" fill="#ebebeb"/>
  <path d="M430.7 197.6c.3-1 .5-2 .5-3.2.4-6.6 6.7-5.5 12.1-6.4 4.2-.7-6.9-11.4 1.6-14.8a7.5 7.5 0 004-2.9 4.8 4.8 0 00-1.8-5.8c-2-1.2-4.2-1.8-6.4-1.7-1.3-1.6-.3-4.2 1-5.9 1.4-1.7 3-3.7 2.5-5.8-.7-3.2-5.2-3.3-8.4-2.7-1.2-2-1.2-4.3-1.8-6.5-.6-2.2-2.3-4.5-4.6-4.3-2.2.3-3.4 2.7-5.5 3.2-2.4.6-4.5-1.6-6.4-3.2-1.9-1.6-5.2-2.6-6.5-.5-.8 1.3-.3 3-1.1 4.3-1.4 2.2-4.8.8-6.9-.7-2-1.5-5.3-3-6.8-.8a9 9 0 00-.8 2.2c-1 2.9-4 4.3-6.4 6-2.5 2-4.3 5.5-2.3 7.7 1 1.1 2.8 1.6 3.2 3 .7 1.7-1.1 3.3-2.5 4.5-2.4 2-2.8 8 .3 9.6 1.3.6 3.2.9 3.5 2.3.4 1.4-1 2.3-1.9 3.3a6.2 6.2 0 002 9c.7.5 1.6.7 1.9 1.5.1.6 0 1.2-.2 1.8a9 9 0 00-.2 3.8c0 .2.2.4.3.5.3.2.7.3 1 .3 4.5.2 6.7-1.3 9.4 2.5.2.4.5.7.9 1l1.2.3c3.1.3 5.1-1.7 8-2 3.8-.5 4.7 1.5 8 3.1 5.5 2.6 8.1 1 9.1-2.7z" fill="#ebebeb"/>
  <path d="M425.8 164.8c.2-1 .4-2.1.4-3.2.4-6.7 6.7-5.6 12.2-6.5 4.2-.7-7-11.3 1.5-14.8a7.5 7.5 0 004.1-2.8c1-2 0-4.6-1.8-5.9-2-1.1-4.2-1.7-6.5-1.6-1.3-1.7-.2-4.2 1.1-6 1.3-1.7 3-3.6 2.5-5.7-.8-3.2-5.3-3.3-8.5-2.7-1.2-2-1.2-4.3-1.7-6.5-.6-2.2-2.4-4.5-4.6-4.3-2.3.3-3.4 2.7-5.5 3.2-2.5.6-4.5-1.6-6.4-3.2-2-1.6-5.3-2.6-6.6-.5-.8 1.3-.3 3-1.1 4.3-1.3 2.1-4.8.8-6.8-.7-2.1-1.6-5.4-3-6.9-.8a9 9 0 00-.8 2.2c-1 2.8-4 4.2-6.4 6-2.4 1.9-4.3 5.5-2.3 7.7 1 1.1 2.8 1.6 3.3 3 .6 1.7-1.2 3.2-2.6 4.4-2.3 2-2.8 8 .3 9.6 1.4.7 3.2 1 3.6 2.4.3 1.4-1 2.3-2 3.3a6.1 6.1 0 002 9.1c.7.4 1.6.7 1.9 1.4a3 3 0 01-.2 1.8c-.3 1-.4 2.2-.3 3.3 0 .4.2.8.4 1 .3.2.7.3 1 .3 4.5.2 6.7-1.3 9.4 2.5.2.4.5.8 1 1 .3.2.7.3 1.1.3 3.1.3 5.1-1.6 8-2 3.8-.5 4.7 1.5 8.1 3.1 5.4 2.5 8 1 9-2.7z" fill="#ebebeb"/>
  <path d="M391.8 181.2c.3-1 .4-2.2.5-3.2.4-6.7 6.7-5.6 12.1-6.5 4.2-.7-7-11.4 1.6-14.8 1.6-.4 3-1.5 4-2.8 1.1-2 0-4.6-1.8-6-2-1.1-4.2-1.7-6.4-1.5-1.4-1.7-.3-4.3 1-6 1.4-1.7 3-3.7 2.5-5.8-.8-3.2-5.2-3.3-8.5-2.6-1.2-2-1.1-4.4-1.7-6.6-.6-2.2-2.3-4.5-4.6-4.2-2.2.3-3.4 2.7-5.5 3.1-2.4.6-4.5-1.5-6.4-3.1-2-1.6-5.2-2.7-6.5-.5-.8 1.3-.3 3-1.2 4.2-1.4 2.2-4.7.9-6.8-.7-2-1.5-5.3-2.9-6.8-.8a9 9 0 00-.8 2.3c-1 2.8-4 4.2-6.5 6-2.4 1.8-4.2 5.5-2.2 7.7 1 1 2.7 1.5 3.2 2.9.6 1.7-1.2 3.3-2.6 4.5-2.3 2-2.7 8 .4 9.6 1.3.7 3.2.9 3.5 2.3.3 1.5-1 2.3-1.9 3.3a6.2 6.2 0 001.9 9.2c.7.3 1.7.6 2 1.4 0 .6 0 1.2-.2 1.7a9 9 0 00-.3 3.4c0 .3.1.7.4 1 .3.2.6.3 1 .3 4.4.2 6.6-1.4 9.3 2.5.2.4.5.7 1 1 .3.2.7.3 1.2.3 3 .2 5-1.7 7.9-2 3.9-.5 4.7 1.5 8.1 3 5.5 2.6 8 1 9.1-2.6z" fill="#ebebeb"/>
  <path d="M357.5 173.6l.5-3.2c.4-6.7 6.6-5.6 12-6.5 4.3-.7-6.9-11.3 1.6-14.7a7.5 7.5 0 004.1-2.9 4.8 4.8 0 00-1.8-5.9c-2-1.2-4.2-1.7-6.5-1.6-1.3-1.7-.2-4.2 1.1-6 1.3-1.7 3-3.6 2.5-5.7-.8-3.2-5.3-3.3-8.5-2.7-1.2-2-1.2-4.4-1.7-6.5-.6-2.2-2.4-4.6-4.6-4.3-2.3.3-3.4 2.7-5.5 3.2-2.4.5-4.5-1.6-6.4-3.2-2-1.6-5.3-2.6-6.6-.5-.7 1.3-.3 3-1.1 4.3-1.4 2.1-4.8.8-6.8-.7-2-1.6-5.4-3-6.9-.8a9 9 0 00-.8 2.2c-1 2.8-4 4.2-6.4 6-2.4 1.9-4.3 5.5-2.3 7.7 1 1 2.8 1.5 3.3 3 .6 1.7-1.2 3.2-2.6 4.4-2.3 2-2.8 8 .3 9.6 1.4.7 3.2 1 3.6 2.4.3 1.4-1 2.2-2 3.2a6.2 6.2 0 002 9.2c.7.4 1.6.7 1.9 1.4.1.6 0 1.2-.2 1.8a9 9 0 00-.2 3.8l.3.5c.3.2.7.3 1 .3 4.5.2 6.7-1.3 9.4 2.5.2.4.5.8 1 1 .3.2.7.3 1.1.3 3.1.3 5.1-1.7 8-2 3.9-.5 4.7 1.5 8.1 3.1 5.5 2.6 8.1 1 9-2.7z" fill="#ebebeb"/>
  <path d="M357 210.3c.2-.8.4-1.7.4-2.5.3-5.2 5.3-4.4 9.5-5.1 3.4-.6-5.4-9 1.3-11.7a6 6 0 003.2-2.2 3.8 3.8 0 00-1.5-4.6 8.9 8.9 0 00-5-1.4c-1.1-1.3-.2-3.3.8-4.6 1-1.4 2.4-3 2-4.6-.6-2.5-4.2-2.7-6.7-2.1-1-1.5-1-3.5-1.4-5.2-.4-1.7-1.8-3.5-3.6-3.3-1.7.2-2.6 2-4.3 2.5-1.9.4-3.5-1.3-5-2.5-1.5-1.3-4.2-2-5.2-.4-.6 1-.2 2.4-.9 3.3-1 1.7-3.7.7-5.3-.5-1.6-1.2-4.2-2.3-5.4-.6-.2.5-.5 1.1-.6 1.7-.8 2.2-3.2 3.3-5 4.8-2 1.4-3.4 4.3-1.8 6 .8.9 2.1 1.2 2.5 2.3.5 1.3-.9 2.7-2 3.6-1.8 1.5-2.2 6.2.3 7.5 1 .6 2.5.7 2.7 1.8.3 1.2-.8 1.8-1.4 2.6a4.9 4.9 0 001.4 7.3c.6.2 1.4.5 1.6 1 0 .5 0 1-.2 1.4a7 7 0 00-.2 2.7c0 .3.1.6.3.8.2.2.5.2.8.2 3.5.2 5.2-1 7.4 2 .1.3.4.6.7.8l1 .2c2.4.2 4-1.3 6.2-1.6 3-.4 3.7 1.2 6.4 2.5 4.2 2 6.2.8 7-2.1z" fill="#ebebeb"/>
  <path d="M337.8 197.6c.3-1 .4-2 .5-3.2.4-6.6 6.7-5.5 12.1-6.4 4.2-.7-7-11.4 1.6-14.8a7.4 7.4 0 004-2.9c1.1-2 0-4.6-1.8-5.8-2-1.2-4.2-1.8-6.4-1.7-1.4-1.6-.3-4.2 1-5.9 1.4-1.7 3-3.7 2.5-5.8-.7-3.2-5.2-3.3-8.4-2.7-1.2-2-1.2-4.3-1.8-6.5-.6-2.2-2.3-4.5-4.6-4.3-2.2.3-3.4 2.7-5.5 3.2-2.4.6-4.5-1.6-6.4-3.2-1.9-1.6-5.2-2.6-6.5-.5-.8 1.3-.3 3-1.1 4.3-1.5 2.2-4.8.8-6.9-.7-2-1.5-5.3-3-6.8-.8a9 9 0 00-.8 2.2c-1 2.9-4 4.3-6.5 6-2.4 2-4.2 5.5-2.2 7.7 1 1.1 2.7 1.6 3.2 3 .6 1.7-1.1 3.3-2.5 4.5-2.4 2-2.8 8 .3 9.6 1.3.6 3.2.9 3.5 2.3.3 1.4-1 2.3-1.9 3.3a6.1 6.1 0 002 9.1c.7.4 1.6.7 1.9 1.5a3 3 0 01-.2 1.7c-.3 1-.4 2.2-.3 3.3 0 .4.1.8.4 1 .3.3.6.4 1 .3 4.4.2 6.6-1.3 9.3 2.6.2.4.6.7 1 1l1.2.3c3 .2 5-1.7 7.9-2 3.9-.6 4.7 1.4 8.1 3 5.5 2.6 8 1 9.1-2.7zM391.8 140.8c.3-1 .4-2 .5-3.2.4-6.6 6.7-5.5 12.1-6.4 4.2-.8-7-11.4 1.6-14.8a7.4 7.4 0 004-2.9 4.8 4.8 0 00-1.8-5.9c-2-1.1-4.2-1.7-6.4-1.6-1.4-1.7-.3-4.2 1-5.9 1.4-1.7 3-3.7 2.5-5.8-.8-3.2-5.2-3.3-8.5-2.7-1.2-2-1.1-4.3-1.7-6.5-.6-2.2-2.3-4.5-4.6-4.3-2.2.3-3.4 2.7-5.5 3.2-2.4.6-4.5-1.6-6.4-3.2-2-1.6-5.2-2.7-6.5-.5-.8 1.3-.3 3-1.2 4.3-1.4 2.2-4.7.8-6.8-.7-2-1.5-5.3-3-6.8-.8a9 9 0 00-.8 2.2c-1 2.9-4 4.3-6.5 6-2.4 1.9-4.2 5.5-2.2 7.7 1 1.1 2.7 1.6 3.2 3 .6 1.7-1.2 3.3-2.6 4.5-2.3 2-2.7 8 .4 9.6 1.3.6 3.2.9 3.5 2.3.3 1.4-1 2.3-1.9 3.3a6.1 6.1 0 001.9 9.1c.7.4 1.7.7 2 1.5 0 .5 0 1.2-.2 1.7a9 9 0 00-.3 3.3c0 .4.1.8.4 1 .3.3.6.4 1 .3 4.4.2 6.6-1.3 9.3 2.6.2.3.5.7 1 1l1.2.2c3 .3 5-1.6 7.9-2 3.9-.5 4.7 1.5 8.1 3.2 5.5 2.4 8 .9 9.1-2.8z" fill="#ebebeb"/>
  <path d="M436 143l.4-3.2c.4-6.7 6.7-5.6 12.1-6.5 4.2-.7-7-11.3 1.6-14.7a7.5 7.5 0 004-2.8c1.1-2 0-4.6-1.8-5.9-2-1.2-4.2-1.7-6.4-1.6-1.4-1.7-.3-4.2 1-6 1.4-1.7 3-3.6 2.5-5.7-.8-3.2-5.2-3.4-8.5-2.7-1.2-2-1.1-4.4-1.7-6.6-.6-2.2-2.3-4.5-4.6-4.2-2.2.3-3.4 2.7-5.5 3.2-2.4.5-4.5-1.6-6.4-3.2-2-1.6-5.2-2.6-6.5-.5-.8 1.3-.3 3-1.2 4.3-1.4 2.1-4.7.8-6.8-.8-2-1.5-5.3-2.9-6.8-.7-.4.7-.7 1.4-.8 2.2-1 2.8-4 4.2-6.5 6-2.4 1.9-4.2 5.5-2.2 7.7 1 1 2.7 1.5 3.2 3 .6 1.7-1.2 3.2-2.6 4.4-2.3 2-2.7 8 .4 9.6 1.3.7 3.2 1 3.5 2.3.3 1.5-1 2.3-1.9 3.3a6.2 6.2 0 001.9 9.2c.8.4 1.7.6 2 1.4 0 .6 0 1.2-.2 1.7a9 9 0 00-.3 3.4c0 .4.1.7.4 1 .3.2.6.3 1 .3 4.4.2 6.6-1.3 9.3 2.5.2.4.5.7 1 1 .3.2.7.3 1.2.3 3 .3 5-1.7 7.9-2 3.9-.5 4.7 1.5 8.1 3.1 5.5 2.5 8 1 9.1-2.8z" fill="#ebebeb"/>
  <path d="M462.7 161c.3-1 .4-2 .5-3.1.4-6.7 6.7-5.6 12-6.5 4.3-.7-6.8-11.3 1.6-14.8 1.7-.4 3.1-1.4 4.1-2.8 1.1-2 0-4.6-1.8-6-2-1-4.2-1.6-6.5-1.5-1.3-1.7-.2-4.3 1.1-6 1.4-1.7 3-3.6 2.5-5.8-.8-3.2-5.2-3.3-8.5-2.6-1.2-2-1.1-4.4-1.7-6.6-.6-2.2-2.3-4.5-4.6-4.2-2.3.3-3.4 2.7-5.5 3.1-2.4.6-4.5-1.5-6.4-3.1-2-1.6-5.2-2.7-6.6-.5-.7 1.3-.3 3-1 4.2-1.5 2.2-4.8.9-6.9-.7-2-1.5-5.3-2.9-6.9-.8l-.8 2.3c-1 2.8-4 4.2-6.4 6-2.4 1.8-4.3 5.4-2.2 7.7 1 1 2.7 1.5 3.2 2.9.6 1.7-1.2 3.3-2.6 4.5-2.3 2-2.7 8 .4 9.6 1.3.7 3.2.9 3.5 2.3.3 1.5-1 2.3-1.9 3.3a6.1 6.1 0 001.9 9.2c.7.3 1.6.6 2 1.4 0 .6 0 1.2-.2 1.7a9.4 9.4 0 00-.3 3.9 1.2 1.2 0 001.3.8c4.5.2 6.7-1.3 9.3 2.5l1 1c.3.2.8.3 1.2.3 3 .3 5-1.7 7.9-2 3.9-.5 4.7 1.5 8.2 3.1 5.5 2.5 8 1 9-2.7z" fill="#ebebeb"/>
  <path d="M454.6 183.9s-11.2 15.8-15.1 20.8c-3.9 5-23.2 36.3-25.8 57l-.8 5.8c8.3 54.8 7 155.2 6.7 172.4h-26.3A16896 16896 0 00390 238a67.2 67.2 0 00-29-36.4c-17-9-31.6-38.6-31.6-38.6h5.4s10 18.2 24.4 28.2a54 54 0 006.4 3.8c-.5-16.3 5.7-32 5.7-32l2.9 2.6a75.1 75.1 0 00-2.2 32.5 58.8 58.8 0 0114.7 10c14.9-19.3 23.3-63.4 23.3-63.4l3.8 2c-1.1 9.2-2.8 18.2-5 27.1-2.7 11.5-10.9 33-14.7 42.7 4.6 6.5 8.3 13.6 11.2 21l1.4-1.7c9.7-8.7 27.8-50 27.8-50 4.4-9.6-2.3-34.7-2.3-34.7h5.1l2.3 22 12.7-14 2.3 2-13.5 17.4-7 22 18.2-20z" fill="#e6e6e6"/>
  <path d="M315.6 273.2c.2-.8.3-1.5.3-2.3.3-4.6 4.8-4 8.6-4.5 3-.5-5-8 1-10.4 1.2-.4 2.2-1 3-2a3.4 3.4 0 00-1.4-4.2 8 8 0 00-4.6-1.1c-1-1.2-.1-3 .8-4.2 1-1.2 2.1-2.6 1.8-4.1-.6-2.3-3.7-2.3-6-1.9-.6-1.5-1-3-1.2-4.6-.5-1.6-1.7-3.2-3.3-3-1.6.2-2.4 1.9-3.8 2.2-1.8.4-3.2-1-4.6-2.2-1.3-1.1-3.6-1.8-4.6-.3-.5.8-.2 2-.8 3-1 1.5-3.3.5-4.8-.5-1.4-1.1-3.8-2-4.8-.6l-.6 1.6c-.7 2-2.8 3-4.5 4.2-1.7 1.3-3 3.9-1.6 5.4.7.7 2 1 2.3 2 .4 1.3-.8 2.4-1.8 3.2-1.7 1.4-2 5.6.2 6.8 1 .5 2.3.6 2.5 1.6.2 1-.7 1.6-1.3 2.3a4.3 4.3 0 001.3 6.5c.5.2 1.2.4 1.4 1 0 .4 0 .8-.2 1.2-.2.8-.3 1.5-.2 2.3 0 .3.1.6.3.8l.7.2c3.1.1 4.7-1 6.6 1.7l.7.7c.2.2.5.2.8.3 2.2.1 3.6-1.2 5.6-1.5 2.7-.3 3.3 1.1 5.7 2.2 4 1.9 5.8.8 6.5-1.8z" fill="#e0e0e0"/>
  <path d="M279.3 269.2c.2-.7.3-1.4.3-2.2.3-4.7 4.7-4 8.5-4.6 3-.5-4.9-8 1.1-10.4 1.2-.3 2.2-1 3-2a3.4 3.4 0 00-1.4-4.1 8 8 0 00-4.6-1.2c-1-1.1-.1-3 .8-4.1 1-1.2 2.1-2.6 1.7-4.1-.5-2.3-3.6-2.4-6-2-.8-1.3-.7-3-1.2-4.5-.4-1.6-1.6-3.2-3.2-3-1.6.2-2.4 1.9-3.9 2.2-1.7.4-3.1-1.1-4.5-2.2-1.3-1.1-3.7-1.9-4.6-.4-.5 1-.2 2.2-.8 3-1 1.6-3.3.6-4.8-.5-1.4-1-3.8-2-4.8-.5l-.6 1.5c-.6 2-2.8 3-4.5 4.3-1.7 1.3-3 3.8-1.6 5.4.7.7 2 1 2.3 2 .4 1.2-.8 2.4-1.8 3.2-1.7 1.4-2 5.6.2 6.8 1 .4 2.3.6 2.5 1.6.2 1-.7 1.6-1.3 2.3a4.3 4.3 0 001.3 6.5c.5.2 1.2.4 1.3 1v1.2c-.3.7-.4 1.5-.3 2.3 0 .3.1.6.3.8l.7.2c3.1.1 4.7-1 6.6 1.7l.7.7c.2.2.5.2.8.2 2.2.2 3.6-1.1 5.6-1.4 2.7-.3 3.3 1 5.7 2.2 3.9 1.8 5.7.8 6.5-1.9z" fill="#e0e0e0"/>
  <path d="M275.8 246.1c.2-.7.3-1.5.3-2.2.3-4.7 4.7-4 8.5-4.6 3-.5-4.9-8 1.1-10.4 1.2-.3 2.2-1 3-2a3.4 3.4 0 00-1.4-4.2 8 8 0 00-4.6-1.1c-1-1.2-.1-3 .8-4.2 1-1.2 2.1-2.6 1.7-4-.5-2.3-3.6-2.4-6-2-.8-1.3-.7-3-1.2-4.6-.4-1.5-1.6-3.1-3.2-3-1.6.3-2.4 2-3.9 2.3-1.7.4-3.1-1.1-4.5-2.3-1.3-1.1-3.7-1.8-4.6-.3-.5.9-.2 2.1-.8 3-1 1.5-3.3.6-4.8-.5-1.4-1-3.8-2-4.8-.5a6 6 0 00-.6 1.5c-.6 2-2.8 3-4.5 4.3-1.7 1.3-3 3.8-1.6 5.3.7.8 2 1.1 2.3 2 .4 1.3-.8 2.4-1.8 3.2-1.7 1.5-2 5.7.2 6.8 1 .5 2.3.6 2.5 1.6.2 1-.7 1.7-1.3 2.4a4.3 4.3 0 001.3 6.4c.5.3 1.2.5 1.3 1v1.2c-.3.8-.4 1.6-.3 2.4 0 .3.1.5.3.7.2.2.4.2.7.2 3.1.1 4.7-1 6.6 1.8l.7.7.8.2c2.2.2 3.6-1.2 5.6-1.4 2.7-.4 3.3 1 5.7 2.2 3.9 1.8 5.7.7 6.5-1.9z" fill="#e0e0e0"/>
  <path d="M251.8 257.6l.4-2.2c.2-4.7 4.7-4 8.5-4.6 3-.5-4.9-8 1.1-10.4 1.2-.3 2.2-1 2.9-2a3.4 3.4 0 00-1.4-4.1 8 8 0 00-4.5-1.2c-1-1.2-.2-3 .8-4.1 1-1.3 2-2.6 1.7-4.1-.5-2.3-3.7-2.4-6-2-.8-1.3-.8-3-1.2-4.5-.4-1.6-1.6-3.2-3.2-3-1.6.2-2.4 1.8-3.9 2.2-1.7.4-3.2-1.1-4.5-2.2-1.3-1.2-3.7-1.9-4.6-.4-.5 1-.2 2.2-.8 3-1 1.5-3.3.6-4.8-.5-1.5-1-3.8-2-4.8-.5l-.6 1.5c-.7 2-2.8 3-4.5 4.3-1.7 1.3-3 3.8-1.6 5.4.7.7 2 1 2.3 2 .4 1.2-.8 2.3-1.8 3.2-1.7 1.4-2 5.6.2 6.7 1 .5 2.3.7 2.5 1.7.2 1-.7 1.6-1.4 2.3a4.4 4.4 0 001.4 6.5c.5.2 1.1.4 1.3 1 .1.4 0 .8-.1 1.2-.2.7-.3 1.5-.2 2.3 0 .3 0 .6.3.8.2 0 .4.2.7.1 3.1.2 4.6-1 6.6 1.8.1.3.3.5.6.7.3.2.6.2.9.2 2.1.2 3.6-1.1 5.5-1.4 2.8-.3 3.4 1 5.8 2.2 3.9 1.8 5.7.7 6.4-1.9z" fill="#e0e0e0"/>
  <path d="M227.7 252.3l.3-2.2c.3-4.7 4.7-4 8.5-4.6 3-.5-4.9-8 1.1-10.4 1.2-.3 2.2-1 2.9-2a3.4 3.4 0 00-1.3-4.2c-1.4-.8-3-1.2-4.6-1.1-1-1.2-.2-3 .8-4.2 1-1.2 2-2.6 1.7-4-.5-2.3-3.7-2.4-6-2-.8-1.3-.8-3-1.2-4.6-.4-1.5-1.6-3.1-3.2-3-1.6.3-2.4 2-3.9 2.3-1.7.4-3.2-1.1-4.5-2.3-1.3-1.1-3.7-1.8-4.6-.3-.5.9-.2 2.1-.8 3-1 1.5-3.3.6-4.8-.5-1.4-1-3.8-2-4.8-.5-.3.4-.5 1-.6 1.5-.7 2-2.8 3-4.5 4.3-1.7 1.3-3 3.8-1.6 5.3.7.8 2 1.1 2.3 2 .4 1.3-.8 2.4-1.8 3.3-1.7 1.3-2 5.6.2 6.6 1 .5 2.3.7 2.5 1.7.2 1-.7 1.6-1.4 2.3a4.4 4.4 0 001.4 6.5c.5.2 1.1.4 1.3 1 .1.4 0 .8-.1 1.2-.2.7-.3 1.5-.2 2.3 0 .3 0 .6.3.7.2.2.4.3.7.2 3.1.2 4.6-1 6.6 1.8.1.3.3.5.6.7.3.2.6.2.9.2 2.1.2 3.6-1.1 5.6-1.4 2.7-.3 3.3 1 5.7 2.2 3.9 2 5.7.8 6.5-1.8z" fill="#e0e0e0"/>
  <path d="M227.3 278.2l.3-1.8c.2-3.7 3.7-3 6.7-3.6 2.3-.4-3.9-6.3.8-8.2 1-.2 1.8-.8 2.3-1.6a2.7 2.7 0 00-1-3.2c-1-.7-2.3-1-3.6-1-.8-.8-.1-2.3.6-3.2.8-1 1.7-2 1.4-3.2-.5-1.8-3-1.9-4.7-1.5-.5-1.2-.9-2.4-1-3.6-.3-1.3-1.3-2.5-2.5-2.4-1.2.2-2 1.5-3.1 1.8-1.2.2-2.5-1-3.6-1.8-1-.9-2.9-1.5-3.6-.3-.4.7-.2 1.7-.6 2.4-.8 1.2-2.7.4-3.8-.4-1.1-.8-3-1.6-3.8-.4l-.4 1.2c-.6 1.6-2.3 2.3-3.6 3.4-1.3 1-2.4 3-1.3 4.2.6.6 1.6.8 1.8 1.6.3.8-.6 1.9-1.4 2.5-1.3 1.1-1.5 4.4.2 5.4.7.4 1.8.5 2 1.3.2.8-.6 1.3-1 1.8a3.4 3.4 0 001 5.1c.4.2.9.4 1 .8v1a5 5 0 00-.2 1.8c0 .2 0 .4.2.6l.5.1c2.5.1 3.7-.7 5.2 1.4l.6.5.6.2c1.8.1 2.9-1 4.4-1.1 2.2-.3 2.7.8 4.6 1.7 3 1.4 4.5.5 5-1.5z" fill="#e0e0e0"/>
  <path d="M213.8 269.2c.2-.7.3-1.4.3-2.2.3-4.7 4.8-4 8.6-4.6 3-.5-5-8 1-10.4 1.2-.3 2.2-1 3-2a3.4 3.4 0 00-1.4-4.1 8 8 0 00-4.5-1.2c-1-1.1-.2-3 .7-4.1 1-1.2 2.1-2.6 1.8-4.1-.6-2.3-3.7-2.4-6-2-.6-1.4-1-3-1.2-4.5-.4-1.6-1.7-3.2-3.3-3-1.6.2-2.4 1.9-3.8 2.2-1.7.4-3.2-1.1-4.6-2.2-1.3-1.1-3.6-1.9-4.6-.4-.5 1-.2 2.2-.8 3-1 1.6-3.3.6-4.8-.5-1.4-1-3.8-2-4.8-.5l-.5 1.5c-.7 2-2.9 3-4.6 4.3-1.7 1.3-3 3.8-1.6 5.4.7.7 2 1 2.3 2 .4 1.2-.8 2.4-1.8 3.2-1.6 1.4-2 5.6.2 6.8 1 .4 2.3.6 2.5 1.6.3 1-.7 1.6-1.3 2.3a4.3 4.3 0 001.3 6.5c.5.2 1.2.4 1.4 1 0 .4 0 .8-.2 1.2-.2.7-.2 1.5-.2 2.3 0 .3.1.6.3.8l.7.2c3.2.1 4.7-1 6.6 1.7l.7.7c.2.2.5.2.8.2 2.2.2 3.6-1.1 5.6-1.4 2.8-.3 3.3 1 5.7 2.2 4 1.8 5.8.8 6.5-1.9zM251.8 229.2l.4-2.3c.2-4.6 4.7-3.9 8.5-4.5 3-.5-4.9-8 1.1-10.4 1.2-.4 2.2-1 2.9-2a3.4 3.4 0 00-1.4-4.2 8 8 0 00-4.5-1.1c-1-1.2-.2-3 .8-4.2 1-1.2 2-2.6 1.7-4-.5-2.3-3.7-2.4-6-2-.8-1.2-.8-3-1.2-4.5-.4-1.6-1.6-3.2-3.2-3-1.6.2-2.4 1.9-3.9 2.2-1.7.4-3.2-1-4.5-2.2-1.3-1.2-3.7-1.9-4.6-.4-.5 1-.2 2.2-.8 3-1 1.6-3.3.6-4.8-.5-1.5-1-3.8-2-4.8-.5l-.6 1.5c-.7 2-2.8 3-4.5 4.3-1.7 1.3-3 3.8-1.6 5.4.7.7 2 1 2.3 2 .4 1.3-.8 2.4-1.8 3.2-1.7 1.4-2 5.6.2 6.8 1 .4 2.3.6 2.5 1.6.2 1-.7 1.6-1.4 2.3a4.3 4.3 0 001.4 6.5c.5.2 1.1.4 1.3 1 .1.4 0 .8-.1 1.2-.2.8-.3 1.5-.2 2.3 0 .3 0 .6.3.8l.7.2c3.1.1 4.6-1 6.6 1.7.1.3.3.6.6.7.3.2.6.2.9.2 2.1.2 3.6-1.1 5.5-1.4 2.8-.3 3.4 1 5.8 2.2 3.9 1.8 5.7.7 6.4-2z" fill="#e0e0e0"/>
  <path d="M282.9 230.8c.2-.8.3-1.5.3-2.3.3-4.7 4.8-3.9 8.6-4.5 3-.5-5-8 1-10.4 1.2-.4 2.2-1 3-2a3.4 3.4 0 00-1.4-4.2 8 8 0 00-4.5-1.1c-1-1.2-.2-3 .7-4.2 1-1.2 2.1-2.6 1.8-4-.6-2.3-3.7-2.4-6-2-.8-1.3-.8-3-1.2-4.5-.4-1.6-1.7-3.2-3.3-3-1.5.2-2.4 1.9-3.8 2.2-1.7.4-3.2-1.1-4.6-2.2-1.3-1.2-3.6-1.9-4.6-.4-.5 1-.2 2.2-.7 3-1 1.5-3.4.6-4.9-.5-1.4-1-3.7-2-4.8-.5a6 6 0 00-.5 1.5c-.7 2-2.9 3-4.6 4.3-1.6 1.3-3 3.8-1.6 5.4.7.7 2 1 2.3 2 .5 1.3-.8 2.3-1.8 3.2-1.6 1.4-2 5.6.2 6.7 1 .5 2.3.7 2.5 1.7.3 1-.7 1.6-1.3 2.3a4.3 4.3 0 001.3 6.5c.6.2 1.2.4 1.4 1 0 .4 0 .8-.2 1.2-.2.7-.2 1.5-.2 2.3 0 .3.1.6.3.8.2.1.5.2.7.1 3.2.2 4.7-1 6.6 1.8l.7.7.8.2c2.2.2 3.6-1.1 5.6-1.4 2.8-.3 3.3 1 5.8 2.2 3.9 1.8 5.7.7 6.4-2z" fill="#e0e0e0"/>
  <path d="M301.7 243.5c.2-.7.4-1.5.4-2.3.3-4.6 4.7-3.9 8.5-4.5 3-.5-4.9-8 1.1-10.4 1.2-.3 2.2-1 2.9-2a3.4 3.4 0 00-1.3-4.2 8 8 0 00-4.6-1.1c-1-1.2-.2-3 .8-4.2 1-1.2 2-2.6 1.7-4-.5-2.3-3.7-2.4-6-2-.6-1.4-1-3-1.2-4.6-.4-1.5-1.6-3.2-3.2-3-1.6.2-2.4 1.9-3.9 2.2-1.7.4-3.2-1-4.5-2.2-1.3-1.1-3.7-1.8-4.6-.3-.5.9-.2 2-.8 3-1 1.5-3.3.5-4.8-.5s-3.8-2-4.8-.6c-.3.5-.5 1-.6 1.6-.7 2-2.8 3-4.5 4.2-1.7 1.3-3 3.9-1.6 5.4.7.8 2 1 2.3 2 .4 1.3-.8 2.4-1.8 3.2-1.7 1.4-2 5.6.2 6.8 1 .5 2.3.6 2.5 1.6.2 1-.7 1.6-1.3 2.3a4.4 4.4 0 001.3 6.5c.5.2 1.2.4 1.3 1v1.2c-.3.8-.3 1.6-.2 2.4 0 .3.1.6.3.8l.7.2c3.2.1 4.7-1 6.6 1.7l.7.7c.2.2.5.2.8.3 2.2.1 3.6-1.2 5.6-1.5 2.7-.3 3.3 1 5.8 2.2 3.7 1.8 5.6.7 6.2-2z" fill="#e0e0e0"/>
  <path d="M296 259.6s-7.8 11.1-10.6 14.7c-2.7 3.5-16.3 25.5-18.1 40.1l-.6 4c5.8 38.7 5 109.4 4.7 121.5H253c-.2-13.7-1.8-138.4-2.4-142.2-.6-4-8.3-19.4-20.3-25.7-12-6.3-22.3-27.1-22.3-27.1h3.8s7 12.7 17.1 19.8c1.5 1 3 2 4.6 2.7 0-7.7 1.3-15.3 4-22.6l2 2a53.3 53.3 0 00-1.5 22.8c3.8 1.8 7.3 4.2 10.4 7 10.4-13.6 16.3-44.6 16.3-44.6l2.7 1.4c-.8 6.4-2 12.8-3.5 19-2 8-7.7 23.2-10.4 30.1 3.2 4.6 5.9 9.6 8 14.8a6 6 0 011-1.2c6.7-6.1 19.5-35.2 19.5-35.2 3.1-6.8-1.6-24.5-1.6-24.5h3.5l1.6 15.5 9-9.8 1.7 1.4-9.6 12.2-4.9 15.5 12.8-14.1z" fill="#e0e0e0"/>
  <path d="M28.6 203.2c-.3-1-.4-2.1-.5-3.2-.4-6.7-6.7-5.6-12-6.5-4.3-.7 6.9-11.3-1.6-14.7a7.4 7.4 0 01-4-2.9c-1.2-2 0-4.6 1.7-5.9 2-1.1 4.2-1.7 6.5-1.6 1.3-1.7.3-4.2-1-6-1.4-1.7-3-3.6-2.6-5.7.8-3.2 5.3-3.3 8.5-2.7 1.2-2 1.2-4.3 1.8-6.5.6-2.2 2.3-4.5 4.6-4.3 2.2.3 3.4 2.7 5.5 3.2 2.4.6 4.5-1.6 6.4-3.2 1.9-1.6 5.2-2.6 6.5-.5.8 1.3.3 3 1.1 4.3 1.4 2.2 4.8.8 6.9-.7 2-1.6 5.3-3 6.8-.8.4.7.6 1.4.8 2.2 1 2.8 4 4.3 6.4 6 2.5 1.9 4.3 5.5 2.3 7.7-1 1.1-2.8 1.6-3.3 3-.6 1.7 1.2 3.3 2.6 4.5 2.4 2 2.8 8-.3 9.6-1.3.6-3.2.8-3.6 2.3-.3 1.4 1 2.3 2 3.3a6.1 6.1 0 01-2 9.1c-.7.4-1.6.7-1.9 1.5a3 3 0 00.2 1.7c.3 1 .4 2.2.3 3.3 0 .4-.2.8-.4 1-.3.3-.6.3-1 .3-4.5.2-6.7-1.3-9.4 2.5-.2.4-.5.8-.9 1l-1.2.3c-3.1.3-5.1-1.6-8-2-3.8-.5-4.7 1.5-8 3.1-5.6 2.6-8.2 1-9.2-2.7z" fill="#ebebeb"/>
  <path d="M80.2 197.6c-.3-1-.5-2-.5-3.2-.4-6.6-6.7-5.5-12.1-6.4-4.2-.7 7-11.4-1.6-14.8a7.4 7.4 0 01-4-2.9c-1.1-2 0-4.6 1.8-5.8 2-1.2 4.2-1.8 6.4-1.7 1.4-1.6.3-4.2-1-5.9-1.4-1.7-3-3.7-2.5-5.8.7-3.2 5.2-3.3 8.4-2.7 1.2-2 1.2-4.3 1.8-6.5.6-2.2 2.3-4.5 4.6-4.3 2.2.3 3.4 2.7 5.5 3.2 2.4.6 4.5-1.6 6.4-3.2 2-1.6 5.2-2.6 6.5-.5.8 1.3.3 3 1.1 4.3 1.5 2.2 4.8.8 6.9-.7 2-1.5 5.3-3 6.8-.8.4.7.7 1.5.8 2.2 1 2.9 4 4.3 6.4 6 2.5 2 4.3 5.5 2.3 7.7-1 1.1-2.7 1.6-3.2 3-.7 1.7 1.1 3.3 2.5 4.5 2.4 2 2.8 8-.3 9.6-1.3.6-3.2.9-3.5 2.3-.3 1.4 1 2.3 1.9 3.3a6.1 6.1 0 01-2 9.1c-.7.4-1.6.7-1.9 1.5 0 .6 0 1.2.2 1.7a9 9 0 01.3 3.3c0 .4-.1.8-.4 1-.3.3-.6.4-1 .3-4.4.2-6.6-1.3-9.3 2.6l-1 1-1.2.3c-3 .2-5-1.7-7.9-2-3.9-.6-4.7 1.4-8.2 3-5.4 2.6-8 1-9-2.7z" fill="#ebebeb"/>
  <path d="M85.1 164.8c-.2-1-.4-2.1-.4-3.2-.4-6.7-6.7-5.6-12.2-6.5-4.2-.7 7-11.3-1.5-14.8a7.4 7.4 0 01-4.1-2.8c-1-2 0-4.6 1.8-5.9 2-1.1 4.2-1.7 6.5-1.6 1.3-1.7.3-4.2-1-6-1.4-1.7-3-3.6-2.6-5.7.8-3.2 5.3-3.3 8.5-2.7 1.2-2 1.2-4.3 1.8-6.5.5-2.2 2.3-4.5 4.5-4.3 2.3.3 3.5 2.7 5.5 3.2 2.5.6 4.6-1.6 6.5-3.2 1.9-1.6 5.2-2.6 6.5-.5.8 1.3.3 3 1.1 4.3 1.4 2.1 4.8.8 6.8-.7 2.1-1.6 5.4-3 6.9-.8.4.7.6 1.4.8 2.2 1 2.8 4 4.2 6.4 6 2.4 1.9 4.3 5.5 2.3 7.7-1 1.1-2.8 1.6-3.3 3-.6 1.7 1.2 3.2 2.6 4.4 2.3 2 2.8 8-.3 9.6-1.4.7-3.2 1-3.6 2.4-.3 1.4 1 2.3 2 3.3a6.1 6.1 0 01-2 9.1c-.7.4-1.6.7-1.9 1.4-.1.6 0 1.2.2 1.8.3 1 .4 2.2.3 3.3 0 .4-.2.8-.4 1-.3.2-.7.3-1 .3-4.5.2-6.7-1.3-9.4 2.5-.2.4-.5.8-.9 1l-1.2.3c-3 .3-5.1-1.6-8-2-3.8-.5-4.6 1.5-8 3.1-5.5 2.5-8.1 1-9.2-2.7z" fill="#ebebeb"/>
  <path d="M119.1 181.2a15 15 0 01-.5-3.2c-.4-6.7-6.6-5.6-12-6.5-4.3-.7 6.9-11.4-1.6-14.8a7.5 7.5 0 01-4.1-2.8c-1.1-2 0-4.6 1.8-6 2-1.1 4.2-1.7 6.5-1.5 1.3-1.7.2-4.3-1.1-6-1.4-1.7-3-3.7-2.5-5.8.8-3.2 5.2-3.3 8.5-2.6 1.2-2 1.1-4.4 1.7-6.6.6-2.2 2.4-4.5 4.6-4.2 2.3.3 3.4 2.7 5.5 3.1 2.4.6 4.5-1.5 6.4-3.1 2-1.6 5.3-2.7 6.5-.5.8 1.3.4 3 1.2 4.2 1.4 2.2 4.7.9 6.8-.7 2-1.5 5.4-2.9 6.9-.8l.8 2.3c1 2.8 4 4.2 6.4 6 2.4 1.8 4.3 5.5 2.2 7.7-1 1-2.7 1.5-3.2 2.9-.6 1.7 1.2 3.3 2.6 4.5 2.3 2 2.7 8-.4 9.6-1.3.7-3.2.9-3.5 2.3-.3 1.5 1 2.3 1.9 3.3a6.2 6.2 0 01-1.9 9.2c-.7.3-1.6.6-2 1.4a3 3 0 00.3 1.7c.3 1.1.4 2.2.3 3.4 0 .3-.2.7-.4 1-.3.2-.7.3-1 .3-4.5.2-6.7-1.4-9.4 2.5-.2.4-.5.7-1 1a3 3 0 01-1.2.3c-3 .2-5-1.7-7.9-2-3.9-.5-4.7 1.5-8.1 3-5.5 2.6-8 1-9-2.6z" fill="#ebebeb"/>
  <path d="M153.5 173.6c-.3-1-.5-2.1-.5-3.2-.4-6.7-6.7-5.6-12.1-6.5-4.3-.7 6.9-11.3-1.6-14.7a7.4 7.4 0 01-4-2.9 4.8 4.8 0 011.8-5.9c1.9-1.2 4.1-1.7 6.4-1.6 1.3-1.7.3-4.2-1-6-1.4-1.7-3-3.6-2.6-5.7.8-3.2 5.3-3.3 8.5-2.7 1.2-2 1.2-4.4 1.8-6.5.5-2.2 2.3-4.6 4.5-4.3 2.3.3 3.5 2.7 5.6 3.2 2.4.5 4.5-1.6 6.4-3.2 1.9-1.6 5.2-2.6 6.5-.5.8 1.3.3 3 1.1 4.3 1.4 2.1 4.8.8 6.9-.7 2-1.6 5.3-3 6.8-.8.4.7.6 1.4.8 2.2 1 2.8 4 4.2 6.4 6 2.4 1.9 4.3 5.5 2.3 7.7-1 1-2.7 1.5-3.2 3-.7 1.7 1.1 3.2 2.5 4.4 2.4 2 2.8 8-.3 9.6-1.4.7-3.2 1-3.5 2.4-.4 1.4 1 2.2 1.8 3.2a6.1 6.1 0 01-1.8 9.2c-.8.4-1.7.7-2 1.4-.1.6 0 1.2.2 1.8a9 9 0 01.3 3.3c0 .4-.1.7-.4 1-.3.2-.6.3-1 .3-4.5.2-6.7-1.3-9.3 2.5-.3.4-.6.8-1 1-.3.2-.8.3-1.2.3-3 .3-5.1-1.7-7.9-2-3.9-.5-4.7 1.5-8.2 3.1-5.4 2.6-8 1-9-2.7z" fill="#ebebeb"/>
  <path d="M153.9 210.3c-.2-.8-.4-1.7-.4-2.5-.3-5.2-5.3-4.4-9.5-5.1-3.3-.6 5.4-9-1.3-11.7a5.9 5.9 0 01-3.2-2.2 3.8 3.8 0 011.5-4.6c1.5-1 3.3-1.4 5-1.4 1.1-1.3.2-3.3-.8-4.6-1-1.4-2.3-3-2-4.6.7-2.5 4.2-2.7 6.7-2.1 1-1.5 1-3.5 1.4-5.2.4-1.7 1.8-3.5 3.6-3.3 1.8.2 2.7 2 4.3 2.5 2 .4 3.6-1.3 5-2.5 1.6-1.3 4.2-2 5.2-.4.6 1 .3 2.4.9 3.3 1.1 1.7 3.7.7 5.3-.5 1.6-1.2 4.3-2.3 5.4-.6.3.5.5 1.1.6 1.7.8 2.2 3.2 3.3 5 4.8 2 1.4 3.4 4.3 1.9 6-.8.9-2.2 1.2-2.6 2.3-.5 1.3 1 2.7 2 3.6 1.9 1.5 2.2 6.2-.2 7.5-1 .6-2.6.7-2.8 1.8-.3 1.2.8 1.8 1.5 2.6a4.9 4.9 0 01-1.5 7.3c-.6.2-1.3.5-1.5 1-.1.5 0 1 .1 1.4.2.9.3 1.8.2 2.7 0 .3 0 .6-.3.8-.2.2-.5.2-.8.2-3.5.2-5.2-1-7.3 2l-.8.8-1 .2c-2.4.2-4-1.3-6.2-1.6-3-.4-3.7 1.2-6.4 2.5-4.1 2-6.2.8-7-2.1z" fill="#ebebeb"/>
  <path d="M173.1 197.6l-.5-3.2c-.4-6.6-6.6-5.5-12-6.4-4.3-.7 6.9-11.4-1.6-14.8a7.4 7.4 0 01-4.1-2.9c-1-2 0-4.6 1.8-5.8 2-1.2 4.2-1.8 6.5-1.7 1.3-1.6.2-4.2-1.1-5.9-1.3-1.7-3-3.7-2.5-5.8.8-3.2 5.3-3.3 8.5-2.7 1.2-2 1.2-4.3 1.7-6.5.6-2.2 2.4-4.5 4.6-4.3 2.3.3 3.4 2.7 5.5 3.2 2.4.6 4.5-1.6 6.4-3.2 2-1.6 5.3-2.6 6.6-.5.8 1.3.3 3 1.1 4.3 1.4 2.2 4.7.8 6.8-.7 2.1-1.5 5.4-3 6.9-.8l.8 2.2c1 2.9 4 4.3 6.4 6 2.4 2 4.3 5.5 2.3 7.7-1 1.1-2.8 1.6-3.3 3-.6 1.7 1.2 3.3 2.6 4.5 2.3 2 2.8 8-.3 9.6-1.4.6-3.3.9-3.6 2.3-.3 1.4 1 2.3 2 3.3a6.1 6.1 0 01-2 9.1c-.7.4-1.6.7-2 1.5a3 3 0 00.3 1.7c.3 1 .4 2.2.3 3.3 0 .4-.2.8-.4 1-.3.3-.7.4-1 .3-4.5.2-6.7-1.3-9.4 2.6-.2.4-.5.7-1 1l-1.1.3c-3.1.2-5.1-1.7-8-2-3.9-.6-4.7 1.4-8.1 3-5.4 2.6-8 1-9-2.7zM119.1 140.8c-.3-1-.4-2-.5-3.2-.4-6.6-6.6-5.5-12-6.4-4.3-.8 6.9-11.4-1.6-14.8a7.4 7.4 0 01-4.1-2.9 4.8 4.8 0 011.8-5.9c2-1.1 4.2-1.7 6.5-1.6 1.3-1.7.2-4.2-1.1-5.9-1.4-1.7-3-3.7-2.5-5.8.8-3.2 5.2-3.3 8.5-2.7 1.2-2 1.1-4.3 1.7-6.5.6-2.2 2.4-4.5 4.6-4.3 2.3.3 3.4 2.7 5.5 3.2 2.4.6 4.5-1.6 6.4-3.2 2-1.6 5.3-2.7 6.5-.5.8 1.3.4 3 1.2 4.3 1.4 2.2 4.7.8 6.8-.7 2-1.5 5.4-3 6.9-.8l.8 2.2c1 2.9 4 4.3 6.4 6 2.4 1.9 4.3 5.5 2.2 7.7-1 1.1-2.7 1.6-3.2 3-.6 1.7 1.2 3.3 2.6 4.5 2.3 2 2.7 8-.4 9.6-1.3.6-3.2.9-3.5 2.3-.3 1.4 1 2.3 1.9 3.3a6.1 6.1 0 01-1.9 9.1c-.7.4-1.6.7-2 1.5a3 3 0 00.3 1.7c.3 1 .4 2.2.3 3.3 0 .4-.2.8-.4 1-.3.3-.7.4-1 .3-4.5.2-6.7-1.3-9.4 2.6-.2.3-.5.7-1 1l-1.2.2c-3 .3-5-1.6-7.9-2-3.9-.5-4.7 1.5-8.1 3.2-5.5 2.4-8 .9-9-2.8z" fill="#ebebeb"/>
  <path d="M75 143a15 15 0 01-.5-3.2c-.4-6.7-6.6-5.6-12-6.5-4.3-.7 6.8-11.3-1.6-14.7a7.5 7.5 0 01-4.1-2.8c-1.1-2 0-4.6 1.8-5.9 2-1.2 4.2-1.7 6.5-1.6 1.3-1.7.2-4.2-1.1-6-1.4-1.7-3-3.6-2.5-5.7.8-3.2 5.2-3.4 8.5-2.7 1.2-2 1.1-4.4 1.7-6.6.6-2.2 2.4-4.5 4.6-4.2 2.3.3 3.4 2.7 5.5 3.2 2.4.5 4.5-1.6 6.4-3.2 2-1.6 5.2-2.6 6.5-.5.8 1.3.4 3 1.2 4.3 1.3 2.1 4.7.8 6.8-.8 2-1.5 5.4-2.9 6.8-.7.4.7.7 1.4.9 2.2 1 2.8 4 4.2 6.4 6 2.4 1.9 4.3 5.5 2.2 7.7-1 1-2.7 1.5-3.2 3-.6 1.7 1.2 3.2 2.6 4.4 2.3 2 2.7 8-.4 9.6-1.3.7-3.2 1-3.5 2.3-.3 1.5 1 2.3 1.9 3.3a6.2 6.2 0 01-1.9 9.2c-.7.4-1.7.6-2 1.4a3 3 0 00.3 1.7c.3 1.1.4 2.3.2 3.4 0 .4 0 .7-.4 1-.2.2-.6.3-1 .3-4.4.2-6.6-1.3-9.3 2.5-.2.4-.5.7-1 1a3 3 0 01-1.2.3c-3 .3-5-1.7-7.9-2-3.9-.5-4.7 1.5-8.1 3.1-5.5 2.5-8 1-9-2.8z" fill="#ebebeb"/>
  <path d="M48.2 161l-.5-3.1c-.4-6.7-6.6-5.6-12-6.5-4.3-.7 6.9-11.3-1.6-14.8a7.5 7.5 0 01-4.1-2.8c-1-2 0-4.6 1.8-6 2-1 4.2-1.6 6.5-1.5 1.3-1.7.2-4.3-1.1-6-1.3-1.7-3-3.6-2.5-5.8.8-3.2 5.3-3.3 8.5-2.6 1.2-2 1.2-4.4 1.7-6.6.6-2.2 2.4-4.5 4.6-4.2 2.3.3 3.4 2.7 5.5 3.1 2.4.6 4.5-1.5 6.4-3.1 2-1.6 5.3-2.7 6.6-.5.7 1.3.3 3 1.1 4.2 1.3 2.2 4.7.9 6.8-.7 2.1-1.5 5.4-2.9 6.9-.8l.8 2.3c1 2.8 4 4.2 6.4 6 2.4 1.8 4.3 5.4 2.3 7.7-1 1-2.8 1.5-3.3 2.9-.6 1.7 1.2 3.3 2.6 4.5 2.3 2 2.8 8-.3 9.6-1.4.7-3.3.9-3.6 2.3-.3 1.5 1 2.3 1.9 3.3a6.2 6.2 0 01-1.9 9.2c-.7.3-1.6.6-2 1.4a3 3 0 00.3 1.7 9.4 9.4 0 01.2 3.9 1.2 1.2 0 01-.7.7h-.6c-4.4.3-6.7-1.2-9.3 2.6l-1 1a3 3 0 01-1.2.3c-3 .3-5-1.7-7.9-2-3.9-.5-4.7 1.5-8.2 3.1-5.4 2.5-8 1-9-2.7z" fill="#ebebeb"/>
  <path d="M56.3 183.9s11.2 15.8 15.1 20.8c3.9 5 23.2 36.4 25.8 57l.8 5.8c-8.3 54.8-7 155.2-6.6 172.4h26.3c.2-19.4 2.5-196.4 3.3-201.9a67.1 67.1 0 0128.9-36.4c17-9 31.6-38.6 31.6-38.6h-5.3s-10 18.2-24.4 28.2c-2 1.4-4.2 2.7-6.4 3.8.5-16.3-5.7-32-5.7-32l-3 2.6c4.1 16.2 3.5 26.6 2.3 32.5a58.4 58.4 0 00-14.8 10c-14.8-19.4-23.1-63.5-23.1-63.5l-3.8 2.1c1 9.1 2.7 18.2 4.9 27a468 468 0 0014.7 42.7c-4.6 6.5-8.3 13.6-11.2 21l-1.4-1.7c-9.7-8.7-27.9-50-27.9-50-4.4-9.6 2.4-34.7 2.4-34.7h-5.1l-2.3 22-12.7-13.9-2.3 2 13.5 17.3 7 22-18.2-20z" fill="#e6e6e6"/>
  <path d="M260.3 503.6c143 0 259-6.7 259-15 0-8.4-116-15.2-259-15.2s-259 6.8-259 15.1c0 8.4 116 15.1 259 15.1z" fill="#f5f5f5"/>
  <path d="M23.2 337.3a5.7 5.7 0 00.3-7h.7v-3h-1v-2.1c.8-1 1.2-2.2 1.3-3.5a5.7 5.7 0 00-2.6-4.8v-3.4h-1V310c.2-1.5.9-3 2-4v-8h1.7v-5.5h-1.8v-.8h-8.1v.8H13v5.5h1.7v8c1 1 1.7 2.5 1.9 4v3.3h-1v3.5a5.7 5.7 0 00-2.4 4.7c0 1.3.5 2.5 1.3 3.5v2.1h-1v3.2h.6a5.7 5.7 0 00.4 7 2.8 2.8 0 01-2.7 2.4v103H26v-103a2.8 2.8 0 01-3-2.5z" fill="#263238"/>
  <path opacity=".4" d="M23.2 337.3a5.7 5.7 0 00.3-7h.7v-3h-1v-2.1c.8-1 1.2-2.2 1.3-3.5a5.7 5.7 0 00-2.6-4.8v-3.4h-1V310c.2-1.5.9-3 2-4v-8h1.7v-5.5h-1.8v-.8h-8.1v.8H13v5.5h1.7v8c1 1 1.7 2.5 1.9 4v3.3h-1v3.5a5.7 5.7 0 00-2.4 4.7c0 1.3.5 2.5 1.3 3.5v2.1h-1v3.2h.6a5.7 5.7 0 00.4 7 2.8 2.8 0 01-2.7 2.4v103H26v-103a2.8 2.8 0 01-3-2.5z" fill="#fff"/>
  <path d="M63 337.3a5.7 5.7 0 00.3-7h.6v-3h-1v-2.1a5.6 5.6 0 00-1.3-8.3v-3.4h-1V310c.2-1.5.8-3 2-4v-8h1.6v-5.5h-1.6v-.8h-8.1v.8h-1.7v5.5h1.7v8c1 1 1.7 2.5 1.9 4v3.3h-1v3.5a5.7 5.7 0 00-2.5 4.7c0 1.3.5 2.5 1.3 3.5v2.1h-1v3.2h.6a5.7 5.7 0 00.3 7 2.8 2.8 0 01-2.6 2.4v103h14.3v-103a2.8 2.8 0 01-2.8-2.5z" fill="#263238"/>
  <path opacity=".4" d="M63 337.3a5.7 5.7 0 00.3-7h.6v-3h-1v-2.1a5.6 5.6 0 00-1.3-8.3v-3.4h-1V310c.2-1.5.8-3 2-4v-8h1.6v-5.5h-1.6v-.8h-8.1v.8h-1.7v5.5h1.7v8c1 1 1.7 2.5 1.9 4v3.3h-1v3.5a5.7 5.7 0 00-2.5 4.7c0 1.3.5 2.5 1.3 3.5v2.1h-1v3.2h.6a5.7 5.7 0 00.3 7 2.8 2.8 0 01-2.6 2.4v103h14.3v-103a2.8 2.8 0 01-2.8-2.5z" fill="#fff"/>
  <path d="M102.7 337.3a5.7 5.7 0 00.4-7h.7v-3h-1.1v-2.1c.8-1 1.3-2.2 1.3-3.5a5.7 5.7 0 00-2.5-4.8v-3.4h-1V310c.2-1.5.8-3 2-4v-8h1.6v-5.5h-1.7v-.8h-8.1v.8h-1.7v5.5h1.7v8c1 1 1.7 2.5 1.9 4v3.3h-1v3.5a5.6 5.6 0 00-2.5 4.7c0 1.3.5 2.5 1.3 3.5v2.1h-1v3.2h.7a5.8 5.8 0 00.3 7 2.8 2.8 0 01-2.8 2.5v102.9h14.3v-103a2.8 2.8 0 01-2.8-2.5z" fill="#263238"/>
  <path opacity=".4" d="M102.7 337.3a5.7 5.7 0 00.4-7h.7v-3h-1.1v-2.1c.8-1 1.3-2.2 1.3-3.5a5.7 5.7 0 00-2.5-4.8v-3.4h-1V310c.2-1.5.8-3 2-4v-8h1.6v-5.5h-1.7v-.8h-8.1v.8h-1.7v5.5h1.7v8c1 1 1.7 2.5 1.9 4v3.3h-1v3.5a5.6 5.6 0 00-2.5 4.7c0 1.3.5 2.5 1.3 3.5v2.1h-1v3.2h.7a5.8 5.8 0 00.3 7 2.8 2.8 0 01-2.8 2.5v102.9h14.3v-103a2.8 2.8 0 01-2.8-2.5z" fill="#fff"/>
  <path d="M142.5 337.3a5.7 5.7 0 00.4-7h.7v-3h-1.1v-2.1c.8-1 1.3-2.2 1.3-3.5a5.7 5.7 0 00-2.5-4.8v-3.4h-1V310c.2-1.5.9-3 2-4v-8h1.6v-5.5h-1.7v-.8h-8.1v.8h-1.7v5.5h1.7v8c1 1 1.7 2.5 1.9 4v3.3h-1v3.5a5.6 5.6 0 00-1.3 8.2v2.1h-1v3.2h.7a5.7 5.7 0 00.4 7 2.8 2.8 0 01-2.8 2.4v103h14.3v-103a2.8 2.8 0 01-2.8-2.5z" fill="#263238"/>
  <path opacity=".4" d="M142.5 337.3a5.7 5.7 0 00.4-7h.7v-3h-1.1v-2.1c.8-1 1.3-2.2 1.3-3.5a5.7 5.7 0 00-2.5-4.8v-3.4h-1V310c.2-1.5.9-3 2-4v-8h1.6v-5.5h-1.7v-.8h-8.1v.8h-1.7v5.5h1.7v8c1 1 1.7 2.5 1.9 4v3.3h-1v3.5a5.6 5.6 0 00-1.3 8.2v2.1h-1v3.2h.7a5.7 5.7 0 00.4 7 2.8 2.8 0 01-2.8 2.4v103h14.3v-103a2.8 2.8 0 01-2.8-2.5z" fill="#fff"/>
  <path d="M182.3 337.3a5.7 5.7 0 00.4-7h.7v-3h-1v-2.1a5.6 5.6 0 00.5-6.2c-.4-.8-1-1.5-1.9-2v-3.5h-.8V310c.1-1.5.8-3 1.9-4v-8h1.7v-5.5H182v-.8h-8.2v.8h-1.7v5.5h1.7v8c1 1 1.7 2.5 1.8 4v3.3h-.9v3.5a5.7 5.7 0 00-2.5 4.7c0 1.3.5 2.5 1.3 3.5v2.1h-1v3.2h.7a5.7 5.7 0 00.3 7 2.8 2.8 0 01-2.8 2.5v102.9h14.3v-103a2.8 2.8 0 01-2.8-2.5z" fill="#263238"/>
  <path opacity=".4" d="M182.3 337.3a5.7 5.7 0 00.4-7h.7v-3h-1v-2.1a5.6 5.6 0 00.5-6.2c-.4-.8-1-1.5-1.9-2v-3.5h-.8V310c.1-1.5.8-3 1.9-4v-8h1.7v-5.5H182v-.8h-8.2v.8h-1.7v5.5h1.7v8c1 1 1.7 2.5 1.8 4v3.3h-.9v3.5a5.7 5.7 0 00-2.5 4.7c0 1.3.5 2.5 1.3 3.5v2.1h-1v3.2h.7a5.7 5.7 0 00.3 7 2.8 2.8 0 01-2.8 2.5v102.9h14.3v-103a2.8 2.8 0 01-2.8-2.5z" fill="#fff"/>
  <path d="M222.1 337.3a5.7 5.7 0 00.4-7h.6v-3h-1v-2.1a5.6 5.6 0 00-1.3-8.3v-3.4h-1V310c.2-1.5.9-3 2-4v-8h1.6v-5.5h-1.7v-.8h-8.1v.8h-1.7v5.5h1.7v8c1 1 1.8 2.5 2 4v3.3h-1v3.5a5.7 5.7 0 00-2.6 4.7c0 1.3.5 2.5 1.4 3.5v2.1h-1.1v3.2h.7a5.7 5.7 0 00.3 7 2.8 2.8 0 01-2.7 2.4v103H225v-103a2.8 2.8 0 01-2.8-2.5z" fill="#263238"/>
  <path opacity=".4" d="M222.1 337.3a5.7 5.7 0 00.4-7h.6v-3h-1v-2.1a5.6 5.6 0 00-1.3-8.3v-3.4h-1V310c.2-1.5.9-3 2-4v-8h1.6v-5.5h-1.7v-.8h-8.1v.8h-1.7v5.5h1.7v8c1 1 1.8 2.5 2 4v3.3h-1v3.5a5.7 5.7 0 00-2.6 4.7c0 1.3.5 2.5 1.4 3.5v2.1h-1.1v3.2h.7a5.7 5.7 0 00.3 7 2.8 2.8 0 01-2.7 2.4v103H225v-103a2.8 2.8 0 01-2.8-2.5z" fill="#fff"/>
  <path d="M262 337.3a5.7 5.7 0 00.3-7h.7v-3h-1v-2.1a5.6 5.6 0 00-1.4-8.3v-3.4h-1V310c.2-1.5.9-3 2-4v-8h1.7v-5.5h-1.6v-.8h-8.2v.8h-1.7v5.5h1.7v8c1.1 1 1.8 2.5 2 4v3.3h-1v3.5a5.7 5.7 0 00-2.6 4.7c0 1.3.5 2.5 1.4 3.5v2.1h-1v3.2h.6a5.8 5.8 0 00.3 7 2.8 2.8 0 01-2.7 2.4v103h14.3v-103a2.8 2.8 0 01-2.9-2.5z" fill="#263238"/>
  <path opacity=".4" d="M262 337.3a5.7 5.7 0 00.3-7h.7v-3h-1v-2.1a5.6 5.6 0 00-1.4-8.3v-3.4h-1V310c.2-1.5.9-3 2-4v-8h1.7v-5.5h-1.6v-.8h-8.2v.8h-1.7v5.5h1.7v8c1.1 1 1.8 2.5 2 4v3.3h-1v3.5a5.7 5.7 0 00-2.6 4.7c0 1.3.5 2.5 1.4 3.5v2.1h-1v3.2h.6a5.8 5.8 0 00.3 7 2.8 2.8 0 01-2.7 2.4v103h14.3v-103a2.8 2.8 0 01-2.9-2.5z" fill="#fff"/>
  <path d="M301.7 337.3a5.7 5.7 0 00.4-7h.6v-3h-1v-2.1c.9-1 1.4-2.2 1.4-3.5a5.7 5.7 0 00-2.6-4.8v-3.4h-1V310c.2-1.5.9-3 2-4v-8h1.6v-5.5h-1.7v-.8h-8.2v.8h-1.6v5.5h1.6v8c1.1 1 1.8 2.5 2 4v3.3h-1v3.5a5.6 5.6 0 00-1.3 8.2v2.1h-1v3.2h.6a5.7 5.7 0 00.4 7 2.8 2.8 0 01-2.8 2.4v103h14.3v-103a2.8 2.8 0 01-2.7-2.5z" fill="#263238"/>
  <path opacity=".4" d="M301.7 337.3a5.7 5.7 0 00.4-7h.6v-3h-1v-2.1c.9-1 1.4-2.2 1.4-3.5a5.7 5.7 0 00-2.6-4.8v-3.4h-1V310c.2-1.5.9-3 2-4v-8h1.6v-5.5h-1.7v-.8h-8.2v.8h-1.6v5.5h1.6v8c1.1 1 1.8 2.5 2 4v3.3h-1v3.5a5.6 5.6 0 00-1.3 8.2v2.1h-1v3.2h.6a5.7 5.7 0 00.4 7 2.8 2.8 0 01-2.8 2.4v103h14.3v-103a2.8 2.8 0 01-2.7-2.5z" fill="#fff"/>
  <path d="M341.5 337.3a5.7 5.7 0 00.4-7h.6v-3h-1v-2.1a5.6 5.6 0 00.6-6.2c-.5-.8-1.1-1.5-1.9-2v-3.5h-1V310c.2-1.5.9-3 2-4v-8h1.7v-5.5h-1.7v-.8H333v.8h-1.6v5.5h1.6v8c1.1 1 1.8 2.5 2 4v3.3h-1v3.5a5.7 5.7 0 00-2.5 4.7c0 1.3.4 2.5 1.2 3.5v2.1h-1v3.2h.7a5.7 5.7 0 00.3 7 2.8 2.8 0 01-2.8 2.4v103h14.3v-103a2.8 2.8 0 01-2.7-2.5z" fill="#263238"/>
  <path opacity=".4" d="M341.5 337.3a5.7 5.7 0 00.4-7h.6v-3h-1v-2.1a5.6 5.6 0 00.6-6.2c-.5-.8-1.1-1.5-1.9-2v-3.5h-1V310c.2-1.5.9-3 2-4v-8h1.7v-5.5h-1.7v-.8H333v.8h-1.6v5.5h1.6v8c1.1 1 1.8 2.5 2 4v3.3h-1v3.5a5.7 5.7 0 00-2.5 4.7c0 1.3.4 2.5 1.2 3.5v2.1h-1v3.2h.7a5.7 5.7 0 00.3 7 2.8 2.8 0 01-2.8 2.4v103h14.3v-103a2.8 2.8 0 01-2.7-2.5z" fill="#fff"/>
  <path d="M381.3 337.3a5.7 5.7 0 00.4-7h.6v-3h-1v-2.1a5.6 5.6 0 00.6-6.2c-.5-.8-1.1-1.5-1.9-2v-3.5h-1V310c.2-1.5.9-3 2-4v-8h1.7v-5.5H381v-.8h-8.2v.8h-1.6v5.5h1.7v8c1 1 1.8 2.5 2 4v3.3h-1v3.5a5.7 5.7 0 00-2.6 4.7c0 1.3.4 2.6 1.3 3.6v2h-1.1v3.2h.7a5.7 5.7 0 00.3 7 2.8 2.8 0 01-2.7 2.5v102.9H384v-103a2.8 2.8 0 01-2.8-2.5z" fill="#263238"/>
  <path opacity=".4" d="M381.3 337.3a5.7 5.7 0 00.4-7h.6v-3h-1v-2.1a5.6 5.6 0 00.6-6.2c-.5-.8-1.1-1.5-1.9-2v-3.5h-1V310c.2-1.5.9-3 2-4v-8h1.7v-5.5H381v-.8h-8.2v.8h-1.6v5.5h1.7v8c1 1 1.8 2.5 2 4v3.3h-1v3.5a5.7 5.7 0 00-2.6 4.7c0 1.3.4 2.6 1.3 3.6v2h-1.1v3.2h.7a5.7 5.7 0 00.3 7 2.8 2.8 0 01-2.7 2.5v102.9H384v-103a2.8 2.8 0 01-2.8-2.5z" fill="#fff"/>
  <path d="M421.1 337.3a5.7 5.7 0 00.4-7h.6v-3h-1v-2.1a5.6 5.6 0 00-1.3-8.3v-3.4h-1V310c.2-1.5.8-3 2-4v-8h1.6v-5.5h-1.6v-.8h-8.2v.8H411v5.5h1.7v8c1.1 1 1.8 2.5 2 4v3.3h-1v3.5a5.7 5.7 0 00-2.6 4.7c0 1.3.5 2.5 1.4 3.5v2.1h-1.1v3.2h.7a5.8 5.8 0 00.3 7 2.8 2.8 0 01-2.7 2.4v103h14.3v-103a2.8 2.8 0 01-2.8-2.5z" fill="#263238"/>
  <path opacity=".4" d="M421.1 337.3a5.7 5.7 0 00.4-7h.6v-3h-1v-2.1a5.6 5.6 0 00-1.3-8.3v-3.4h-1V310c.2-1.5.8-3 2-4v-8h1.6v-5.5h-1.6v-.8h-8.2v.8H411v5.5h1.7v8c1.1 1 1.8 2.5 2 4v3.3h-1v3.5a5.7 5.7 0 00-2.6 4.7c0 1.3.5 2.5 1.4 3.5v2.1h-1.1v3.2h.7a5.8 5.8 0 00.3 7 2.8 2.8 0 01-2.7 2.4v103h14.3v-103a2.8 2.8 0 01-2.8-2.5z" fill="#fff"/>
  <path d="M461 337.3a5.7 5.7 0 00.2-7h.7v-3h-1v-2.1c.8-1 1.3-2.2 1.3-3.5a5.7 5.7 0 00-2.6-4.8v-3.4h-.9V310c.1-1.5.8-3 2-4v-8h1.6v-5.5h-1.7v-.8h-8.2v.8h-1.6v5.5h1.6v8c1.1 1 1.8 2.5 2 4v3.3h-1v3.5a5.6 5.6 0 00-1.3 8.2v2.1h-1v3.2h.6a5.7 5.7 0 00.4 7 2.8 2.8 0 01-2.8 2.4v103h14.4v-103a2.8 2.8 0 01-2.8-2.5z" fill="#263238"/>
  <path opacity=".4" d="M461 337.3a5.7 5.7 0 00.2-7h.7v-3h-1v-2.1c.8-1 1.3-2.2 1.3-3.5a5.7 5.7 0 00-2.6-4.8v-3.4h-.9V310c.1-1.5.8-3 2-4v-8h1.6v-5.5h-1.7v-.8h-8.2v.8h-1.6v5.5h1.6v8c1.1 1 1.8 2.5 2 4v3.3h-1v3.5a5.6 5.6 0 00-1.3 8.2v2.1h-1v3.2h.6a5.7 5.7 0 00.4 7 2.8 2.8 0 01-2.8 2.4v103h14.4v-103a2.8 2.8 0 01-2.8-2.5z" fill="#fff"/>
  <path d="M500.7 337.3a5.7 5.7 0 00.3-7h.7v-3h-1v-2.1a5.6 5.6 0 00.6-6.2c-.5-.8-1.1-1.5-2-2v-3.5h-.8V310c.1-1.5.8-3 1.9-4v-8h1.7v-5.5h-1.7v-.8h-8.2v.8h-1.7v5.5h1.7v8c1.1 1 1.8 2.5 2 4v3.3h-1v3.5a5.6 5.6 0 00-1.3 8.2v2.1h-1v3.2h.6a5.7 5.7 0 00.3 7 2.8 2.8 0 01-2.7 2.4v103h14.4v-103a2.8 2.8 0 01-2.8-2.5z" fill="#263238"/>
  <path opacity=".4" d="M500.7 337.3a5.7 5.7 0 00.3-7h.7v-3h-1v-2.1a5.6 5.6 0 00.6-6.2c-.5-.8-1.1-1.5-2-2v-3.5h-.8V310c.1-1.5.8-3 1.9-4v-8h1.7v-5.5h-1.7v-.8h-8.2v.8h-1.7v5.5h1.7v8c1.1 1 1.8 2.5 2 4v3.3h-1v3.5a5.6 5.6 0 00-1.3 8.2v2.1h-1v3.2h.6a5.7 5.7 0 00.3 7 2.8 2.8 0 01-2.7 2.4v103h14.4v-103a2.8 2.8 0 01-2.8-2.5z" fill="#fff"/>
  <path d="M516.6 279.5H-1.5v14.8h518z" fill="#263238"/>
  <path opacity=".6" d="M516.6 279.5H-1.5v14.8h518z" fill="#fff"/>
  <path d="M477.8 441a.5.5 0 00.5-.7l-.1-2.9a247.5 247.5 0 011-40.3 226 226 0 013-21 170 170 0 015.1-19.6l.7-2a178.3 178.3 0 004.5-15.1l1.3-5.8a127.4 127.4 0 002.3-29.9c-.1-2.9-.4-5.8-.9-8.6v-.8l-.2-.4a.5.5 0 00-.8 0l-.1.3v1.1a78.4 78.4 0 011 16.8 125.3 125.3 0 01-6.4 37.1 107 107 0 01-2.3 7l-.8 2.5a217.8 217.8 0 00-7.4 38.4c-.7 7.8-1.2 16-1.3 24.3v.4a260 260 0 00.6 19l.3.1zM494.5 294.5a16.7 16.7 0 00-6.6-3.8" fill="#9bd100"/>
  <path d="M494.5 295h.2a.5.5 0 00.3-.4.5.5 0 000-.4l-.1-.1a16 16 0 00-6.8-4 .5.5 0 00-.5 1h.2a15.2 15.2 0 016.3 3.7l.4.1zM495.5 304.2l.4-.1 3.6-3a.5.5 0 00-.7-.8l-3.5 3a.5.5 0 00-.2.6.5.5 0 00.5.3zM489.2 350a.6.6 0 00.5-.6 14.1 14.1 0 00-4.8-8.9.5.5 0 00-.7 0 .5.5 0 000 .8 14 14 0 013.8 5.6 12 12 0 01.7 2.7.5.5 0 00.5.3zM486 359.3a.5.5 0 00.5-.3 8.8 8.8 0 015.3-4.7.5.5 0 00.3-.7.5.5 0 00-.7-.3 9.9 9.9 0 00-5.8 5.3.5.5 0 00.2.7zM478 406.2c1.2-1.3 2.3-6.5 2.9-9.3l.4-1.7" fill="#9bd100"/>
  <path d="M478 406.7a.5.5 0 00.4-.2c1.2-1.3 2.2-5.6 3-9.5a67.4 67.4 0 01.4-2.1.5.5 0 00-.4-.3h-.4a.5.5 0 00-.3.5l-.3 1.6c-.6 2.6-1.7 7.9-2.8 9.1a.5.5 0 00-.1.4.5.5 0 00.3.5h.2zM492 339.8a.5.5 0 00.5-.5c0-.8 1.4-21.1-9.8-29.3a.5.5 0 00-.7.2l-.1.4c0 .1 0 .2.2.3 10.7 7.8 9.3 28.1 9.3 28.4a.5.5 0 00.5.5z" fill="#9bd100"/>
  <path d="M491 384c1.4 4.9-9.5 13.7-9.5 13.7s-13.8-2.4-15-7.3c-1.3-4.9 2.5-12.7 9.3-14.5 6.8-1.7 14 3.2 15.2 8zM505.2 325.6c-1.5 5.1-11.6 8.3-11.6 8.3s-6.5-8.2-5-13.3c1.6-5.1 7.3-10.6 11.9-9.2 4.6 1.4 6.3 9.1 4.7 14.2zM478.4 341c1.2 1 2.6 2 4.1 2.6a4.5 4.5 0 004.6-1c1.4-1.4 1.2-3.8.4-5.7-1.5-3.7-7.3-10.2-12.1-8.6-7 2.2 0 10.3 3 12.7zM491.9 350.9c-1 1-2 2.4-1.5 3.8a2.8 2.8 0 003 1.7c1.3-.3 2.5-.8 3.5-1.5 2.4-1.6 7.5-4.9 4.5-8.3-3-3.4-7.5 2-9.5 4.3zM473.9 303.5a2.5 2.5 0 00-2.3 1.8c-.3 1.1.6 2.2 1.6 3 2.3 2 9.2 7.2 11 2.5 1.7-4.5-7.1-7.5-10.3-7.3zM487.8 288.4c-1.5 0-3-.5-4.5-.5-1.4 0-3.1 1.2-2.9 2.7.3 1.5 2 1.9 3.3 2 2.3.2 4.7.2 7-.2.5 0 1-.2 1.4-.6.7-.9-.2-2.1-1.2-2.5-1-.1-2.1-.4-3.1-.8zM501.7 299.2c1.5.1 3-.5 4.5-.4 1.5 0 3.1 1.2 2.8 2.7-.3 1.4-2 1.8-3.3 2-2.3.1-4.7 0-7-.4-.5 0-1-.3-1.4-.7-.6-.9.3-2 1.3-2.4 1-.2 2.1-.4 3.1-.8zM495 296.4a.5.5 0 00.5-.6c-.2-2.9 0-5.6.6-5.8a.5.5 0 00.4-.7.5.5 0 00-.7-.3c-1.6.5-1.5 5-1.4 6.9a.5.5 0 00.5.5z" fill="#9bd100"/>
  <path d="M494 289.6c.8-2 2-3.9 3.8-5.2 1.8-1.3 4.7-1.2 6 .6 1.3 2-.3 5-2.6 6-2.2 1-4.8.5-7.2 0v-1zM476.2 458.7a.5.5 0 00.4-.2l.1-.2v-.2a45.4 45.4 0 00-14.7-27.3.5.5 0 00-.5.6l.2.4a44.2 44.2 0 0114.2 26.8h.3z" fill="#9bd100"/>
  <path d="M465.1 434.8a.5.5 0 00.5-.5.5.5 0 00-.3-.5 11.1 11.1 0 00-5.7-.1.5.5 0 00-.2.7.5.5 0 00.5.3 10.9 10.9 0 015.2.1zM467.5 437.8a.5.5 0 00.5-.5 23 23 0 00-3.6-13l-.3-.2a.5.5 0 00-.6.8 22.2 22.2 0 013.5 12.5.5.5 0 00.5.4zM471.3 444a.5.5 0 00.3-.2.5.5 0 000-.8 7.4 7.4 0 00-7.4-1.6l-.2.1a.5.5 0 000 .4.5.5 0 00.6.4 6.5 6.5 0 016.3 1.5l.4.1zM473.2 448.2a.5.5 0 00.5-.3 17.5 17.5 0 001-9.1.5.5 0 00-.5-.3.5.5 0 00-.5.6 16.6 16.6 0 01-1 8.6.5.5 0 000 .3l.3.2h.2z" fill="#9bd100"/>
  <path d="M475.1 452.5s.4.5-1.1.6c-3.7.2-10.3.1-12.7-3-3.3-4.5 4.8-4.3 4-6.8-.7-2.5-9.4-.2-11-3.8-1.6-3.6 4.7-3 4.5-4.9-.3-1.8-7 .7-9-3-2.2-3.8 3.6-1.9 2.7-3.5-1-1.5-8-8-5-9.5 2.9-1.5 9.7 5.2 12 5.9 2.2.6 3-6.1 5.9-4 3 2.2.7 12.5 4.1 13.7 2.6.9 1.3-2.8 4.5-2.7 4.4 0 5.4 14.4 1.1 21z" fill="#9bd100"/>
  <path opacity=".3" d="M475.1 452.5s.4.5-1.1.6c-3.7.2-10.3.1-12.7-3-3.3-4.5 4.8-4.3 4-6.8-.7-2.5-9.4-.2-11-3.8-1.6-3.6 4.7-3 4.5-4.9-.3-1.8-7 .7-9-3-2.2-3.8 3.6-1.9 2.7-3.5-1-1.5-8-8-5-9.5 2.9-1.5 9.7 5.2 12 5.9 2.2.6 3-6.1 5.9-4 3 2.2.7 12.5 4.1 13.7 2.6.9 1.3-2.8 4.5-2.7 4.4 0 5.4 14.4 1.1 21z" fill="#fff"/>
  <path d="M476.6 459.1a.5.5 0 00.5-.4 57.5 57.5 0 0115.2-26s0-.2-.2-.3a.5.5 0 00-.7 0 58.7 58.7 0 00-15.3 26.5.5.5 0 00.3.3z" fill="#9bd100"/>
  <path d="M485.3 440.3a.5.5 0 01.3-.6h.1c2-.7 4-1 6.2-1a.5.5 0 01.5.6.5.5 0 01-.6.5c-2-.1-3.9.2-5.7.9H485.8a.5.5 0 01-.5-.4zm.2-.6h.1zM483.7 443.3a.5.5 0 00.5-.6 19.6 19.6 0 013-11 .5.5 0 000-.4l-.1-.2a.5.5 0 00-.6 0l-.1.2a20.2 20.2 0 00-3.3 11.5.5.5 0 00.6.5zM481.5 446.8c.1 0 .2 0 .3-.2a5.8 5.8 0 015.5-1h.2a.5.5 0 000-1 6.8 6.8 0 00-6.4 1.3.5.5 0 000 .7l.4.2zM478.6 452.4h.2a.5.5 0 00.3-.7c-1-2.3-1.2-4.8-.9-7.3a.5.5 0 00-.5-.6.5.5 0 00-.5.4c-.4 2.7-.1 5.4.9 8a.5.5 0 00.5.2z" fill="#9bd100"/>
  <path d="M476.9 456.5c2.8.1 7.9-2.3 9.9-4.8s-3.5-1.2-2.8-3.2c.6-2 7.3-.2 8.7-3.1 1.4-3-3.6-2.4-3.3-4 .3-1.4 5.4-1 7-4 1.8-3-2.7-1.5-2-2.7.8-1.3 6.6-6.5 4.4-7.8-2.3-1.2-7.8 4.3-9.6 4.8-1.8.6-2-3.4-4.4-1.6-2.3 1.8-1 10.1-3.7 11-2 .8-1-3-3.4-2-4 1.4-2 17.3-.8 17.4z" fill="#9bd100"/>
  <path opacity=".2" d="M476.9 456.5c2.8.1 7.9-2.3 9.9-4.8s-3.5-1.2-2.8-3.2c.6-2 7.3-.2 8.7-3.1 1.4-3-3.6-2.4-3.3-4 .3-1.4 5.4-1 7-4 1.8-3-2.7-1.5-2-2.7.8-1.3 6.6-6.5 4.4-7.8-2.3-1.2-7.8 4.3-9.6 4.8-1.8.6-2-3.4-4.4-1.6-2.3 1.8-1 10.1-3.7 11-2 .8-1-3-3.4-2-4 1.4-2 17.3-.8 17.4z" fill="#fff"/>
  <path d="M454 462c0 14-6 25.2 25.2 25.2 27.8 0 25.1-11.3 25.1-25.2 0-13.9-11.2-17.8-25.1-17.8-13.9 0-25.1 4-25.1 17.8z" fill="#263238"/>
  <path d="M451.3 457.7h55.6V444h-55.6z" fill="#263238"/>
  <path opacity=".2" d="M451.3 457.7h55.6V444h-55.6z" fill="#fff"/>
  <path d="M100.5 487.2H50.2l-6.7-48.9h63.6z" fill="#263238"/>
  <path d="M74.7 438.4s-7-33.3 5.8-51.3-11.6-.2-14.4 16.7c0 0-4.2-30.2 8.2-51.4 12.4-21.2-10.8-3.8-12.8 18 0 0-3.8-26.8 2-42 5.6-15-4.3-5.3-8.1 4.2-3.8 9.4 1.2 32.9 1.2 32.9s-10-43.4-19.4-40c-9.3 3.5 14.1 32 17.4 46.7 0 0-11.1-19.9-19.6-15.7-8.4 4.1 13 6.2 23 35.8l3.4 14s-10.3-19.6-17-13.5c-6.7 6.1 19.9 16.9 26 46.6z" fill="#9bd100"/>
  <path d="M73.3 440.3s-1.5-42-22.2-59.7C30.4 363 64.9 377 73.3 396.3c0 0-4-37.4-25.2-59-21-21.7 11.9-7.8 20.8 17.7 0 0-3.5-33.4-14.8-49.7-11.4-16.3 3.4-7.7 10.8 2.5s8.4 39.8 8.4 39.8-1-55 11.3-53.6c12.4 1.3-7.4 42.4-6.9 61 0 0 7.4-27.1 18.7-24.7 11.4 2.5-13.8 11.4-16.7 49.8v17.7s6.4-26.5 16.2-21.1c10 5.4-18.7 26.1-17.2 63.6z" fill="#9bd100"/>
  <path opacity=".2" d="M73.3 440.3s-1.5-42-22.2-59.7C30.4 363 64.9 377 73.3 396.3c0 0-4-37.4-25.2-59-21-21.7 11.9-7.8 20.8 17.7 0 0-3.5-33.4-14.8-49.7-11.4-16.3 3.4-7.7 10.8 2.5s8.4 39.8 8.4 39.8-1-55 11.3-53.6c12.4 1.3-7.4 42.4-6.9 61 0 0 7.4-27.1 18.7-24.7 11.4 2.5-13.8 11.4-16.7 49.8v17.7s6.4-26.5 16.2-21.1c10 5.4-18.7 26.1-17.2 63.6z" fill="#fff"/>
  <path d="M37.2 434.3v4.7a5.6 5.6 0 005.6 5.6h65.6a5.6 5.6 0 005.7-5.6v-4.7z" fill="#263238"/>
  <path opacity=".2" d="M37.2 434.3v4.7a5.6 5.6 0 005.6 5.6h65.6a5.6 5.6 0 005.7-5.6v-4.7z" fill="#fff"/>
  <path d="M231.3 140a8.2 8.2 0 100-16.4 8.2 8.2 0 000 16.3z" fill="#9bd100"/>
  <path opacity=".7" d="M231.3 140a8.2 8.2 0 100-16.4 8.2 8.2 0 000 16.3z" fill="#fff"/>
  <path d="M231.3 123.5l-.5-.2a.7.7 0 01-.2-.5V23.3a.7.7 0 111.4 0v99.5a.7.7 0 01-.2.5.7.7 0 01-.5.2z" fill="#263238"/>
  <path d="M260 132.8h-57.4l21.4-20h14.6z" fill="#9bd100"/>
  <path d="M260.7 134.3h-58.8a1.3 1.3 0 01-1-2.3c.3-.2.7-.4 1-.4h58.8a1.3 1.3 0 011 2.3c-.3.3-.6.4-1 .4z" fill="#9bd100"/>
  <path d="M238.8 113.7h-15a1 1 0 01-.9-1 1 1 0 011-.9h15a1 1 0 01.9 1 1 1 0 01-.7.8 1 1 0 01-.3 0z" fill="#263238"/>
  <path opacity=".4" d="M260.7 134.3h-58.8a1.3 1.3 0 01-1-2.3c.3-.2.7-.4 1-.4h58.8a1.3 1.3 0 011 2.3c-.3.3-.6.4-1 .4z" fill="#fff"/>
  <path d="M197.3 487.2h-8.2l-1.3-156.7h10.8z" fill="#9bd100"/>
  <path opacity=".4" d="M198.7 330.9l-.3 33-1 123.3H189l-1-123.3-.3-33z" fill="#fff"/>
  <path opacity=".2" d="M198.7 330.9l-.3 33.4H188l-.2-33.4z" fill="#000"/>
  <path d="M270.8 487.2h-8.1L248 330.5h10.8z" fill="#9bd100"/>
  <path opacity=".5" d="M270.9 487.2h-8.2l-14-146.5-.7-9.8h10.8l.6 9.8z" fill="#fff"/>
  <path opacity=".2" d="M259.4 340.2h-10.7l-.7-9.3h10.8z" fill="#000"/>
  <path d="M123.8 487.2h-8.2l12-156.7h10.9z" fill="#9bd100"/>
  <path opacity=".5" d="M138.5 330.9l-.7 9.8-14 146.5h-8.2L127 340.7l.6-9.8z" fill="#fff"/>
  <path opacity=".2" d="M127.6 330.9h10.9l-.7 9.3H127z" fill="#000"/>
  <path d="M119 325.4h148.4v7.4a2.9 2.9 0 01-2.9 2.9H122a2.9 2.9 0 01-2.9-3z" fill="#9bd100"/>
  <path opacity=".6" d="M119 325.4h148.4v7.4a2.9 2.9 0 01-2.9 2.9H122a2.9 2.9 0 01-2.9-3z" fill="#fff"/>
  <path opacity=".2" d="M267.4 325.4H119v5.1h148.4z" fill="#000"/>
  <path d="M272.5 326.7H113.9a2.9 2.9 0 010-5.7h158.6a2.9 2.9 0 012 4.9c-.5.5-1.2.8-2 .8z" fill="#9bd100"/>
  <path opacity=".6" d="M272.5 326.7H113.9a2.9 2.9 0 010-5.7h158.6a2.9 2.9 0 012 4.9c-.5.5-1.2.8-2 .8z" fill="#fff"/>
  <path d="M230.6 294.6c-.4 0-4.6-1.4-7.6 6.1-1.7 4.7-4.6 9-8.4 12.3-2.6 2.3-6 3.5-9.4 3.4l3.3-12.9c1.9.5 4 .5 5.9 0a8.5 8.5 0 005.2-3.9c4.6-7.6 7.7-7.6 7.7-7.6z" fill="#9bd100"/>
  <path opacity=".2" d="M214.6 313c-2.6 2.3-6 3.5-9.4 3.4l3.3-12.9c1.9.5 4 .5 5.9 0 1.1 3 1.2 6.4.2 9.5z" fill="#000"/>
  <path d="M181 317.2a19.6 19.6 0 01-14.7-6.2 14 14 0 01-3-13.4 8.5 8.5 0 014.7-5.7c5.7-2.6 13.9 1.4 14.2 1.6l-1.2 2.4s-7.3-3.6-12-1.6a6 6 0 00-3.2 4 11.3 11.3 0 002.5 11c3.6 4 9.7 6 16 5l.3 2.7a23 23 0 01-3.6.2z" fill="#9bd100"/>
  <path opacity=".2" d="M181 317.2a19.6 19.6 0 01-14.7-6.2 14 14 0 01-3-13.4 8.5 8.5 0 014.7-5.7c5.7-2.6 13.9 1.4 14.2 1.6l-1.2 2.4s-7.3-3.6-12-1.6a6 6 0 00-3.2 4 11.3 11.3 0 002.5 11c3.6 4 9.7 6 16 5l.3 2.7a23 23 0 01-3.6.2z" fill="#000"/>
  <path d="M207 290h-25a18.6 18.6 0 003 29.9h19a18.6 18.6 0 003-29.8z" fill="#9bd100"/>
  <path d="M206.6 321h-24.1l1.3-2h21.4z" fill="#9bd100"/>
  <path opacity=".2" d="M206.6 321h-24.1l1.3-2h21.4z" fill="#000"/>
  <path d="M195.5 283.7h-2v1h2z" fill="#9bd100"/>
  <path d="M207.8 290.5a.2.2 0 00.2-.2v-.1a18 18 0 00-26.9.1v.1l.2.1z" fill="#9bd100"/>
  <path opacity=".2" d="M207.8 290.5a.2.2 0 00.2-.2v-.1a18 18 0 00-26.9.1v.1l.2.1z" fill="#fff"/>
  <path d="M197 283.4c0 .6-5 .6-5 0s1.2-1 2.5-1c1.4 0 2.5.5 2.5 1zM222.8 274.7c.5 2.1 1.7 4 3.5 5.4 1.7 1.2 3.1 2.9 4.2 4.7 1 2 .9 5-.8 6.2a7.3 7.3 0 003-5.7 7.5 7.5 0 00-2.5-6c-1.3-1.2-3.2-1.6-4.4-3.1a6.9 6.9 0 01-1-5.1 32 32 0 011.3-4.3c-2 .7-3.7 5.4-3.3 8z" fill="#9bd100"/>
  <path d="M227.7 268.7a18 18 0 001.8-5.6c.2-2-1.8-5.3-1.8-5.3a8.7 8.7 0 013.2 5.7c.3 2.3-.2 4.7-1.5 6.6a14 14 0 01-3 3c-.3-1.3.7-3 1.3-4.4z" fill="#9bd100"/>
  <path opacity=".8" d="M222.8 274.7c.5 2.1 1.7 4 3.5 5.4 1.7 1.2 3.1 2.9 4.2 4.7 1 2 .9 5-.8 6.2a7.3 7.3 0 003-5.7 7.5 7.5 0 00-2.5-6c-1.3-1.2-3.2-1.6-4.4-3.1a6.9 6.9 0 01-1-5.1 32 32 0 011.3-4.3c-2 .7-3.7 5.4-3.3 8z" fill="#fff"/>
  <path opacity=".8" d="M227.7 268.7a18 18 0 001.8-5.6c.2-2-1.8-5.3-1.8-5.3a8.7 8.7 0 013.2 5.7c.3 2.3-.2 4.7-1.5 6.6a14 14 0 01-3 3c-.3-1.3.7-3 1.3-4.4z" fill="#fff"/>
  <path d="M438.2 275.8h-5.8l-16 94h5.8zM416.8 275.8h-5.7l-16 94h5.7zM395.5 275.8h-5.8l-16 94h5.7z" fill="#9bd100"/>
  <path opacity=".4" d="M438.2 275.8h-5.8l-16 94h5.8zM416.8 275.8h-5.7l-16 94h5.7zM395.5 275.8h-5.8l-16 94h5.7z" fill="#fff"/>
  <path d="M389 372.3l-.5 20.8-2.2 94h-7.2l-2.2-94-.5-20.8z" fill="#9bd100"/>
  <path opacity=".4" d="M389 372.3l-.5 20.8-2.2 94h-7.2l-2.2-94-.5-20.8z" fill="#fff"/>
  <path opacity=".2" d="M389 372.3l-.5 21.4H377l-.5-21.4z" fill="#000"/>
  <path d="M428.2 486.8l-6.6-113h-11l9.4 113z" fill="#9bd100"/>
  <path opacity=".4" d="M420 486.8h8.2l-6-102.9-.6-10.3h-11l.9 10.3z" fill="#fff"/>
  <path opacity=".2" d="M410.7 373.6l.8 10.7h10.7l-.6-10.7z" fill="#000"/>
  <path d="M345.4 486.8l9.4-113h-11l-6.6 113z" fill="#9bd100"/>
  <path opacity=".4" d="M345.4 486.8L354 384l.9-10.3h-11l-.6 10.3-6 103z" fill="#fff"/>
  <path opacity=".2" d="M354.8 373.6l-.9 10.7h-10.7l.6-10.7z" fill="#000"/>
  <path d="M344.7 362h76a6.7 6.7 0 016.7 6.7v9H338v-9a6.7 6.7 0 016.7-6.7z" fill="#9bd100"/>
  <path d="M429 369.8h-92.6a2.7 2.7 0 00-2.7 2.7v2.5c0 1.4 1.2 2.6 2.7 2.6H429c1.5 0 2.7-1.2 2.7-2.6v-2.5c0-1.5-1.2-2.7-2.7-2.7z" fill="#9bd100"/>
  <path opacity=".6" d="M429 369.8h-92.6a2.7 2.7 0 00-2.7 2.7v2.5c0 1.4 1.2 2.6 2.7 2.6H429c1.5 0 2.7-1.2 2.7-2.6v-2.5c0-1.5-1.2-2.7-2.7-2.7z" fill="#fff"/>
  <path d="M428.3 286.6c-9.3-5.6-22.2-5.6-34.5 0-6.2 2.7-13.6 3.5-16.8-.4-5.6-5.8 4.2-22.9 22.8-28.3a63.7 63.7 0 0138 0c15.7 5.3 16.2 22.5 7.5 28.3-5.4 4-12.3 3.2-17 .4z" fill="#9bd100"/>
  <path d="M346.2 252.7l-4 1.5-7 2.6c-8.7 2.6-19.2 4.9-19-.7.4-9.5 10.8-29.4 10.8-29.4l5.8 1.8s-6.4 20.4-5.4 21.2c.4.3 2.4-1 4.8-3l.7-.6c4.4-3.6 9.7-8.4 9.7-8.4z" fill="#ebb376"/>
  <path opacity=".2" d="M342.3 254.2l-7.1 2.6a34.6 34.6 0 01-3-10.1l.8-.7c1.7 1.5 5.7 4.8 9.3 8.2z" fill="#000"/>
  <path d="M382.9 187.4s-5.5-9.4-1.1-15.4 8.3 0 8.3 0-3.3-1.6-4.2 3c0 0 6.3-3.3 9.1.7 0 0-5-.1-4.9 2.7a2.3 2.3 0 013.8 0s-4.2 1.3-3 4.6c1.3 3.3 16.6 41-5 33.8-21.6-7.4-3-29.4-3-29.4z" fill="#263238"/>
  <path d="M371.4 178.6l30.6 23.7-1 1.4-30-24z" fill="#9bd100"/>
  <path d="M365 196.9l36.6-12.5.5 1.6-36.5 11.8z" fill="#9bd100"/>
  <path d="M252.9 443.6l7.6 1.5s42-100.5 48.7-100.8c6.7-.3 74.7 31 91.7 13.6 17-17.3-7.6-59-7.6-59s-41-6-44 3.3a65 65 0 00-1.8 8.3l-.8 5.3c-1.3-.4-42.4-11-58.6 0-16.5 11-35.2 127.8-35.2 127.8z" fill="#ebb376"/>
  <path d="M371.5 362.1s-2.8 0-45.8-2c0 0 8 74 11.5 114.2l-9 .5S292 370.2 292.4 356.5c.4-13.7 16-17.7 16-17.7s30.6 17.7 63 23.3z" fill="#ebb376"/>
  <path d="M371.4 362.1c-.4 0-4.8 0-38.3-1.6l.6-9.7c12.2 5.1 24.8 8.9 37.7 11.3z" fill="#263238"/>
  <path opacity=".3" d="M325.7 360.2s8 73.8 11.5 114l-9 .6S292 370.2 292.4 356.5c.4-13.7 16-17.7 16-17.7a228.2 228.2 0 0063 23.3c-.4 0-4.8 0-38.3-1.6z" fill="#000"/>
  <path d="M244.6 439a1.2 1.2 0 010-1.3 1.3 1.3 0 01.8-.6c1-.1 1.9 0 2.7.3-.8-.7-1.5-1.5-1.4-2.2 0-.4.4-.7 1-.8a1.9 1.9 0 011.5.3c1.5 1.1 1.8 4 1.8 4.3V439.3h-.2a21.2 21.2 0 01-5 .3c-.5 0-.9-.3-1.2-.5zm1-1.3a.7.7 0 00-.4.4c-.3.4-.1.6-.1.6.4.6 2.8.5 4.7.2-1.2-.7-3.2-1.5-4.2-1.2zm2.3-2.6c-.2 0-.5 0-.5.3-.1.5 1.3 1.8 3 3a5.4 5.4 0 00-1.5-3.1c-.2-.2-.4-.3-.7-.3zM319.2 474.5a1.2 1.2 0 01-.3-1.3 1.4 1.4 0 01.7-.9 5 5 0 012.7-.3c-1-.5-2-1.2-2-1.8 0-.4.3-.8.8-1a1.9 1.9 0 011.6 0c1.7.6 2.7 3.5 2.8 3.6V473.1h-.2c-1.6 1-3.3 1.5-5 1.7-.4 0-.8-.1-1-.3zm.7-1.6a.6.6 0 00-.3.4c-.2.5 0 .6 0 .7.6.5 2.9-.2 4.7-1-1.4-.3-3.5-.6-4.4 0zm1.6-3.1c-.2 0-.5.2-.5.4 0 .5 1.8 1.5 3.7 2.1-.5-1-1.2-2-2.2-2.6h-1z" fill="#263238"/>
  <path d="M264.4 441.1c.2-1-11.8-3-11.8-3s-9.2 5.7-16.7 5.6c-7.5 0-4.5 5.2 3.4 7.1l19.7 4.8c5.6 1.3 3.2-4.4 5.4-14.5zM339 471.6c0-1-12.3 0-12.3 0s-7.4 7.7-14.7 9.5c-7.2 1.8-3.1 6.2 5 6l20.3-.2c5.8 0 2-5 1.7-15.3z" fill="#9bd100"/>
  <path d="M393.3 298.8s-41-5.8-44 3.4c-.8 2.8-1.4 5.5-1.8 8.3l-.8 5.3-3.4-.9-5.3 41c22.7 7.2 52.7 12.4 63 2 17-17.3-7.7-59-7.7-59z" fill="#263238"/>
  <path opacity=".3" d="M346.7 315.8l24 5s-13.2-7.4-23.1-10.3c-.6 2.9-.9 5.3-.9 5.3z" fill="#000"/>
  <path d="M392.3 292.4l1 6.4-44 3.4-1.2-7.5z" fill="#263238"/>
  <path opacity=".2" d="M392.3 292.4l1 6.4-44 3.4-1.2-7.5z" fill="#000"/>
  <path d="M378.4 303.1l2.2-.2-1.1-11-2.2.1z" fill="#263238"/>
  <path d="M358.8 302l9.7-.6-.5-7.3-9.6.6z" fill="#fff"/>
  <path d="M351.4 304.3l2.2-.2-1.2-11.1-2.2.2z" fill="#263238"/>
  <path d="M369.1 229.9c-1 2.4-2.6 2.4-2.6 2.4a5.3 5.3 0 002.9 8c8 2.4 14.2-5.8 14.2-5.8-4.6-4.5-3.2-11.2-2-15l1.3-2.8-13.1 2.1c.2 1.9.3 3.7.3 5.6a14 14 0 01-1 5.5z" fill="#ebb376"/>
  <path opacity=".2" d="M369.7 218.8c.3 1.9.4 3.7.4 5.6a14 14 0 01-1 5.5c6 2.4 12.5-10.3 12.5-10.3l1.3-2.9z" fill="#000"/>
  <path d="M381.8 220.1s9.5-3.5 10.7-16.4a21 21 0 00-9-19.3 24.2 24.2 0 00-21.3-2.1c-12 4.5-18.4 31.2-2.7 32 15.6.8 22.3 5.8 22.3 5.8z" fill="#263238"/>
  <path d="M372.2 187.4c-11.3-.5-15.3 5.4-16.6 17.1-1.7 14.6 1 25.2 15.4 22.7 19.5-3.4 20.1-39 1.2-39.8z" fill="#ebb376"/>
  <path d="M363 204.2c-1 1.7-2.2 3.2-3.6 4.6a3.1 3.1 0 003 1.4z" fill="#d58745"/>
  <path d="M370 203.6c-.1 1 .3 1.7 1 1.8.6 0 1.1-.7 1.2-1.6 0-1-.4-1.8-1-1.8s-1.2.6-1.3 1.6z" fill="#263238"/>
  <path d="M371.4 202l-2-.9s1 1.8 2 1zM358.4 202.6c-.1 1 .3 1.7 1 1.8.6 0 1.1-.7 1.2-1.6 0-1-.4-1.8-1-1.8s-1.2.7-1.2 1.6z" fill="#263238"/>
  <path d="M359.8 201l-2-.9s1 1.8 2 1zM375.2 198.2a.5.5 0 01-.4-.2 5.4 5.4 0 00-4.4-1.8.5.5 0 01-.5-.4.5.5 0 01.4-.6 6.4 6.4 0 015.4 2.2v.3l-.1.4h-.4zM357.6 196.1a.4.4 0 01-.4-.2.5.5 0 010-.6l.1-.1a5.8 5.8 0 015-.8c.2 0 .3.2.3.3v.4a.5.5 0 01-.6.2 4.9 4.9 0 00-4.2.7l-.2.1z" fill="#263238"/>
  <path d="M383.8 207.1s-4.9-9.6-3.8-16.7c0 0-22.1-10.3-24.2 12.6 0 0-1.4-20.4 18.2-20 19.6.3 18.3 29 7.8 37 0 0 5-6.9 2-12.9z" fill="#263238"/>
  <path d="M382 209.4a5 5 0 015.5-4.3c3.5.6 4.9 7.9-4 9.2-1.3.2-2-1-1.6-4.9z" fill="#ebb376"/>
  <path d="M387.1 222.6a.4.4 0 01-.2-.2.3.3 0 010-.4s3.4-2 3.5-5.2c.1-2.2-1.4-4.5-4.6-6.8-10-7.3-6-21-6-21.2l.2-.2h.2c.1 0 .2 0 .2.2v.2c0 .2-3.9 13.5 5.8 20.4 3.4 2.5 5 5 5 7.4-.2 3.5-3.7 5.6-3.9 5.7h-.2zM355.2 214.7a8.5 8.5 0 01-7.5-4c-1.6-2.6-3.3-8.6 2.6-19.7a16.7 16.7 0 0122.7-8.3.3.3 0 11-.3.6c-.6-.3-13.9-6.8-21.8 8-5.8 10.9-4.2 16.6-2.6 19a7.7 7.7 0 006.9 3.8.3.3 0 01.3.3.3.3 0 01-.3.3zM340.9 312.6l4 1.2-4 43.6h-5.3z" fill="#263238"/>
  <path opacity=".4" d="M340.9 312.6l4 1.2-4 43.6h-5.3z" fill="#fff"/>
  <path d="M331.9 350v12l3.7.5.7-10.6z" fill="#263238"/>
  <path opacity=".3" d="M331.9 350v12l3.7.5.7-10.6z" fill="#fff"/>
  <path d="M362.6 214h-1.4l-.5-.1a6 6 0 00-4-1.2l.2.2-.6-.1h.4l-8-1.9h-.4l-1.2-.8c-1.5-.8-1.8 0-1.8 0v.1l.6 1.2c.1.5.2.9 0 1l-1.5-.3a2.3 2.3 0 00-3 1.5l-.8 3.3a2.1 2.1 0 00.4 1.7l2.4 3.4.8.8a8.2 8.2 0 006.1 5.7l1.2.3c4.3 1 8.6-1.2 9.5-5l1.5-6.2c.2-.6.5-1.3 1-1.8l.7-1s.1-.9-1.6-.9zm-20.6 4.6c-.7-1-.7-1-.5-2l.8-3a1.5 1.5 0 011.8-1l.7.2a1 1 0 01.8 1.2l-1.6 7z" fill="#9bd100"/>
  <path opacity=".7" d="M362.6 214h-1.4l-.5-.1a6 6 0 00-4-1.2l.2.2-.6-.1h.4l-8-1.9h-.4l-1.2-.8c-1.5-.8-1.8 0-1.8 0v.1l.6 1.2c.1.5.2.9 0 1l-1.5-.3a2.3 2.3 0 00-3 1.5l-.8 3.3a2.1 2.1 0 00.4 1.7l2.4 3.4.8.8a8.2 8.2 0 006.1 5.7l1.2.3c4.3 1 8.6-1.2 9.5-5l1.5-6.2c.2-.6.5-1.3 1-1.8l.7-1s.1-.9-1.6-.9zm-20.6 4.6c-.7-1-.7-1-.5-2l.8-3a1.5 1.5 0 011.8-1l.7.2a1 1 0 01.8 1.2l-1.6 7z" fill="#fff"/>
  <path d="M350.6 198.2c0 1.3-.4 2.6-1.2 3.7a10 10 0 00-1.8 3.4 3.3 3.3 0 001.3 3.6 4.4 4.4 0 01-2.7-3 4.6 4.6 0 01.6-3.9c.7-.9 1.7-1.4 2.2-2.5.3-1 .3-2.1-.2-3.1-.4-.8-.8-1.6-1.4-2.4 1.4 0 3.1 2.6 3.2 4.2z" fill="#9bd100"/>
  <path d="M346.8 195.3c-.8-.9-1.4-1.9-1.9-3-.1-1.1 0-2.3.3-3.4a5.3 5.3 0 00-1 3.9c.1 1.4.8 2.7 1.9 3.7.6.5 1.4 1 2.2 1.3a5 5 0 00-1.5-2.5z" fill="#9bd100"/>
  <path opacity=".8" d="M350.6 198.2c0 1.3-.4 2.6-1.2 3.7a10 10 0 00-1.8 3.4 3.3 3.3 0 001.3 3.6 4.4 4.4 0 01-2.7-3 4.6 4.6 0 01.6-3.9c.7-.9 1.7-1.4 2.2-2.5.3-1 .3-2.1-.2-3.1-.4-.8-.8-1.6-1.4-2.4 1.4 0 3.1 2.6 3.2 4.2z" fill="#fff"/>
  <path opacity=".8" d="M346.8 195.3c-.8-.9-1.4-1.9-1.9-3-.1-1.1 0-2.3.3-3.4a5.3 5.3 0 00-1 3.9c.1 1.4.8 2.7 1.9 3.7.6.5 1.4 1 2.2 1.3a5 5 0 00-1.5-2.5z" fill="#fff"/>
  <path d="M335.3 215.4l8.2-1.2-2.1 12-12.7 4-2.1-2.8s5.9-10.5 8.7-12z" fill="#ebb376"/>
  <path d="M402.9 236.8l-10.6 55.7-44.2 2.2s-10.1-38.3 1.6-61.3l2.6-.2a170 170 0 0150.6 3.6z" fill="#9bd100"/>
  <path opacity=".4" d="M402.9 236.8l-10.6 55.7-44.2 2.2s-10.1-38.3 1.6-61.3l2.6-.2a170 170 0 0150.6 3.6z" fill="#fff"/>
  <path opacity=".4" d="M362.3 262.1c0-.4-.3-8.4 5.2-8.2 5.6.3 2.8 9.5 3.2 9.8.4.2 6.7-5.1 10-2.7 3 2.4-5.2 8.8-5.2 8.8s8.7 3.7 7.4 7.2c-1.4 3.6-10.7 0-10.7 0s3.3 5.8-1.2 8.2c-4.4 2.4-7.6-6.5-7.6-6.5s-2.8 5.6-6.5 4.4c-3.7-1.2 2.5-10.4 2.5-10.4s-6.4 3.1-7.6-3c-1-6 7.6-2.4 7.6-2.4s-5-4-2.3-7.7c2.6-3.8 5.2 2.5 5.2 2.5z" fill="#fff"/>
  <path opacity=".4" d="M365 266.4c3.8-.5 3.5 9.3 0 8-3.5-1.4-4.7-7.3 0-8z" fill="#fff"/>
  <path d="M349.7 233.4c-6.2 1.2-17.6 12.6-17.6 12.6l12 15z" fill="#9bd100"/>
  <path opacity=".4" d="M349.7 233.4c-6.2 1.2-17.6 12.6-17.6 12.6l12 15z" fill="#fff"/>
  <path d="M399.8 235.9c-6.3 4.8-21.3 14.8-33.2 11.8-11.8-3.1-14-11-14.3-14.5 7.7-.5 31-1.7 47.5 2.7z" fill="#ebb376"/>
  <path d="M376.6 252.1H352c-1 0-2-.5-2.9-1.2h30.3c-.8.7-1.8 1.1-2.8 1.2z" fill="#fff"/>
  <path d="M407 259.6l-.8 7.8c-.8 7.3-2.3 17-4.9 16.5-4-.9-21.9-23.6-21.9-23.6s-10.1.7-13.1-.7c-3-1.5-10.6-7.5-10.6-7.5l21.9-.1s19.8 18 20.5 17.6c.5-1.1.8-2.4.9-3.7a143.5 143.5 0 00.8-8l4.9 1.1z" fill="#ebb376"/>
  <path opacity=".2" d="M407 259.6l-.8 7.8-7.2-1.5.6-5.5 5.1-1.3z" fill="#000"/>
  <path d="M397.6 264.8l17.7-6.8s-5-19.4-12.3-21.2a37 37 0 00-5.4 28z" fill="#9bd100"/>
  <path opacity=".4" d="M397.6 264.8l17.7-6.8s-5-19.4-12.3-21.2a37 37 0 00-5.4 28z" fill="#fff"/>
</svg>
