<svg width="612" height="415" fill="none" xmlns="http://www.w3.org/2000/svg">
  <path d="M534 138.4a244.4 244.4 0 0010.5-15c-.6-.4-5.1-3.8-6.4-6.2-1.3-2.3-2.1-5.2-1-7.5a4.3 4.3 0 016-2.1c3.1 1.8 3.7 8.3 3 11.5l-1.2 3.7 1.7-2.6 2.4-4.2 1.2-2.2c.5-.7.8-1.5 1.2-2.2l1.5-3.6c-1.4-.7-5.5-3-7-4.9-1.4-2-2.8-4.8-2.1-7.3a4.3 4.3 0 015.6-3c3.4 1.3 5 7.7 4.8 11l-.3 1.5c.5-1.2 1-2.3 1.3-3.5l3.4-10.5.7-2.2c-1.2-.6-5.6-3-7.1-5s-2.9-4.8-2.2-7.3a4.3 4.3 0 015.6-3c3.5 1.2 5 7.6 4.8 10.9l-.3 1.8 2-5.6c1.2-3.2 2.6-6.3 4.2-9.3-.4-.3-5.7-3-7.4-5.2-1.5-2-2.8-4.8-2.1-7.3a4.3 4.3 0 015.6-3c3.4 1.2 5 7.6 4.8 10.9l-.7 4.2v-.1a56.8 56.8 0 0111.7-14.8c2-2 3.9-3.6 5.6-5l2.6-2.2 2.1-4.1c1.9-2.7 7-6.8 10.5-5.8a4.3 4.3 0 012.5 6c-1 2.3-3.8 3.7-6.1 4.4-2.4.7-7.5-.2-8.8-.4a142.9 142.9 0 00-8.1 7.4l-1.6 1.7 2.7-1.8c2.9-1.5 9.3-2.8 12-.3a4.3 4.3 0 01-.5 6.4c-2 1.7-5.1 1.6-7.4 1.1-2.4-.5-6.8-3.7-7.7-4.5a62 62 0 00-8.8 12.3l-.3.5 3.5-3c2.7-1.8 9-3.8 11.8-1.5a4.3 4.3 0 01.3 6.4c-1.8 1.8-5 2.2-7.3 1.9-2.8-.3-8.1-3.5-8.3-3.7-1.5 3-2.8 6-3.8 9.1-.9 2.3-1.5 4.7-2.3 7l3.4-3c2.7-1.8 9-3.7 11.8-1.4a4.3 4.3 0 01.3 6.4c-1.7 1.9-5 2.2-7.3 1.9a30 30 0 01-8.2-3.6l-1 3.2-3.1 10.6-1.3 3.5 3-2.5c2.6-1.8 9-3.8 11.8-1.5a4.3 4.3 0 01.3 6.4c-1.8 1.9-5 2.2-7.4 2-2.4-.3-6.7-2.8-8-3.5-.6 1.9-1.4 3.8-2.2 5.7l-1.1 2.3-1.2 2.3-2.4 4.3-1.2 2 2.3-2.8c2.4-2.2 8.3-5 11.5-3.3a4.3 4.3 0 011.3 6.3c-1.5 2.1-4.6 2.9-7 3-2.7 0-8-2-8.7-2.3l-3 4.7a214.4 214.4 0 01-10.6 15.1 1.3 1.3 0 01-2-1.6l3.2-4z" fill="#9bd100"/>
  <path d="M576 58.4s-4.7-4.3-5.8-7c-.9-2.2-1.5-5.3-.1-7.6a4.3 4.3 0 016.2-1.4c3 2.1 2.8 8.7 1.7 11.8 0 .3-2 4.3-2 4.2zM529 140.1a157.1 157.1 0 00-5.5-12.3c-2 1-4.1 1.5-6.3 1.8a6.6 6.6 0 01-5.1-2.2 3.2 3.2 0 01.9-4.7c2.3-1.3 6.7.8 8.4 2.5l1.9 2.2-1-2.1-1.7-3.1-1-1.6-1-1.6-1.6-2.3c-1.8 1.2-3.7 2-5.7 2.5a6.6 6.6 0 01-5.4-1.4 3.2 3.2 0 01.2-4.7c2-1.6 6.7-.2 8.7 1.1l.9.8-1.7-2.2-5.4-6-1-1.3c-1.9 1.2-3.9 2-6 2.6a6.7 6.7 0 01-5.4-1.4 3.2 3.2 0 01.2-4.7c2.1-1.7 6.8-.2 8.7 1.1l1 .9a54.7 54.7 0 01-7-9.5c-1.9 1.2-3.9 2-6 2.6a6.6 6.6 0 01-5.4-1.3 3.2 3.2 0 01.2-4.8c2-1.6 6.7-.2 8.7 1.2l2.3 2a57 57 0 01-6.2-20.9l-1.8-3c-1-2.2-1.6-7 .4-8.8a3.2 3.2 0 014.6.6 6.6 6.6 0 01.5 5.6 21 21 0 01-3.6 5.3l.4 2.6 1.2 5.4.5 1.6-.2-2.4c.2-2.4 1.8-7 4.4-7.6a3.2 3.2 0 013.9 2.7 6.6 6.6 0 01-2.2 5.1 21.3 21.3 0 01-5.6 3.2 50.6 50.6 0 004.3 10.2l.3.3-.6-3.3c-.1-2.4 1-7 3.5-8a3.1 3.1 0 013.6 1c.3.4.4.8.5 1.2a6.6 6.6 0 01-1.5 5.4 22.4 22.4 0 01-5.5 3.8 53.5 53.5 0 007.9 10l-.6-3.3c-.1-2.4 1-7.1 3.5-8a3.2 3.2 0 014.2 2.2 6.6 6.6 0 01-1.6 5.3 21.7 21.7 0 01-5.4 3.8l1.5 2 5.4 6 1.8 2a91 91 0 01-.5-2.7c-.1-2.4 1-7 3.5-8a3.2 3.2 0 014.2 2.2 6.6 6.6 0 01-1.6 5.3 21 21 0 01-5.2 3.8c1 1.1 1.9 2.3 2.7 3.6l1.1 1.5 1 1.6 1.8 3.2.8 1.5-.9-2.6c-.5-2.3 0-7.1 2.3-8.5a3.2 3.2 0 014.5 1.6 6.6 6.6 0 01-.8 5.6c-1.3 1.7-3 3.3-4.7 4.5a144.3 144.3 0 017.3 16.8 1 1 0 01-.6.5 1 1 0 01-1.2-.6l-1.2-3.4z" fill="#9bd100"/>
  <path d="M494.5 83.4c-2.1.7-4.4 1-6.6 1a6.6 6.6 0 01-4.8-2.8 3.2 3.2 0 011.4-4.5c2.5-1 6.6 1.6 8.2 3.4 0 .2 1.8 2.9 1.8 2.9zM531.5 137.6a227 227 0 001.6-18.2c-.7-.1-6.4-.8-8.7-2.1-2.3-1.4-4.4-3.5-4.7-6a4.3 4.3 0 014.1-5c3.7 0 7.5 5.4 8.5 8.5l.8 3.8.1-3.1v-4.8-2.5l-.3-2.6c0-1.2-.2-2.5-.4-3.8-1.6 0-6.3.2-8.5-.7-2.1-1-4.8-2.7-5.5-5.2a4.3 4.3 0 013.3-5.5c3.6-.6 8.2 4.1 9.7 7l.6 1.5-.7-3.7-2.4-10.7-.5-2.3c-1.3 0-6.4.2-8.6-.7-2.3-1-5-2.8-5.6-5.2a4.3 4.3 0 013.3-5.5c3.6-.6 8.2 4.1 9.7 7l.6 1.8c-.4-2-.8-4-1-6-.7-3.3-1-6.7-1.1-10-.5 0-6.5.2-9-.8-2.3-1-4.9-2.7-5.5-5.2a4.3 4.3 0 013.3-5.5c3.6-.6 8.1 4.1 9.6 7l1.5 4a56.6 56.6 0 012.7-18.8A79.7 79.7 0 01532 34l-.3-4.7c.3-3.2 2.7-9.4 6.2-10.2a4.3 4.3 0 015.2 3.8c.3 2.5-1.4 5.2-3.1 7a29.1 29.1 0 01-7.8 4l-1.2 3.3c-.7 2.1-1.5 4.5-2.1 7.2l-.5 2.2 1.5-3c1.7-2.7 6.6-7 10.2-6.2a4.3 4.3 0 012.8 5.8c-.9 2.4-3.6 4-6 4.7a29 29 0 01-8.8 0 72 72 0 00-1.4 15v.6c.1-.6 1.3-4 1.5-4.3 1.4-3 5.8-7.8 9.4-7.3a4.3 4.3 0 013.5 5.4c-.6 2.5-3.2 4.4-5.4 5.3-2.6 1.2-8.8 1-9 1a74.9 74.9 0 002.9 17c.2-.8 1.3-4 1.5-4.2 1.4-3 5.8-7.8 9.4-7.3a4.3 4.3 0 013.5 5.4c-.6 2.5-3.2 4.4-5.4 5.3a30 30 0 01-9 1l.9 3.3c.8 3.6 1.8 7.1 2.5 10.7l.8 3.7 1.2-3.6c1.4-3 5.9-7.8 9.5-7.4a4.3 4.3 0 013.5 5.4c-.6 2.6-3.2 4.4-5.4 5.4-2.3 1-7.3 1-8.7 1l1 6 .2 2.7.1 2.5v7.3l.7-3.6c1-3 4.6-8.6 8.2-8.6a4.3 4.3 0 014.3 4.8c-.3 2.6-2.5 4.8-4.5 6.1a32 32 0 01-8.6 2.3l-.2 5.6a229.5 229.5 0 01-1.8 19 1.3 1.3 0 01-.8.7 1.3 1.3 0 01-1.4-.6 1.3 1.3 0 01-.2-1l.7-5z" fill="#9bd100"/>
  <path d="M527.7 47.4s-6.3-1.4-8.6-3.2c-1.9-1.5-4-3.9-4-6.4a4.3 4.3 0 014.7-4.5c3.7.4 6.8 6.1 7.5 9.3l.4 4.8zM534 138.4a244.4 244.4 0 0010.5-15c-.6-.4-5.1-3.8-6.4-6.2-1.3-2.3-2.1-5.2-1-7.5a4.3 4.3 0 016-2.1c3.1 1.8 3.7 8.3 3 11.5l-1.2 3.7 1.7-2.6 2.4-4.2 1.2-2.2c.5-.7.8-1.5 1.2-2.2l1.5-3.6c-1.4-.7-5.5-3-7-4.9-1.4-2-2.8-4.8-2.1-7.3a4.3 4.3 0 015.6-3c3.4 1.3 5 7.7 4.8 11l-.3 1.5c.5-1.2 1-2.3 1.3-3.5l3.4-10.5.7-2.2c-1.2-.6-5.6-3-7.1-5s-2.9-4.8-2.2-7.3a4.3 4.3 0 015.6-3c3.5 1.2 5 7.6 4.8 10.9l-.3 1.8 2-5.6c1.2-3.2 2.6-6.3 4.2-9.3-.4-.3-5.7-3-7.4-5.2-1.5-2-2.8-4.8-2.1-7.3a4.3 4.3 0 015.6-3c3.4 1.2 5 7.6 4.8 10.9l-.7 4.2v-.1a56.8 56.8 0 0111.7-14.8c2-2 3.9-3.6 5.6-5l2.6-2.2 2.1-4.1c1.9-2.7 7-6.8 10.5-5.8a4.3 4.3 0 012.5 6c-1 2.3-3.8 3.7-6.1 4.4-2.4.7-7.5-.2-8.8-.4a142.9 142.9 0 00-8.1 7.4l-1.6 1.7 2.7-1.8c2.9-1.5 9.3-2.8 12-.3a4.3 4.3 0 01-.5 6.4c-2 1.7-5.1 1.6-7.4 1.1-2.4-.5-6.8-3.7-7.7-4.5a62 62 0 00-8.8 12.3l-.3.5 3.5-3c2.7-1.8 9-3.8 11.8-1.5a4.3 4.3 0 01.3 6.4c-1.8 1.8-5 2.2-7.3 1.9-2.8-.3-8.1-3.5-8.3-3.7-1.5 3-2.8 6-3.8 9.1-.9 2.3-1.5 4.7-2.3 7l3.4-3c2.7-1.8 9-3.7 11.8-1.4a4.3 4.3 0 01.3 6.4c-1.7 1.9-5 2.2-7.3 1.9a30 30 0 01-8.2-3.6l-1 3.2-3.1 10.6-1.3 3.5 3-2.5c2.6-1.8 9-3.8 11.8-1.5a4.3 4.3 0 01.3 6.4c-1.8 1.9-5 2.2-7.4 2-2.4-.3-6.7-2.8-8-3.5-.6 1.9-1.4 3.8-2.2 5.7l-1.1 2.3-1.2 2.3-2.4 4.3-1.2 2 2.3-2.8c2.4-2.2 8.3-5 11.5-3.3a4.3 4.3 0 011.3 6.3c-1.5 2.1-4.6 2.9-7 3-2.7 0-8-2-8.7-2.3l-3 4.7a214.4 214.4 0 01-10.6 15.1 1.3 1.3 0 01-2-1.6l3.2-4z" fill="#9bd100"/>
  <path d="M576 58.4s-4.7-4.3-5.8-7c-.9-2.2-1.5-5.3-.1-7.6a4.3 4.3 0 016.2-1.4c3 2.1 2.8 8.7 1.7 11.8 0 .3-2 4.3-2 4.2zM529 140.1a157.1 157.1 0 00-5.5-12.3c-2 1-4.1 1.5-6.3 1.8a6.6 6.6 0 01-5.1-2.2 3.2 3.2 0 01.9-4.7c2.3-1.3 6.7.8 8.4 2.5l1.9 2.2-1-2.1-1.7-3.1-1-1.6-1-1.6-1.6-2.3c-1.8 1.2-3.7 2-5.7 2.5a6.6 6.6 0 01-5.4-1.4 3.2 3.2 0 01.2-4.7c2-1.6 6.7-.2 8.7 1.1l.9.8-1.7-2.2-5.4-6-1-1.3c-1.9 1.2-3.9 2-6 2.6a6.7 6.7 0 01-5.4-1.4 3.2 3.2 0 01.2-4.7c2.1-1.7 6.8-.2 8.7 1.1l1 .9a54.7 54.7 0 01-7-9.5c-1.9 1.2-3.9 2-6 2.6a6.6 6.6 0 01-5.4-1.3 3.2 3.2 0 01.2-4.8c2-1.6 6.7-.2 8.7 1.2l2.3 2a57 57 0 01-6.2-20.9l-1.8-3c-1-2.2-1.6-7 .4-8.8a3.2 3.2 0 014.6.6 6.6 6.6 0 01.5 5.6 21 21 0 01-3.6 5.3l.4 2.6 1.2 5.4.5 1.6-.2-2.4c.2-2.4 1.8-7 4.4-7.6a3.2 3.2 0 013.9 2.7 6.6 6.6 0 01-2.2 5.1 21.3 21.3 0 01-5.6 3.2 50.6 50.6 0 004.3 10.2l.3.3-.6-3.3c-.1-2.4 1-7 3.5-8a3.1 3.1 0 013.6 1c.3.4.4.8.5 1.2a6.6 6.6 0 01-1.5 5.4 22.4 22.4 0 01-5.5 3.8 53.5 53.5 0 007.9 10l-.6-3.3c-.1-2.4 1-7.1 3.5-8a3.2 3.2 0 014.2 2.2 6.6 6.6 0 01-1.6 5.3 21.7 21.7 0 01-5.4 3.8l1.5 2 5.4 6 1.8 2a91 91 0 01-.5-2.7c-.1-2.4 1-7 3.5-8a3.2 3.2 0 014.2 2.2 6.6 6.6 0 01-1.6 5.3 21 21 0 01-5.2 3.8c1 1.1 1.9 2.3 2.7 3.6l1.1 1.5 1 1.6 1.8 3.2.8 1.5-.9-2.6c-.5-2.3 0-7.1 2.3-8.5a3.2 3.2 0 014.5 1.6 6.6 6.6 0 01-.8 5.6c-1.3 1.7-3 3.3-4.7 4.5a144.3 144.3 0 017.3 16.8 1 1 0 01-.6.5 1 1 0 01-1.2-.6l-1.2-3.4z" fill="#9bd100"/>
  <path d="M494.5 83.4c-2.1.7-4.4 1-6.6 1a6.6 6.6 0 01-4.8-2.8 3.2 3.2 0 011.4-4.5c2.5-1 6.6 1.6 8.2 3.4 0 .2 1.8 2.9 1.8 2.9zM531.5 137.6a227 227 0 001.6-18.2c-.7-.1-6.4-.8-8.7-2.1-2.3-1.4-4.4-3.5-4.7-6a4.3 4.3 0 014.1-5c3.7 0 7.5 5.4 8.5 8.5l.8 3.8.1-3.1v-4.8-2.5l-.3-2.6c0-1.2-.2-2.5-.4-3.8-1.6 0-6.3.2-8.5-.7-2.1-1-4.8-2.7-5.5-5.2a4.3 4.3 0 013.3-5.5c3.6-.6 8.2 4.1 9.7 7l.6 1.5-.7-3.7-2.4-10.7-.5-2.3c-1.3 0-6.4.2-8.6-.7-2.3-1-5-2.8-5.6-5.2a4.3 4.3 0 013.3-5.5c3.6-.6 8.2 4.1 9.7 7l.6 1.8c-.4-2-.8-4-1-6-.7-3.3-1-6.7-1.1-10-.5 0-6.5.2-9-.8-2.3-1-4.9-2.7-5.5-5.2a4.3 4.3 0 013.3-5.5c3.6-.6 8.1 4.1 9.6 7l1.5 4a56.6 56.6 0 012.7-18.8A79.7 79.7 0 01532 34l-.3-4.7c.3-3.2 2.7-9.4 6.2-10.2a4.3 4.3 0 015.2 3.8c.3 2.5-1.4 5.2-3.1 7a29.1 29.1 0 01-7.8 4l-1.2 3.3c-.7 2.1-1.5 4.5-2.1 7.2l-.5 2.2 1.5-3c1.7-2.7 6.6-7 10.2-6.2a4.3 4.3 0 012.8 5.8c-.9 2.4-3.6 4-6 4.7a29 29 0 01-8.8 0 72 72 0 00-1.4 15v.6c.1-.6 1.3-4 1.5-4.3 1.4-3 5.8-7.8 9.4-7.3a4.3 4.3 0 013.5 5.4c-.6 2.5-3.2 4.4-5.4 5.3-2.6 1.2-8.8 1-9 1a74.9 74.9 0 002.9 17c.2-.8 1.3-4 1.5-4.2 1.4-3 5.8-7.8 9.4-7.3a4.3 4.3 0 013.5 5.4c-.6 2.5-3.2 4.4-5.4 5.3a30 30 0 01-9 1l.9 3.3c.8 3.6 1.8 7.1 2.5 10.7l.8 3.7 1.2-3.6c1.4-3 5.9-7.8 9.5-7.4a4.3 4.3 0 013.5 5.4c-.6 2.6-3.2 4.4-5.4 5.4-2.3 1-7.3 1-8.7 1l1 6 .2 2.7.1 2.5v7.3l.7-3.6c1-3 4.6-8.6 8.2-8.6a4.3 4.3 0 014.3 4.8c-.3 2.6-2.5 4.8-4.5 6.1a32 32 0 01-8.6 2.3l-.2 5.6a229.5 229.5 0 01-1.8 19 1.3 1.3 0 01-.8.7 1.3 1.3 0 01-1.4-.6 1.3 1.3 0 01-.2-1l.7-5z" fill="#9bd100"/>
  <path d="M527.7 47.4s-6.3-1.4-8.6-3.2c-1.9-1.5-4-3.9-4-6.4a4.3 4.3 0 014.7-4.5c3.7.4 6.8 6.1 7.5 9.3l.4 4.8z" fill="#9bd100"/>
  <g opacity=".4" fill="#fff">
    <path opacity=".4" d="M534 138.4a244.4 244.4 0 0010.5-15c-.6-.4-5.1-3.8-6.4-6.2-1.3-2.3-2.1-5.2-1-7.5a4.3 4.3 0 016-2.1c3.1 1.8 3.7 8.3 3 11.5l-1.2 3.7 1.7-2.6 2.4-4.2 1.2-2.2c.5-.7.8-1.5 1.2-2.2l1.5-3.6c-1.4-.7-5.5-3-7-4.9-1.4-2-2.8-4.8-2.1-7.3a4.3 4.3 0 015.6-3c3.4 1.3 5 7.7 4.8 11l-.3 1.5c.5-1.2 1-2.3 1.3-3.5l3.4-10.5.7-2.2c-1.2-.6-5.6-3-7.1-5s-2.9-4.8-2.2-7.3a4.3 4.3 0 015.6-3c3.5 1.2 5 7.6 4.8 10.9l-.3 1.8 2-5.6c1.2-3.2 2.6-6.3 4.2-9.3-.4-.3-5.7-3-7.4-5.2-1.5-2-2.8-4.8-2.1-7.3a4.3 4.3 0 015.6-3c3.4 1.2 5 7.6 4.8 10.9l-.7 4.2v-.1a56.8 56.8 0 0111.7-14.8c2-2 3.9-3.6 5.6-5l2.6-2.2 2.1-4.1c1.9-2.7 7-6.8 10.5-5.8a4.3 4.3 0 012.5 6c-1 2.3-3.8 3.7-6.1 4.4-2.4.7-7.5-.2-8.8-.4a142.9 142.9 0 00-8.1 7.4l-1.6 1.7 2.7-1.8c2.9-1.5 9.3-2.8 12-.3a4.3 4.3 0 01-.5 6.4c-2 1.7-5.1 1.6-7.4 1.1-2.4-.5-6.8-3.7-7.7-4.5a62 62 0 00-8.8 12.3l-.3.5 3.5-3c2.7-1.8 9-3.8 11.8-1.5a4.3 4.3 0 01.3 6.4c-1.8 1.8-5 2.2-7.3 1.9-2.8-.3-8.1-3.5-8.3-3.7-1.5 3-2.8 6-3.8 9.1-.9 2.3-1.5 4.7-2.3 7l3.4-3c2.7-1.8 9-3.7 11.8-1.4a4.3 4.3 0 01.3 6.4c-1.7 1.9-5 2.2-7.3 1.9a30 30 0 01-8.2-3.6l-1 3.2-3.1 10.6-1.3 3.5 3-2.5c2.6-1.8 9-3.8 11.8-1.5a4.3 4.3 0 01.3 6.4c-1.8 1.9-5 2.2-7.4 2-2.4-.3-6.7-2.8-8-3.5-.6 1.9-1.4 3.8-2.2 5.7l-1.1 2.3-1.2 2.3-2.4 4.3-1.2 2 2.3-2.8c2.4-2.2 8.3-5 11.5-3.3a4.3 4.3 0 011.3 6.3c-1.5 2.1-4.6 2.9-7 3-2.7 0-8-2-8.7-2.3l-3 4.7a214.4 214.4 0 01-10.6 15.1 1.3 1.3 0 01-2-1.6l3.2-4z"/>
    <path opacity=".4" d="M576 58.4s-4.7-4.3-5.8-7c-.9-2.2-1.5-5.3-.1-7.6a4.3 4.3 0 016.2-1.4c3 2.1 2.8 8.7 1.7 11.8 0 .3-2 4.3-2 4.2zM529 140.1a157.1 157.1 0 00-5.5-12.3c-2 1-4.1 1.5-6.3 1.8a6.6 6.6 0 01-5.1-2.2 3.2 3.2 0 01.9-4.7c2.3-1.3 6.7.8 8.4 2.5l1.9 2.2-1-2.1-1.7-3.1-1-1.6-1-1.6-1.6-2.3c-1.8 1.2-3.7 2-5.7 2.5a6.6 6.6 0 01-5.4-1.4 3.2 3.2 0 01.2-4.7c2-1.6 6.7-.2 8.7 1.1l.9.8-1.7-2.2-5.4-6-1-1.3c-1.9 1.2-3.9 2-6 2.6a6.7 6.7 0 01-5.4-1.4 3.2 3.2 0 01.2-4.7c2.1-1.7 6.8-.2 8.7 1.1l1 .9a54.7 54.7 0 01-7-9.5c-1.9 1.2-3.9 2-6 2.6a6.6 6.6 0 01-5.4-1.3 3.2 3.2 0 01.2-4.8c2-1.6 6.7-.2 8.7 1.2l2.3 2a57.1 57.1 0 01-6.2-20.9l-1.8-3c-1-2.2-1.6-7 .4-8.8a3.2 3.2 0 014.6.6 6.6 6.6 0 01.5 5.6 21 21 0 01-3.6 5.3l.4 2.6 1.2 5.4.5 1.6-.2-2.4c.2-2.4 1.8-7 4.4-7.6a3.2 3.2 0 013.9 2.7 6.6 6.6 0 01-2.2 5.1 21.3 21.3 0 01-5.6 3.2 50.2 50.2 0 004.3 10.2l.3.3-.6-3.3c-.1-2.4 1-7 3.5-8a3.1 3.1 0 013.6 1c.3.4.4.8.5 1.2a6.6 6.6 0 01-1.5 5.4 22.4 22.4 0 01-5.5 3.8 53.5 53.5 0 007.9 10l-.6-3.3c-.1-2.4 1-7.1 3.5-8a3.2 3.2 0 014.2 2.2 6.6 6.6 0 01-1.6 5.3 21.7 21.7 0 01-5.4 3.8l1.5 2 5.4 6 1.8 2a91 91 0 01-.5-2.7c-.1-2.4 1-7 3.5-8a3.2 3.2 0 014.2 2.2 6.6 6.6 0 01-1.6 5.3 21 21 0 01-5.2 3.8c1 1.1 1.9 2.3 2.7 3.6l1.1 1.5 1 1.6 1.8 3.2.8 1.5-.9-2.6c-.5-2.3 0-7.1 2.3-8.5a3.2 3.2 0 014.5 1.6 6.6 6.6 0 01-.8 5.6c-1.3 1.7-3 3.3-4.7 4.5a144.3 144.3 0 016 12.6l1.3 3.5a1 1 0 01-.6 1.2 1 1 0 01-1.2-.6l-1.2-3.4z"/>
    <path opacity=".4" d="M494.5 83.4c-2.1.7-4.4 1-6.6 1a6.6 6.6 0 01-4.8-2.8 3.2 3.2 0 011.5-4.5c2.4-1 6.5 1.6 8 3.4l1.9 2.9zM531.5 137.6a227 227 0 001.6-18.2c-.7-.1-6.4-.8-8.7-2.1-2.3-1.4-4.4-3.5-4.7-6a4.3 4.3 0 014.1-5c3.7 0 7.5 5.4 8.5 8.5l.8 3.8.1-3.1v-4.8-2.5l-.3-2.6c0-1.2-.2-2.5-.4-3.8-1.6 0-6.3.2-8.5-.7-2.1-1-4.8-2.7-5.5-5.2a4.3 4.3 0 013.3-5.5c3.6-.6 8.2 4.1 9.7 7l.6 1.5-.7-3.7-2.4-10.7-.5-2.3c-1.3 0-6.4.2-8.6-.7-2.3-1-5-2.8-5.6-5.2a4.3 4.3 0 013.3-5.5c3.6-.6 8.2 4.1 9.7 7l.6 1.8c-.4-2-.8-4-1-6-.7-3.3-1-6.7-1.1-10-.5 0-6.5.2-9-.8-2.3-1-4.9-2.7-5.5-5.2a4.3 4.3 0 013.3-5.5c3.6-.6 8.1 4.1 9.6 7l1.5 4a56.5 56.5 0 012.7-18.8A79.3 79.3 0 01532 34l-.3-4.7c.3-3.2 2.7-9.4 6.2-10.2a4.3 4.3 0 015.2 3.8c.3 2.5-1.4 5.2-3.1 7a29.1 29.1 0 01-7.8 4l-1.2 3.3c-.7 2.1-1.5 4.5-2.1 7.2l-.5 2.2 1.5-3c1.7-2.7 6.6-7 10.2-6.2a4.3 4.3 0 012.8 5.8c-.9 2.4-3.6 4-6 4.7a29 29 0 01-8.8 0 72 72 0 00-1.4 15v.6c.1-.6 1.3-4 1.5-4.3 1.4-3 5.8-7.8 9.4-7.3a4.3 4.3 0 013.5 5.4c-.6 2.5-3.2 4.4-5.4 5.3-2.6 1.2-8.8 1-9 1a74.9 74.9 0 002.9 17c.2-.8 1.3-4 1.5-4.2 1.4-3 5.8-7.8 9.4-7.3a4.3 4.3 0 013.5 5.4c-.6 2.5-3.2 4.4-5.4 5.3a30 30 0 01-9 1l.9 3.3c.8 3.6 1.8 7.1 2.5 10.7l.8 3.7 1.2-3.6c1.4-3 5.9-7.8 9.5-7.4a4.3 4.3 0 013.5 5.4c-.6 2.6-3.2 4.4-5.4 5.4-2.3 1-7.3 1-8.7 1l1 6 .2 2.7.1 2.5v7.3l.7-3.6c1-3 4.6-8.6 8.2-8.6a4.3 4.3 0 014.3 4.8c-.3 2.6-2.5 4.8-4.5 6.1a32 32 0 01-8.6 2.3l-.2 5.6a229.5 229.5 0 01-1.8 19 1.3 1.3 0 01-.8.7 1.3 1.3 0 01-1.4-.6 1.3 1.3 0 01-.2-1l.7-5z"/>
    <path opacity=".4" d="M527.7 47.4s-6.3-1.4-8.6-3.2c-1.9-1.5-4-3.9-4-6.4a4.3 4.3 0 014.7-4.5c3.7.4 6.8 6.1 7.5 9.3l.4 4.8zM534 138.4a244.4 244.4 0 0010.5-15c-.6-.4-5.1-3.8-6.4-6.2-1.3-2.3-2.1-5.2-1-7.5a4.3 4.3 0 016-2.1c3.1 1.8 3.7 8.3 3 11.5l-1.2 3.7 1.7-2.6 2.4-4.2 1.2-2.2c.5-.7.8-1.5 1.2-2.2l1.5-3.6c-1.4-.7-5.5-3-7-4.9-1.4-2-2.8-4.8-2.1-7.3a4.3 4.3 0 015.6-3c3.4 1.3 5 7.7 4.8 11l-.3 1.5c.5-1.2 1-2.3 1.3-3.5l3.4-10.5.7-2.2c-1.2-.6-5.6-3-7.1-5s-2.9-4.8-2.2-7.3a4.3 4.3 0 015.6-3c3.5 1.2 5 7.6 4.8 10.9l-.3 1.8 2-5.6c1.2-3.2 2.6-6.3 4.2-9.3-.4-.3-5.7-3-7.4-5.2-1.5-2-2.8-4.8-2.1-7.3a4.3 4.3 0 015.6-3c3.4 1.2 5 7.6 4.8 10.9l-.7 4.2v-.1a56.8 56.8 0 0111.7-14.8c2-2 3.9-3.6 5.6-5l2.6-2.2 2.1-4.1c1.9-2.7 7-6.8 10.5-5.8a4.3 4.3 0 012.5 6c-1 2.3-3.8 3.7-6.1 4.4-2.4.7-7.5-.2-8.8-.4a142.9 142.9 0 00-8.1 7.4l-1.6 1.7 2.7-1.8c2.9-1.5 9.3-2.8 12-.3a4.3 4.3 0 01-.5 6.4c-2 1.7-5.1 1.6-7.4 1.1-2.4-.5-6.8-3.7-7.7-4.5a62 62 0 00-8.8 12.3l-.3.5 3.5-3c2.7-1.8 9-3.8 11.8-1.5a4.3 4.3 0 01.3 6.4c-1.8 1.8-5 2.2-7.3 1.9-2.8-.3-8.1-3.5-8.3-3.7-1.5 3-2.8 6-3.8 9.1-.9 2.3-1.5 4.7-2.3 7l3.4-3c2.7-1.8 9-3.7 11.8-1.4a4.3 4.3 0 01.3 6.4c-1.7 1.9-5 2.2-7.3 1.9a30 30 0 01-8.2-3.6l-1 3.2-3.1 10.6-1.3 3.5 3-2.5c2.6-1.8 9-3.8 11.8-1.5a4.3 4.3 0 01.3 6.4c-1.8 1.9-5 2.2-7.4 2-2.4-.3-6.7-2.8-8-3.5-.6 1.9-1.4 3.8-2.2 5.7l-1.1 2.3-1.2 2.3-2.4 4.3-1.2 2 2.3-2.8c2.4-2.2 8.3-5 11.5-3.3a4.3 4.3 0 011.3 6.3c-1.5 2.1-4.6 2.9-7 3-2.7 0-8-2-8.7-2.3l-3 4.7a214.4 214.4 0 01-10.6 15.1 1.3 1.3 0 01-2-1.6l3.2-4z"/>
    <path opacity=".4" d="M576 58.4s-4.7-4.3-5.8-7c-.9-2.2-1.5-5.3-.1-7.6a4.3 4.3 0 016.2-1.4c3 2.1 2.8 8.7 1.7 11.8 0 .3-2 4.3-2 4.2zM529 140.1a157.1 157.1 0 00-5.5-12.3c-2 1-4.1 1.5-6.3 1.8a6.6 6.6 0 01-5.1-2.2 3.2 3.2 0 01.9-4.7c2.3-1.3 6.7.8 8.4 2.5l1.9 2.2-1-2.1-1.7-3.1-1-1.6-1-1.6-1.6-2.3c-1.8 1.2-3.7 2-5.7 2.5a6.6 6.6 0 01-5.4-1.4 3.2 3.2 0 01.2-4.7c2-1.6 6.7-.2 8.7 1.1l.9.8-1.7-2.2-5.4-6-1-1.3c-1.9 1.2-3.9 2-6 2.6a6.7 6.7 0 01-5.4-1.4 3.2 3.2 0 01.2-4.7c2.1-1.7 6.8-.2 8.7 1.1l1 .9a54.7 54.7 0 01-7-9.5c-1.9 1.2-3.9 2-6 2.6a6.6 6.6 0 01-5.4-1.3 3.2 3.2 0 01.2-4.8c2-1.6 6.7-.2 8.7 1.2l2.3 2a57.1 57.1 0 01-6.2-20.9l-1.8-3c-1-2.2-1.6-7 .4-8.8a3.2 3.2 0 014.6.6 6.6 6.6 0 01.5 5.6 21 21 0 01-3.6 5.3l.4 2.6 1.2 5.4.5 1.6-.2-2.4c.2-2.4 1.8-7 4.4-7.6a3.2 3.2 0 013.9 2.7 6.6 6.6 0 01-2.2 5.1 21.3 21.3 0 01-5.6 3.2 50.2 50.2 0 004.3 10.2l.3.3-.6-3.3c-.1-2.4 1-7 3.5-8a3.1 3.1 0 013.6 1c.3.4.4.8.5 1.2a6.6 6.6 0 01-1.5 5.4 22.4 22.4 0 01-5.5 3.8 53.5 53.5 0 007.9 10l-.6-3.3c-.1-2.4 1-7.1 3.5-8a3.2 3.2 0 014.2 2.2 6.6 6.6 0 01-1.6 5.3 21.7 21.7 0 01-5.4 3.8l1.5 2 5.4 6 1.8 2a91 91 0 01-.5-2.7c-.1-2.4 1-7 3.5-8a3.2 3.2 0 014.2 2.2 6.6 6.6 0 01-1.6 5.3 21 21 0 01-5.2 3.8c1 1.1 1.9 2.3 2.7 3.6l1.1 1.5 1 1.6 1.8 3.2.8 1.5-.9-2.6c-.5-2.3 0-7.1 2.3-8.5a3.2 3.2 0 014.5 1.6 6.6 6.6 0 01-.8 5.6c-1.3 1.7-3 3.3-4.7 4.5a144.3 144.3 0 016 12.6l1.3 3.5a1 1 0 01-.6 1.2 1 1 0 01-1.2-.6l-1.2-3.4z"/>
    <path opacity=".4" d="M494.5 83.4c-2.1.7-4.4 1-6.6 1a6.6 6.6 0 01-4.8-2.8 3.2 3.2 0 011.5-4.5c2.4-1 6.5 1.6 8 3.4l1.9 2.9zM531.5 137.6a227 227 0 001.6-18.2c-.7-.1-6.4-.8-8.7-2.1-2.3-1.4-4.4-3.5-4.7-6a4.3 4.3 0 014.1-5c3.7 0 7.5 5.4 8.5 8.5l.8 3.8.1-3.1v-4.8-2.5l-.3-2.6c0-1.2-.2-2.5-.4-3.8-1.6 0-6.3.2-8.5-.7-2.1-1-4.8-2.7-5.5-5.2a4.3 4.3 0 013.3-5.5c3.6-.6 8.2 4.1 9.7 7l.6 1.5-.7-3.7-2.4-10.7-.5-2.3c-1.3 0-6.4.2-8.6-.7-2.3-1-5-2.8-5.6-5.2a4.3 4.3 0 013.3-5.5c3.6-.6 8.2 4.1 9.7 7l.6 1.8c-.4-2-.8-4-1-6-.7-3.3-1-6.7-1.1-10-.5 0-6.5.2-9-.8-2.3-1-4.9-2.7-5.5-5.2a4.3 4.3 0 013.3-5.5c3.6-.6 8.1 4.1 9.6 7l1.5 4a56.5 56.5 0 012.7-18.8A79.3 79.3 0 01532 34l-.3-4.7c.3-3.2 2.7-9.4 6.2-10.2a4.3 4.3 0 015.2 3.8c.3 2.5-1.4 5.2-3.1 7a29.1 29.1 0 01-7.8 4l-1.2 3.3c-.7 2.1-1.5 4.5-2.1 7.2l-.5 2.2 1.5-3c1.7-2.7 6.6-7 10.2-6.2a4.3 4.3 0 012.8 5.8c-.9 2.4-3.6 4-6 4.7a29 29 0 01-8.8 0 72 72 0 00-1.4 15v.6c.1-.6 1.3-4 1.5-4.3 1.4-3 5.8-7.8 9.4-7.3a4.3 4.3 0 013.5 5.4c-.6 2.5-3.2 4.4-5.4 5.3-2.6 1.2-8.8 1-9 1a74.9 74.9 0 002.9 17c.2-.8 1.3-4 1.5-4.2 1.4-3 5.8-7.8 9.4-7.3a4.3 4.3 0 013.5 5.4c-.6 2.5-3.2 4.4-5.4 5.3a30 30 0 01-9 1l.9 3.3c.8 3.6 1.8 7.1 2.5 10.7l.8 3.7 1.2-3.6c1.4-3 5.9-7.8 9.5-7.4a4.3 4.3 0 013.5 5.4c-.6 2.6-3.2 4.4-5.4 5.4-2.3 1-7.3 1-8.7 1l1 6 .2 2.7.1 2.5v7.3l.7-3.6c1-3 4.6-8.6 8.2-8.6a4.3 4.3 0 014.3 4.8c-.3 2.6-2.5 4.8-4.5 6.1a32 32 0 01-8.6 2.3l-.2 5.6a229.5 229.5 0 01-1.8 19 1.3 1.3 0 01-.8.7 1.3 1.3 0 01-1.4-.6 1.3 1.3 0 01-.2-1l.7-5z"/>
    <path opacity=".4" d="M527.7 47.4s-6.3-1.4-8.6-3.2c-1.9-1.5-4-3.9-4-6.4a4.3 4.3 0 014.7-4.5c3.7.4 6.8 6.1 7.5 9.3l.4 4.8z"/>
  </g>
  <path d="M104.2 157.6c-1-3-2.4-7.5-4.3-12.5l-1.9-4.7c-.6.2-6 2-8.7 1.7-2.4-.3-5.5-1.3-6.8-3.5a4.3 4.3 0 011.7-6.2c3.3-1.5 9 1.8 11.2 4.2.2.1 1.6 2.1 2.4 3.2l-1.2-3-2-4.4-1.1-2.3-1.2-2.2-2-3.3c-1.4.7-5.7 2.7-8 2.8-2.4.1-5.6-.4-7.2-2.4a4.3 4.3 0 01.7-6.4c3-2 9.2.4 11.7 2.4l1.2 1.1-2.2-3c-2-3-4.3-5.9-6.6-8.8l-1.3-1.9c-1.2.6-5.8 2.8-8.3 3-2.4 0-5.5-.5-7.2-2.5a4.3 4.3 0 01.8-6.4c3-2 9.1.4 11.7 2.4l1.3 1.3-3.5-4.8c-1.9-2.8-3.6-5.8-5.1-8.8-.5.2-5.8 2.9-8.5 3-2.4.1-5.6-.4-7.2-2.4a4.3 4.3 0 01.7-6.4c3-2 9.2.4 11.7 2.4l3 3V92a56.2 56.2 0 01-5.3-18c-.5-2.7-.7-5.3-1-7.5l-.1-3.3-2.2-4.2c-1.1-3-1.5-9.6 1.4-12a4.3 4.3 0 016.3 1.3c1.4 2.2.9 5.4 0 7.6-1 2.3-4.5 6-5.4 7l.3 3.5 1 7.4.5 2.3v-3.3c.4-3.2 3.1-9.2 6.7-10a4.3 4.3 0 015 4.1c.2 2.6-1.6 5.2-3.5 6.8a29.9 29.9 0 01-8 3.7 59.5 59.5 0 005 14.3l.3.5-.5-4.5c0-3.3 2-9.5 5.6-10.6a4.3 4.3 0 015.4 3.5c.5 2.5-1.1 5.3-2.7 7.1-1.9 2-7.5 4.6-7.8 4.6a76 76 0 005.2 8.4l4.5 5.9-.4-4.5c0-3.2 2-9.5 5.5-10.5a4.3 4.3 0 015.4 3.4c.5 2.6-1 5.3-2.7 7.1-1.8 2-7.2 4.5-7.6 4.7l2 2.6c2.3 2.9 4.7 5.7 6.9 8.7l2.2 3-.4-3.9c0-3.2 2-9.5 5.5-10.6a4.3 4.3 0 015.4 3.5c.5 2.6-1 5.3-2.6 7.1-1.7 1.8-6.2 4-7.5 4.5l3.4 5.2c.4.7.9 1.4 1.2 2.2l1.2 2.2 2.1 4.5 1 2.2-1-3.5c-.4-3.2.7-9.7 4-11.3a4.3 4.3 0 015.8 2.6c1 2.4-.2 5.4-1.6 7.5-1.3 2-6.2 5.3-6.8 5.7a204.1 204.1 0 018.3 22.6 1.3 1.3 0 11-2.5.6l-1.3-4.7z" fill="#9bd100"/>
  <path d="M63.2 77.2s-6.2 1.3-9 .7c-2.4-.6-5.3-2-6.3-4.3a4.3 4.3 0 012.4-6c3.4-1 8.7 2.9 10.6 5.5l2.3 4zM102.7 162.8a151.8 151.8 0 00-13.2-2.7c-.4 2.2-1.2 4.3-2.2 6.2a6.6 6.6 0 01-4.8 3 3.2 3.2 0 01-3.2-3.4c.2-2.7 4.4-5 6.8-5.5l3-.3-2.4-.3-3.5-.5-1.8-.1-2-.1h-2.7c-.1 2-.5 4.2-1.3 6.1a6.6 6.6 0 01-4.2 3.6 3.2 3.2 0 01-3.8-2.9c-.1-2.6 3.7-5.6 6-6.4l1.1-.3c-.9 0-1.8 0-2.7.2l-8 .8-1.7.2c-.1 2.1-.6 4.2-1.3 6.3a6.6 6.6 0 01-4.3 3.6 3.2 3.2 0 01-3.7-3c-.1-2.6 3.7-5.5 6-6.4l1.3-.3-4.4.3c-2.5.2-5 .2-7.5 0 0 2.3-.5 4.4-1.3 6.5a6.6 6.6 0 01-4.2 3.6 3.2 3.2 0 01-3.7-2.8c-.2-2.7 3.7-5.7 6-6.5l3-.8h-.2a41.5 41.5 0 01-13.4-3.5c-2-.7-3.6-1.5-5-2.3l-2.3-1-3.4-.3c-2.4-.5-6.6-2.7-7-5.4A3.2 3.2 0 0120 145a6.6 6.6 0 014.8 2.9c1.1 1.8 1.9 3.9 2.4 6l2.3 1c1.5.8 3.2 1.6 5 2.2l1.7.6-2-1.3c-2-1.5-4.7-5.4-3.8-8a3.2 3.2 0 014.5-1.5 6.6 6.6 0 013 4.7c0 2.1-.2 4.3-.7 6.4a47.4 47.4 0 0010.8 2.3h.5c-.5-.2-2.9-1.3-3-1.5-2-1.2-5.2-4.9-4.5-7.4a3.2 3.2 0 014.2-2.1 6.7 6.7 0 013.5 4.3c.3 2.3.3 4.5 0 6.7a56.2 56.2 0 0012.4-.6l-3-1.5c-2-1.2-5.2-4.9-4.5-7.4a3.2 3.2 0 014.3-2 6.6 6.6 0 013.4 4.3c.3 2.2.3 4.4 0 6.6l2.5-.3c2.6-.4 5.3-.8 8-1l2.7-.3-2.5-1.2c-2-1.3-5.2-5-4.5-7.5a3.2 3.2 0 014.2-2 6.7 6.7 0 013.4 4.2c.3 2.2.3 4.3 0 6.4 1.5 0 3-.2 4.5-.1h3.7l3.6.5 1.8.2a45 45 0 01-2.6-.8c-2.2-1-6-4-5.6-6.7a3.2 3.2 0 013.8-2.7 6.6 6.6 0 014.1 3.8c.7 2 1 4.3 1 6.5a119.3 119.3 0 0118 3.7 1 1 0 01-.4 1.3 1 1 0 01-.7 0l-3.5-.8z" fill="#9bd100"/>
  <path d="M36.5 158.1c-.7 2.2-1.7 4.2-3 6a6.6 6.6 0 01-5 2.4 3.2 3.2 0 01-2.9-3.8c.6-2.6 5-4.5 7.5-4.6h3.4zM102 159.2a218 218 0 00-13.9-11.8c-.5.5-4.3 4.8-6.7 5.9-2.2 1-5.3 1.6-7.6.3a4.3 4.3 0 01-1.6-6.2c2-3 8.6-3 11.7-2l3.6 1.5-2.5-2-3.9-2.8-2-1.4c-.8-.4-1.6-.8-2.2-1.3l-3.4-1.8c-.9 1.3-3.5 5.2-5.5 6.5-2 1.2-5 2.4-7.5 1.5a4.3 4.3 0 01-2.5-6c1.5-3.2 8-4.2 11.3-3.7l1.6.4-3.5-1.7-10-4.2-2.2-.9c-.7 1.1-3.6 5.3-5.7 6.7-2 1.3-5 2.4-7.4 1.4a4.3 4.3 0 01-2.6-5.8c1.6-3.3 8.1-4.3 11.3-3.8l1.8.4a138.9 138.9 0 01-14.4-7.4c-.2.4-3.5 5.4-5.8 6.8-2 1.4-5 2.5-7.5 1.5a4.3 4.3 0 01-2.5-5.8c1.6-3.3 8-4.3 11.3-3.8l4.2 1h-.2a74.6 74.6 0 01-18-18.9L18 99.2l-4-2.5c-2.5-2-6.1-7.5-4.8-11a4.3 4.3 0 016.1-2c2.3 1.2 3.5 4.2 3.9 6.6.4 2.3-.8 7.4-1.2 8.7a71.3 71.3 0 006.7 8.8l1.5 1.7-1.6-2.9c-1.3-3-2-9.5.8-12a4.3 4.3 0 016.3 1c1.5 2.2 1.2 5.3.4 7.7-.7 2.3-4.2 6.3-5 7.2a66.7 66.7 0 0011.4 9.9l.5.2-2.6-3.6c-1.6-2.9-3-9.3-.6-12a4.3 4.3 0 016.5.3c1.7 2 1.7 5.1 1.2 7.5-.5 2.7-4.2 7.7-4.3 7.9a76.3 76.3 0 0015.5 7.5l-2.7-3.7c-1.6-2.8-3-9.2-.5-12a4.3 4.3 0 016.4.4c1.7 2 1.8 5 1.3 7.4a30 30 0 01-4.3 7.9l3 1.2 10.3 4 3.5 1.6-2.3-3.1c-1.6-2.9-3-9.3-.5-12a4.3 4.3 0 016.4.3c1.7 2 1.8 5.1 1.3 7.5a29 29 0 01-4.2 7.6c1.9.9 3.8 1.8 5.5 2.8l2.3 1.3 2.1 1.3 4 2.8 2 1.4-2.6-2.6c-2-2.6-4.3-8.7-2.3-11.7a4.3 4.3 0 016.4-.7c2 1.7 2.5 4.8 2.4 7.2-.2 2.7-2.8 7.8-3 8.4l4.5 3.4A230 230 0 01108 161a1.3 1.3 0 01-.7 1.7 1.3 1.3 0 01-1.4-.3l-3.8-3.3z" fill="#9bd100"/>
  <path d="M26.2 110.3s-4.7 4.3-7.4 5.1c-2.4.7-5.5 1-7.6-.5a4.3 4.3 0 01-1-6.3c2.5-2.8 9-2 12-.7l4 2.4z" fill="#9bd100"/>
  <g opacity=".4" fill="#fff">
    <path opacity=".4" d="M104.2 157.6c-1-3-2.4-7.5-4.3-12.5l-1.9-4.7c-.6.2-6 2-8.7 1.7-2.4-.3-5.5-1.3-6.8-3.5a4.3 4.3 0 011.7-6.2c3.3-1.5 9 1.8 11.2 4.2.2.1 1.6 2.1 2.4 3.2l-1.2-3-2-4.4-1.1-2.3-1.2-2.2-2-3.3c-1.4.7-5.7 2.7-8 2.8-2.4.1-5.6-.4-7.2-2.4a4.3 4.3 0 01.7-6.4c3-2 9.2.4 11.7 2.4l1.2 1.1-2.2-3c-2-3-4.3-5.9-6.6-8.8l-1.3-1.9c-1.2.6-5.8 2.8-8.3 3-2.4 0-5.5-.5-7.2-2.5a4.3 4.3 0 01.8-6.4c3-2 9.1.4 11.7 2.4l1.3 1.3-3.5-4.8c-1.9-2.8-3.6-5.8-5.1-8.8-.5.2-5.8 2.9-8.5 3-2.4.1-5.6-.4-7.2-2.4a4.3 4.3 0 01.7-6.4c3-2 9.2.4 11.7 2.4l3 3V92a56.2 56.2 0 01-5.3-18c-.5-2.7-.7-5.3-1-7.5l-.1-3.3-2.2-4.2c-1.1-3-1.5-9.6 1.4-12a4.3 4.3 0 016.3 1.3c1.4 2.2.9 5.4 0 7.6-1 2.3-4.5 6-5.4 7l.3 3.5 1 7.4.5 2.3v-3.3c.4-3.2 3.1-9.2 6.7-10a4.3 4.3 0 015 4.1c.2 2.6-1.6 5.2-3.5 6.8a29.9 29.9 0 01-8 3.7 59.5 59.5 0 005 14.3l.3.5-.5-4.5c0-3.3 2-9.5 5.6-10.6a4.3 4.3 0 015.4 3.5c.5 2.5-1.1 5.3-2.7 7.1-1.9 2-7.5 4.6-7.8 4.6a76 76 0 005.2 8.4l4.5 5.9-.4-4.5c0-3.2 2-9.5 5.5-10.5a4.3 4.3 0 015.4 3.4c.5 2.6-1 5.3-2.7 7.1-1.8 2-7.2 4.5-7.6 4.7l2 2.6c2.3 2.9 4.7 5.7 6.9 8.7l2.2 3-.4-3.9c0-3.2 2-9.5 5.5-10.6a4.3 4.3 0 015.4 3.5c.5 2.6-1 5.3-2.6 7.1-1.7 1.8-6.2 4-7.5 4.5l3.4 5.2c.4.7.9 1.4 1.2 2.2l1.2 2.2 2.1 4.5 1 2.2-1-3.5c-.4-3.2.7-9.7 4-11.3a4.3 4.3 0 015.8 2.6c1 2.4-.2 5.4-1.6 7.5-1.3 2-6.2 5.3-6.8 5.7a204.1 204.1 0 018.3 22.6 1.3 1.3 0 11-2.5.6l-1.3-4.7z"/>
    <path opacity=".4" d="M63.2 77.2s-6.2 1.3-9 .7c-2.4-.6-5.3-2-6.3-4.3a4.3 4.3 0 012.4-6c3.4-1 8.7 2.9 10.6 5.5l2.3 4zM102.7 162.8a151.8 151.8 0 00-13.2-2.7c-.4 2.2-1.2 4.3-2.2 6.2a6.6 6.6 0 01-4.8 3 3.2 3.2 0 01-3.2-3.4c.2-2.7 4.4-5 6.8-5.5l3-.3-2.4-.3-3.5-.5-1.8-.1-2-.1h-2.7c-.1 2-.5 4.2-1.3 6.1a6.6 6.6 0 01-4.2 3.6 3.2 3.2 0 01-3.8-2.9c-.1-2.6 3.7-5.6 6-6.4l1.1-.3c-.9 0-1.8 0-2.7.2l-8 .8-1.7.2c-.1 2.1-.6 4.2-1.3 6.3a6.6 6.6 0 01-4.3 3.6 3.2 3.2 0 01-3.7-3c-.1-2.6 3.7-5.5 6-6.4l1.3-.3-4.4.3c-2.5.2-5 .2-7.5 0 0 2.3-.5 4.4-1.3 6.5a6.6 6.6 0 01-4.2 3.6 3.2 3.2 0 01-3.7-2.8c-.2-2.7 3.7-5.7 6-6.5l3-.8h-.2a41.5 41.5 0 01-13.4-3.5c-2-.7-3.6-1.5-5-2.3l-2.3-1-3.4-.3c-2.4-.5-6.6-2.7-7-5.4A3.2 3.2 0 0120 145a6.6 6.6 0 014.8 2.9c1.1 1.8 1.9 3.9 2.4 6l2.3 1c1.5.8 3.2 1.6 5 2.2l1.7.6-2-1.3c-2-1.5-4.7-5.4-3.8-8a3.2 3.2 0 014.5-1.5 6.6 6.6 0 013 4.7c0 2.1-.2 4.3-.7 6.4a47.4 47.4 0 0010.8 2.3h.5c-.5-.2-2.9-1.3-3-1.5-2-1.2-5.2-4.9-4.5-7.4a3.2 3.2 0 014.2-2.1 6.7 6.7 0 013.5 4.3c.3 2.3.3 4.5 0 6.7a56.2 56.2 0 0012.4-.6l-3-1.5c-2-1.2-5.2-4.9-4.5-7.4a3.2 3.2 0 014.3-2 6.6 6.6 0 013.4 4.3c.3 2.2.3 4.4 0 6.6l2.5-.3c2.6-.4 5.3-.8 8-1l2.7-.3-2.5-1.2c-2-1.3-5.2-5-4.5-7.5a3.2 3.2 0 014.2-2 6.7 6.7 0 013.4 4.2c.3 2.2.3 4.3 0 6.4 1.5 0 3-.2 4.5-.1h3.7l3.6.5 1.8.2a45 45 0 01-2.6-.8c-2.2-1-6-4-5.6-6.7a3.2 3.2 0 013.8-2.7 6.6 6.6 0 014.1 3.8c.7 2 1 4.3 1 6.5a119.3 119.3 0 0118 3.7 1 1 0 01-.4 1.3 1 1 0 01-.7 0l-3.5-.8z"/>
    <path opacity=".4" d="M36.5 158.1c-.7 2.2-1.7 4.2-3 6a6.6 6.6 0 01-5 2.4 3.2 3.2 0 01-2.9-3.8c.6-2.6 5-4.5 7.5-4.6h3.4zM102 159.2a217.4 217.4 0 00-13.9-11.8c-.5.5-4.3 4.8-6.7 5.8-2.2 1-5.3 1.7-7.6.4a4.3 4.3 0 01-1.6-6.2c2-3 8.6-3 11.7-2l3.6 1.5-2.5-2-3.9-2.8-2-1.4c-.8-.4-1.6-.8-2.2-1.3l-3.4-1.8c-.9 1.3-3.5 5.2-5.5 6.5-2 1.2-5 2.4-7.5 1.5a4.3 4.3 0 01-2.5-6c1.5-3.2 8-4.2 11.3-3.7l1.6.4-3.5-1.7c-3.3-1.5-6.7-2.8-10-4.2l-2.2-.9c-.7 1.1-3.6 5.3-5.7 6.7-2 1.3-5 2.4-7.4 1.4a4.3 4.3 0 01-2.6-5.8c1.6-3.3 8.1-4.3 11.3-3.8l1.8.4a136 136 0 01-14.4-7.4c-.2.4-3.5 5.4-5.8 6.8-2 1.4-5 2.5-7.5 1.5a4.3 4.3 0 01-2.5-5.8c1.6-3.3 8-4.3 11.3-3.8l4.2 1h-.2A55 55 0 0124.2 108 86 86 0 0118 99l-4-2.5c-2.5-2-6.1-7.5-4.8-11a4.3 4.3 0 016.1-2c2.3 1.2 3.5 4.2 3.9 6.6.4 2.3-.8 7.4-1.2 8.7a72 72 0 006.7 8.8l1.5 1.7-1.6-2.9c-1.3-3-2-9.5.8-12a4.3 4.3 0 016.3 1c1.5 2.2 1.2 5.3.4 7.7-.7 2.3-4.2 6.3-5 7.2a67 67 0 0011.4 9.9l.5.2-2.6-3.6c-1.6-2.9-3-9.3-.6-12a4.3 4.3 0 016.5.3c1.7 2 1.7 5.1 1.2 7.5-.5 2.7-4.2 7.7-4.3 7.9a76.2 76.2 0 0015.5 7.5l-2.7-3.7c-1.6-2.8-3-9.2-.5-12a4.3 4.3 0 016.4.4c1.7 2 1.8 5 1.3 7.4a30 30 0 01-4.3 7.9l3 1.2 10.3 4 3.5 1.6-2.3-3.1c-1.6-2.9-3-9.3-.5-12a4.3 4.3 0 016.4.3c1.7 2 1.8 5.1 1.3 7.5a29 29 0 01-4.2 7.6c1.9.9 3.8 1.8 5.5 2.8l2.3 1.3 2.1 1.3a83 83 0 014 2.8l2 1.4-2.6-2.6c-2-2.6-4.3-8.7-2.3-11.7a4.3 4.3 0 016.4-.7c2 1.7 2.5 4.8 2.4 7.2-.2 2.7-2.8 7.8-3 8.4l4.5 3.4A230 230 0 01108 161a1.3 1.3 0 01-.3 1.4 1.3 1.3 0 01-.9.4 1.3 1.3 0 01-.9-.4l-3.8-3.3z"/>
    <path opacity=".4" d="M26.2 110.3s-4.7 4.3-7.4 5.1c-2.4.7-5.5 1-7.6-.5a4.3 4.3 0 01-1-6.3c2.5-2.8 9-2 12-.7l4 2.4z"/>
  </g>
  <path d="M321.5 266.4L125.9 104.9 40.7 208l195.6 161.5z" fill="#fff" stroke="#263238" stroke-linecap="round" stroke-linejoin="round"/>
  <path d="M119 131l-53.5 64.7a14 14 0 010 17.8l-.6.6 158.6 131 .5-.6a14 14 0 0119.8-1.9l53.1-64.3a14 14 0 01-1.8-19.8l-158.6-131A14 14 0 01119 131z" fill="#fff" stroke="#263238" stroke-linecap="round" stroke-linejoin="round"/>
  <path d="M141.4 218.6a44.5 44.5 0 0071 49.8M162 195.8a44.5 44.5 0 00-15 12.7M223 254a44.5 44.5 0 00-55-60.6" stroke="#263238" stroke-linecap="round" stroke-linejoin="round"/>
  <path d="M211.4 264.1a40.8 40.8 0 10-57.6-57.6 40.8 40.8 0 0057.6 57.6z" fill="#263238"/>
  <path d="M157.4 237.6c-.2-.8-.2-1.8.2-2.6.3-.8.8-1.4 1.5-1.9.7-.4 1.5-.7 2.3-.8.8-.1 1.7.1 2.4.6.8.6 1.4 1.4 1.8 2.3a55 55 0 011.7 4 16.5 16.5 0 004 5.2c.6.7 1.4 1.3 2.2 1.8.7.6 1.6 1.1 2.5 1.5.7.4 1.6.6 2.5.5a3.1 3.1 0 002.1-1.2 2.9 2.9 0 00.4-2.5c-.4-1.4-1-2.6-1.9-3.7l-3.5-4.9a61 61 0 01-5-8.6 9.9 9.9 0 01-.8-3.8c0-1.2.2-2.4.7-3.5a13.4 13.4 0 016.9-7.2c1.8-.7 3.7-1 5.6-.6 4.2.5 8.5 2.8 12.8 6.9a27 27 0 017 9.6c.4.9.6 1.9.5 2.9a4 4 0 01-1.2 2.3c-.5.6-1.2 1-2 1.2a3 3 0 01-2.4-.2 5.5 5.5 0 01-2.2-2 36.1 36.1 0 00-7.8-9.2 7.2 7.2 0 00-3-1.3 2.3 2.3 0 00-2.4.6 2.9 2.9 0 00-.6 2.6c.4 1.3 1 2.4 2 3.5l3.5 4.8c1.2 1.7 2.4 3.4 3.4 5.2.8 1.5 1.4 3 1.8 4.7.4 1.5.4 3.1 0 4.6-.5 1.7-1.3 3.2-2.5 4.5-1.7 2.3-4.1 4-7 4.6a14 14 0 01-8.2-.6c-3-1.1-5.8-3-8.2-5.2a29.5 29.5 0 01-9-14zm40.8-28.1a2.7 2.7 0 012.2-1.2 3 3 0 012 .7 3 3 0 011 2 2.7 2.7 0 01-.6 2.2l-6.8 8.2-4.5-3.7zm-31.4 39.3l4.5 3.8-6.7 8.1a2.7 2.7 0 01-2.8 1 3 3 0 01-2.3-1.8 2.7 2.7 0 01.5-3z" fill="#fff" stroke="#263238" stroke-miterlimit="10"/>
  <path d="M298 292.8l-170.2-188-99.2 89.8 170.3 188z" fill="#fff" stroke="#263238" stroke-linecap="round" stroke-linejoin="round"/>
  <path d="M117.3 129.6L55 186a14 14 0 01-2.6 17.6l-.7.5L190 356.7l.6-.6a14 14 0 0119.8 1l61.8-56a14 14 0 011-19.9l-138-152.5a14 14 0 01-17.8 1z" fill="#fff" stroke="#263238" stroke-linecap="round" stroke-linejoin="round"/>
  <path d="M126.9 219.5a44.5 44.5 0 0063 59.5M150.6 200a44.4 44.4 0 00-16.7 10.5M202.5 266.3a44.5 44.5 0 00-45.7-68" stroke="#263238" stroke-linecap="round" stroke-linejoin="round"/>
  <path d="M194 270.9a40.8 40.8 0 10-57.6-57.7A40.8 40.8 0 00194 271z" fill="#263238"/>
  <path d="M140 240.6a4 4 0 01.5-2.5c.4-.8 1-1.3 1.8-1.7.8-.3 1.6-.5 2.4-.5.8 0 1.7.4 2.3 1 .7.7 1.2 1.6 1.5 2.5l.4 1.8.7 2.4a17.3 17.3 0 003.2 5.7l1.9 2.2 2.3 1.7c.7.5 1.5.8 2.4.8a3 3 0 002.3-.8 2.8 2.8 0 00.7-2.5 9.6 9.6 0 00-1.3-3.8l-2.8-5.4-2.3-5c-.6-1.4-1-2.8-1.4-4.2a9.8 9.8 0 01-.3-4c.2-1.1.6-2.3 1.2-3.3a13.5 13.5 0 017.8-6.2c1.9-.4 3.9-.3 5.7.2 4 1.2 8 4 11.7 8.7a30.7 30.7 0 015.6 10.6c.3 1 .3 2 0 3a4 4 0 01-1.5 2.1c-.6.5-1.4.9-2.2 1a3 3 0 01-2.4-.5 5.5 5.5 0 01-1.8-2.4 36.5 36.5 0 00-4.3-7.8l-2.1-2.4a6.8 6.8 0 00-2.7-1.8 2.3 2.3 0 00-2.5.4 2.8 2.8 0 00-1 2.4c.3 1.3.8 2.6 1.5 3.7l2.8 5.3c1 1.8 1.9 3.7 2.7 5.7.5 1.5 1 3.2 1 4.8.2 1.6 0 3.2-.7 4.6a13.9 13.9 0 01-10.6 7.8 14 14 0 01-8-1.8 25.5 25.5 0 01-7.5-6.4 29.3 29.3 0 01-7-15.4zm44.4-22a2.8 2.8 0 012.3-.8 3 3 0 011.9 1c.5.6.8 1.3.7 2a2.7 2.7 0 01-1 2.2l-7.9 7.2-3.8-4.4zM147.6 253l4 4.4-7.9 7.2a2.7 2.7 0 01-3 .6 3 3 0 01-2-2.1 2.7 2.7 0 011-2.9z" fill="#fff" stroke="#263238" stroke-miterlimit="10"/>
  <path d="M256.3 325.7L130.8 105.2 14.5 171.4l125.4 220.4z" fill="#fff" stroke="#263238" stroke-linecap="round" stroke-linejoin="round"/>
  <path d="M115.1 127.1l-73 41.6a14 14 0 01-6.4 16.7l-.7.3 101.8 178.9.7-.5a14 14 0 0119.1 5.3l72.6-41.3a14 14 0 015.2-19.2L132.7 130.1a14 14 0 01-17.6-3z" fill="#fff" stroke="#263238" stroke-linecap="round" stroke-linejoin="round"/>
  <path d="M105 217a44.5 44.5 0 0048.7 71.8M132.3 203.1c-5.9.7-11.6 2.6-16.8 5.5l-1.7 1M168.7 279a44.5 44.5 0 00-29.9-76.2" stroke="#263238" stroke-linecap="round" stroke-linejoin="round"/>
  <path d="M168.2 274.2a40.8 40.8 0 10-61.3-53.8 40.8 40.8 0 0061.3 53.8z" fill="#263238"/>
  <path d="M113.2 240.4a4 4 0 011-2.3 4 4 0 012.2-1.2c.8-.2 1.6-.2 2.4 0 .9.2 1.6.6 2 1.4.6.8 1 1.8 1 2.8v1.8a15.9 15.9 0 00.6 5.3c.3 1.2.8 2.4 1.4 3.5.3.9.8 1.7 1.3 2.5a19 19 0 001.9 2.2c.6.6 1.3 1 2.2 1.3a3.2 3.2 0 002.4-.4 2.8 2.8 0 001.2-2.2c.2-1.3 0-2.7-.4-4l-1.5-5.9c-.6-2.2-1-4-1.2-5.4-.3-1.4-.4-2.9-.5-4.4 0-1.3.1-2.6.6-3.8.4-1.2 1-2.2 1.9-3.1a13.6 13.6 0 019-4.3c2 0 3.8.5 5.5 1.4 3.7 2 6.9 5.7 9.5 11a29.2 29.2 0 013.1 11.6c.1 1 0 2-.6 3a4 4 0 01-1.8 1.7c-.8.3-1.6.5-2.4.4a3 3 0 01-2.2-1 5.5 5.5 0 01-1.2-2.8c-.5-2.9-1.4-5.7-2.5-8.4l-1.6-2.9c-.6-1-1.4-1.7-2.3-2.3a2.3 2.3 0 00-2.4-.2 2.8 2.8 0 00-1.5 2.2c0 1.3.1 2.6.6 3.9l1.6 5.8c.5 2 1 4 1.3 6 .2 1.7.2 3.4 0 5s-.7 3.1-1.6 4.4c-1 1.4-2.4 2.6-4 3.4a12.5 12.5 0 01-8 1.9 14 14 0 01-7.5-3.5 25.6 25.6 0 01-6-7.9c-2.7-5-4-10.7-3.5-16.5zm48.1-11.8a2.8 2.8 0 012.4-.3c.7.3 1.3.8 1.7 1.4a3 3 0 01-.3 3.3c-.2.3-.5.6-1 .7L155 239l-2.9-5zM118 254.3l3 5.1-9.2 5.2a2.7 2.7 0 01-3 0 3 3 0 01-1.5-2.5 2.7 2.7 0 011.6-2.6z" fill="#fff" stroke="#263238" stroke-miterlimit="10"/>
  <path d="M467.8 6.7l-316 20.5c-6.6.4-11.7 6.2-11.3 12.9l12 183.6c.3 6.7 6.1 11.8 12.8 11.4l316-20.5c6.6-.4 11.7-6.2 11.2-12.9L480.7 18.1a12.1 12.1 0 00-13-11.4z" fill="#9bd100" stroke="#263238" stroke-linecap="round" stroke-linejoin="round"/>
  <path d="M469.5 6.6L150.2 27.3a10.4 10.4 0 00-9.8 11l3.5 53.8 340.1-22-3.4-53.7a10.4 10.4 0 00-11.1-9.8zM271.5 183.2c-58.4 30-96.5 36.7-119.4 36.4l.4 5.8a10.5 10.5 0 0011.1 9.8L483 214.6a10.5 10.5 0 009.7-11.2L486 99.1c-91.5 1.8-117.5 34.2-214.4 84z" fill="#263238" stroke="#263238" stroke-linecap="round" stroke-linejoin="round"/>
  <path d="M205.6 74.6l-27.3 1.7a4.6 4.6 0 00-4.3 4.9l1.7 26a4.6 4.6 0 004.9 4.3l27.2-1.7a4.6 4.6 0 004.3-5l-1.7-26a4.6 4.6 0 00-4.8-4.2z" fill="#fff" stroke="#263238" stroke-linecap="round" stroke-linejoin="round"/>
  <path d="M196.1 87.4l-6.8.4a2.2 2.2 0 00-2 2.4l.3 6.4c.1 1.3 1.2 2.2 2.4 2.1l6.8-.4c1.3 0 2.2-1.2 2.1-2.4l-.4-6.4c0-1.3-1.1-2.2-2.4-2.1z" fill="#fff" stroke="#263238" stroke-linecap="round" stroke-linejoin="round"/>
  <path d="M174 80.6l10.6-.7a3.8 3.8 0 013.7 2.1c.2.4.3 1 .3 1.4l.3 4.5M210.4 78.2l-10.6.7a3.8 3.8 0 00-3.5 4l.3 4.5M175.8 108.2l10.6-.7a3.7 3.7 0 003.5-4l-.2-4.5M212.2 105.8l-10.5.7a3.8 3.8 0 01-4-3.5l-.3-4.5M175 95l12.5-.7M198.5 93.6l12.4-.8" stroke="#263238" stroke-linecap="round" stroke-linejoin="round"/>
  <path d="M332 51.3c-.8 0-1.6 0-2.2-.4-.6-.3-1.1-.8-1.5-1.4-.4-.7-.6-1.5-.6-2.4-.1-.9 0-1.7.3-2.4s.7-1.2 1.3-1.6a4 4 0 012.1-.7 4.5 4.5 0 013 .8l.2.4-.1.4-.3.1-.3-.1-1.2-.6-1.2-.2c-1 .1-1.7.5-2.2 1.1a4 4 0 00-.6 2.7c.1 1.2.4 2 1 2.7.5.6 1.3.8 2.3.8.4 0 .8-.2 1.1-.3l1.1-.8.4-.1h.2l.1.4-.1.4c-.4.4-.8.7-1.3.9-.4.2-1 .3-1.5.3zm11.3-1.4l.1.2-.1.4-.3.1c-.2 0-.4 0-.5-.2l-1.8-2.5a2 2 0 00-.7-.7 2 2 0 00-1-.1h-1.6l.2 3.3v.4l-.4.2c-.2 0-.3 0-.4-.2a.5.5 0 01-.2-.3l-.5-7.8.1-.4.4-.2 3.1-.2c1 0 1.7.1 2.2.5.6.4.8 1 .9 1.8 0 .7-.1 1.3-.5 1.8-.4.4-1 .7-1.7.8l.6.3.6.6zm-3.4-3.7c.7 0 1.2-.3 1.5-.6.3-.3.4-.7.4-1.3 0-.5-.2-1-.6-1.2-.3-.3-.8-.4-1.5-.3l-2.5.2.2 3.3zm5.8 4.1h-.4a.5.5 0 01-.1-.4l-.5-7.8v-.4l.4-.1 4.7-.3h.3l.2.4-.1.3-.4.1-4.1.3.2 3 3.9-.2h.3l.2.4-.1.3-.4.1-3.9.3.2 3.2 4.2-.3h.4l.1.4-.1.3-.3.1zm7.2-.4l-.4-.1a.5.5 0 01-.1-.4l-.5-7.8.1-.3.4-.2 2.4-.1c1.4-.1 2.5.2 3.3.9.8.7 1.3 1.8 1.4 3.2 0 1.4-.2 2.5-1 3.3-.7.8-1.7 1.2-3.1 1.3zm2.3-1c2.3-.2 3.4-1.4 3.2-3.8-.1-2.3-1.3-3.4-3.6-3.3l-1.9.2.5 7zm7 .4h-.5a.6.6 0 01-.1-.4L361 41v-.4l.4-.1h.4l.2.5.5 7.8-.1.4-.4.1zm5.2-.3l-.4-.1a.5.5 0 01-.1-.4l-.5-7.4-2.7.2-.3-.1-.2-.3.1-.4.4-.1 6.3-.4h.4l.1.4v.3l-.4.1-2.7.2.5 7.4-.1.4-.4.2zm11.7-.7c-.8 0-1.5 0-2.2-.4-.6-.3-1-.8-1.5-1.5-.3-.6-.5-1.4-.6-2.3 0-1 0-1.8.3-2.4.3-.7.8-1.3 1.3-1.7a4 4 0 012.2-.7 4.5 4.5 0 012.9.9l.2.4v.3l-.3.2-.4-.2-1.2-.6-1.2-.1c-1 0-1.6.4-2.1 1a4 4 0 00-.6 2.8c0 1.2.4 2 1 2.6.5.6 1.2.9 2.2.8l1.2-.3 1-.7.4-.2.3.1v.8l-1.3.8-1.6.4zm12-1.5V47.4l-.4.1c-.2 0-.3 0-.4-.3l-1-2-4.7.4-.8 2c0 .2-.2.4-.4.4l-.4-.1a.4.4 0 010-.5l3-8.2c0-.1 0-.2.2-.3h.6l.3.3zm-6.2-2.1l4-.2-2.3-4.4zm14.4 1.5v.6l-.4.2c-.1 0-.3 0-.4-.2l-1.9-2.6a2 2 0 00-.7-.6l-1-.2-1.5.1.2 3.3v.4l-.4.1h-.4a.6.6 0 01-.2-.4l-.5-7.9.1-.3.4-.2 3-.2c1 0 1.8.1 2.3.5.5.4.8 1 .9 1.8 0 .7-.2 1.3-.5 1.7-.4.5-1 .8-1.7 1 .2 0 .4 0 .6.2l.5.6zm-3.4-3.7c.6 0 1.1-.2 1.5-.5.3-.3.4-.7.4-1.3 0-.6-.3-1-.6-1.2-.3-.3-.9-.4-1.6-.3l-2.5.1.3 3.4zm5.8 4.2h-.4a.5.5 0 01-.2-.4l-.5-7.8.1-.4.4-.1 2.4-.2c1.4 0 2.5.2 3.4 1 .8.6 1.2 1.7 1.3 3.1.1 1.4-.2 2.5-1 3.3-.6.8-1.7 1.3-3.1 1.4zm2.3-1c2.3-.1 3.3-1.4 3.2-3.7-.2-2.4-1.4-3.5-3.7-3.3l-1.8.1.4 7zM181.5 156.7a3 3 0 01-2.7-1.1c-.7-.8-1-2.1-1.2-3.8 0-1.7.1-3 .7-4a3 3 0 012.5-1.4 3 3 0 012.8 1.1c.6.9 1 2.1 1.1 3.8.1 1.7 0 3-.6 4a3 3 0 01-2.6 1.4zm0-1a2 2 0 001.7-1c.3-.8.4-1.9.3-3.3 0-1.4-.3-2.5-.8-3.1-.4-.7-1-1-1.8-1a2 2 0 00-1.7 1.2c-.4.7-.5 1.8-.4 3.2.1 1.5.4 2.5.8 3.2.4.6 1 1 1.8.9zm8.6.5a3 3 0 01-2.7-1.2c-.7-.8-1-2-1.2-3.7 0-1.7.1-3 .7-4a3 3 0 012.5-1.5 3 3 0 012.8 1.2c.6.8 1 2 1.1 3.8.1 1.7 0 3-.6 3.9a3 3 0 01-2.6 1.5zm0-1a2 2 0 001.7-1.1c.3-.7.4-1.8.3-3.2 0-1.5-.3-2.5-.7-3.2-.5-.6-1-1-1.9-.9a2 2 0 00-1.7 1.2c-.3.7-.5 1.7-.4 3.2.1 1.4.4 2.4.8 3 .4.7 1 1 1.8 1zm8.6.4a3 3 0 01-2.7-1.1c-.7-.9-1-2.1-1.2-3.8 0-1.7.1-3 .7-4a3 3 0 012.6-1.4 3 3 0 012.7 1.1c.6.9 1 2.1 1.1 3.8.1 1.7 0 3-.6 4a3 3 0 01-2.6 1.4zm0-1a2 2 0 001.7-1c.3-.8.4-1.9.3-3.3 0-1.4-.3-2.5-.7-3.1-.5-.7-1-1-1.9-1a2 2 0 00-1.7 1.2c-.3.7-.5 1.8-.4 3.2.1 1.4.4 2.5.8 3.1.4.7 1 1 1.9 1zm8.6.5a3 3 0 01-2.7-1.2c-.7-.8-1-2-1.2-3.8 0-1.7.2-3 .7-3.9a3 3 0 012.6-1.5 3 3 0 012.7 1.2c.6.8 1 2 1.1 3.8.1 1.7 0 3-.6 3.9a3 3 0 01-2.6 1.5zm0-1a2 2 0 001.7-1.1c.3-.8.4-1.8.3-3.3 0-1.4-.3-2.4-.7-3-.5-.7-1-1-1.9-1a2 2 0 00-1.7 1.2c-.3.6-.5 1.7-.4 3.1.1 1.5.4 2.5.8 3.2.4.6 1 1 1.9.9zm8.6.4a3 3 0 01-2.7-1.1c-.7-.9-1-2.1-1.1-3.8-.2-1.7 0-3 .6-4a3 3 0 012.6-1.4 3 3 0 012.7 1.1c.6.9 1 2.1 1.1 3.8.2 1.7 0 3-.6 4a3 3 0 01-2.6 1.4zm0-1a2 2 0 001.7-1.1c.3-.7.4-1.8.4-3.2-.1-1.5-.4-2.5-.8-3.1-.4-.7-1-1-1.9-1a2 2 0 00-1.7 1.2c-.3.7-.4 1.8-.4 3.2.1 1.4.4 2.5.8 3.1.4.7 1 1 1.9 1zm8.6.5a3 3 0 01-2.7-1.2c-.6-.8-1-2-1.1-3.8-.1-1.7 0-3 .6-3.9a3 3 0 012.6-1.5 3 3 0 012.7 1.2c.7.8 1 2 1.1 3.8.2 1.6 0 3-.6 3.9a3 3 0 01-2.6 1.5zm0-1a2 2 0 001.7-1.2c.3-.7.5-1.7.4-3.2-.1-1.4-.4-2.5-.8-3.1-.4-.7-1-1-1.9-.9a2 2 0 00-1.7 1.1c-.3.7-.4 1.8-.3 3.2 0 1.5.3 2.5.7 3.2.5.6 1 1 1.9.9zm8.6.4a3 3 0 01-2.7-1.1c-.6-.9-1-2.1-1.1-3.8-.1-1.7 0-3 .6-4a3 3 0 012.6-1.4 3 3 0 012.7 1.1c.7.8 1 2.1 1.2 3.8 0 1.7-.2 3-.7 4a3 3 0 01-2.6 1.4zm0-1a2 2 0 001.7-1.1c.3-.7.5-1.8.4-3.2-.1-1.5-.4-2.5-.8-3.2-.4-.6-1-1-1.9-.9a2 2 0 00-1.7 1.2c-.3.7-.4 1.7-.3 3.2 0 1.4.3 2.5.7 3.1.5.7 1 1 1.9 1zm8.7.4a3 3 0 01-2.8-1.1c-.6-.8-1-2.1-1.1-3.8-.1-1.7 0-3 .6-4a3 3 0 012.6-1.4 3 3 0 012.7 1.2c.7.8 1 2 1.2 3.7 0 1.7-.1 3-.7 4a3 3 0 01-2.5 1.4zm-.1-1a2 2 0 001.7-1c.3-.8.5-1.8.4-3.3-.1-1.4-.4-2.5-.8-3.1-.4-.7-1-1-1.9-1a2 2 0 00-1.7 1.2c-.3.7-.4 1.8-.3 3.2 0 1.5.3 2.5.7 3.2.5.6 1 1 1.9.9zm8.7.5a3 3 0 01-2.8-1.2c-.6-.8-1-2-1.1-3.7-.1-1.7 0-3 .6-4a3 3 0 012.6-1.5 3 3 0 012.7 1.2c.7.8 1 2 1.2 3.8 0 1.7-.1 3-.7 3.9a3 3 0 01-2.5 1.5zm-.1-1a2 2 0 001.7-1.1c.3-.7.5-1.8.4-3.2-.1-1.5-.4-2.5-.8-3.2-.4-.6-1-1-1.8-.9a2 2 0 00-1.8 1.2c-.3.7-.4 1.7-.3 3.2 0 1.4.3 2.4.7 3.1.5.7 1 1 1.9.9zm8.7.4a3 3 0 01-2.8-1.1c-.6-.9-1-2.1-1.1-3.8-.1-1.7 0-3 .6-4a3 3 0 012.6-1.4 3 3 0 012.7 1.1c.7.9 1 2.1 1.2 3.8 0 1.7-.1 3-.7 4a3 3 0 01-2.5 1.4zm-.1-1a2 2 0 001.7-1c.4-.8.5-1.9.4-3.3-.1-1.4-.4-2.5-.8-3.1-.4-.7-1-1-1.8-1a2 2 0 00-1.8 1.2c-.3.7-.4 1.8-.3 3.2 0 1.4.3 2.5.8 3.1.4.7 1 1 1.8 1zm8.7.5a3 3 0 01-2.8-1.2c-.6-.8-1-2-1.1-3.8-.1-1.7.1-3 .6-3.9a3 3 0 012.6-1.5 3 3 0 012.7 1.2c.7.8 1 2 1.2 3.8 0 1.7-.1 3-.7 3.9a3 3 0 01-2.5 1.5zm0-1a2 2 0 001.6-1.1c.4-.7.5-1.8.4-3.3-.1-1.4-.4-2.4-.8-3-.4-.7-1-1-1.8-1a2 2 0 00-1.7 1.2c-.4.7-.5 1.7-.4 3.2 0 1.4.3 2.4.8 3 .4.7 1 1 1.8 1zm8.6.4a3 3 0 01-2.7-1.1c-.7-.9-1-2.1-1.2-3.8-.1-1.7.1-3 .7-4a3 3 0 012.5-1.4 3 3 0 012.7 1.1c.7.9 1 2.1 1.2 3.8.1 1.7-.1 3-.7 4a3 3 0 01-2.5 1.4zm0-1a2 2 0 001.6-1.1c.4-.7.5-1.8.4-3.2-.1-1.5-.4-2.5-.8-3.1-.4-.7-1-1-1.8-1a2 2 0 00-1.7 1.2c-.4.7-.5 1.8-.4 3.2 0 1.4.3 2.5.8 3.1.4.7 1 1 1.8 1zm8.6.5a3 3 0 01-2.7-1.2c-.7-.8-1-2-1.2-3.8-.1-1.7.1-3 .7-3.9a3 3 0 012.5-1.5 3 3 0 012.7 1.2c.7.8 1 2 1.2 3.8.1 1.6-.1 3-.7 3.9a3 3 0 01-2.5 1.5zm0-1a2 2 0 001.6-1.2c.4-.7.5-1.7.4-3.2 0-1.4-.3-2.5-.8-3.1-.4-.6-1-1-1.8-.9a2 2 0 00-1.7 1.1c-.4.7-.5 1.8-.4 3.2 0 1.5.3 2.5.8 3.2.4.6 1 1 1.8.9zm8.6.4a3 3 0 01-2.7-1.1c-.7-.9-1-2.1-1.2-3.8-.1-1.7.1-3 .7-4a3 3 0 012.5-1.4 3 3 0 012.7 1.1c.7.8 1 2.1 1.2 3.8.1 1.7-.1 3-.7 4a3 3 0 01-2.5 1.4zm0-1a2 2 0 001.6-1.1c.4-.7.5-1.8.4-3.2 0-1.5-.3-2.5-.8-3.2-.4-.6-1-.9-1.8-.8a2 2 0 00-1.7 1c-.4.8-.5 1.8-.4 3.3.1 1.4.4 2.5.8 3.1.4.7 1 1 1.8 1zm8.6.5a3 3 0 01-2.7-1.2c-.7-.8-1-2.1-1.2-3.8 0-1.7.1-3 .7-3.9a3 3 0 012.5-1.5 3 3 0 012.8 1.2c.6.8 1 2 1.1 3.7.1 1.7-.1 3-.6 4a3 3 0 01-2.6 1.5zm0-1a2 2 0 001.6-1.2c.4-.7.5-1.7.4-3.2 0-1.4-.3-2.5-.8-3.1-.4-.7-1-1-1.8-.9a2 2 0 00-1.7 1.1c-.4.7-.5 1.8-.4 3.2.1 1.5.4 2.5.8 3.2.4.6 1 1 1.8.9zm8.6.4a3 3 0 01-2.7-1.2c-.7-.8-1-2-1.2-3.7 0-1.7.1-3 .7-4a3 3 0 012.5-1.5 3 3 0 012.8 1.2c.6.8 1 2 1.1 3.8.1 1.7 0 3-.6 4a3 3 0 01-2.6 1.4zm0-1a2 2 0 001.7-1.1c.3-.7.4-1.8.3-3.2 0-1.5-.3-2.5-.8-3.2-.4-.6-1-1-1.8-.9a2 2 0 00-1.7 1.2c-.4.7-.5 1.7-.4 3.2.1 1.4.4 2.4.8 3.1.4.7 1 1 1.8 1z" fill="#fff"/>
  <path d="M178.8 155.6h-.1zm-.5-7.7h-.1zm5.3-.4l-.1.1zm.5 7.8l-.1-.1zm-1-.7h.2zm-.4-6.3zm-3.5.2h.1zm.4 6.4l.1-.1zm1.9 1.7c-1.1 0-2-.3-2.6-1h-.2c.7 1 1.6 1.3 2.8 1.3zm-2.6-1c-.7-.9-1-2.1-1.1-3.8h-.3a7 7 0 001.2 3.9zm-1.1-3.8c-.2-1.7 0-3 .6-3.8l-.2-.2a7 7 0 00-.7 4zm.6-3.8c.5-1 1.3-1.4 2.4-1.5v-.2c-1.2 0-2 .6-2.6 1.5zm2.4-1.5c1.2 0 2 .3 2.7 1.1l.2-.1a3.1 3.1 0 00-2.9-1.2zm2.7 1.1c.6.8 1 2 1 3.7h.3c0-1.7-.5-3-1.1-3.8zm1 3.7c.2 1.7 0 3-.5 3.9l.2.1a7 7 0 00.6-4zm-.5 3.9c-.6.9-1.4 1.3-2.5 1.4v.3c1.2-.1 2.1-.6 2.7-1.6zm-2.5.7a2 2 0 001.8-1.2l-.3-.1c-.3.6-.8 1-1.6 1zm1.8-1.2c.3-.8.4-1.9.4-3.3h-.3c0 1.4 0 2.5-.4 3.2zm.4-3.3c-.1-1.4-.4-2.5-.8-3.2l-.3.1c.4.7.7 1.7.8 3.1zm-.8-3.2a2 2 0 00-.9-.7c-.3-.2-.7-.3-1.1-.2v.2c.4 0 .7 0 1 .2.3.1.5.3.7.6zm-2-1a2 2 0 00-1.8 1.3h.2c.3-.6.8-1 1.6-1zm-1.8 1.3c-.4.7-.5 1.8-.4 3.2h.2c0-1.4 0-2.5.4-3.1zm-.4 3.2c0 1.5.3 2.5.8 3.2l.2-.1c-.4-.6-.7-1.7-.8-3zm.8 3.2a2 2 0 002 1v-.3c-.8 0-1.4-.2-1.8-.8zm7.9.1l-.1.1zm-.5-7.7h-.1zm5.3-.3h-.1zm.5 7.7h-.1zm-1-.6h.2zm-.3-6.4h-.2zm-3.6.3h.1zm.4 6.3h.1zm2 1.8c-1.2 0-2-.3-2.7-1.1l-.2.1c.7.9 1.6 1.3 2.8 1.2zm-2.7-1.1c-.7-.9-1-2-1.1-3.8h-.3a7 7 0 001.2 4zm-1.1-3.8c-.2-1.6 0-3 .6-3.8l-.2-.1a7 7 0 00-.7 4zm.6-3.8c.5-.9 1.3-1.4 2.5-1.4v-.3c-1.3 0-2.2.6-2.7 1.6zm2.5-1.4c1-.1 2 .3 2.6 1h.2a3.1 3.1 0 00-2.9-1.3zm2.6 1c.6.9 1 2.1 1.1 3.8h.2c0-1.7-.4-3-1.1-3.9zm1.1 3.8c.1 1.7-.1 3-.6 3.8l.2.2a7 7 0 00.6-4zm-.6 3.8c-.6 1-1.4 1.4-2.5 1.5v.2c1.2 0 2.1-.6 2.7-1.5zm-2.5.7a2 2 0 001.8-1.2h-.2c-.4.6-.9 1-1.7 1zm1.8-1.2c.3-.7.4-1.8.4-3.3h-.3c.1 1.5 0 2.5-.3 3.2zm.4-3.3c-.1-1.4-.4-2.5-.8-3.1h-.3c.5.7.7 1.7.8 3.2zm-.8-3.1a2 2 0 00-.9-.8c-.3-.2-.7-.2-1.1-.2v.3l1 .1c.3.2.6.4.7.7zm-2-1a2 2 0 00-1.8 1.2l.2.1c.3-.6.9-1 1.6-1zm-1.8 1.2c-.4.7-.5 1.8-.4 3.3h.2c0-1.5 0-2.5.4-3.2zm-.4 3.3c0 1.4.4 2.5.8 3.2l.2-.2c-.4-.6-.7-1.6-.8-3zm.8 3.2a2 2 0 002 1v-.3c-.8 0-1.4-.3-1.8-.9zm7.9 0l-.1.2zm-.5-7.6h-.1zm5.3-.4l-.1.1zm.5 7.7h-.1zm-1-.6h.2zm-.3-6.3h-.1zm-3.6.2h.1zm.4 6.3h.1zm2 1.8c-1.2 0-2-.3-2.7-1h-.2c.7 1 1.6 1.3 2.8 1.3zm-2.7-1c-.6-1-1-2.1-1.1-3.8h-.3a7 7 0 001.2 3.9zm-1.1-3.8c-.1-1.7 0-3 .6-3.9h-.2a7 7 0 00-.7 3.9zm.6-3.9c.5-.8 1.3-1.3 2.5-1.4v-.2c-1.3 0-2.1.6-2.7 1.5zm2.5-1.4c1 0 2 .3 2.6 1.1l.2-.1a3.1 3.1 0 00-2.9-1.2zm2.6 1.1c.6.8 1 2 1.1 3.7h.3c-.2-1.7-.5-3-1.2-3.8zm1.1 3.7c.1 1.7-.1 3-.6 3.9l.2.1a7 7 0 00.7-4zm-.6 3.9c-.6.9-1.4 1.3-2.5 1.4v.3c1.2-.1 2.1-.6 2.7-1.6zm-2.5.7a2 2 0 001.8-1.2l-.2-.1c-.4.6-.9 1-1.7 1zm1.8-1.2c.3-.8.5-1.9.4-3.3h-.3c.1 1.4 0 2.5-.3 3.2zm.4-3.3c-.1-1.5-.4-2.5-.8-3.2l-.2.1c.4.6.6 1.7.7 3.1zm-.8-3.2a2 2 0 00-2-1v.3c.4 0 .7 0 1 .2.3.1.6.3.8.6zm-2-1a2 2 0 00-1.8 1.3h.2c.3-.6.9-1 1.6-1zm-1.8 1.3c-.4.7-.5 1.8-.4 3.2h.3c-.1-1.4 0-2.5.3-3.1zm-.4 3.2c.1 1.5.4 2.5.8 3.2l.2-.1c-.4-.7-.7-1.7-.7-3.1zm.8 3.2a2 2 0 002 1v-.3c-.8 0-1.4-.2-1.8-.8zm7.9.1l-.1.1zm-.5-7.7h-.1zm5.3-.3h-.1zm.5 7.7h-.1zm-1-.6h.2zm-.3-6.4h-.1zm-3.6.3h.1zm.4 6.3h.1zm2 1.8c-1.2 0-2-.3-2.7-1.2l-.2.2c.7.9 1.6 1.3 2.8 1.2zm-2.7-1.2c-.6-.8-1-2-1.1-3.7h-.3a7 7 0 001.2 3.9zm-1.1-3.7c-.1-1.7 0-3 .6-3.8l-.2-.1a7 7 0 00-.7 4zm.6-3.8c.5-.9 1.3-1.4 2.5-1.4v-.3c-1.2 0-2.1.6-2.7 1.6zm2.5-1.4c1-.1 2 .2 2.6 1l.2-.1a3.1 3.1 0 00-2.9-1.2zm2.6 1c.6.9 1 2 1.1 3.8h.3c-.1-1.7-.5-3-1.2-3.9zm1.1 3.8c.1 1.7-.1 3-.6 3.8l.2.1a7 7 0 00.7-4zm-.6 3.8c-.5.9-1.4 1.4-2.5 1.5v.2c1.2 0 2.1-.6 2.7-1.6zm-2.5.7a2 2 0 001.8-1.2l-.2-.1c-.4.7-.9 1-1.6 1zm1.8-1.2c.3-.7.5-1.8.4-3.3h-.3c.1 1.5 0 2.5-.3 3.2zm.4-3.3c-.1-1.4-.4-2.5-.8-3.2l-.2.2c.4.6.6 1.6.7 3zm-.8-3.2a2 2 0 00-.9-.7c-.3-.2-.7-.2-1-.2v.2c.3 0 .7 0 1 .2l.7.7zm-2-1a2 2 0 00-1.8 1.3l.2.1c.3-.7.9-1 1.6-1zm-1.8 1.3c-.4.7-.5 1.8-.4 3.3h.3c-.1-1.5 0-2.5.3-3.2zm-.4 3.3c.1 1.4.4 2.5.8 3.1h.2c-.4-.7-.6-1.7-.7-3.2zm.8 3.1a2 2 0 002 1v-.2c-.8 0-1.4-.3-1.8-.9zm8 .2h-.2zm-.6-7.7l-.1-.1zm5.3-.4l-.1.1zm.5 7.7h-.1zm-1-.6h.2zm-.3-6.3h-.1zm-3.6.2h.1zm.4 6.3h.1zm2 1.8c-1.2 0-2-.3-2.7-1.1l-.2.1c.7 1 1.6 1.3 2.8 1.2zm-2.7-1.1c-.6-.8-1-2-1.1-3.7h-.3a7 7 0 001.2 3.8zm-1.1-3.7c-.1-1.7 0-3 .6-3.9l-.2-.1a7 7 0 00-.7 4zm.6-3.9c.5-.9 1.4-1.3 2.5-1.4v-.3c-1.2.1-2.1.6-2.7 1.6zm2.5-1.4c1 0 2 .3 2.6 1.1l.2-.2a3.1 3.1 0 00-2.8-1.2zm2.6 1.1c.6.8 1 2 1.1 3.7h.3c-.1-1.7-.5-3-1.2-3.9zm1.1 3.7c.1 1.7 0 3-.6 3.9h.2a7 7 0 00.7-3.9zm-.6 3.9c-.5.8-1.4 1.3-2.5 1.4v.2c1.2 0 2.1-.6 2.7-1.5zm-2.5.7a2 2 0 001.8-1.3h-.2c-.3.6-.9 1-1.6 1zm1.8-1.3c.3-.7.5-1.8.4-3.2h-.3c.1 1.4 0 2.5-.3 3.1zm.4-3.2c-.1-1.5-.4-2.5-.8-3.2l-.2.1c.4.6.6 1.7.7 3zm-.8-3.2a2 2 0 00-2-1v.3c.4 0 .8 0 1 .2.3 0 .6.3.8.6zm-2-1a2 2 0 00-1.8 1.2l.2.1c.3-.6.9-1 1.6-1zm-1.8 1.2c-.4.8-.5 1.9-.4 3.3h.3c-.1-1.4 0-2.5.3-3.2zm-.4 3.3c.1 1.4.4 2.5.8 3.2l.2-.1c-.4-.7-.6-1.7-.7-3.1zm.8 3.2a2 2 0 002 1v-.3c-.8 0-1.4-.2-1.8-.8zm8 .1h-.2zm-.6-7.7zm5.3-.3h-.1zm.5 7.7h-.1zm-1-.7h.2zm-.3-6.3h-.1zm-3.6.2h.1zm.4 6.4l.1-.1zm2 1.7c-1.2.1-2-.3-2.7-1h-.2c.7 1 1.7 1.4 2.8 1.3zm-2.7-1c-.6-.9-1-2.1-1.1-3.8h-.3a7 7 0 001.2 3.9zm-1.1-3.8c-.1-1.7 0-3 .6-3.8l-.2-.2a7 7 0 00-.7 4zm.6-3.8c.5-1 1.4-1.4 2.5-1.5v-.2c-1.2 0-2.1.6-2.7 1.5zm2.5-1.5c1.1 0 2 .3 2.6 1.1l.2-.1a3.1 3.1 0 00-2.8-1.2zm2.6 1.1c.6.8 1 2 1.1 3.8h.3c-.1-1.8-.5-3-1.2-4zm1.1 3.8c.1 1.6 0 3-.6 3.8l.2.1a7 7 0 00.7-4zm-.6 3.8c-.5.9-1.3 1.4-2.5 1.4v.3c1.2 0 2.1-.6 2.7-1.6zm-2.5.7a2 2 0 001.8-1.2l-.2-.1c-.3.6-.9 1-1.6 1zm1.8-1.2c.4-.7.5-1.8.4-3.3h-.3c.1 1.5 0 2.5-.3 3.2zm.4-3.3c-.1-1.4-.4-2.5-.8-3.2l-.2.2c.4.6.6 1.6.7 3zm-.8-3.2a2 2 0 00-.8-.7c-.4-.2-.7-.2-1.2-.2v.2c.4 0 .8 0 1 .2.3.1.6.4.8.7zm-2-1a2 2 0 00-1.8 1.3h.2c.4-.6.9-1 1.6-1zm-1.8 1.3c-.3.7-.5 1.8-.4 3.2h.3c-.1-1.4 0-2.4.3-3.1zm-.4 3.2c.1 1.5.4 2.6.8 3.2l.2-.1c-.4-.6-.6-1.6-.7-3zm.8 3.2a2 2 0 002 1v-.3c-.8.1-1.4-.2-1.8-.8zm8 .2h-.2zm-.6-7.8zm5.3-.3h-.1zm.5 7.7h-.1zm-.9-.6h.1zm-.4-6.4l-.1.1zm-3.6.3h.1zm.4 6.3h.1zm2 1.8c-1.2 0-2-.3-2.7-1.1l-.2.1c.7 1 1.7 1.3 2.9 1.2zm-2.7-1.1c-.6-.8-1-2-1.1-3.7h-.3a7 7 0 001.2 3.8zm-1.1-3.7c-.1-1.7.1-3 .6-3.9l-.2-.1a7 7 0 00-.7 4zm.6-3.9c.6-.9 1.4-1.3 2.5-1.4v-.3c-1.2.1-2.1.6-2.7 1.6zm2.5-1.4c1.1 0 2 .3 2.6 1h.2a3.1 3.1 0 00-2.8-1.3zm2.6 1c.6.9 1 2.1 1.1 3.8h.3c-.1-1.7-.5-3-1.2-3.9zm1.1 3.8c.1 1.7 0 3-.6 3.9h.2a7 7 0 00.7-4zm-.6 3.9c-.5.8-1.3 1.3-2.5 1.4v.2c1.2 0 2.1-.6 2.7-1.5zm-2.5.6a2 2 0 001.8-1.2h-.2c-.3.6-.9 1-1.6 1zm1.8-1.2c.4-.7.5-1.8.4-3.2h-.3c.1 1.4 0 2.5-.3 3.1zm.4-3.2c-.1-1.5-.4-2.6-.8-3.2l-.2.1c.4.6.6 1.6.7 3zm-.8-3.2a2 2 0 00-.8-.8l-1.2-.2v.3l1 .1.8.7zm-2-1a2 2 0 00-1.8 1.2l.2.1c.4-.6.9-1 1.6-1zm-1.8 1.2c-.3.8-.5 1.8-.4 3.3h.3c-.1-1.5 0-2.5.3-3.2zm-.4 3.3c.1 1.4.4 2.5.8 3.2l.2-.2c-.4-.6-.6-1.6-.7-3zm.8 3.2a2 2 0 002 1v-.3c-.8 0-1.4-.2-1.8-.9zm8 .1h-.2zm-.6-7.7zm5.3-.3zm.5 7.7l-.1-.1zm-.9-.7h.1zm-.4-6.3h-.1zm-3.6.2h.1zm.4 6.4l.1-.1zm2 1.7c-1.2.1-2-.3-2.7-1h-.2c.7 1 1.7 1.4 2.9 1.3zm-2.7-1c-.6-.9-1-2.1-1.1-3.8h-.3a7 7 0 001.2 3.9zm-1.1-3.8c-.1-1.7.1-3 .6-3.8l-.2-.2a7 7 0 00-.7 4zm.6-3.8c.6-1 1.4-1.4 2.5-1.5v-.2c-1.2 0-2.1.6-2.7 1.5zm2.5-1.5c1.1 0 2 .3 2.6 1.1l.2-.1a3.1 3.1 0 00-2.8-1.2zm2.6 1.1c.6.8 1 2 1.1 3.7h.3c-.1-1.7-.5-3-1.2-3.8zm1.1 3.7c.1 1.7 0 3-.6 3.9l.2.1a7 7 0 00.7-4zm-.6 3.9c-.5.9-1.3 1.4-2.5 1.4v.3c1.3-.1 2.1-.6 2.7-1.6zm-2.5.7a2 2 0 001.8-1.2l-.2-.1c-.3.6-.9 1-1.6 1zm1.8-1.2c.4-.8.5-1.9.4-3.3h-.3c.1 1.5 0 2.5-.3 3.2zm.4-3.3c-.1-1.4-.4-2.5-.8-3.2l-.2.1c.4.7.7 1.7.7 3.1zm-.8-3.2a2 2 0 00-.8-.7c-.4-.2-.7-.3-1.2-.2v.2c.4 0 .8 0 1 .2.3.1.6.3.8.6zm-2-1a2 2 0 00-1.8 1.3h.2c.4-.6.9-1 1.7-1zm-1.8 1.3c-.3.7-.5 1.8-.4 3.2h.3c-.1-1.4 0-2.5.3-3.1zm-.4 3.2c.1 1.5.4 2.5.8 3.2l.2-.1c-.4-.6-.6-1.7-.7-3zm.8 3.2a2 2 0 002 1v-.3c-.8 0-1.4-.2-1.8-.8zm8 .1l-.2.1zm-.6-7.7zm5.3-.3zm.5 7.7zm-.9-.6h.1zm-.4-6.4h-.1zm-3.6.3h.2zm.4 6.3h.2zm2 1.8c-1.2 0-2-.3-2.7-1.1l-.2.1c.7.9 1.7 1.3 2.9 1.2zm-2.7-1.1c-.6-.8-1-2-1.1-3.8h-.2a7 7 0 001.1 4zm-1.1-3.8c-.1-1.6.1-3 .6-3.8l-.2-.1a7 7 0 00-.6 4zm.6-3.8c.6-.9 1.4-1.4 2.5-1.4v-.3c-1.2.1-2.1.6-2.7 1.6zm2.5-1.4c1.1-.1 2 .3 2.6 1h.2a3.1 3.1 0 00-2.8-1.3zm2.6 1c.7.9 1 2.1 1.1 3.8h.3c-.1-1.7-.5-3-1.2-3.9zm1.1 3.8c.2 1.7 0 3-.6 3.8l.2.2a7 7 0 00.7-4zm-.6 3.8c-.5 1-1.3 1.4-2.4 1.5v.2c1.2 0 2-.6 2.6-1.5zm-2.5.7a2 2 0 001.8-1.2h-.2c-.3.6-.9 1-1.6 1zm1.8-1.2c.4-.7.5-1.8.4-3.2h-.2c0 1.4 0 2.4-.4 3.1zm.4-3.2c0-1.5-.4-2.6-.8-3.2h-.2c.4.7.7 1.7.8 3.2zm-.8-3.2a2 2 0 00-.8-.8c-.4-.2-.7-.2-1.2-.2v.3l1 .1c.4.2.6.4.8.7zm-2-1a2 2 0 00-1.8 1.2l.3.1c.3-.6.8-1 1.6-1zM248 144c-.3.7-.4 1.8-.4 3.3h.3c-.1-1.5 0-2.5.4-3.2zm-.4 3.3c.1 1.4.4 2.5.8 3.2l.3-.2c-.5-.6-.7-1.6-.8-3zm.8 3.2a2 2 0 002 1v-.3c-.8 0-1.3-.3-1.7-.9zm8 0l-.2.2zm-.6-7.6zm5.3-.4v.1zm.5 7.7zm-.9-.6h.1zm-.4-6.3h-.1zm-3.6.2h.2zm.5 6.3zm1.9 1.8c-1.2 0-2-.3-2.7-1h-.2c.7 1 1.7 1.3 2.9 1.3zm-2.7-1c-.6-.9-1-2.1-1-3.8h-.3a7 7 0 001.1 3.9zm-1-3.8c-.2-1.7 0-3 .5-3.9h-.2a7 7 0 00-.6 4zm.5-3.9c.6-.8 1.4-1.3 2.5-1.4v-.2c-1.2 0-2.1.6-2.7 1.5zm2.5-1.4c1.1 0 2 .3 2.6 1.1l.2-.1a3.1 3.1 0 00-2.8-1.2zm2.6 1.1c.7.8 1 2 1.2 3.7h.2c-.1-1.7-.5-3-1.2-3.8zm1.2 3.7c0 1.7-.2 3-.7 3.9l.2.1a7 7 0 00.7-4zm-.7 3.9c-.5.9-1.3 1.3-2.4 1.4v.3c1.2-.1 2-.6 2.6-1.6zm-2.5.7a2 2 0 001.8-1.2l-.2-.1c-.3.6-.8 1-1.6 1zm1.8-1.2c.4-.8.5-1.9.4-3.3h-.2c0 1.4 0 2.5-.4 3.2zm.4-3.3c0-1.5-.3-2.5-.8-3.2l-.2.1c.4.7.7 1.7.8 3.1zm-.8-3.2a2 2 0 00-.8-.8c-.3-.1-.7-.2-1.1-.1v.2c.4 0 .7 0 1 .2.3.1.5.3.7.6zm-2-1a2 2 0 00-1.8 1.3h.3c.3-.6.8-1 1.6-1zm-1.8 1.3c-.3.7-.4 1.8-.3 3.2h.2c0-1.4 0-2.5.4-3.1zm-.3 3.2c0 1.5.3 2.5.8 3.2l.2-.1c-.4-.7-.7-1.7-.8-3.1zm.8 3.2a2 2 0 002 1l-.1-.3c-.8 0-1.3-.2-1.7-.8zm7.8.1v.1zm-.5-7.7zm5.3-.3zm.5 7.7zm-.9-.6h.1zm-.4-6.4zm-3.5.3zm.4 6.3zm1.9 1.8c-1.2 0-2-.3-2.7-1.1l-.2.1c.7.9 1.7 1.3 2.9 1.2zm-2.7-1.1c-.6-.9-1-2-1-3.8h-.3a7 7 0 001.1 4zm-1-3.8c-.2-1.6 0-3 .6-3.8l-.3-.1a7 7 0 00-.6 4zm.6-3.8c.5-.9 1.3-1.4 2.4-1.4v-.3c-1.2 0-2 .6-2.7 1.6zm2.4-1.4c1.1-.1 2 .3 2.6 1l.2-.1a3.1 3.1 0 00-2.8-1.2zm2.6 1c.7.9 1 2 1.2 3.8h.2c-.1-1.7-.5-3-1.2-3.9zm1.2 3.8c0 1.7-.2 3-.7 3.8l.2.2a7 7 0 00.7-4zm-.7 3.8c-.5 1-1.3 1.4-2.4 1.5v.2c1.2 0 2-.6 2.6-1.5zm-2.5.7a2 2 0 001.8-1.2l-.2-.1c-.3.7-.8 1-1.6 1zm1.8-1.2c.4-.7.5-1.8.4-3.3h-.2c0 1.5 0 2.5-.4 3.2zm.4-3.3c0-1.4-.3-2.5-.8-3.2l-.2.2c.4.6.7 1.6.8 3zm-.8-3.2a2 2 0 00-.8-.7c-.3-.2-.7-.2-1.1-.2v.2c.4 0 .7 0 1 .2l.7.7zm-2-.9a2 2 0 00-1.8 1.2l.3.1c.3-.7.8-1 1.6-1zm-1.8 1.2c-.3.7-.4 1.8-.3 3.3h.2c0-1.5 0-2.5.4-3.2zm-.3 3.3c0 1.4.3 2.5.8 3.2l.2-.2c-.4-.6-.7-1.6-.8-3zm.8 3.2a2 2 0 002 1l-.1-.3c-.8 0-1.3-.3-1.7-.9zm7.9 0l-.1.2zm-.5-7.6l-.2-.1zm5.2-.4v.1zm.5 7.7zm-.9-.6h.1zm-.4-6.3zm-3.5.2zm.4 6.3zm1.9 1.8c-1.2 0-2-.3-2.6-1.1l-.2.2c.6.8 1.6 1.2 2.8 1.1zm-2.6-1.1c-.7-.8-1-2-1.2-3.7h-.2a7 7 0 001.2 3.9zm-1.2-3.7c0-1.7.1-3 .7-3.9l-.3-.1a7 7 0 00-.6 4zm.7-3.9c.5-.9 1.3-1.3 2.4-1.4v-.3c-1.2.1-2 .6-2.7 1.6zm2.4-1.4c1.1 0 2 .3 2.6 1.1l.2-.2a3.1 3.1 0 00-2.8-1.2zm2.6 1.1c.7.8 1 2 1.2 3.7h.2c-.1-1.7-.5-3-1.2-3.9zm1.2 3.7c0 1.7-.1 3-.7 3.9l.2.1a7 7 0 00.7-4zm-.7 3.9c-.5.8-1.3 1.3-2.4 1.4v.2c1.2 0 2-.5 2.6-1.5zm-2.5.7a2 2 0 001.8-1.2l-.2-.2c-.3.7-.8 1-1.6 1.1zm1.8-1.2c.4-.8.5-1.9.4-3.3h-.2c0 1.4 0 2.5-.4 3.1zm.4-3.3c0-1.5-.3-2.5-.8-3.2l-.2.1c.4.6.7 1.7.8 3.1zm-.8-3.2a2 2 0 00-2-1v.3c.5 0 .8 0 1 .2.4.1.6.3.8.6zm-2-1a2 2 0 00-1.8 1.2l.3.2c.3-.7.8-1 1.6-1.1zm-1.8 1.2c-.3.8-.4 1.9-.3 3.3h.2c0-1.4 0-2.5.4-3.1zm-.3 3.3c0 1.4.3 2.5.8 3.2l.2-.1c-.4-.7-.7-1.7-.8-3.1zm.8 3.2a2 2 0 002 1v-.3c-.9 0-1.4-.2-1.8-.8zm7.9.1h-.1zm-.5-7.7h-.1zm5.2-.3zm.5 7.7zm-.9-.7l.1.1zm-.4-6.3zm-3.5.2v.1zm.4 6.4v-.1zm1.9 1.7c-1.1.1-2-.3-2.6-1h-.2c.6 1 1.6 1.4 2.8 1.3zm-2.6-1c-.7-.9-1-2.1-1.2-3.8h-.2a7 7 0 001.2 3.9zM281 145c0-1.7.1-3 .7-3.8l-.2-.2a7 7 0 00-.7 4zm.7-3.8c.5-1 1.3-1.4 2.4-1.5v-.2c-1.2 0-2 .6-2.6 1.5zm2.4-1.5c1.1 0 2 .3 2.6 1.1l.2-.1a3.1 3.1 0 00-2.8-1.2zm2.6 1.1c.7.8 1 2 1.2 3.8h.2c0-1.8-.5-3-1.2-4zm1.2 3.8c0 1.6-.1 3-.7 3.8l.2.1a7 7 0 00.7-4zm-.7 3.8c-.5.9-1.3 1.4-2.4 1.4v.3c1.2 0 2-.6 2.6-1.6zm-2.5.7a2 2 0 001.8-1.2l-.2-.1c-.3.6-.8 1-1.6 1zm1.8-1.2c.4-.7.5-1.8.4-3.3h-.2c0 1.5 0 2.5-.4 3.2zm.4-3.3c0-1.4-.3-2.5-.8-3.2l-.2.2c.4.6.7 1.6.8 3zm-.8-3.2a2 2 0 00-.8-.7c-.3-.2-.7-.2-1.1-.2v.2c.4 0 .7 0 1 .2.3.1.5.4.7.7zm-2-1a2 2 0 00-1.7 1.3l.2.1c.3-.7.8-1 1.6-1zm-1.7 1.3c-.4.7-.5 1.8-.4 3.2h.2c0-1.4 0-2.4.4-3.1zm-.4 3.2c0 1.5.3 2.6.8 3.2l.2-.1c-.4-.6-.7-1.6-.8-3zm.8 3.2a2 2 0 002 1v-.2c-.8 0-1.4-.3-1.8-.9zm7.9.2h-.1zm-.5-7.7l-.1-.1zm5.2-.4zm.5 7.7zm-.9-.6h.2zm-.4-6.4v.1zm-3.5.3zm.4 6.3zm1.9 1.8c-1.1 0-2-.3-2.6-1.1l-.2.1c.7 1 1.6 1.3 2.8 1.2zm-2.6-1.1c-.7-.8-1-2-1.2-3.7h-.2a7 7 0 001.2 3.8zm-1.2-3.7c0-1.7.1-3 .7-3.9l-.2-.1a7 7 0 00-.7 4zm.7-3.9c.5-.9 1.3-1.3 2.4-1.4v-.3c-1.2.1-2 .6-2.6 1.6zm2.4-1.4c1.2 0 2 .3 2.7 1h.1a3.1 3.1 0 00-2.8-1.3zm2.7 1c.6.9 1 2.1 1 3.8h.3c0-1.7-.5-3-1.2-3.9zm1 3.8c.2 1.7 0 3-.6 3.9h.3a7 7 0 00.6-4zm-.6 3.9c-.5.8-1.3 1.3-2.4 1.4v.2c1.2 0 2-.6 2.7-1.5zm-2.5.6a2 2 0 001.9-1.2h-.3c-.3.6-.8 1-1.6 1zm1.9-1.2c.3-.7.4-1.8.3-3.2h-.2c0 1.4 0 2.5-.4 3.1zm.3-3.2c0-1.5-.3-2.6-.8-3.2l-.2.1c.4.6.7 1.6.8 3zm-.8-3.2a2 2 0 00-.8-.8l-1.1-.2v.3l1 .1.7.7zm-2-1a2 2 0 00-1.7 1.2l.2.1c.3-.6.8-1 1.6-1zm-1.7 1.2c-.4.8-.5 1.8-.4 3.3h.2c0-1.5 0-2.5.4-3.2zm-.4 3.3c0 1.4.3 2.5.8 3.2l.2-.2c-.4-.6-.7-1.6-.8-3zm.8 3.2a2 2 0 002 1v-.3c-.8 0-1.4-.2-1.8-.9zm7.9.1h-.1zm-.5-7.7h-.1zm5.3-.3h-.1zm.5 7.7l-.2-.1zm-1-.7h.2zm-.4-6.3zm-3.5.2zm.4 6.4v-.1zm1.9 1.7c-1.1.1-2-.3-2.6-1h-.2c.7 1 1.6 1.4 2.8 1.3zm-2.6-1c-.7-.9-1-2.1-1.2-3.8h-.2a7 7 0 001.2 3.9zm-1.2-3.8c0-1.7.2-3 .7-3.8l-.2-.2a7 7 0 00-.7 4zm.7-3.8c.5-1 1.3-1.4 2.4-1.5v-.2c-1.2 0-2 .6-2.6 1.5zm2.4-1.5c1.2 0 2 .3 2.7 1.1l.2-.1a3.1 3.1 0 00-2.9-1.2zm2.7 1.1c.6.8 1 2 1 3.8h.3c0-1.8-.5-3-1.1-4zm1 3.8c.2 1.6 0 3-.6 3.8l.3.1a7 7 0 00.6-4zm-.6 3.8c-.5.9-1.3 1.4-2.4 1.4v.3c1.2-.1 2-.6 2.7-1.6zm-2.5.7a2 2 0 001.9-1.2l-.3-.1c-.3.6-.8 1-1.6 1zm1.9-1.2c.3-.8.4-1.8.3-3.3h-.2c0 1.5 0 2.5-.4 3.2zm.3-3.3c0-1.4-.3-2.5-.8-3.2l-.2.2c.4.6.7 1.6.8 3zm-.8-3.2a2 2 0 00-.8-.7c-.3-.2-.7-.3-1.1-.2v.2c.4 0 .7 0 1 .2.3.1.5.3.7.7zm-2-1a2 2 0 00-1.7 1.3h.2c.3-.6.8-1 1.6-1zm-1.7 1.3c-.4.7-.5 1.8-.4 3.2h.2c0-1.4 0-2.5.4-3.1zm-.4 3.2c0 1.5.3 2.5.8 3.2l.2-.1c-.4-.6-.7-1.7-.8-3zm.8 3.2a2 2 0 002 1v-.3c-.8 0-1.4-.2-1.8-.8zm7.9.1l-.1.1zm-.5-7.7h-.1zm5.3-.3h-.1zm.5 7.7h-.1zm-1-.6h.2zm-.4-6.4v.1zm-3.5.3h.1zm.4 6.3h.1zm1.9 1.8c-1.1 0-2-.3-2.6-1.1l-.2.1c.7.9 1.6 1.3 2.8 1.2zm-2.6-1.1c-.7-.8-1-2-1.2-3.7h-.2a7 7 0 001.2 3.8zm-1.2-3.7c0-1.7.2-3 .7-3.9l-.2-.1a7 7 0 00-.7 4zm.7-3.9c.5-.9 1.3-1.4 2.4-1.4v-.3c-1.2.1-2 .6-2.6 1.6zm2.4-1.4c1.2-.1 2 .3 2.7 1h.2a3.1 3.1 0 00-2.9-1.3zm2.7 1c.6.9 1 2.1 1 3.8h.3c0-1.7-.5-3-1.1-3.9zm1 3.8c.2 1.7 0 3-.5 3.8l.2.2a7 7 0 00.6-4zm-.5 3.8c-.6 1-1.4 1.4-2.5 1.5v.2c1.2 0 2.1-.6 2.7-1.5zm-2.6.7a2 2 0 001.9-1.2h-.3c-.3.6-.8 1-1.6 1zm1.9-1.2c.3-.7.4-1.8.3-3.2h-.2c0 1.4 0 2.4-.4 3.1zm.3-3.2c0-1.5-.3-2.6-.8-3.2l-.2.1c.4.6.7 1.6.8 3zm-.8-3.2a2 2 0 00-.8-.8c-.3-.2-.7-.2-1.1-.2v.3l1 .1.7.7zm-2-1a2 2 0 00-1.7 1.2l.2.1c.3-.6.8-1 1.6-1zm-1.7 1.2c-.4.7-.5 1.8-.4 3.3h.2c0-1.5 0-2.5.4-3.2zm-.4 3.3c0 1.4.3 2.5.8 3.2l.2-.2c-.4-.6-.7-1.6-.8-3zm.8 3.2a2 2 0 002 1v-.3c-.8 0-1.4-.3-1.8-.9z" fill="#263238"/>
  <path d="M436.4 190.2a17 17 0 10-31.8-12.3 17 17 0 0031.8 12.3z" fill="#fff" stroke="#263238" stroke-linecap="round" stroke-linejoin="round"/>
  <path d="M460.6 183.7a17 17 0 10-34-2.3 17 17 0 0034 2.3zM568.9 215.1a39.1 39.1 0 10-20.8-75.4A39.1 39.1 0 00569 215z" fill="#fff" stroke="#263238" stroke-linecap="round" stroke-linejoin="round"/>
  <path d="M597.6 174.6a39.1 39.1 0 10-78.1-4.8 39.1 39.1 0 0078.1 4.8z" fill="#fff" stroke="#263238" stroke-linecap="round" stroke-linejoin="round"/>
  <path d="M590.4 162.8a33.3 33.3 0 00-8.4-14.2z" fill="#fff"/>
  <path d="M590.4 162.8a33.3 33.3 0 00-8.4-14.2" stroke="#263238" stroke-linecap="round" stroke-linejoin="round"/>
  <path d="M562.2 205.2a33.3 33.3 0 0029.4-36.5" fill="#fff"/>
  <path d="M562.2 205.2a33.3 33.3 0 0029.4-36.5" stroke="#263238" stroke-linecap="round" stroke-linejoin="round"/>
  <path d="M577.2 144.7a33.3 33.3 0 10-18.6 60.7" fill="#fff"/>
  <path d="M577.2 144.7a33.3 33.3 0 10-18.6 60.7" stroke="#263238" stroke-linecap="round" stroke-linejoin="round"/>
  <path d="M548.4 189.2a3.1 3.1 0 01-2-3c0-.7.2-1.3.5-1.9.3-.6.8-1 1.5-1.2.7-.3 1.5-.3 2.2-.1l1.4.3 1.9.4a14.3 14.3 0 005-.2c.8 0 1.5-.3 2.2-.5l2-1c.6-.3 1-.8 1.4-1.3a2.4 2.4 0 00.2-2 2.2 2.2 0 00-1.4-1.3c-1-.3-2-.5-3.1-.4h-4.7a51.9 51.9 0 01-7.6-.7c-1-.2-2-.6-2.8-1.2a7.8 7.8 0 01-1.9-2c-.6-1-1-2-1.4-3.2a8.3 8.3 0 012.1-8.2c2.8-2.6 6.3-4.4 10.1-5a22.7 22.7 0 019.2 0c.8.1 1.5.5 2 1 .6.5 1 1 1 1.7.1.6 0 1.3-.1 1.9a2.3 2.3 0 01-1.2 1.5c-.7.3-1.5.5-2.3.4a20.8 20.8 0 00-9.2.8c-.8.2-1.6.7-2.2 1.2a1.8 1.8 0 00-.6 1.8 2.2 2.2 0 001.3 1.5c1 .3 2 .4 3 .4l4.6-.1c1.6 0 3.2 0 4.8.2 1.3.1 2.5.5 3.7 1 1.1.4 2.1 1.1 3 2a10.8 10.8 0 011.4 10c-.8 2.1-2.3 3.8-4 5a19.8 19.8 0 01-7 2.8c-4.3 1-8.8.9-13-.6zm.6-38.2a2 2 0 01.3-1.8c.3-.5.8-.9 1.3-1 .6-.1 1.2 0 1.7.2a2.1 2.1 0 011 1.5l2.2 8-4.3 1.1zm10.6 37.3l4.4-1.1 2.1 7.9a2 2 0 01-.6 2.2 2.4 2.4 0 01-2.2.6 2.1 2.1 0 01-1.6-1.7z" fill="#263238"/>
  <path d="M526.2 194v5M529.7 199v5.3M536.7 204.9v5M546.6 209.8v4.4M557.3 211.9v2M578.6 211v-3.2M583.3 207.8v-5" stroke="#263238" stroke-linecap="round" stroke-linejoin="round"/>
  <path d="M509.4 248a39.1 39.1 0 10-13.5-77 39.1 39.1 0 0013.5 77z" fill="#fff" stroke="#263238" stroke-linecap="round" stroke-linejoin="round"/>
  <path d="M509.4 242.8a39.1 39.1 0 10-13.5-77 39.1 39.1 0 0013.5 77z" fill="#fff" stroke="#263238" stroke-linecap="round" stroke-linejoin="round"/>
  <path d="M531 221.7a33.3 33.3 0 10-56.7-34.8 33.3 33.3 0 0056.7 34.8z" fill="#fff" stroke="#263238" stroke-linecap="round" stroke-linejoin="round"/>
  <path d="M483.3 208.7a3.1 3.1 0 01.9-3.6c.4-.4 1-.7 1.6-.9.6-.1 1.3 0 1.9.2.7.4 1.3 1 1.7 1.6 0 .2.3.5.7 1.2l1 1.7 1.5 1.7c.6.7 1.4 1.3 2.2 1.8.5.5 1.2.9 1.8 1.2l2 .8c.7.2 1.4.2 2 0a2.4 2.4 0 001.5-1.1 2.2 2.2 0 000-2c-.4-1-1-1.8-1.8-2.6l-3.2-3.4a71.5 71.5 0 01-4.7-6c-.6-.8-1-1.8-1-2.8-.2-.9-.2-1.8 0-2.8.3-1 .8-2.1 1.4-3.1a8.3 8.3 0 017.4-4.2c3.8.2 7.5 1.6 10.5 4a21 21 0 016.4 6.6c.5.6.7 1.4.7 2.2 0 .6-.2 1.3-.6 1.8-.4.5-.9 1-1.5 1.2a2.3 2.3 0 01-1.8.1c-.8-.3-1.4-.7-1.9-1.4-1.4-1.7-3-3.4-4.8-4.8l-2.2-1.3c-.7-.4-1.5-.6-2.3-.7a1.8 1.8 0 00-1.8.8 2.1 2.1 0 00-.2 2c.5 1 1 1.8 1.9 2.4l3.2 3.3a43 43 0 013.2 3.7 14 14 0 011.8 3.3c.5 1.1.6 2.4.5 3.6a9.8 9.8 0 01-1.4 3.7c-1 2-2.8 3.5-4.8 4.3-2 .8-4.3 1-6.4.4-2.4-.5-4.8-1.6-6.8-3a22.6 22.6 0 01-8.6-9.9zm28.2-25.8a2.1 2.1 0 011.5-1.1c.5-.1 1.1 0 1.6.3s.8.8 1 1.3a2.1 2.1 0 01-.3 1.8l-4.3 7-3.8-2.4zm-19.9 33.4l4 2.3-4.3 7a2 2 0 01-2 1.2 2.3 2.3 0 01-2-1.2 2 2 0 01.1-2.3z" fill="#263238"/>
  <path d="M470.3 226.2v5M473.8 231.2v5.2M480.8 237v5M490.7 242v4.3M501.5 244v2M522.7 243.1v-3.2M527.4 240v-5" stroke="#263238" stroke-linecap="round" stroke-linejoin="round"/>
  <path d="M510.7 239.8a39.1 39.1 0 10-16.1-76.6 39.1 39.1 0 0016 76.6z" fill="#fff" stroke="#263238" stroke-linecap="round" stroke-linejoin="round"/>
  <path d="M510.7 234.6a39.1 39.1 0 10-16.1-76.6 39.1 39.1 0 0016 76.6z" fill="#fff" stroke="#263238" stroke-linecap="round" stroke-linejoin="round"/>
  <path d="M510.3 228.7a33.3 33.3 0 10-15.4-64.7 33.3 33.3 0 0015.4 64.7z" fill="#fff" stroke="#263238" stroke-linecap="round" stroke-linejoin="round"/>
  <path d="M483.3 200.7a3.2 3.2 0 01.9-3.6c.4-.4 1-.7 1.6-.9.6-.2 1.3-.1 1.9.2.7.4 1.3 1 1.7 1.6l.7 1.2 1 1.6 1.5 1.7c.6.7 1.4 1.3 2.2 1.9l1.8 1.1 2 .9c.7.2 1.4.2 2 0a2.5 2.5 0 001.5-1.1 2.2 2.2 0 000-2c-.4-1-1-1.8-1.8-2.5l-3.2-3.5a70.7 70.7 0 01-4.8-6c-.5-.9-.9-1.8-1-2.8-.1-1-.1-1.9.1-2.8.3-1.1.8-2.2 1.4-3.2a8.2 8.2 0 017.3-4.1 18 18 0 0110.6 3.9 20.9 20.9 0 016.3 6.7c.5.6.7 1.4.7 2.2 0 .7-.2 1.3-.6 1.9-.4.5-.9.9-1.5 1.2a2.3 2.3 0 01-1.8 0c-.8-.2-1.4-.7-1.9-1.3a27.3 27.3 0 00-6.8-6.2c-.7-.4-1.6-.6-2.4-.7a1.8 1.8 0 00-1.7.8 2.2 2.2 0 00-.2 2c.4 1 1 1.8 1.7 2.4l3.3 3.3c1.1 1.2 2.2 2.4 3.1 3.7.8 1 1.4 2.1 1.9 3.3.5 1.1.6 2.4.5 3.6a9.9 9.9 0 01-1.4 3.7c-1 2-2.8 3.5-4.8 4.3-2 .8-4.3 1-6.4.4a22.5 22.5 0 01-15.4-13zm28.2-25.9a2.2 2.2 0 013-.8 2.4 2.4 0 011.1 2.3l-.3.9-4.3 7-3.8-2.4zm-19.9 33.4l4 2.4-4.4 7a2 2 0 01-2 1 2.3 2.3 0 01-2.2-2.3c0-.4.1-.8.4-1.1z" fill="#263238"/>
  <path d="M470.3 218.2v5M473.8 223.1v5.3M480.8 229v5M490.7 233.9v4.4M501.5 236v2M522.7 235V232M527.4 231.9v-5" stroke="#263238" stroke-linecap="round" stroke-linejoin="round"/>
  <path d="M535.6 214.5a39.1 39.1 0 10-66-42.1 39.1 39.1 0 0066 42.1z" fill="#fff" stroke="#263238" stroke-linecap="round" stroke-linejoin="round"/>
  <path d="M535.6 209.3a39.1 39.1 0 10-66-42.2 39.1 39.1 0 0066 42.2z" fill="#fff" stroke="#263238" stroke-linecap="round" stroke-linejoin="round"/>
  <path d="M534.1 198.9a33.3 33.3 0 10-63-21.5 33.3 33.3 0 0063 21.5z" fill="#fff" stroke="#263238" stroke-linecap="round" stroke-linejoin="round"/>
  <path d="M483.3 192.6a3.2 3.2 0 01.8-3.6c.5-.4 1.1-.7 1.7-.9.6-.2 1.3-.1 1.9.2.7.4 1.3 1 1.7 1.6a35 35 0 011.7 2.8l1.5 1.7c.6.7 1.4 1.3 2.2 1.9l1.8 1.1 2 .9h2a2.4 2.4 0 001.5-1.2 2.2 2.2 0 000-2c-.4-.9-1-1.8-1.8-2.5l-3.2-3.4a79.9 79.9 0 01-4.7-6c-.6-.8-1-1.8-1-2.8-.2-1-.2-1.9 0-2.8a10.4 10.4 0 014.5-6.2c1.3-.8 2.8-1.1 4.3-1.1a18 18 0 0110.5 3.9 22 22 0 016.4 6.6c.5.7.7 1.4.7 2.2 0 .7-.2 1.3-.6 1.9-.4.5-.9.9-1.5 1.2a2.3 2.3 0 01-1.8 0c-.8-.2-1.4-.7-1.9-1.3-1.4-1.8-3-3.4-4.8-4.8-.7-.5-1.4-1-2.2-1.3-.7-.4-1.5-.7-2.3-.7a1.8 1.8 0 00-1.8.7 2.2 2.2 0 00-.2 2c.5 1 1 1.8 1.9 2.5l3.2 3.3a43 43 0 013.2 3.6c.7 1 1.4 2.2 1.8 3.4.5 1.1.6 2.3.5 3.5a9.8 9.8 0 01-1.4 3.8c-1 2-2.8 3.4-4.8 4.3-2 .7-4.3.9-6.4.4-2.4-.6-4.8-1.6-6.8-3.1a22.7 22.7 0 01-8.6-9.8zm28.2-25.9a2.1 2.1 0 011.5-1c.5-.2 1.1 0 1.6.2.5.3.8.8 1 1.4a2.1 2.1 0 01-.3 1.8l-4.2 7-3.9-2.4zm-19.9 33.4l4 2.4-4.4 7a2.1 2.1 0 01-2 1 2.3 2.3 0 01-2.2-2.3c0-.4.1-.8.4-1.1z" fill="#263238"/>
  <path d="M470.3 210v5M473.8 215v5.3M480.8 220.9v5M490.7 225.8v4.4M501.5 227.8v2M522.7 227v-3.2M527.4 223.8v-5" stroke="#263238" stroke-linecap="round" stroke-linejoin="round"/>
  <path d="M509.4 224.6a39.1 39.1 0 10-13.5-77 39.1 39.1 0 0013.5 77z" fill="#fff" stroke="#263238" stroke-linecap="round" stroke-linejoin="round"/>
  <path d="M509.2 219.4a39.1 39.1 0 10-13-77.1 39.1 39.1 0 0013 77.1z" fill="#fff" stroke="#263238" stroke-linecap="round" stroke-linejoin="round"/>
  <path d="M534 191.6a33.3 33.3 0 10-62.9-21.5 33.3 33.3 0 0063 21.5z" fill="#fff" stroke="#263238" stroke-linecap="round" stroke-linejoin="round"/>
  <path d="M483.3 185.4a3.2 3.2 0 01.9-3.6c.4-.5 1-.8 1.6-1 .6-.1 1.3 0 1.9.3.7.3 1.3.9 1.7 1.6l.7 1.1 1 1.7 1.5 1.7c.6.7 1.4 1.3 2.2 1.8.5.5 1.2.9 1.8 1.2l2 .8c.7.2 1.4.3 2 .1a2.5 2.5 0 001.5-1.2 2.2 2.2 0 000-1.9c-.4-1-1-1.8-1.8-2.6l-3.2-3.4a70.6 70.6 0 01-4.7-6c-.6-.8-1-1.8-1-2.8-.2-.9-.2-1.8 0-2.7a10.5 10.5 0 014.5-6.3c1.3-.7 2.8-1.1 4.3-1 3.8 0 7.5 1.5 10.5 3.8a21 21 0 016.4 6.7c.5.6.7 1.4.7 2.1 0 .7-.2 1.4-.6 2-.4.4-.9.8-1.5 1.1a2.3 2.3 0 01-1.8.1c-.8-.3-1.4-.7-1.9-1.4a27.8 27.8 0 00-7-6c-.7-.5-1.5-.8-2.3-.8a1.8 1.8 0 00-1.8.8 2.2 2.2 0 00-.2 2c.5 1 1 1.8 1.9 2.4l3.2 3.3 3.2 3.7c.7 1 1.4 2.1 1.8 3.3.5 1.1.6 2.4.5 3.6a9.9 9.9 0 01-1.4 3.7c-1 2-2.8 3.5-4.8 4.3-2 .8-4.3 1-6.4.4-2.4-.6-4.8-1.6-6.8-3a22.5 22.5 0 01-8.6-10zm28.2-26a2.2 2.2 0 013-.7c.6.3 1 .8 1 1.4a2.1 2.1 0 01-.2 1.8l-4.3 7-3.8-2.4zm-19.9 33.4l4 2.4-4.4 7a2 2 0 01-2 1 2.3 2.3 0 01-2.2-2.3c0-.4.1-.8.4-1.1z" fill="#263238"/>
  <path d="M470.3 202.8v5M473.8 207.7v5.3M480.8 213.6v5M490.7 218.5v4.4M501.5 220.6v2M522.7 219.7v-3.2M527.4 216.5v-5" stroke="#263238" stroke-linecap="round" stroke-linejoin="round"/>
  <path d="M509.4 217.4a39.1 39.1 0 10-13.5-77.1 39.1 39.1 0 0013.5 77z" fill="#fff" stroke="#263238" stroke-linecap="round" stroke-linejoin="round"/>
  <path d="M509.4 212.1a39.1 39.1 0 10-13.5-77 39.1 39.1 0 0013.5 77z" fill="#fff" stroke="#263238" stroke-linecap="round" stroke-linejoin="round"/>
  <path d="M534 184.3a33.3 33.3 0 10-62.9-21.5 33.3 33.3 0 0063 21.5z" fill="#fff" stroke="#263238" stroke-linecap="round" stroke-linejoin="round"/>
  <path d="M483.3 178a3.1 3.1 0 01.9-3.6c.4-.4 1-.7 1.6-.9.6-.2 1.3-.1 1.9.2.7.4 1.3 1 1.7 1.6l.7 1.2 1 1.6 1.5 1.7c.6.7 1.4 1.3 2.2 1.9l1.8 1.1 2 .9h2a2.5 2.5 0 001.5-1.2 2.1 2.1 0 000-2c-.4-.9-1-1.8-1.8-2.5l-3.2-3.4a70 70 0 01-4.7-6c-.6-.8-1-1.8-1-2.8-.2-1-.2-1.9 0-2.8.3-1.1.8-2.2 1.4-3.1a8.3 8.3 0 017.4-4.2c3.8.2 7.5 1.5 10.5 3.9a21 21 0 016.4 6.6c.5.7.7 1.4.7 2.2 0 .7-.2 1.3-.6 1.9-.4.5-.9.9-1.5 1.2a2.3 2.3 0 01-1.8 0c-.8-.2-1.4-.7-1.9-1.3-1.4-1.8-3-3.4-4.8-4.8a25 25 0 00-2.2-1.3c-.7-.4-1.5-.7-2.3-.7a1.8 1.8 0 00-1.8.8 2.1 2.1 0 00-.2 2c.5.9 1 1.7 1.9 2.4l3.2 3.3 3.2 3.6a14 14 0 011.8 3.4c.5 1.1.6 2.3.5 3.5a9.8 9.8 0 01-1.4 3.8c-1 2-2.8 3.4-4.8 4.3-2 .7-4.3.9-6.4.4-2.4-.6-4.8-1.6-6.8-3.1a22.6 22.6 0 01-8.6-9.8zm28.2-25.9a2.1 2.1 0 011.5-1c.5-.2 1.1 0 1.6.2.5.4.8.8 1 1.4a2.1 2.1 0 01-.3 1.8l-4.2 7-3.9-2.4zm-19.9 33.4l4 2.4-4.4 7a2.1 2.1 0 01-2 1 2.3 2.3 0 01-2.2-2.2c0-.5.1-.9.4-1.2z" fill="#263238"/>
  <path d="M470.3 195.5v5M473.8 200.4v5.3M480.8 206.3v5M490.7 211.2v4.4M501.5 213.3v2M522.7 212.4v-3.2M527.4 209.2v-5" stroke="#263238" stroke-linecap="round" stroke-linejoin="round"/>
  <path d="M509.4 210a39.1 39.1 0 10-13.5-77 39.1 39.1 0 0013.5 77z" fill="#fff" stroke="#263238" stroke-linecap="round" stroke-linejoin="round"/>
  <path d="M509.4 204.8a39.1 39.1 0 10-13.5-77 39.1 39.1 0 0013.5 77z" fill="#fff" stroke="#263238" stroke-linecap="round" stroke-linejoin="round"/>
  <path d="M500.8 199.5a33.3 33.3 0 0019.2-61.6l-.8-.4" fill="#fff"/>
  <path d="M500.8 199.5a33.3 33.3 0 0019.2-61.6l-.8-.4" stroke="#263238" stroke-linecap="round" stroke-linejoin="round"/>
  <path d="M485.3 194.6c3.8 2.4 8 4 12.5 4.6z" fill="#fff"/>
  <path d="M485.3 194.6c3.8 2.4 8 4 12.5 4.6" stroke="#263238" stroke-linecap="round" stroke-linejoin="round"/>
  <path d="M516 135.8a33.3 33.3 0 00-35.1 55.6" fill="#fff"/>
  <path d="M516 135.8a33.3 33.3 0 00-35.1 55.6" stroke="#263238" stroke-linecap="round" stroke-linejoin="round"/>
  <path d="M483.3 170.7a3.1 3.1 0 01.8-3.6c.5-.4 1.1-.7 1.7-.9.6-.2 1.3-.1 1.9.2.7.4 1.3 1 1.7 1.6a35.5 35.5 0 011.7 2.8l1.5 1.7c.6.7 1.4 1.3 2.2 1.9l1.8 1.1 2 .9c.7.2 1.4.2 2 0a2.4 2.4 0 001.5-1.2 2.2 2.2 0 000-2c-.4-.9-1-1.8-1.8-2.5l-3.2-3.3a79.2 79.2 0 01-4.8-6c-.5-.8-.9-1.8-1-2.8-.1-1-.1-1.9.1-2.8.3-1 .8-2.2 1.4-3.1a8.3 8.3 0 017.3-4.2c3.9.2 7.6 1.5 10.6 4a20.9 20.9 0 016.4 6.6c.4.6.7 1.4.7 2.1 0 .7-.2 1.4-.6 2l-1.5 1.1a2.3 2.3 0 01-1.9.1c-.7-.3-1.4-.7-1.8-1.4a28 28 0 00-4.9-4.8L505 157c-.7-.4-1.5-.7-2.4-.7a1.8 1.8 0 00-1.7.8 2.2 2.2 0 00-.2 2c.4 1 1 1.7 1.8 2.4l3.3 3.3 3.1 3.6c.8 1 1.4 2.2 1.9 3.4.4 1.1.6 2.4.4 3.6a9.8 9.8 0 01-1.3 3.7c-1.1 2-2.8 3.5-4.9 4.3-2 .8-4.2 1-6.3.4a20 20 0 01-6.9-3 22.7 22.7 0 01-8.5-10zm28.2-25.9a2.1 2.1 0 011.5-1c.5-.2 1.1 0 1.6.2.5.4.8.8 1 1.4a2.1 2.1 0 01-.3 1.8l-4.3 7-3.8-2.4zm-19.9 33.4l4 2.4-4.4 7a2.1 2.1 0 01-2 1.1 2.3 2.3 0 01-2.2-2.3c0-.5.1-.9.4-1.2z" fill="#263238"/>
  <path d="M470.3 188.2v5M473.8 193.1v5.3M480.8 199v5M490.7 204v4.3M501.5 206v2M522.7 205V202M527.4 201.9v-5" stroke="#263238" stroke-linecap="round" stroke-linejoin="round"/>
  <path d="M607.7 274.8a39.1 39.1 0 10-77-13.4 39.1 39.1 0 0077 13.4z" fill="#fff" stroke="#263238" stroke-linecap="round" stroke-linejoin="round"/>
  <path d="M585 298.6a39.1 39.1 0 10-31.7-71.5 39.1 39.1 0 0031.8 71.5z" fill="#fff" stroke="#263238" stroke-linecap="round" stroke-linejoin="round"/>
  <path d="M597.3 273.2a33.1 33.1 0 10-63.2-20 33.1 33.1 0 0063.2 20z" fill="#fff" stroke="#263238" stroke-linecap="round" stroke-linejoin="round"/>
  <path d="M559 280c-.6-.3-1-.8-1.4-1.4a3 3 0 01-.5-1.8c0-.6.2-1.2.5-1.8.3-.6.8-1 1.4-1.2.8-.3 1.6-.3 2.3-.1l1.4.3 1.9.4a14.2 14.2 0 005-.2c.8 0 1.5-.3 2.2-.5l2-1c.6-.3 1-.7 1.4-1.3a2.4 2.4 0 00.2-2 2.2 2.2 0 00-1.4-1.3c-1-.3-2-.5-3.1-.4h-4.7a52 52 0 01-7.6-.7c-1-.2-2-.6-2.8-1.2a7.8 7.8 0 01-1.9-2c-.6-1-1-2-1.4-3.2a8.3 8.3 0 012.1-8.2c2.8-2.6 6.3-4.4 10.1-5a22.9 22.9 0 019.2 0c.8.1 1.5.5 2 1 .6.5.9 1 1 1.7.1.6 0 1.3-.1 1.9a2.3 2.3 0 01-1.2 1.4c-.7.4-1.5.5-2.3.4a20.8 20.8 0 00-9.2.8c-.8.3-1.6.7-2.2 1.3a1.8 1.8 0 00-.6 1.7 2.2 2.2 0 001.3 1.5c1 .3 2 .5 3 .4l4.6-.1c1.6 0 3.2 0 4.8.2 1.3.2 2.5.5 3.7 1 1.1.4 2.1 1.2 2.9 2.1a10.8 10.8 0 011.5 10c-.8 2-2.3 3.7-4 5a19.8 19.8 0 01-7 2.8c-4.4 1-8.9.9-13-.6zm.7-38.3a2.1 2.1 0 01.2-1.8c.4-.5.8-.8 1.4-1 .6-.1 1.2 0 1.7.2a2.1 2.1 0 011 1.5l2.2 8-4.4 1.1zm10.6 37.3l4.4-1.1 2 7.9a2.1 2.1 0 01-.5 2.2 2.3 2.3 0 01-3.3 0 2 2 0 01-.5-1z" fill="#263238"/>
  <path d="M536.8 284.8v5M540.3 289.8v5.2M547.3 295.6v5M557.2 300.5v4.4M568 302.6v2M589.3 301.7v-3.2M594 298.5v-5" stroke="#263238" stroke-linecap="round" stroke-linejoin="round"/>
  <path d="M602.5 281.2a39.1 39.1 0 10-66.6-41 39.1 39.1 0 0066.6 41z" fill="#fff" stroke="#263238" stroke-linecap="round" stroke-linejoin="round"/>
  <path d="M608.2 259a39.1 39.1 0 10-78-7 39.1 39.1 0 0078 7z" fill="#fff" stroke="#263238" stroke-linecap="round" stroke-linejoin="round"/>
  <path d="M599.4 269.4a33.3 33.3 0 00-10.7-40.7" fill="#fff"/>
  <path d="M599.4 269.4a33.3 33.3 0 00-10.7-40.7" stroke="#263238" stroke-linecap="round" stroke-linejoin="round"/>
  <path d="M582 224.8a33.3 33.3 0 1015 48.8" fill="#fff"/>
  <path d="M582 224.8a33.3 33.3 0 1015 48.8" stroke="#263238" stroke-linecap="round" stroke-linejoin="round"/>
  <path d="M559 272.6a3 3 0 01-1.4-1.3c-.4-.6-.5-1.2-.5-1.8 0-.7.2-1.3.5-1.8.3-.6.8-1 1.4-1.3.8-.2 1.6-.2 2.3 0l1.4.2 1.9.4 2.2.2c1 0 2-.1 2.9-.4a14.8 14.8 0 004.1-1.5c.6-.2 1-.7 1.4-1.3a2.4 2.4 0 00.2-1.9 2.1 2.1 0 00-1.4-1.3c-1-.4-2-.6-3.1-.5h-4.7a52 52 0 01-7.6-.7c-1-.2-2-.6-2.8-1.1a7.6 7.6 0 01-1.9-2 10.3 10.3 0 01-1.4-7.6 8.3 8.3 0 012.1-3.8c2.8-2.7 6.3-4.4 10.1-5a21.3 21.3 0 016.6-.5c.7 0 1.5.2 2.6.4.8.1 1.5.5 2 1 .6.5.9 1.1 1 1.8.1.6 0 1.2-.1 1.8a2.4 2.4 0 01-1.2 1.5c-.7.3-1.5.5-2.3.4-2.3-.2-4.6-.2-6.8.2l-2.4.6c-.8.3-1.6.7-2.2 1.3a1.8 1.8 0 00-.6 1.7 2.1 2.1 0 001.3 1.5c1 .4 2 .5 3 .4h4.6c1.6-.1 3.2 0 4.8.1 1.3.2 2.5.5 3.7 1 1.1.4 2.1 1.2 2.9 2.1a10.8 10.8 0 011.5 10c-.8 2-2.3 3.7-4 5a19.5 19.5 0 01-7 2.8c-4.4 1-8.9.8-13-.6zm.7-38.3a2.1 2.1 0 01.2-1.8 2.3 2.3 0 013.8-.1c.2.2.3.5.3.8l2.2 8-4.4 1.2zm10.6 37.4l4.4-1.2 2 7.9a2.1 2.1 0 01-.5 2.2 2.3 2.3 0 01-2.2.6 2 2 0 01-1.6-1.6z" fill="#263238"/>
  <path d="M536.8 277.4v5M540.3 282.4v5.2M547.3 288.2v5M557.2 293.2v4.3M568 295.2v2M589.3 294.3v-3.2M594 291.1v-5" stroke="#263238" stroke-linecap="round" stroke-linejoin="round"/>
  <path d="M528 321.5a39.1 39.1 0 10-44.1-64.6 39.1 39.1 0 0044.2 64.6z" fill="#fff" stroke="#263238" stroke-linecap="round" stroke-linejoin="round"/>
  <path d="M515.2 322a39.1 39.1 0 10-18.5-76 39.1 39.1 0 0018.5 76z" fill="#fff" stroke="#263238" stroke-linecap="round" stroke-linejoin="round"/>
  <path d="M521.3 313.5a33.2 33.2 0 00-1.1-59.6" fill="#fff"/>
  <path d="M521.3 313.5a33.2 33.2 0 00-1.1-59.6" stroke="#263238" stroke-linecap="round" stroke-linejoin="round"/>
  <path d="M505.7 317.2c3.5 0 7-.4 10.4-1.5z" fill="#fff"/>
  <path d="M505.7 317.2c3.5 0 7-.4 10.4-1.5" stroke="#263238" stroke-linecap="round" stroke-linejoin="round"/>
  <path d="M488.7 312.3c3.7 2.3 7.9 3.8 12.2 4.5z" fill="#fff"/>
  <path d="M488.7 312.3c3.7 2.3 7.9 3.8 12.2 4.5" stroke="#263238" stroke-linecap="round" stroke-linejoin="round"/>
  <path d="M515.3 252a33.3 33.3 0 00-34.9 53.2" fill="#fff"/>
  <path d="M515.3 252a33.3 33.3 0 00-34.9 53.2" stroke="#263238" stroke-linecap="round" stroke-linejoin="round"/>
  <path d="M486.7 288.4c-.3-.6-.3-1.3-.2-2 .2-.6.5-1.2 1-1.6.5-.4 1-.7 1.7-.9.6-.2 1.3-.1 1.8.2.7.4 1.3 1 1.7 1.6a32.6 32.6 0 011.7 2.8l1.5 1.7 2.2 1.9 1.9 1.1c.6.4 1.3.6 2 .9h2a2.5 2.5 0 001.5-1.2 2.1 2.1 0 000-2c-.4-1-1.1-1.8-2-2.5l-3.1-3.4a70.1 70.1 0 01-4.8-6c-.5-.9-.9-1.8-1-2.8-.2-1-.1-1.9.1-2.8.3-1.1.7-2.2 1.4-3.2a8.3 8.3 0 017.3-4.1c3.9.2 7.6 1.5 10.6 3.9a21.6 21.6 0 016.4 6.6c.4.7.7 1.4.6 2.2a3 3 0 01-.6 1.9c-.3.5-.9 1-1.4 1.2a2.3 2.3 0 01-2 0c-.6-.2-1.3-.7-1.8-1.3-1.4-1.8-3-3.4-4.8-4.8l-2.1-1.3c-.8-.4-1.6-.7-2.4-.7a1.7 1.7 0 00-1.7.7 2.1 2.1 0 00-.3 2 8 8 0 001.9 2.5l3.2 3.3c1.2 1.1 2.2 2.4 3.2 3.6a14 14 0 011.8 3.4c.5 1.1.7 2.3.5 3.5a10.8 10.8 0 01-6.2 8c-2 .8-4.2 1-6.3.5a22.7 22.7 0 01-15.3-12.9zm28.1-25.9a2.2 2.2 0 011.5-1 2.3 2.3 0 012.6 1.6 2.1 2.1 0 01-.3 1.8l-4.3 7-3.8-2.3zM495 296l4 2.4-4.4 7a2 2 0 01-2 1 2.4 2.4 0 01-2-1 2.1 2.1 0 01.1-2.4z" fill="#263238"/>
  <path d="M473.6 305.9v5M477.1 310.8v5.3M484.1 316.7v5M494 321.6v4.4M504.8 323.7v2M526 322.8v-3.2M530.7 319.6v-5" stroke="#263238" stroke-linecap="round" stroke-linejoin="round"/>
</svg>
