<svg width="526" height="495" fill="none" xmlns="http://www.w3.org/2000/svg">
  <path d="M263 494.7c145.3 0 263-65.5 263-146.2 0-80.7-117.7-146.2-263-146.2S0 267.8 0 348.5c0 80.7 117.7 146.2 263 146.2z" fill="#F5F5F5"/>
  <path d="M186.2 363.9c-44 25.4-44 66.6 0 92 44 25.3 115.3 25.3 159.3 0 44-25.5 44-66.7 0-92-44-25.4-115.3-25.4-159.3 0zM76 252.6C41 272.8 41 305.4 76 325.5c34.8 20.1 91.3 20.1 126.1 0 34.9-20.1 34.9-52.7 0-72.9-34.8-20-91.3-20-126.1 0z" fill="#E0E0E0"/>
  <path d="M169.6 324c-20 11.5-20 30.2 0 41.7a79.8 79.8 0 0072.2 0c20-11.5 20-30.2 0-41.7a79.8 79.8 0 00-72.2 0zM336.2 316.6a57 57 0 0042.9 3.2c21-7.1 28.9-20.3 40.5-26.3 11.6-6 24.1-9.5 31.4-13.7 7.3-4.2-.8-7.2-10.9-8.1-10-1-19 3.4-27.5.1s-40.5-14.2-61.2-5.4c-20.7 8.8-41.5 26.4-41.6 32.6 0 6.4 9.6 11.6 20.8 12 1.4 2.2 3.3 4.2 5.6 5.6z" fill="#E0E0E0"/>
  <path d="M414 289c-7.5 4.7-13.4 11-21.5 15.6-20 11.4-30 12-41.6 9.9l21.6-21.4s32.2-13.4 35-15.7c2.5-2 2.6-7 6-7.7 3.8-1 6.5 1 9 3.4 2.5 2.3 5.4 3.1 11.2 1 5.7-2 11.3-4.7 13.7-3.6 2.3 1.1.7 3-9.4 7.6-5.8 2.6-13 6-17.9 7.6-3 1-8.7 5.2-11.5 7" fill="#FFA8A7"/>
  <path d="M450.2 271.3c1.1-1.5-2.4-5.5-8.7-6.2-4-.5-8 0-11.8 1.4a15.3 15.3 0 01-10.3 0c-5-2.3-6.5-1.8-6.3 1.4 0 0-.7 3.6 3.5 5a92.5 92.5 0 0033.6-1.6z" fill="#37474F"/>
  <path d="M409.8 276.7c2.1 3.7 7 2.6 11 1.8 4-.7 18.1-4.5 20-1.8 3.8-1.4 7.6-3.6 9.4-5.4 0 0-1-4-9-2-5.3 1.2-14.8 1.9-17.8 1.5-3.9-.4-9.1-4-13.1-2.3-1.7 2.4-1 4.7-.5 8.2z" fill="#9BD100"/>
  <path opacity=".6" d="M409.8 276.7c2.1 3.7 7 2.6 11 1.8 4-.7 18.1-4.5 20-1.8 3.8-1.4 7.6-3.6 9.4-5.4 0 0-1-4-9-2-5.3 1.2-14.8 1.9-17.8 1.5-3.9-.4-9.1-4-13.1-2.3-1.7 2.4-1 4.7-.5 8.2z" fill="#fff"/>
  <path d="M316.4 285c3.5-11.3 13.3-17.8 21.9-25.2 8.6-7.3 22.4-19.4 22.4-19.4l46.9-9.5c3 6.2 6.6 19 6.6 28 0 8.4-1.3 18.5-16 29.5-9 6.6-16 14.2-22.7 17.7-7.2 3.8-17.3 11.9-30.2 7-6-2.2-9-8-7.4-13.3l-3 .2h-3c-2.9 0-5.8-.4-8.5-1.3-6.2-2.3-9.1-7.3-7-13.8z" fill="#FFA8A7"/>
  <path d="M334.9 300l3-.2c5.4-11.6 33.7-34 35.3-35.3v-.1l-.2-.2-1-1.6a44.5 44.5 0 00-4-6.7c.6 2.6 1.5 5.2 2.6 7.7-3.6 3.3-20.7 17.8-24.8 21.7a39.9 39.9 0 00-11 14.6zM367.9 309.1a43 43 0 0024.7-15.2c5-8.3-3.3-2.2-3.3-2.2S374 306 367.9 309z" fill="#F28F8F"/>
  <path d="M410.6 237.6l-53 5.3s-26 19.6-35.1 31c0 0 9.4.2 15.9 4.8s8.1 9.6 8.1 9.6 6-2 15.6 3c5.5 2.8 9.9 7.5 12.3 13.2l10.6-6.3a74.2 74.2 0 0024.7-20.5c7.4-10.6 5.6-32.3.9-40z" fill="#455A64"/>
  <path d="M371.9 262.6a44 44 0 00-4-6.7c.7 2.6 1.6 5.2 2.7 7.7-3.6 3.3-20.7 17.8-24.8 21.7l-.5.4c.5.8 1 1.7 1.2 2.6 9.4-10 25.6-23 26.7-23.9l-.1-.2-1.2-1.6zM387.4 188.7l.3-.1c17-8 23.8-26.8 23-44.7a47.2 47.2 0 00-3.4-16.5 28 28 0 00-10.7-12.9c-3.8-2.2-8-3.5-12.4-3.7-3.9-.3-9-.2-12.7 1.3-1.6.7-1.9.5-3.6.1-1.3-.3-2.7-.4-4-.2a14 14 0 00-9.3 5.4c-3.1 3.9-4.4 10-2.4 14.3 1 2.2 3.5 5.3 3.4 7.4-.2 3-2.4 5.3-4.8 8-2.4 2.5-5 4.4-6.2 8.2-1 3.3-1.1 10.2 6.2 12.9-10.7 14-.2 21.6 5.6 23.6 3.9 1.4 8 2 12 1.5 6.5-.8 13.1-1.8 19-4.6z" fill="#37474F"/>
  <path d="M350.7 212.6c6.3-6.5 17.6-21 17.6-21l6.4-22.1h-4.3c-7 .4-8.9 1-13.2 5.7-3.4 3.7-16.5 21.5-21 27.5l-12-15.3c-2.8-4.4-2.4-9.2-3.9-12.8-1.5-3.5-3.9-5.1-5.8-8.3-2-3.2-2.4-5.3-4-3.7-1.6 1.6.3 6 .5 7 .2 1.1 2.6 4-1.4 2.5s-10.3-9-11.9-10.4c-1.6-1.5-2.4.8-2 2.6.3 1.9-1.4 6-.8 9.1.6 3.3 1 4.8 4.2 8 3 2.8 10.1 6.4 12.9 10.3 2.8 3.8 8.7 15.8 12.4 23 4.6 9.2 8.5 12.2 13.7 9.1 5.2-3 10.4-8.9 12.6-11.2z" fill="#FFA8A7"/>
  <path d="M336.2 202.7c2.3 2.1 3.9 5 4.4 8 0 0 1.3-4.4-3.3-9.4l-1 1.4z" fill="#F28F8F"/>
  <path d="M358.9 208.4c-8.5-7-5.7-16-2.6-22.1 6.2-12.3 12.6-17.1 15.3-17h16.9c8 1.2 14.3.6 16.3 1.1 5 1.2 5 5.3 5.2 10.6.2 5.7.9 5.1-.7 14.7 0 0-2.3 7.4-3.2 10.8-.9 3.3-2.6 8.4-1.2 13.8.5 2 2 4 4 9.8 2 4.7 3.4 9.6 4.4 14.5 0 0-11.6 10.7-35.7 7.3-17.7-2.5-21.2-8.4-21.2-8.4l3.4-20.6-1-14.5z" fill="#9BD100"/>
  <path opacity=".1" d="M369.9 206.6s7 5.6 15 3a13.7 13.7 0 009.4-9.8s.7 9.2-9.5 12.2a13.3 13.3 0 01-15-5.4z" fill="#000"/>
  <path d="M430.5 152.4c-3.6-4.4-13.5-15.7-15.3-18a10.2 10.2 0 00-4.2-3.1 11 11 0 01-4-2.5c-.7-.7-2.2-3.6-2.8-4.4-1.8-2.3-4-4.4-6.4-6-2.9-2-5.6-3-8.5-4.8-1.7-1.1-3.8-2.3-2-4.1.6-.6 1.4-1 2.2-1.2 4-.8 8.3.5 13.3 1.8a60 60 0 016.3 2c1.2.4 2.4 1 3.4 1.7 1.2 1.1 2.2 2.5 3 4 2.3 3.8 7.6 6.3 11 9.2 3.9 3.4 7.7 6.3 12.2 10a84 84 0 0112 12c2.8 3.7 2 5.9.9 7.5-5.6 8.2-18 17.4-22.3 21-4.7 4-8 6.4-12.2 10-3 2.9-5.7 5.8-8.3 9a1.8 1.8 0 01-2.3.5c-4.8-2.7-8-16.2-4.3-24.4 1-2.2 2-2.3 2-2.3 7.6-5.3 26.3-17.9 26.3-17.9" fill="#FFA8A7"/>
  <path d="M430.5 152.4c2.2 2.9 5.2 5 8.7 6.2 0 0-4.6 1.1-10.9-4.6l2.2-1.6z" fill="#F28F8F"/>
  <path d="M361.5 143.7c0 13.3 4.3 16.6 6.4 17.6 2.2 1 6.4.5 10.4 0l-.1 7.9s-4.8 4.8-4.4 8.5c.3 3.7 7.2 4.2 12.6.7 2.9-2 5.5-4.2 7.9-6.9.4-.5.7-1.1.7-1.8l.3-18.9s2.2 2.4 6.2-.2a7.2 7.2 0 002-10.5c-1.7-2-6-2.2-8.2.8-1.2 2.3-1 4-2.7 3.6-1.6-.2-1.7-2-1.8-3.3-.1-1.3 0-1.7-.2-3.3-4-.9-8-6.3-8.4-10.4-2.7 1.4-5.6 2-8.6 2-4.4-.3-6.7-1.2-8.9-4.4a9 9 0 00-1.2 2.4c-.6 1.7-1 3.4-1.4 5.2-.5 3.6-.7 7.3-.6 11z" fill="#FFA8A7"/>
  <path d="M378.3 161.2c4.3-.5 13.2-2.9 14.6-6.3a9 9 0 01-3.1 4.4c-2.7 2.2-11.5 4.6-11.5 4.6v-2.7z" fill="#F28F8F"/>
  <path d="M376.3 141a1.9 1.9 0 001 1.7c.2.2.4.2.7.2a2 2 0 002.1-2 2 2 0 00-3.8 0zM363.8 140.1a1.7 1.7 0 001.6 1.9 1.6 1.6 0 001.6-1l.2-.7a1.7 1.7 0 00-.9-1.7 1.7 1.7 0 00-2.5 1.5z" fill="#263238"/>
  <path d="M372.1 137.3l-.6 12.5-5.8-2 6.4-10.5z" fill="#F28F8F"/>
  <path d="M383.2 136.1l-3.3-3.1a2.4 2.4 0 000 3.3 2.2 2.2 0 003.3-.2z" fill="#263238"/>
  <path d="M378.3 150.6l-5.9 1.9a3.3 3.3 0 004 2 3 3 0 002.1-2.7c0-.4 0-.9-.2-1.2z" fill="#B16668"/>
  <path d="M376.4 154.5a3 3 0 002-2.5 2.8 2.8 0 00-3 .6c-.5.5-.8 1.2-.8 2h1.8z" fill="#F28F8F"/>
  <path d="M366 132l-3.7 2.7a2.2 2.2 0 001.4 1 2.2 2.2 0 001.7-.5 2.4 2.4 0 00.5-3.3z" fill="#263238"/>
  <path d="M88.4 163.3a81.9 81.9 0 00-40.5 73c0 40.6 19.3 71 56.2 84.5 19.7 7.3 51.3 7.6 71.7.4 20.7-10.6 34.6-21.5 42.2-41.3 7.8-23-6.1-47-25.2-60.8-19-13.7-16.8-29.4-30.2-45.7a47.6 47.6 0 00-31-17.6 73 73 0 00-43.2 7.5z" fill="#9BD100"/>
  <path d="M181.2 231.5c-12.2-6.8-14.6-14.3-25.3-42-10.6-27.6-30-25.5-30-25.5s-28.6 1-35.4 21.3c-4.7 14-4.6 41.7-.2 56.6 2.7 9 6.3 13.2 6.3 13.2-14-2.8-25.2 6.6-25.2 6.6s11.9-5.6 31.3 2.2c11.5 4.6 24.6 11 36.4 15.8 10 4.1 15.4 7.1 23.2 13.5a36 36 0 0113.1 23 14 14 0 001.1 4.6 99.3 99.3 0 0029.8-21.4c.3-2.8.1-5.6.2-8.4a384 384 0 00-.2-30.6c-1.3-23.3-12.8-22.2-25-29z" fill="#9BD100"/>
  <path opacity=".1" d="M181.2 231.5c-12.2-6.8-14.6-14.3-25.3-42-10.6-27.6-30-25.5-30-25.5s-27.2 1-34 21.3c-4.8 14-6 41.7-1.6 56.6 2.7 9 6.3 13.2 6.3 13.2-14-2.8-25.2 6.6-25.2 6.6s9.1-2.2 29.5 2.7c11.2 2.8 22.5 8 34 13.5 11.8 5.8 19.6 8.9 27.4 15.2 7 5.7 13.3 13.2 14.4 22.2.2 1.8 0 3.6-.3 5.4a99.3 99.3 0 0029.9-21.4c.2-2.8-.2-5.6.1-8.4 1.5-12.2 1.7-15.8 2.9-27.6 2-19.9-15.8-25-28-31.8z" fill="#000"/>
  <path opacity=".2" d="M167 323.7a101 101 0 01-67.8-16.2c-29.7-20.3-42.5-52.2-36.2-90.2 5.6-33.5 22.4-52 39.2-59.6-3.7 1-7.4 2.4-10.8 4-13.7 10-25.8 27.6-30.4 55.3-6.5 38.8 6.7 71.5 37 92.1 15.1 10.1 32.6 16 50.7 17.1 6.1-.3 12.2-1.2 18.2-2.5z" fill="#000"/>
  <path d="M195.1 291.7s-3.3 15.5-2.6 21.3c.7 6-.4 8.2 1.8 14.5.4 1.3 1.7 4 2 5.2a1.7 1.7 0 01-1 2.3c-2.5 1-7.7-3-10.7-8-3.1-5.7-6-11.7-8.3-17.8a8.2 8.2 0 010-4.3l.8-2.3c.4-2.8 0-7.8.1-11.3l18 .4z" fill="#FFA8A7"/>
  <path d="M172.1 315.6l-.3 2c.1 1.3 3.5 4.7 4.8 6 1.8 1.6 3 3.9 3.2 6.4.5 3.8 2.8 7.1 5.8 9.9 4 3.4 9.1 5.6 14.4 6.2 6.7.8 8.3-2.7 8.3-2.7s1.4-3.4 0-4.5l-36.2-23.3z" fill="#263238"/>
  <path d="M177.1 302.6c-.2 0-.5 0-1 .7 0 .3-.7 3.3-1.4 5-.7 1.6-2.7 4.8-2.6 7.3 2.2 4.4 7.2 6.9 8.6 11 1.5 4.3 2.4 9.5 10.2 13.7 7.7 4.1 14.7 3.5 17 1.6 2.2-1.8 1.5-4.4-2.9-9a63.6 63.6 0 01-10.7-20.8c-.3-1.7-.4-3.3-.4-5 0-.8-.2-1.6-.7-2.2-.6-.5-1.3-.9-2-1-1.3-.3-2.5-.5-3.8-.5-1.2 0-2.4.3-3.4 1-.7.6-1.3 1.4-2 1.9a3.2 3.2 0 01-3.4 0 2.8 2.8 0 01-1.5-3v-.7z" fill="#37474F"/>
  <path d="M186.1 336.6a11 11 0 018.9-7c7.2-1.2 10.3 2 11.7 4 1.8 2.3 4 6.6 1.2 8.5-3 2-6.7 2.3-13 .3-6.3-1.9-8.8-5.8-8.8-5.8zM183.6 314.9a.8.8 0 00.7-.2c1-.7 6.6-3 10.6-.4.4-.4.2-1.1-.6-1.9-4.4-1.8-9.7.3-11 1.2a.7.7 0 000 1l.3.3zM196.4 318.3a2.2 2.2 0 00-.7-1.9 13.6 13.6 0 00-10.5 1.4.7.7 0 00-.2.5.7.7 0 00.1.5l.4.3a.8.8 0 00.7-.1c.9-.8 6.2-2.9 10.2-.7zM201 327.5c-.2-1-.7-1.8-1.4-2.4-4.4-1.7-9.6.3-10.8 1.2a.7.7 0 00-.1 1l.4.3a.8.8 0 00.6-.1c1.1-.8 7.3-3.3 11.3 0zM187.3 323.3a.8.8 0 00.6 0c1-.8 6.5-3 10.5-.6a2.6 2.6 0 00-1-2A13.6 13.6 0 00187 322a.7.7 0 00-.3.5.7.7 0 00.2.5l.4.2z" fill="#FAFAFA"/>
  <path d="M152.6 220.4c8.2 5.3 34.7 16 46.4 25.5 3.4 2.8 6.3 7 5 15.4-2.6 15.8-7.8 36-7.8 36l-17.9-6.9-4-17.3-25.3-16.3 3.6-36.4z" fill="#455A64"/>
  <path d="M196.7 298.5c-10.5-7.7-44.7-55.2-44.7-55.2 7.1-3 10.9-12.8 10.9-12.8-.2 4.6-1.7 9-4.4 12.8 4.5 2.8 14.4 8.2 25 15.5 3.4 2.5 5.9 6 7 10.1a274 274 0 016.2 29.6z" fill="#37474F"/>
  <path d="M201.8 304.9s6 18.5 10.6 25.3a61.6 61.6 0 0012.5 15c1.2 1 4 2.8 5 3.7a1.9 1.9 0 01.2 3c-1.9 2.3-10.8 4.1-16.5 1-5.6-3-11.5-10.4-15-13l-3.7-3.1c-1.2-1.1-1.1-2.2-1.4-3.6l-.3-2.4c-1-3.1-3.8-7.8-5.2-10.8l13.8-15.1z" fill="#FFA8A7"/>
  <path d="M193.6 345.4c0 .7.2 1.5.6 2.2.6 1.1 5.6 3.2 7.5 3.9 2.6.9 4.8 2.7 6.1 5.1 2.2 3.7 6.1 6 10.4 7.5a29.6 29.6 0 0017.6-.2c7.1-2 7.2-6.4 7.2-6.4s0-4.1-2-4.5a5852 5852 0 00-47.4-7.6z" fill="#263238"/>
  <path d="M192.8 329.9c-.2 0-.5.2-.6 1 0 .4.7 3.8.7 5.8s-.5 6.2.7 8.6c4.3 3.5 10.4 3.8 13.8 7.5 3.4 3.7 6.6 8.5 16.4 9.3 9.7.8 16.6-3 18-6 1.5-2.8-.4-5.2-6.9-7.8-6.8-2.8-16.5-12.2-16.5-12.2a41.6 41.6 0 01-3.8-4.3c-1-1.6-1.9-3.2-2.6-5-.4-.7-1-1.4-1.7-1.8-.9-.3-1.8-.3-2.6 0-1.4.2-2.7.6-4 1.1a6.2 6.2 0 00-3.1 2.6l-1.2 2.8a3.6 3.6 0 01-3.5 1.5 3.1 3.1 0 01-2.8-2.3l-.3-.8z" fill="#37474F"/>
  <path d="M217.4 360.6a12.2 12.2 0 015.8-11.1c6.8-4.5 11.4-2.6 13.8-1.3 2.8 1.6 7 5 5 8.2-2 3.3-5.8 5.3-13.1 6.2-7.3.9-11.5-2-11.5-2zM205 339.4a.8.8 0 00.6-.4c.7-1.2 5.5-6 10.7-5.2.1-.7-.3-1.2-1.5-1.7-5.3.1-9.8 4.7-10.6 6.1a.8.8 0 00.3 1.2h.5zM219.6 337.2a2.5 2.5 0 00-1.7-1.6 15 15 0 00-10 6.2.8.8 0 00.4 1.1.8.8 0 00.9 0l.2-.3c.7-1.3 5.2-5.9 10.2-5.4zM228.4 344.5a4.6 4.6 0 00-2.5-1.8 15 15 0 00-10.4 6.1.8.8 0 00.3 1.1l.5.1a.8.8 0 00.6-.4c.7-1.3 6-6.7 11.5-5zM212.5 346.5a.9.9 0 00.7-.5c.6-1.2 5.3-6 10.4-5.2a2.9 2.9 0 00-1.9-1.6 15 15 0 00-10 6.1.8.8 0 00.8 1.2z" fill="#FAFAFA"/>
  <path d="M153 216.2L98.7 226c0 12.7 3.4 21.6 7 26 3.8 4.7 10.9 10.2 24.9 15.4 18.5 7 22.2 8.5 28.8 11.2 4.7 2 7.6 3.4 11.3 12.5 2.7 6.5 19.6 33.3 19.6 33.3a36 36 0 0015.4-8.7c-15.3-44.2-20-51.1-26.4-56.2-5.6-4.3-27.2-16.2-27.2-16.2s8-14 1-27z" fill="#455A64"/>
  <path d="M185 196.7a816.2 816.2 0 01-25.3-19.3l-5-28.5c6.1.9 8 2.7 19.2 13.3 6.6 6.4 19.4 18 19.4 18 3.3-3.2 15-15.2 17.2-18.4 2.1-3 3.8-6.3 5-9.8l1.6-4.7c.6-1.3 1.3-2.5 2.1-3.7.8-1 1.5-2.5 2.2-3.6l.5-.5a1.2 1.2 0 011.3.4 6 6 0 01.8 3.5c0 .9-.3 1.8-.6 2.6s-.4 1.7-.4 2.6c1 0 2.1-.3 3-1 2.8-2.1 5.3-4.7 7.4-7.6l4-5.6a3 3 0 011-.9 1.1 1.1 0 011.3.2c.2.3.3.7.3 1l-.2 3.7c1 .6 1.4 2 1.5 3.3.4 3 .7 6-.4 8.8-1 2.2-2.5 4.2-4.4 5.8a63.9 63.9 0 01-5.5 4.7c-2 1.4-4 2.5-5.5 4.3-5.2 6.1-15 21-22.2 29-7.2 7.8-11.5 7.2-18.2 2.4z" fill="#FFA8A7"/>
  <path d="M154 148.6c6.2 0 7.4 1.5 12.4 5.4 4.9 4 21.6 20.6 21.6 20.6a28.2 28.2 0 01-11.6 16.7L150 171.6l4-23z" fill="#37474F"/>
  <path d="M159.1 185.3c2.7-18.4 5-33.3-5-36.6l-12-1.6-10.1.2c-12 1-20.3.5-23.8 7.2 0 0-5.5 2.2-8.6 26.7a236 236 0 00-1 52.1c13 7.5 50.4 3 59.5-10.7a129 129 0 011-37.3z" fill="#9BD100"/>
  <path opacity=".7" d="M159.1 185.3c2.7-18.4 5-33.3-5-36.6l-12-1.6-10.1.2c-12 1-20.3.5-23.8 7.2 0 0-5.5 2.2-8.6 26.7a236 236 0 00-1 52.1c13 7.5 50.4 3 59.5-10.7a129 129 0 011-37.3z" fill="#fff"/>
  <path d="M170.5 113a17.5 17.5 0 00-34.6-4.5l-7.4-6.4a6.2 6.2 0 00-5.3 1.4c-2.4 2-1.7 9.2.5 16.3 0 0 1.7 12.8 2.6 15a5.7 5.7 0 003 2.8l.5-7.6 31.8.7-3-2.6a17.5 17.5 0 0011.9-15z" fill="#263238"/>
  <path d="M130.2 120.8c-1.1.6-1.8-1.6-3.5-2.9-1.4-1-5-2.4-7.4.6-3 3.8 0 9.1 3 10.8 4.4 2.5 6.6-.6 6.6-.6l-.7 20c5.9 9 24.4 10.6 18.6.2l.4-5.4c2.4.6 4.9.9 7.4 1 4-.4 6.9-3.4 8.5-7.7a59.1 59.1 0 003.1-26.5C165.6 95 148 93.4 138 98.7c-10 5.2-7.7 22.1-7.7 22.1z" fill="#FFA8A7"/>
  <path d="M171.4 96.5c-1.3-.7-2.8-1-4.2-.9a5.2 5.2 0 00-2.6-5.4 6 6 0 00-6.7.2c.6-1.5-.7-3.2-2.2-3.7a8.3 8.3 0 00-4.7.4c-2.3.6-4.6 1.4-7 1.9-4 1-8.3 1.3-12.2 3.1-.9.4-1.7 1-2.4 1.7-.9 1.1-1.3 2.5-1.4 3.9l.1 1.4c-.2-.4-.5-.7-.9-.9a3.3 3.3 0 00-4.7 1.1l5.7 3.7-.8 3.6c-.6 3.1-1.6 6.8-1 10 0 .4 0 .8.2 1.2 1 1 2 2 2.8 3.3.5.6 1 1.6 1.7 1.8a1.8 1.8 0 002.1-.7c.2-.5.2-1 .2-1.4v-6c0-.5 0-1 .2-1.5.5-.6 1-1 1.6-1.4a6.9 6.9 0 002.8-4.5c0-.6.2-1.2.3-1.7.2-.4.6-1 1-1 1 .1 5.9 1.7 7.1 2a31.3 31.3 0 0019.6-.4c2.4-1 6.4-3.3 7-6a3.7 3.7 0 00-1.6-3.8z" fill="#263238"/>
  <path d="M147.2 143.5s-8.9-2.6-12-4.5a10.4 10.4 0 01-4-4.6c.3 1.9 1 3.7 2.1 5.3 2 3.1 13.7 6.2 13.7 6.2l.2-2.4z" fill="#F28F8F"/>
  <path d="M149 121a1.7 1.7 0 11-1-1.8 1.7 1.7 0 011 1.8zM146.2 114.3L142 116a2.3 2.3 0 011.4-3 2.2 2.2 0 012.8 1.4z" fill="#263238"/>
  <path d="M146 132.3l5.6 2.7a3 3 0 01-4.1 1.6 3.3 3.3 0 01-1.6-4.3z" fill="#B16668"/>
  <path d="M149.2 136.9a3 3 0 00-3.2-3h-.3a3.2 3.2 0 001.8 2.7 3 3 0 001.7.3z" fill="#F28F8F"/>
  <path d="M165 117.5l-3.7-2.4a2.1 2.1 0 013-.6 2.2 2.2 0 01.6 3zM162.5 122a1.7 1.7 0 01-2.2 1.4 1.7 1.7 0 01.7-3.4 1.7 1.7 0 011.5 2z" fill="#263238"/>
  <path d="M154 120l-.7 11 6.6-.8-6-10.1z" fill="#F28F8F"/>
  <path d="M190.9 215.1c-.1-.4 1.3-.8 1.6-1 1.8-.9 3.7-1.8 4.7-3.6.3-.6.5-1.5 0-2-.5-.4-1.3-.2-2 0-2 .7-4.2 1.3-6.4 1.6l-6.2 1.5c-2 .6-3.9 1.8-6 2-2.3 0-4.7 0-7-.3-11-.8-27.3-3.3-28.4-3.5l-14.4-35.3s-3-19.6-10.6-25.5c-6.5 1.1-15 8.3-13.3 22 1.3 9.7 16.2 42.9 18.5 47.6 3.4 7.4 3.2 9.3 17.5 10 6.5.4 20.2 0 29.3.3l6.7.3c2.6 0 5.8.3 8.4.5" fill="#FFA8A7"/>
  <path d="M189.8 225.6l18.5-5.3a2.3 2.3 0 001.5-1.6l6.4-29.6c.2-.7-.3-1.1-1-1l-18.4 5.3a2.4 2.4 0 00-1.6 1.6l-6.4 29.7c-.2.7.3 1 1 .9z" fill="#37474F"/>
  <path d="M204.5 199.6c3.4-.8 5.5 1.5 4.6 5.1a11 11 0 01-7.5 7.8c-3.4.8-5.5-1.5-4.7-5a11.1 11.1 0 017.6-8z" fill="#9BD100"/>
  <path d="M202.6 210.1l-.1.3-.3.1-1.6.4h-.2a.2.2 0 010-.3l.5-1.3c0-.1 0-.2.2-.3l.2-.2 1.6-.3h.2a.3.3 0 010 .2l-.5 1.4zm2-8.7c.5-.1.9-.2 1.3-.1l.9.3.4.7-.1 1a4 4 0 01-1 1.6l-.7.7-.7.5-.6.6-.5.6-.2.3-.3.1-1.5.4a.2.2 0 01-.2 0v-.2-.1l.5-.8.6-.8.7-.6.7-.6.6-.5.3-.5v-.6a1 1 0 00-.8 0c-.3 0-.6.2-.9.4l-.5.4-.3.5-.4.2-1.5.4a.2.2 0 01-.2 0 .2.2 0 010-.2c.2-.4.4-.8.7-1a7.5 7.5 0 012.3-2.1c.4-.3 1-.5 1.5-.6z" fill="#455A64"/>
  <path d="M116.4 148.9c-7.3.8-10.7 3-13.1 7.6-3.3 6.3-1.8 14.3.4 21.4 2.7 8.6 6 17 10 25 0 0 11.3.6 21.6-8.9l-8-23.1s-4.1-15.5-11-22z" fill="#37474F"/>
  <path d="M183.2 229.7c5 .5 9 .6 13.6-1.2 2.4-.8 4.6-2.2 6.3-4.1l1-1.5.5-1.5.5-1.4.8-1.3c.5-.9.9-1.8 1-2.8a4.8 4.8 0 011-4.1c.6-1 .3-2.7-1.1-2.5a7 7 0 00-2.9 1.4 39.7 39.7 0 01-5.6 3.1c-1.9.9-4 1.9-6 1.8-.3 0-1.3 0-1.4-.5" fill="#FFA8A7"/>
  <path d="M167.8 382.4a3.1 3.1 0 011.8-2.6 9.9 9.9 0 018.9 0 3.1 3.1 0 011.8 2.6l-1.8 46.3a2.2 2.2 0 01-1.3 1.7 7 7 0 01-6.3 0 2.2 2.2 0 01-1.3-1.7l-1.8-46.3z" fill="#455A64"/>
  <path d="M178.5 379.8a9.8 9.8 0 00-9 0 3.1 3.1 0 00-1.8 2.6l.7 15.3c3.3 3.4 7 6.4 11 9l1-24.4a3.1 3.1 0 00-2-2.5z" fill="#263238"/>
  <path d="M362.9 382.4a3.1 3.1 0 00-1.9-2.6 9.8 9.8 0 00-8.8 0 3.1 3.1 0 00-1.9 2.6l1.9 46.3a2.2 2.2 0 001.3 1.7 7 7 0 006.2 0 2.2 2.2 0 001.3-1.7l1.9-46.3z" fill="#455A64"/>
  <path d="M361 379.8a9.9 9.9 0 00-8.8 0 3.1 3.1 0 00-1.9 2.6l1 24.8c4-2.5 7.6-5.3 11-8.5l.6-16.3a3.1 3.1 0 00-1.8-2.6z" fill="#263238"/>
  <path d="M272.1 417a3.1 3.1 0 00-1.8-2.5 9.8 9.8 0 00-8.9 0 3.1 3.1 0 00-1.8 2.6l1.8 46.3a2.2 2.2 0 001.3 1.8 6.9 6.9 0 006.3 0 2.2 2.2 0 001.3-1.8l1.8-46.3z" fill="#455A64"/>
  <path d="M271.6 431.7l.5-14.6a3.1 3.1 0 00-1.8-2.5 9.8 9.8 0 00-8.9 0 3.1 3.1 0 00-1.8 2.5l.6 14.6h11.4z" fill="#263238"/>
  <path d="M378.5 349.6c0-16.7-11-33.3-33-46-44-25.4-115.2-25.4-159.2 0-22 12.7-33 29.3-32.9 46h-.1v9c.3 16.3 11.3 32.7 33 45.2 44 25.4 115.3 25.4 159.2 0 21.7-12.5 32.8-28.8 33-45.3v-9z" fill="#9BD100"/>
  <path opacity=".4" d="M378.5 349.6c0-16.7-11-33.3-33-46-44-25.4-115.2-25.4-159.2 0-22 12.7-33 29.3-32.9 46h-.1v9c.3 16.3 11.3 32.7 33 45.2 44 25.4 115.3 25.4 159.2 0 21.7-12.5 32.8-28.8 33-45.3v-9z" fill="#fff"/>
  <path d="M186.2 303.6c-44 25.4-44 66.6 0 92 44 25.3 115.3 25.3 159.3 0 44-25.4 44-66.6 0-92-44-25.4-115.3-25.4-159.3 0z" fill="#9BD100"/>
  <path opacity=".7" d="M186.2 303.6c-44 25.4-44 66.6 0 92 44 25.3 115.3 25.3 159.3 0 44-25.4 44-66.6 0-92-44-25.4-115.3-25.4-159.3 0z" fill="#fff"/>
  <path opacity=".1" d="M174.6 351.5l91.3-52.7 91.2 52.7-91.2 52.8-91.3-52.8z" fill="#000"/>
  <path d="M174.6 349.4l91.3-52.7 91.2 52.7-91.2 52.7-91.3-52.7z" fill="#455A64"/>
  <path d="M265.9 399.8l-87.2-50.4 87.2-50.3 87.2 50.3-87.2 50.4z" fill="#9BD100"/>
  <path opacity=".1" d="M191.1 356.6l12.5-7.2 12.4 7.2-12.4 7.2-12.5-7.2z" fill="#000"/>
  <path opacity=".3" d="M191.1 342.2l12.5-7.2 12.4 7.2-12.4 7.2-12.5-7.2z" fill="#fff"/>
  <path opacity=".5" d="M203.6 335l12.4-7.2 12.5 7.2-12.5 7.2-12.4-7.2z" fill="#fff"/>
  <path opacity=".6" d="M216 327.8l12.5-7.1 12.4 7.2-12.4 7.1-12.5-7.2z" fill="#fff"/>
  <path opacity=".5" d="M228.5 320.7l12.4-7.2 12.5 7.2-12.5 7.1-12.4-7.1z" fill="#fff"/>
  <path opacity=".3" d="M241 313.5l12.4-7.2 12.5 7.2-12.5 7.2-12.5-7.2zM265.9 385.4l12.4-7.2 12.5 7.2-12.5 7.2-12.4-7.2z" fill="#fff"/>
  <path opacity=".5" d="M278.3 378.2l12.5-7.2 12.4 7.2-12.4 7.2-12.5-7.2z" fill="#fff"/>
  <path opacity=".6" d="M290.8 371l12.4-7.2 12.5 7.2-12.5 7.2-12.4-7.2z" fill="#fff"/>
  <path opacity=".5" d="M303.2 363.8l12.5-7.2 12.4 7.2-12.4 7.2-12.5-7.2z" fill="#fff"/>
  <path opacity=".3" d="M315.7 356.6l12.4-7.2 12.5 7.2-12.5 7.2-12.4-7.2z" fill="#fff"/>
  <path opacity=".2" d="M203.6 363.8l12.4-7.2 12.5 7.2L216 371l-12.4-7.2zM228.5 378.2l12.4-7.2 12.5 7.2-12.5 7.2-12.4-7.2z" fill="#000"/>
  <path opacity=".3" d="M216 371l12.5-7.2 12.4 7.2-12.4 7.2L216 371z" fill="#000"/>
  <path opacity=".1" d="M241 385.4l12.4-7.2 12.5 7.2-12.5 7.2-12.5-7.2zM265.9 313.5l12.4-7.2 12.5 7.2-12.5 7.2-12.4-7.2z" fill="#000"/>
  <path opacity=".2" d="M278.3 320.7l12.5-7.2 12.4 7.2-12.4 7.2-12.5-7.2z" fill="#000"/>
  <path opacity=".3" d="M290.8 327.9l12.4-7.2 12.5 7.2-12.5 7.2-12.4-7.2z" fill="#000"/>
  <path opacity=".2" d="M303.2 335l12.5-7.1L328 335l-12.4 7.1-12.5-7.1z" fill="#000"/>
  <path opacity=".1" d="M315.7 342.2l12.4-7.1 12.5 7.1-12.5 7.2-12.4-7.2z" fill="#000"/>
  <path d="M340 357l1.1-.7-12-7 12-6.8-1-.6-12 6.9-11.4-6.6 12-6.9-1-.6-12 7-11.5-6.7 12-6.9-1-.6-12 7-11.4-6.7 12-6.9-1-.6-12 7-11.5-6.6 12-7-1-.5-12 6.9-11.4-6.6 11.9-7-1-.5-12 6.9-12-7-1 .7 12 6.9-11.4 6.6-12-7-1 .7 12 6.9-11.5 6.6-12-7-1 .7 12 6.8-11.4 6.7-12-6.9-1 .6 12 6.9-11.5 6.5-12-6.9-1 .6 12 7-11.4 6.5-12-6.9-1 .6 12 6.9-12 6.9 1 .6 12-7 11.4 6.7-12 7 1 .5 12-6.9 11.5 6.6-12 7 1 .5 12-6.9 11.4 6.7L228 378l1 .6 12-7 11.4 6.6-12 6.9 1 .6 12-7 11.4 6.7-12 6.9 1.1.6 12-6.9 11.9 7 1-.7-12-6.9 11.5-6.6 12 7 1-.7-12-6.9 11.4-6.6 12 6.9 1-.6-12-6.9 11.5-6.7 12 7 1-.6-12-6.9 11.5-6.6 12 7 1-.7-12-6.9 11.4-6.6 12 7zM266 384.7l-61.3-35.4 61.3-35.4 61.2 35.4-61.2 35.4z" fill="#FAFAFA"/>
  <path d="M265.9 313.5l-62.3 36 62.3 35.9 62.2-36-62.2-36z" fill="#FAFAFA"/>
  <path d="M284 351.8a.6.6 0 00-.4-.6L258 336.4a2 2 0 00-1.7 0l-16.5 9.6a.6.6 0 00-.4.5v8a.6.6 0 00.4.5l25.6 14.8a2 2 0 001.8 0l16.4-9.5.3-.2.1-.3v-8z" fill="#455A64"/>
  <path d="M266.3 362v8c-.3 0-.6 0-.9-.2L239.8 355a.6.6 0 01-.4-.5v-8a.6.6 0 00.4.5l25.6 14.8 1 .2z" fill="#37474F"/>
  <path d="M265.4 361.8L239.8 347c-.5-.3-.5-.7 0-1l16.5-9.6a2 2 0 011.7 0l25.6 14.8c.5.3.5.8 0 1l-16.4 9.6a2 2 0 01-1.8 0z" fill="#455A64"/>
  <path d="M284 351.8v8l-.1.3-.3.2-16.4 9.5c-.3.2-.6.2-.9.2v-8c.3 0 .6 0 .9-.2l16.4-9.5a.6.6 0 00.4-.5zM239.4 348.2l5.7 3.3-5.7-3.6v.3zM239.4 352.4l5.7 3.3-5.7-3.6v.3zM239.4 350l10 6-10-6.3v.3z" fill="#263238"/>
  <path d="M257.6 358.7l8 4.7a1.4 1.4 0 001.4 0l7.6-4.5-7.7 4a1.3 1.3 0 01-1.2 0l-8.1-4.2z" fill="#263238"/>
  <path d="M261 363l4.6 2.7a1.4 1.4 0 001.4 0l7.6-4.4-7.7 4a1.4 1.4 0 01-1.2 0l-4.8-2.3z" fill="#263238"/>
  <path d="M257.6 363.5l8 4.6a1.4 1.4 0 001.4 0l7.6-4.4-7.7 4a1.4 1.4 0 01-1.2 0l-8.1-4.2z" fill="#263238"/>
  <path d="M274.6 361.3l-7.7 4c-.2.1-.4.2-.6.1v.5c.2 0 .5 0 .7-.2l7.6-4.4zM266.3 363v.6l.7-.2 7.6-4.5-7.6 4-.7.2zM267 368.1l3.4-2-3.5 1.6-.6.1v.5c.2 0 .5 0 .7-.2zM284 355.3l-6 3.4 6-3v-.4zM284 357.9l-6 3.4 6-3v-.4z" fill="#000"/>
  <path opacity=".1" d="M283.6 351.2L258 336.4a2 2 0 00-1.7 0l-16.5 9.6c-.2 0-.2.1-.3.2l.3.3 25.6 14.8a2 2 0 001.8 0l16.4-9.5.3-.3-.3-.3z" fill="#000"/>
  <path d="M265.4 360.9l-25.6-14.8c-.5-.3-.5-.8 0-1l16.5-9.6a2 2 0 011.7 0l25.6 14.8c.5.3.5.7 0 1l-16.4 9.6a2 2 0 01-1.8 0z" fill="#455A64"/>
  <path d="M256.3 345.1a11.9 11.9 0 0110.8 0c3 1.7 3 4.5 0 6.2a12 12 0 01-10.8 0c-3-1.7-3-4.5 0-6.2z" fill="#9BD100"/>
  <path d="M258 345.8a6.3 6.3 0 014-.8c.3 0 .7.2 1 .4.3 0 .4.2.6.4l.2.5v.5l-.1.5v.4c0 .2 0 .3.2.4v.4l-1.3.7a.7.7 0 01-.6 0l-.5-.4-.1-.5v-.6-.4c.1-.2.1-.3 0-.4a.5.5 0 00-.2-.4l-.7-.1-.9.3-.5.5a.4.4 0 000 .4l.1.2-.1.3-1.3.7h-.5c-.2-.1-.4-.3-.5-.6-.2-.2-.2-.5-.2-.7l.3-.9 1-.8zm8.2 3.7a.2.2 0 010 .2v.1l-1.4.8a.7.7 0 01-.6 0l-1-.6-.2-.1a.2.2 0 010-.2h.1l1.4-.8a.7.7 0 01.6 0l1 .6z" fill="#455A64"/>
  <path opacity=".1" d="M283.5 334.1a2 2 0 01-.6 0l-29.7-9a1 1 0 01-.8-.6.6.6 0 01.2-.6l9.9-11c.3-.4.7-.5 1.1-.5h.6l5.6 1.7-8-4.6a.7.7 0 01-.3-1l.3-.3 15.2-8.7c.3-.2.6-.3 1-.3.3 0 .6 0 .9.3l11.6 6.7-2.4-3.8a.6.6 0 010-.6 1.1 1.1 0 011-.6l20.2-4.2h.4a1.5 1.5 0 011.3.5l11.5 18.1a.6.6 0 010 .6 1.2 1.2 0 01-.8.6l-20.3 4.3a2 2 0 01-.4 0 1.5 1.5 0 01-1.4-.6l-2-3.2-6 3.4 2.4.6a1 1 0 01.7.7.6.6 0 01-.2.6l-9.8 11c-.3.4-.7.5-1.2.5z" fill="#000"/>
  <path d="M285.6 322l-23.7-13.7c-.5-.2-.5-.6 0-1l15.2-8.7a1.8 1.8 0 011.7 0l23.7 13.7.2.1a.5.5 0 010 .6l-.2.2-15.3 8.8a1.8 1.8 0 01-1.6 0z" fill="#455A64"/>
  <path d="M271.4 313.9l19.8 5.8.6-.3-21-5.9.6.4zM297.7 316l-.6.4-6.3-10.8.3.2 6.6 10.2z" fill="#37474F"/>
  <path d="M277.2 307.5a11 11 0 0110 0c2.7 1.6 2.7 4.1 0 5.7a11 11 0 01-10 0c-2.7-1.5-2.7-4.1 0-5.7z" fill="#9BD100"/>
  <path d="M278.7 308.1l1.2-.5a6 6 0 012.5-.2c.4 0 .7.1 1 .3.2 0 .4.2.5.4l.2.5v.9c-.1.1-.1.2 0 .4l.1.3V310.5l-1.2.7h-.3c0 .1-.2 0-.2 0a1 1 0 01-.5-.4 1 1 0 01-.1-.4v-.5-.5-.3-.2l-.2-.1-.6-.2a2 2 0 00-.9.3l-.5.5v.3l.2.3-.1.2-1.2.7h-.3-.2c-.2-.1-.4-.3-.5-.6l-.2-.7c0-.3.2-.5.4-.8a3 3 0 011-.7zm7.6 3.3v.1h.1v.2l-1.3.8h-.6l-1-.6a.2.2 0 010-.2v-.1l1.3-.7.2-.1h.3l1 .6zM283 332.8l-29.8-8.9c-.6-.1-.8-.5-.5-.9l9.9-11a1.6 1.6 0 011.6-.3l29.7 8.8c.6.2.8.6.5 1l-9.9 11a1.7 1.7 0 01-1.5.3z" fill="#455A64"/>
  <path d="M267.3 320.4c1.8-2 6-2.8 9.5-1.8 3.5 1 4.8 3.5 3 5.5-1.7 2-6 2.8-9.4 1.8-3.5-1-4.9-3.5-3-5.5z" fill="#9BD100"/>
  <path d="M269.1 320.7l.9-.7 1.1-.4 1.2-.2c.4 0 .7 0 1 .2.3 0 .6.1.8.3l.4.4.2.4.2.5.2.3c0 .2.2.3.4.4h.1v.2l-.8 1h-.2-.3l-.6-.3-.4-.4-.2-.5-.1-.4a2 2 0 00-.2-.4.8.8 0 00-.4-.2h-.7c-.3 0-.5.2-.6.4l-.3.5c0 .2.1.3.2.3l.3.3v.2l-.8.9h-.2-.2c-.3 0-.6-.2-.8-.4-.2-.1-.4-.3-.5-.6-.2-.3-.2-.5-.1-.8 0-.4.2-.7.4-1zm9 2a.3.3 0 01.2 0v.2l-.9 1h-.2-.3l-1.2-.3a.3.3 0 01-.2-.1v-.1l.8-1h.5l1.3.2zM299.8 319.4l-11.5-18.1c-.2-.4.1-.8.7-.9l20.2-4.3a1.5 1.5 0 011.5.4l11.6 18.2c.2.3-.1.7-.7.8l-20.3 4.3a1.5 1.5 0 01-1.5-.4z" fill="#455A64"/>
  <path d="M302.9 304.2c3.6-.8 7.7.3 9 2.4 1.3 2.1-.5 4.4-4.2 5.2-3.6.8-7.7-.3-9-2.4-1.4-2.1.5-4.4 4.2-5.2z" fill="#9BD100"/>
  <path d="M303.8 305.1a7 7 0 012.8 0c.3 0 .7.1 1 .3l.7.5.1.6-.1.4-.4.4-.4.4a3 3 0 00-.3.4.5.5 0 000 .3v.2a.3.3 0 01-.3.1l-1.6.3h-.4a.6.6 0 01-.1-.6c0-.1 0-.3.2-.4 0-.2.2-.3.3-.4l.4-.4c.2-.1.2-.2.3-.4v-.1-.2a.7.7 0 00-.5-.3l-1 .1a2 2 0 00-.7.3l-.3.3v.3l-.3.1-1.6.4h-.2l-.2-.1a.8.8 0 010-.6c0-.3.1-.5.3-.7l.9-.7 1.4-.5zm4.4 5v.1l-.2.1-1.6.4h-.3c-.1 0-.2 0-.2-.2l-.5-.7v-.2h.2l1.7-.4h.4l.5.8z" fill="#455A64"/>
  <path opacity=".1" d="M298.6 374a10.7 10.7 0 009.7 0c2.7-1.5 2.7-4 0-5.5a10.7 10.7 0 00-9.7 0c-2.6 1.5-2.6 4 0 5.6z" fill="#000"/>
  <path d="M307.6 367.6a9.2 9.2 0 00-8.3 0 3 3 0 00-1.7 2.4v1a3 3 0 001.7 2.5 9.2 9.2 0 008.3 0 3 3 0 001.7-2.4V370a3 3 0 00-1.7-2.4z" fill="#455A64"/>
  <path d="M299.3 372.4a9.2 9.2 0 008.3 0c2.3-1.3 2.3-3.5 0-4.8a9.2 9.2 0 00-8.3 0c-2.3 1.3-2.3 3.5 0 4.8z" fill="#37474F"/>
  <path opacity=".1" d="M299.9 371.4a7.7 7.7 0 007.1 0c2-1.1 2-3 0-4.2a7.7 7.7 0 00-7.1 0c-2 1.2-2 3 0 4.2z" fill="#000"/>
  <path d="M308.4 368.8c0-1.9-2-5.9-2-11.8h-5.8c0 6-2 9.9-2 11.8a2.4 2.4 0 001.4 2 7.7 7.7 0 007 0 2.4 2.4 0 001.4-2z" fill="#455A64"/>
  <path d="M301.8 370.3c-1-.8-1.1-2-.3-5a39 39 0 001-8.3h-2c0 6-2 9.9-2 11.8a2.5 2.5 0 001.5 2 7.7 7.7 0 007 0l.4-.2c-1.9.8-4.6.6-5.6-.3z" fill="#37474F"/>
  <path d="M301.4 358.3a4.5 4.5 0 004.1 0 1.3 1.3 0 00.9-1.2 1.2 1.2 0 00-.9-1.2 4.5 4.5 0 00-4 0 1.2 1.2 0 000 2.4z" fill="#37474F"/>
  <path opacity=".1" d="M303.5 357.8c1.3 0 2.3-.6 2.3-1.3 0-.8-1-1.4-2.3-1.4-1.3 0-2.4.6-2.4 1.4 0 .7 1 1.3 2.4 1.3z" fill="#000"/>
  <path d="M306.6 354a3.1 3.1 0 11-6.3 0 3.1 3.1 0 016.3 0z" fill="#455A64"/>
  <path d="M306.5 354.7a3.2 3.2 0 01-3.8 1.5 3.1 3.1 0 01-1.8-3.9 3.1 3.1 0 00-.4 2.7 3.1 3.1 0 006-.3z" fill="#37474F"/>
  <path opacity=".1" d="M323.7 345a10.7 10.7 0 009.7 0c2.7-1.5 2.7-4 0-5.5a10.7 10.7 0 00-9.7 0c-2.7 1.5-2.7 4 0 5.6z" fill="#000"/>
  <path d="M332.7 338.7a9.2 9.2 0 00-8.3 0 3 3 0 00-1.7 2.4v1a2.9 2.9 0 001.7 2.5 9.2 9.2 0 008.3 0 3 3 0 001.7-2.4V341a3 3 0 00-1.7-2.4z" fill="#F5F5F5"/>
  <path d="M324.4 343.5a9.2 9.2 0 008.3 0c2.3-1.4 2.3-3.5 0-4.8a9.2 9.2 0 00-8.3 0c-2.3 1.3-2.3 3.4 0 4.8z" fill="#E0E0E0"/>
  <path opacity=".1" d="M328.5 343.4c2.8 0 5.1-1.3 5.1-3s-2.3-3-5-3c-2.9 0-5.1 1.3-5.1 3s2.2 3 5 3z" fill="#000"/>
  <path d="M333.5 340c0-2-2-6-2-12h-5.9c0 6-2 10-2 12a2.4 2.4 0 001.5 2 7.8 7.8 0 007 0 2.5 2.5 0 001.4-2z" fill="#F5F5F5"/>
  <path d="M326.9 341.4c-1-.8-1.2-2-.4-5a40 40 0 001.1-8.3h-2c0 5.9-2 9.9-2 11.8a2.5 2.5 0 001.4 2 7.8 7.8 0 007 0l.4-.2c-1.8.8-4.5.5-5.5-.3z" fill="#E0E0E0"/>
  <path d="M328.5 329.8c1.6 0 3-.7 3-1.7 0-.9-1.4-1.6-3-1.6s-2.9.7-2.9 1.6c0 1 1.3 1.7 3 1.7z" fill="#E0E0E0"/>
  <path opacity=".1" d="M328.5 329c1.3 0 2.4-.7 2.4-1.4 0-.8-1-1.4-2.4-1.4-1.3 0-2.3.6-2.3 1.4 0 .7 1 1.3 2.3 1.3z" fill="#000"/>
  <path d="M331.7 325.1a3.1 3.1 0 11-6.3 0 3.1 3.1 0 016.3 0z" fill="#F5F5F5"/>
  <path d="M331.6 325.8a3.2 3.2 0 01-3.9 1.5 3.1 3.1 0 01-1.7-4 3.2 3.2 0 00.2 4 3.1 3.1 0 005.4-1.5zM469.6 305.9c-5.4 3-5.4 8 0 11.2 5.4 3 14 3 19.4 0 5.4-3.1 5.4-8.1 0-11.2-5.4-3.1-14-3.1-19.4 0z" fill="#E0E0E0"/>
  <path d="M493.5 274H465l2.9 37.4c0 1.4 1.2 2.7 3.2 3.7a20 20 0 0016 0c2-1 3.2-2.3 3.3-3.7l3-37.3z" fill="#9BD100"/>
  <path d="M489.2 269.2a26 26 0 00-20 0c-5.5 2.7-5.5 7 0 9.7a26 26 0 0020 0c5.7-2.6 5.7-7 0-9.7z" fill="#9BD100"/>
  <path opacity=".3" d="M489.2 269.2a26 26 0 00-20 0c-5.5 2.7-5.5 7 0 9.7a26 26 0 0020 0c5.7-2.6 5.7-7 0-9.7z" fill="#000"/>
  <path d="M467.1 277.6c.6.6 1.3 1 2 1.3a26 26 0 0020.1 0c.8-.3 1.5-.7 2.2-1.3a10 10 0 00-2.6-1.6 25 25 0 00-19.2 0c-1 .4-1.8 1-2.5 1.6z" fill="#37474F"/>
  <path d="M109.7 351.1c-5.4 3-5.4 8.1 0 11.2 5.3 3.1 14 3.1 19.4 0 5.3-3 5.3-8.1 0-11.2-5.4-3.1-14-3.1-19.4 0z" fill="#E0E0E0"/>
  <path d="M133.6 319.3h-28.4l2.9 37.4c.1 1.3 1.2 2.7 3.2 3.7a20 20 0 0016 0c2-1 3.2-2.4 3.3-3.7l3-37.4z" fill="#9BD100"/>
  <path opacity=".7" d="M133.6 319.3h-28.4l2.9 37.4c.1 1.3 1.2 2.7 3.2 3.7a20 20 0 0016 0c2-1 3.2-2.4 3.3-3.7l3-37.4z" fill="#fff"/>
  <path d="M129.3 314.5a26 26 0 00-20 0c-5.5 2.7-5.5 7 0 9.7a26 26 0 0020 0c5.7-2.7 5.7-7 0-9.7z" fill="#9BD100"/>
  <path opacity=".4" d="M129.3 314.5a26 26 0 00-20 0c-5.5 2.7-5.5 7 0 9.7a26 26 0 0020 0c5.7-2.7 5.7-7 0-9.7z" fill="#fff"/>
  <path opacity=".2" d="M129.3 314.5a26 26 0 00-20 0c-5.5 2.7-5.5 7 0 9.7a26 26 0 0020 0c5.7-2.7 5.7-7 0-9.7z" fill="#000"/>
  <path d="M107.2 323c.6.4 1.3.9 2 1.2a26 26 0 0020.1 0 11 11 0 002.2-1.3c-.8-.7-1.6-1.2-2.6-1.7a25 25 0 00-19.2 0c-1 .5-1.8 1-2.5 1.7z" fill="#37474F"/>
  <path d="M135.3 77.3l-3.9-7.3 3.1-9v-5.6l-9.5 5.5v5.6l4 7.1.4.2 6 3.5z" fill="#9BD100"/>
  <path opacity=".2" d="M135.3 77.3l-3.9-7.3 3.1-9v-5.6l-9.5 5.5v5.6l4 7.1.4.2 6 3.5z" fill="#000"/>
  <path d="M154.3 7a6.4 6.4 0 00-2.8-5L149 .7a6.4 6.4 0 00-5.7 0L110 19.9a6.3 6.3 0 00-2.9 5V71a6.3 6.3 0 002.9 5l2.3 1.3a6.3 6.3 0 005.8 0l12.7-7.4 4.2 7.1a.6.6 0 00.9.2l.2-.3 4.3-12.5 11-6.3a6.4 6.4 0 002.8-5V7z" fill="#9BD100"/>
  <path opacity=".2" d="M107.2 71a6.3 6.3 0 002.9 5l2.3 1.3a6.4 6.4 0 005.2.3c-1.3.5-2.3-.3-2.3-2v-46c0-1 .3-2 .8-2.8l-8-4.7c-.6.8-.9 1.8-1 2.8V71z" fill="#000"/>
  <path opacity=".4" d="M154.2 6.2c-.3-1.2-1.4-1.6-2.7-.8l-33.3 19.2c-.9.5-1.6 1.3-2 2.2L108 22c.5-.9 1.2-1.6 2-2.1L143.4.7a6.4 6.4 0 015.7 0l2.4 1.3a6.3 6.3 0 012.7 4.2z" fill="#fff"/>
  <path d="M134 23a9 9 0 013.7-1.3 4.6 4.6 0 014.8 2.8c.5 1.2.8 2.5.7 3.9 0 1.2-.1 2.3-.4 3.5a20.6 20.6 0 01-2.4 6l-1.4 2.6-1.3 2.6c-.3.8-.6 1.7-.7 2.6l-.4 1.1c0 .4-.3.6-.6.8l-4 2.4a.5.5 0 01-.7 0 1.1 1.1 0 01-.3-.8c0-1.2.1-2.3.4-3.4a21.4 21.4 0 012.6-6 164 164 0 002.6-5c.3-.8.5-1.5.5-2.3 0-1-.3-1.7-.8-2-.5-.2-1.2 0-2.3.5-.9.5-1.6 1.2-2.2 2l-1 2a40.2 40.2 0 00-.8 2.6l-.5.5-4.1 2.4a.4.4 0 01-.5 0 1 1 0 01-.3-.7 25.1 25.1 0 015.5-13.5c1.2-1.3 2.5-2.5 4-3.4zm3 33.8c0 .4 0 .8-.2 1.2-.2.3-.4.6-.7.7l-4.3 2.5a.5.5 0 01-.6 0 1.1 1.1 0 01-.3-.8V55c0-.4.1-.8.3-1.1.1-.3.3-.6.6-.8l4.3-2.5a.5.5 0 01.7 0 1.1 1.1 0 01.2.9v5.2z" fill="#FAFAFA"/>
  <path d="M377.8 75.3l3.9-7.3-3.2-9v-5.6l9.6 5.5v5.6l-4.1 7-.3.3-6 3.5z" fill="#9BD100"/>
  <path opacity=".2" d="M377.8 75.3l3.9-7.3-3.2-9v-5.6l9.6 5.5v5.6l-4.1 7-.3.3-6 3.5z" fill="#000"/>
  <path d="M353 19.9a6.3 6.3 0 012.9-5l2.3-1.4a6.4 6.4 0 015.8 0L409.6 40a6.3 6.3 0 012.9 5v28a6.4 6.4 0 01-2.9 5l-2.3 1.3a6.4 6.4 0 01-5.8 0L382.1 68 378 75a.6.6 0 01-.6.3.6.6 0 01-.5-.4l-4.4-12.5-16.6-9.6a6.4 6.4 0 01-3-5l.1-28z" fill="#9BD100"/>
  <path opacity=".2" d="M412.5 72.9a6.4 6.4 0 01-2.9 5l-2.3 1.3a6.5 6.5 0 01-5.3.2c1.4.6 2.4-.2 2.4-1.9v-28c0-1-.3-2-.8-2.8l8-4.6c.5.8.8 1.8.9 2.8v28z" fill="#000"/>
  <path opacity=".4" d="M353 19c.4-1.2 1.5-1.6 2.9-.8l45.7 26.4c.8.5 1.5 1.2 2 2.1l8-4.6a5.7 5.7 0 00-2-2.2L364 13.5a6.4 6.4 0 00-5.8 0L356 15a6.4 6.4 0 00-2.8 4.1z" fill="#fff"/>
  <path d="M392.8 52.4a8.4 8.4 0 013.8 6.7c0 2.4-1.7 3.4-3.8 2.2a8.5 8.5 0 01-3.9-6.7c0-2.4 1.7-3.4 3.9-2.2zM378.6 44.2a8.5 8.5 0 013.9 6.7c0 2.4-1.8 3.4-3.9 2.2a8.5 8.5 0 01-3.8-6.7c0-2.4 1.7-3.4 3.8-2.2zM364.5 36a8.5 8.5 0 013.8 6.7c0 2.4-1.7 3.4-3.8 2.2a8.4 8.4 0 01-3.8-6.6c0-2.5 1.7-3.5 3.8-2.3z" fill="#fff"/>
</svg>
